<?xml version="1.0" standalone="no"?>
<!DOCTYPE svg PUBLIC "-//W3C//DTD SVG 1.1//EN" "http://www.w3.org/Graphics/SVG/1.1/DTD/svg11.dtd" >
<svg xmlns="http://www.w3.org/2000/svg">
<metadata></metadata>
<defs>
<font id="advertiserregular" horiz-adv-x="1703" >
<font-face units-per-em="2048" ascent="1638" descent="-410" />
<missing-glyph horiz-adv-x="630" />
<glyph horiz-adv-x="2048" />
<glyph horiz-adv-x="2048" />
<glyph unicode="&#xd;" horiz-adv-x="630" />
<glyph unicode=" "  horiz-adv-x="630" />
<glyph unicode="&#x09;" horiz-adv-x="630" />
<glyph unicode="&#xa0;" horiz-adv-x="630" />
<glyph unicode="!" horiz-adv-x="401" d="M70 1442q-6 82 28 82h176q33 0 29 -86l-61 -1080h-99zM98 33v137q0 31 29 31h152q28 0 28 -29v-131q0 -41 -26 -41h-154q-29 0 -29 33z" />
<glyph unicode="&#x22;" horiz-adv-x="602" d="M98 1184v340h140v-340h-140zM360 1184v340h140v-340h-140z" />
<glyph unicode="#" horiz-adv-x="1544" d="M98 348v209h346v412h-346v207h346v348h207v-348h246v348h209v-348h344v-207h-344v-412h344v-209h-344v-348h-209v348h-246v-348h-207v348h-346zM651 557h246v412h-246v-412z" />
<glyph unicode="$" horiz-adv-x="1331" d="M74 1122q0 164 159 273q135 94 349 125v82h139v-82q92 0 237 -25q186 -35 205 -82l-57 -139q-35 6 -172 47q-106 31 -176 31q-27 0 -43 -17v-442q209 -37 352 -127q195 -121 195 -303q0 -190 -148 -320q-156 -133 -401 -135v-108h-127v102q-143 6 -269 31 q-180 37 -225 102l64 139q55 -12 174 -69q94 -45 190 -45q51 0 66 10v541q-209 51 -303 102q-209 111 -209 309zM295 1145q0 -98 96 -164q81 -58 187 -68l4 447q-106 -14 -183 -60q-104 -61 -104 -155zM717 172q18 -4 45 -8q76 -2 174 65q121 82 115 199q4 76 -91.5 163 t-183.5 87q-35 0 -59 -19v-487z" />
<glyph unicode="%" horiz-adv-x="1527" d="M74 1176q0 143 110.5 245.5t264.5 102.5q150 0 249 -94.5t99 -241.5q0 -129 -80 -240q-104 -141 -295 -141q-141 0 -242 102q-106 106 -106 267zM182 0l1039 1524h122l-1032 -1524h-129zM221 1171q0 -106 61.5 -177.5t149.5 -71.5q92 0 153.5 76.5t61.5 189.5 q0 98 -49 158q-55 68 -162 67q-94 0 -154.5 -65.5t-60.5 -176.5zM737 358q0 119 90 224q111 125 287 123q150 -2 247 -93.5t97 -238.5q0 -133 -80 -242q-102 -141 -293 -141q-141 0 -241 102q-106 106 -107 266zM885 354q0 -104 62.5 -176t146.5 -72q96 0 157.5 75t61.5 188 q0 96 -49 157q-55 72 -162 72q-96 0 -156.5 -65.5t-60.5 -178.5z" />
<glyph unicode="&#x26;" horiz-adv-x="1392" d="M74 471q0 160 108 279q74 82 242 176q-12 25 -96 127q-51 61 -52 153q0 174 156 269q125 76 293 73q94 0 188 -20v-142q-55 14 -159 15q-131 0 -201 -59.5t-70 -149.5q0 -225 328 -225v-140q-246 -18 -344 -65q-168 -80 -168 -287q0 -154 89 -247t230 -93q178 0 265 119 q-25 96 -25 182q-2 176 113 307q123 137 303 134q41 0 53 -21v-115q-141 -23 -209 -92q-72 -76 -71 -221q0 -150 71 -225q59 -61 152 -64q28 0 73 8v-135q-16 -16 -86 -16q-66 0 -163 59.5t-138 59.5q-51 -37 -100 -74q-119 -70 -287 -70q-215 0 -355 142.5t-140 357.5z" />
<glyph unicode="'" horiz-adv-x="401" d="M98 1331v193h205v-172q0 -25 -39 -87.5t-82 -107.5h-67q-12 0 -13 23q63 113 66 151h-70z" />
<glyph unicode="(" horiz-adv-x="655" d="M147 324v946q0 180 126 321.5t276 139.5q27 0 57 -15v-110q-303 -51 -303 -316v-1026q0 -307 303 -344v-106q-4 -23 -57 -23q-176 0 -287 139q-115 147 -115 394z" />
<glyph unicode=")" horiz-adv-x="655" d="M49 -80q303 33 303 344v1026q0 264 -303 316v110q0 12 57 15q150 2 276 -138.5t126 -322.5v-946q0 -244 -111.5 -389.5t-290.5 -143.5q-29 0 -34 2q-18 4 -23 21v106z" />
<glyph unicode="*" horiz-adv-x="800" d="M43 1098v137h190l-135 135l97 96l135 -133v191h137v-193l137 135l96 -96l-135 -135h191v-137h-191l133 -135l-96 -97l-135 135v-190h-137v188l-133 -133l-97 97l133 135h-190z" />
<glyph unicode="+" horiz-adv-x="741" d="M74 643v137h225v228h137v-228h228v-137h-228v-225h-137v225h-225z" />
<glyph unicode="," horiz-adv-x="401" d="M98 0v190h205v-172q0 -23 -39 -85t-82 -109h-67q-12 0 -13 22q63 115 66 154h-70z" />
<glyph unicode="-" horiz-adv-x="542" d="M98 766v139h344v-139h-344z" />
<glyph unicode="." horiz-adv-x="434" d="M98 33v137q0 31 29 31h152q28 0 28 -29v-131q0 -41 -26 -41h-154q-29 0 -29 33z" />
<glyph unicode="/" horiz-adv-x="1265" d="M57 0l1041 1524h123l-1031 -1524h-133z" />
<glyph unicode="0" horiz-adv-x="1466" d="M74 737q2 346 180 570q186 233 491 233q276 0 462 -203t186 -514q0 -307 -150 -544q-186 -297 -532 -297q-324 0 -490 227q-150 201 -147 528zM295 745q0 -256 88 -417q109 -201 330 -201q219 0 346 215q110 189 108 459q-2 248 -86 403q-106 195 -323 195 q-236 0 -359 -207q-104 -178 -104 -447z" />
<glyph unicode="1" horiz-adv-x="598" d="M49 1208v101q31 37 148 86q111 47 163 129h111v-1524h-201v1208h-221z" />
<glyph unicode="2" horiz-adv-x="1277" d="M74 0q8 190 121.5 366.5t296.5 266.5q225 113 315 184q176 139 176 305q0 117 -82 189.5t-229 72.5q-352 0 -385 -389l-187 58q0 223 176 358q166 125 412 125q221 0 367 -111q151 -116 151 -311q0 -225 -223 -395q-92 -72 -358 -199q-100 -47 -206 -161.5t-100 -157.5 q0 -31 13 -35h860v-166h-1118z" />
<glyph unicode="3" horiz-adv-x="1327" d="M41 291l145 110q61 -119 170 -194q129 -92 287 -92q172 0 283.5 91t111.5 238q0 143 -86 193q-49 27 -191.5 40t-199.5 52v129q55 45 173 56.5t153 35.5q70 45 69 187q0 121 -92 186q-84 61 -217 59q-178 -2 -274 -98q-86 -86 -121 -260l-180 82q14 135 139 262 q170 170 448 168q199 -2 349 -92q172 -104 172 -285q0 -88 -102.5 -202.5t-102.5 -149.5q0 -25 74 -80q100 -76 135 -113q73 -77 73 -157q2 -227 -182 -361q-170 -123 -428 -121q-451 2 -606 316z" />
<glyph unicode="4" horiz-adv-x="1339" d="M82 426q0 197 51 506q63 369 158 592h201q0 -141 -102.5 -469t-102.5 -486q0 -70 20 -69h563q8 0 19.5 11t11.5 21v871l201 133v-1010q0 -27 41 -26h143v-168h-153q-39 0 -39 -37v-295h-193v303q0 8 -12 21.5t-19 13.5h-778q-10 10 -10 88z" />
<glyph unicode="5" horiz-adv-x="1308" d="M53 256q0 2 152 102q141 -139 180 -165q94 -63 236 -66q195 -4 303 121q100 111 100 282q0 150 -121 248.5t-289 98.5q-115 0 -213 -60q-133 -78 -184 -92l-119 37l119 762h954v-156h-786q-47 0 -74 -418q57 20 113 41q109 33 207 33q268 -2 439 -141.5t171 -364.5 q0 -242 -194 -393q-182 -141 -445 -141q-174 0 -317 63q-170 72 -232 209z" />
<glyph unicode="6" horiz-adv-x="1359" d="M74 700q0 371 207.5 605.5t554.5 234.5q264 0 288 -53v-139q-20 16 -98 32q-94 20 -199 21q-252 0 -399 -205q-141 -193 -141 -494q0 -272 116.5 -429.5t325.5 -157.5q170 0 266 110q94 104 95 275q0 150 -101 243q-96 88 -239 88q-139 0 -228 -36q-72 -29 -190 -123v164 q147 147 405 147q248 0 405.5 -129t157.5 -342q0 -186 -122 -338q-152 -193 -424 -192q-356 0 -529 211q-152 184 -151 507z" />
<glyph unicode="7" horiz-adv-x="1286" d="M74 991v533h1161q-88 -367 -266 -795q-203 -485 -400 -729h-237q190 272 373 645q176 365 282 694q0 2 -14 17h-635q-43 0 -78 -35t-35 -72v-258h-151z" />
<glyph unicode="8" horiz-adv-x="1386" d="M74 416q2 152 96 250q31 31 188 135q-123 123 -141 149q-59 82 -59 199q0 154 139 268q156 125 403 123q231 -2 379 -92q170 -102 170 -293q0 -201 -211 -340q162 -106 201 -147q80 -89 80 -236q0 -236 -215 -358q-178 -102 -432 -103q-262 0 -426 113q-174 121 -172 332 zM295 422q0 -150 131 -232q111 -68 274 -67q164 0 275 72q127 83 127 237q0 143 -139 225q-119 72 -273 72q-164 0 -270 -72q-125 -84 -125 -235zM362 1145q0 -119 113 -197q100 -70 227 -69q133 0 235.5 77.5t100.5 194.5q-4 246 -340 250q-150 2 -249 -92 q-86 -78 -87 -164z" />
<glyph unicode="9" horiz-adv-x="1392" d="M74 1024q0 205 168 358.5t397 153.5q311 0 504 -207q186 -201 186 -506q0 -369 -216 -608.5t-544 -239.5q-100 0 -204 19q-143 23 -187 67v160q125 -90 367 -90q287 0 434 219q127 190 127 494q0 262 -124 406.5t-335 144.5q-164 0 -265 -104.5t-101 -270.5 q0 -150 104 -240q98 -86 258 -86q137 0 236 51q82 41 184 144v-164q-25 -80 -156 -134t-286 -54q-219 0 -377 129q-170 137 -170 358z" />
<glyph unicode=":" horiz-adv-x="430" d="M96 827v138q0 31 27 30h153q27 1 27 -28v-131q0 -41 -24 -41h-156q-27 0 -27 32zM98 33v137q0 31 29 31h152q28 0 28 -29v-131q0 -41 -26 -41h-154q-29 0 -29 33z" />
<glyph unicode=";" horiz-adv-x="430" d="M96 827v138q0 31 27 30h153q27 1 27 -28v-131q0 -41 -24 -41h-156q-27 0 -27 32zM98 0v190h205v-172q0 -23 -39 -85t-82 -109h-67q-12 0 -13 22q63 115 66 154h-70z" />
<glyph unicode="&#x3c;" horiz-adv-x="788" d="M111 559v180q0 33 264 170q144 72 289 146v-172l-398 -234l398 -233v-170q-143 74 -287 149q-266 139 -266 164z" />
<glyph unicode="=" horiz-adv-x="987" d="M123 430v139h739v-139h-739zM123 766v139h739v-139h-739z" />
<glyph unicode="&#x3e;" horiz-adv-x="788" d="M129 246q143 74 287 149q266 139 266 164v180q0 33 -264 170q-144 72 -289 146v-172l397 -234l-397 -233v-170z" />
<glyph unicode="?" horiz-adv-x="843" d="M74 1376v140q45 20 80 24h106q233 0 363.5 -89t130.5 -259q0 -117 -52 -215q-47 -86 -167 -219q-76 -82 -107 -187q-23 -98 -47 -198h-100q-12 37 -13 71q0 131 130 371t130 356q0 109 -83 166.5t-212 57.5q-57 0 -159 -19zM225 33v137q0 31 29 31h152q28 0 28 -29v-131 q0 -41 -24 -41h-156q-29 0 -29 33z" />
<glyph unicode="@" horiz-adv-x="1589" d="M61 762q2 324 234.5 556t552.5 230q332 -2 504 -196q176 -201 176 -590q0 -383 -547 -385q-215 0 -328 41q-170 63 -170 229q0 109 111 183.5t268 74.5h129v-106q-29 2 -100 2q-274 0 -275 -158q0 -164 252 -164q94 0 115 10q37 20 37 107v90q0 27 2 75t2 79 q0 137 -45 189t-186 52q-102 0 -220 -41v101q23 12 43 22q55 16 177 17q197 0 277.5 -66.5t80.5 -220.5v-401q117 10 187.5 80.5t70.5 189.5q0 668 -561 668q-272 0 -470 -197t-198 -471t197.5 -471t470.5 -197q166 0 297 70l43 -111q-133 -74 -340 -78q-317 -4 -553 230.5 t-234 556.5z" />
<glyph unicode="A" horiz-adv-x="1445" d="M45 0q0 299 174 807q188 551 391 717h226q211 -168 395 -713q166 -498 166 -811h-230q0 78 -26 217q-33 180 -78 180h-662v-1q2 0 35 161h588q33 0 33 29q-119 342 -144 403q-137 342 -204 342q-49 0 -172 -299q-94 -223 -131 -348t-82 -355.5t-76 -328.5h-203z" />
<glyph unicode="B" horiz-adv-x="1400" d="M98 0v1524h717q182 0 330 -107q158 -115 158 -280q0 -98 -75 -198.5t-169 -123.5q143 -86 174 -117q98 -98 98 -268q0 -188 -160 -317q-141 -113 -290 -113h-783zM324 209q0 -53 49 -53h377q143 0 247.5 78.5t104.5 199.5q0 133 -123 230q-117 90 -266 90h-348v164h430 q113 0 190 57q88 61 88 172q0 94 -91 157.5t-202 63.5h-413q-43 0 -43 -45v-1114z" />
<glyph unicode="C" horiz-adv-x="1187" d="M70 774q0 358 239 574q218 196 540 196h3q104 0 181 -14t77 -37q0 -2 -16 -141q-119 30 -204 30h-5q-264 0 -426 -180q-154 -172 -156 -434v-6q0 -287 197 -463q174 -156 409 -156q37 0 106.5 10.5t86.5 10.5v-162q-41 -25 -201 -27h-12q-359 0 -588 228 q-231 225 -231 571z" />
<glyph unicode="D" horiz-adv-x="1476" d="M98 0v1524h475q313 0 551 -170q291 -209 291 -580q0 -317 -215 -545.5t-518 -228.5h-584zM324 182q0 -28 34 -28h2h226q270 0 432 180q156 172 158 440v6q0 252 -180 419q-182 169 -453 169h-191q-29 0 -28 -29v-1157z" />
<glyph unicode="E" horiz-adv-x="1179" d="M96 0v1524h955v-156h-717q-23 0 -23 -25v-1153q0 -23 23 -22h743v-168h-981zM377 844v155h725v-155h-725z" />
<glyph unicode="F" horiz-adv-x="1155" d="M98 0v1524h926v-168h-688q-29 0 -29 -33l4 -1323h-213zM365 827v168h733v-168h-733z" />
<glyph unicode="G" horiz-adv-x="1495" d="M340 1341q250 199 651 199q156 0 271 -29l-5 -155q-122 24 -255 24h-11q-336 0 -516 -172q-172 -164 -172 -446q0 -315 205 -481q181 -146 479 -146h4q145 0 193 33v631q0 49 -37 49h-268v160h520v-942q0 -72 -172 -89q-33 -2 -236 -2q-399 0 -641 175q-280 202 -280 588 t270 603z" />
<glyph unicode="H" horiz-adv-x="1415" d="M98 0v1524h209l4 -1499q0 -25 -32 -25h-181zM367 840v155h735v529h213v-1499q0 -25 -23 -25h-190v819q0 20 -25 21h-710z" />
<glyph unicode="I" horiz-adv-x="405" d="M98 0v1524h209v-1524h-209z" />
<glyph unicode="J" horiz-adv-x="827" d="M53 -2v166q27 -16 123 -17q342 0 342 422v955h211v-987q0 -254 -148.5 -410t-379.5 -156q-70 0 -99 11q-41 14 -49 16z" />
<glyph unicode="K" horiz-adv-x="1470" d="M98 0v1524h221v-570h9q100 0 385 197q305 211 407 373h252q-35 -117 -246 -312q-182 -170 -286 -221q266 -270 383 -442q188 -279 202 -549h-208q-176 578 -578 877q-27 -20 -155 -69.5t-160 -74.5v-733h-226z" />
<glyph unicode="L" horiz-adv-x="1003" d="M96 1524h215v-1315q0 -43 29 -43h610v-166h-852z" />
<glyph unicode="M" horiz-adv-x="1773" d="M98 0v1524h213q119 0 332 -353q125 -231 252 -462q446 815 563 815h209l2 -1524h-211v1241q-172 -172 -311 -481q-113 -274 -225 -547h-82q-152 401 -217 539q-154 313 -336 465v-1217h-189z" />
<glyph unicode="N" horiz-adv-x="1437" d="M98 0v1524h205q141 0 827 -742q0 -4 7.5 7.5t7.5 21.5v713h194v-1524h-194v354q0 90 -144 256q-49 57 -217 226q-197 197 -229 225q-74 68 -236 184h-28v-1245h-193z" />
<glyph unicode="O" d="M74 754q0 299 190 526q223 264 598 264q346 0 560 -207.5t216 -535.5v-6q0 -358 -223 -588q-225 -232 -575 -232q-348 0 -559 224q-207 217 -207 555zM307 766q0 -276 146 -449q152 -178 405 -178q254 0 406 178q147 173 147 449q0 272 -145 446q-152 180 -408 181 q-254 0 -402.5 -177.5t-148.5 -449.5z" />
<glyph unicode="P" horiz-adv-x="1400" d="M98 0v1524h566q276 0 471 -150q208 -162 208 -424q0 -307 -215 -469q-193 -143 -499 -143q-117 0 -133 2q-23 4 -115 41v156q201 -20 240 -21q497 0 497 430q0 217 -190 338q-143 92 -295 92h-283q-43 0 -43 -37v-1339h-209z" />
<glyph unicode="Q" horiz-adv-x="1712" d="M74 745q0 342 224 576.5t572 234.5t562 -212q213 -211 213 -539v-6q-2 -199 -68 -355q-47 -115 -131 -206q-49 -47 -98 -95q14 -20 102 -86q55 -41 111 -82l-158 -157q-55 68 -123 121q-91 71 -154 71h-2q-31 0 -148.5 -17.5t-148.5 -17.5h-17q-324 0 -531 224 q-205 219 -205 546zM311 772q0 -266 135 -438q147 -190 408 -191q276 0 430 215q127 179 127 412q0 262 -127 430q-145 193 -416 195h-5q-257 0 -410 -193q-141 -176 -142 -430z" />
<glyph unicode="R" horiz-adv-x="1470" d="M98 0v1524h686q233 0 419 -162t186 -350q0 -256 -177 -406q-154 -131 -413 -157q74 -82 272 -158q272 -102 297 -115v-188h-3q-100 0 -417 149q-385 182 -583 391v140q49 0 159.5 -29t171.5 -29q467 0 467 385q0 156 -145 271q-136 110 -300 110h-3h-365q-39 0 -39 -45 v-1331h-213z" />
<glyph unicode="S" horiz-adv-x="1105" d="M49 29v153q35 0 166 -21.5t170 -21.5h11q176 0 294 60q141 72 141 211q0 145 -200 252q-186 88 -373 176q-201 123 -201 305q0 162 152 272q172 125 477 125q115 0 313 -20v-181q-197 43 -313 43q-170 0 -278 -53q-125 -63 -125 -188q0 -135 198 -232q186 -80 371 -161 q201 -118 201 -306q0 -248 -207 -364q-170 -94 -457 -96h-20q-245 0 -320 47z" />
<glyph unicode="T" horiz-adv-x="1105" d="M49 1360v164h1004v-164h-355q-43 0 -43 -31v-1329h-213v1327q0 20 -8 26.5t-33 6.5h-352z" />
<glyph unicode="U" horiz-adv-x="1429" d="M98 573v951h213v-918q0 -197 101 -317q113 -135 317 -135q408 0 408 456v914h192v-967q0 -266 -165 -420.5t-447 -154.5q-307 0 -469 170q-150 158 -150 421z" />
<glyph unicode="V" horiz-adv-x="1331" d="M25 1524h208q82 -317 164 -633q117 -391 275 -580q242 242 430 1213h209q-6 -115 -103 -475q-109 -416 -225 -695q-147 -354 -258 -354h-115h-2q-44 0 -174 278q-133 284 -250 627q-131 387 -159 619z" />
<glyph unicode="W" horiz-adv-x="1943" d="M14 1524h207q27 -272 111 -602q100 -387 213 -568q90 61 194 430q66 238 109 478l94 -365q-16 -125 -139 -483q-143 -414 -217 -414h-99q-88 0 -206 360q-90 274 -183 699q-76 354 -84 465zM864 1524h221q0 -209 111 -590q96 -330 205 -572q47 20 179.5 486.5 t150.5 675.5h196q0 -100 -80 -467q-90 -416 -188 -699q-125 -358 -221 -358h-109q-125 0 -297 698q-125 502 -168 826z" />
<glyph unicode="X" horiz-adv-x="1355" d="M10 0q27 119 279 453q237 314 237 394q0 64 -213 322q-223 272 -243 355h229q88 -166 182 -307q158 -242 228 -242h2q28 1 159 187q136 194 220 358h200q-18 -109 -239 -369q-211 -252 -211 -315q440 -441 503 -836h-221q-20 125 -174 393q-172 301 -276 301 q-43 0 -217 -250q-190 -272 -230 -444h-215z" />
<glyph unicode="Y" horiz-adv-x="1316" d="M25 1524h219q53 -106 134 -322.5t134 -320.5q88 -170 213 -295q104 86 238 495q108 337 118 443h215q0 -272 -168 -643q-150 -330 -362 -590q-131 -162 -344 -248q-161 -68 -292 -68h-7q-70 0 -94 11v166h23q155 0 286 49q113 43 190 110q63 55 64 86q0 100 -258 525 q-274 455 -309 602z" />
<glyph unicode="Z" horiz-adv-x="1224" d="M72 0l2 123q260 264 458 549q250 365 322 659q0 12 -14.5 22.5t-24.5 10.5h-713v160h1041q-63 -340 -266 -711q-193 -350 -449 -620q16 -29 35 -29h686v-164h-1077z" />
<glyph unicode="[" horiz-adv-x="655" d="M147 324v946q0 180 126 321.5t276 139.5q27 0 57 -15v-110q-303 -51 -303 -316v-1026q0 -307 303 -344v-106q-4 -23 -57 -23q-176 0 -287 139q-115 147 -115 394z" />
<glyph unicode="\" horiz-adv-x="1265" d="M61 1524h123l1041 -1524h-131z" />
<glyph unicode="]" horiz-adv-x="655" d="M49 -80q303 33 303 344v1026q0 264 -303 316v110q0 12 57 15q150 2 276 -138.5t126 -322.5v-946q0 -244 -111.5 -389.5t-290.5 -143.5q-29 0 -34 2q-18 4 -23 21v106z" />
<glyph unicode="_" horiz-adv-x="987" d="M0 -158h983v-137h-983v137z" />
<glyph unicode="`" horiz-adv-x="491" d="M106 1468l119 68l168 -297l-119 -68z" />
<glyph unicode="a" horiz-adv-x="1200" d="M74 389q0 174 172 285q163 108 405 108h4h197q0 -127 2 -161q-129 6 -154 6q-162 0 -272 -47q-147 -63 -147 -199q0 -150 120 -209q90 -45 267 -45q160 0 200 35q35 31 37 153v131v240q0 209 -61 285q-74 90 -295 90q-137 0 -336 -66q8 14 8 33q0 12 -5 40t-5 42 q0 98 313 98h25q307 -4 430 -103t123 -337v-764q0 -29 -262 -29q-346 0 -504 56q-262 90 -262 358z" />
<glyph unicode="b" horiz-adv-x="1239" d="M98 352v1172h201v-1143q0 -121 60.5 -191.5t162.5 -70.5q182 0 303 144.5t121 352.5q0 444 -446 445q-35 0 -75 -5t-48 -5q-25 0 -29 26v125q63 14 174 17h13q282 0 458 -166q174 -164 174 -424q0 -289 -189.5 -473.5t-471.5 -184.5q-182 0 -295 103.5t-113 277.5z" />
<glyph unicode="c" horiz-adv-x="937" d="M74 602q0 215 135 391q174 225 491 226q109 0 140 -23v-137q-305 -2 -428 -117q-109 -102 -109 -330v-8q2 -469 471 -473q43 0 78 4l2 -147q0 -16 -141 -17q-285 0 -462 178.5t-177 452.5z" />
<glyph unicode="d" horiz-adv-x="1228" d="M74 606q0 268 211 453q195 168 440 168h209l-4 297h200v-1524h-405q-266 0 -458.5 177t-192.5 429zM307 627q0 -215 121 -342q134 -138 383 -138h4q25 0 62 2.5t45 2.5v921h-185q-170 0 -297 -129q-133 -133 -133 -317z" />
<glyph unicode="e" horiz-adv-x="972" d="M74 618q0 254 196 426q186 164 437 164h6q86 0 170 -20v-148q-18 0 -80 8.5t-78 8.5q-184 -6 -301 -115q-104 -100 -105 -233h461v-144h-469q0 -215 119 -325q109 -100 299 -101q139 1 166 17l2 -156q0 -23 -156 -25h-7q-323 0 -498 187q-162 172 -162 456z" />
<glyph unicode="f" horiz-adv-x="630" d="M49 1008v137h82q20 0 23.5 28.5t3.5 53.5q14 123 75 198q41 51 121 85t164 34q51 0 68 -16v-131q-227 0 -228 -189q0 -63 27 -63h211v-137h-215q-37 0 -37 -35v-973h-197v965q0 43 -24 43h-74z" />
<glyph unicode="g" horiz-adv-x="1110" d="M25 268q0 80 69 178q58 86 86 86h2l113 -79q-18 -29 -39 -58q-31 -47 -31 -84q0 -143 168 -143q74 0 225.5 32.5t225.5 32.5q109 0 172 -51t65 -137v-5q0 -107 -80 -155q-18 -10 -145 -51l-41 8q53 55 53 113q0 78 -110 78q-35 0 -197 -25.5t-196 -25.5h-7 q-111 0 -206 61q-127 80 -127 225zM119 836q0 144 121 255q122 113 266 117q43 8 43 66q0 100 90 164q84 59 201 59q86 0 98 -12v-105q-10 -20 -41 -22l10 1q0 1 -71 1q-41 0 -77 -49t-36 -86q0 -25 18 -25q133 -31 221.5 -131.5t88.5 -237.5q0 -199 -136 -305 q-123 -98 -317 -98q-209 0 -343 112q-136 113 -136 296zM332 827q0 -102 75.5 -180t178.5 -78q109 0 181.5 67.5t72.5 186.5q0 102 -74 173t-180 71q-98 0 -176 -72.5t-78 -167.5z" />
<glyph unicode="h" horiz-adv-x="1200" d="M98 0v1524h193v-1524h-193zM344 1038v133q49 43 209 43q569 0 569 -645q0 -133 -28 -293q-31 -176 -78 -276h-193q6 80 49 276q41 182 41 289q0 492 -391 492q-119 0 -178 -19z" />
<glyph unicode="i" horiz-adv-x="327" d="M70 1212h194q0 -47 -31.5 -98t-60.5 -51q-33 0 -67.5 57t-34.5 92zM82 0v991h166v-991h-166z" />
<glyph unicode="j" horiz-adv-x="616" d="M53 -41v139q23 -2 74 -6h3q194 0 194 268v832h192v-815q0 -434 -369 -434q-61 0 -94 16zM295 1464h235q0 -47 -30 -106q-37 -72 -80 -72q-39 0 -84 72q-41 65 -41 106z" />
<glyph unicode="k" horiz-adv-x="1171" d="M98 0v1524h193v-736h9q136 0 318 119q188 123 279 285h221q-61 -199 -403 -438q174 -160 282 -355q115 -211 117 -399h-201q0 125 -139 383q-154 281 -270 281q-109 -31 -213 -60v-604h-193z" />
<glyph unicode="l" horiz-adv-x="393" d="M98 0v1524h197v-1524h-197z" />
<glyph unicode="m" horiz-adv-x="1939" d="M98 0v1192h181v-1192h-181zM336 1167q23 14 97.5 29.5t139.5 15.5h6q277 0 412 -196q115 -167 115 -445v-10q-2 -133 -27 -293q-33 -211 -88 -268h-196q6 86 57 276q45 172 45 293q0 248 -111 375q-100 113 -268 113h-6q-53 0 -174 -25zM973 1118q154 88 352 88 q283 0 426 -194q125 -170 125 -451q0 -74 -31 -278q-41 -252 -82 -283h-194q6 80 53 276q43 174 43 293q0 481 -379 482q-39 0 -123 -19.5t-112 -32.5z" />
<glyph unicode="n" horiz-adv-x="1183" d="M98 0v1192h197v-1192h-197zM348 1030v141q104 41 225 41q285 0 424 -184q123 -164 123 -455q0 -135 -28 -294q-35 -205 -97 -279h-202q63 160 87.5 284t24.5 298q0 246 -82 356q-88 119 -297 119q-31 0 -178 -27z" />
<glyph unicode="o" horiz-adv-x="1343" d="M74 598q2 285 188 453q174 154 434 155h6q232 0 394 -145q182 -161 182 -440q0 -281 -171 -460t-439 -179q-266 0 -431 172q-163 170 -163 437v7zM295 604q0 -201 86 -325q100 -143 291 -144q193 0 301 164q88 135 88 299q0 209 -110.5 334t-278.5 127h-5 q-178 0 -280 -141q-92 -127 -92 -314z" />
<glyph unicode="p" horiz-adv-x="1218" d="M98 -109v1301h463q242 0 418 -150q182 -158 184 -387v-5q0 -267 -194 -419q-175 -137 -439 -137h-8q-119 0 -170 25q0 8 2 67v70q57 -14 168 -14h8q197 0 308 100q112 102 112 305q0 162 -127 281q-120 112 -271 112h-3h-203q-27 0 -35 -9t-8 -40v-1100h-205z" />
<glyph unicode="q" horiz-adv-x="1208" d="M74 639q0 231 188.5 399t454.5 168q115 0 147 -22v-146q-35 6 -135 13h-6q-203 0 -322 -125q-111 -117 -110 -299q0 -207 149 -312q126 -90 335 -90h9q45 0 86 4t43 4v959h197v-1303h-197v185h-270q-219 0 -385 145q-184 162 -184 420z" />
<glyph unicode="r" horiz-adv-x="962" d="M98 0v1192h197v-1192h-197zM348 1049v143q51 12 127 14h6q186 0 304 -115q120 -117 120 -303q0 -82 -6 -110q-8 -57 -43 -100h-184q28 87 28 196v8q0 274 -251 277q-18 0 -60.5 -5t-40.5 -5z" />
<glyph unicode="s" horiz-adv-x="933" d="M49 856q0 184 184 277q150 73 393 73h7q133 0 203 -18v-150q-125 18 -236 19q-340 0 -340 -180q0 -102 160 -172q150 -59 299 -121q160 -88 160 -240q0 -172 -148.5 -266t-419.5 -94q-209 0 -254 24v152q23 0 127.5 -14.5t130.5 -14.5q348 0 349 188q0 113 -160 185 q-147 59 -295 119q-160 86 -160 233z" />
<glyph unicode="t" horiz-adv-x="638" d="M49 1008v133h86q29 0 29 39v262h188v-258q0 -43 41 -43h160v-133h-152q-49 0 -49 -35v-678q0 -72 43 -120t97 -48q47 0 90 16v-118q-14 -47 -154 -50h-6q-120 0 -192 72q-74 74 -74 201v725q0 39 -29 39q-20 0 -78 -4z" />
<glyph unicode="u" horiz-adv-x="1183" d="M74 633q0 258 96 559h207q-96 -389 -96 -506q2 -293 93 -419t306 -128q47 0 160 25v-139q-37 -27 -45 -29q-43 -14 -156 -14q-565 0 -565 651zM891 0v1192h194v-1192h-194z" />
<glyph unicode="v" horiz-adv-x="1140" d="M29 1192h204q51 -295 197 -639q125 -298 157 -298q1 0 3 1h1q29 0 146 307q134 346 185 629h196q-61 -340 -184 -647q-74 -182 -170 -359q-102 -186 -137 -186h-90q-66 0 -183 227q-43 82 -145 318q-92 211 -180 647z" />
<glyph unicode="w" d="M29 1192h192q35 -176 119 -471q117 -410 172 -410q43 0 129 273q53 176 104 354l86 -283q0 -63 -120 -348q-35 -86 -72 -174q-61 -133 -102 -133h-84q-76 0 -269 565q-131 385 -155 627zM754 1192h198q35 -197 111 -481q109 -412 170 -412q1 -1 2 -1q23 0 123 298 q112 338 153 596h181q0 -207 -156 -635q-78 -217 -157 -387t-101 -170h-102q-23 0 -89 129q-82 160 -178 428q-115 317 -155 635z" />
<glyph unicode="x" horiz-adv-x="1116" d="M16 0q0 152 125 319q72 96 289 314q-217 225 -227 239q-135 162 -174 316h209q16 -63 151 -240q136 -179 184 -179q3 0 5 1q2 -1 5 -1q47 0 167 177q118 172 141 246h211q-45 -143 -168 -297q-115 -127 -229 -256q180 -152 290 -367q86 -167 86 -264v-8h-204 q-31 152 -154 334q-113 170 -162 170q-53 0 -171 -163t-189 -341h-185z" />
<glyph unicode="y" horiz-adv-x="1105" d="M25 -37v160q18 -12 98 -14h11q101 0 205 35q110 36 110 85q0 43 -127 224q-141 199 -158 241q-92 238 -135 498h200q37 -195 117 -418q39 -109 121 -248q92 -158 131 -157q55 0 131 170q49 111 86 235q76 258 76 418h186q-6 -457 -246 -819q-274 -418 -708 -418 q-74 0 -98 8z" />
<glyph unicode="z" horiz-adv-x="1077" d="M74 0v115q178 135 387 411q227 301 268 490q0 12 -14 22h-629v154h895q-2 -180 -199 -514q-178 -305 -381 -520h603v-158h-930z" />
<glyph unicode="|" horiz-adv-x="606" d="M197 0v1524h209v-1524h-209z" />
<glyph unicode="&#xa1;" horiz-adv-x="350" d="M70 -53l73 1087h99l61 -1079q4 -86 -29 -86h-176q-23 0 -28 78zM98 1221v139q0 33 29 33h154q26 0 26 -41v-133q0 -27 -28 -27h-152q-29 0 -29 29z" />
<glyph unicode="&#xa2;" horiz-adv-x="880" d="M57 705q0 225 148 409q135 170 295 199v90h123v-76l180 -4v-156h-185v-901h197v-155h-197v-111h-126v127q-201 43 -318 197.5t-117 380.5zM279 709q0 -285 213 -402v809q-100 -35 -162 -186q-51 -121 -51 -221z" />
<glyph unicode="&#xa3;" horiz-adv-x="1179" d="M70 127q229 186 229 381q0 72 -39 156h-190v133h120q-102 162 -102 305q-2 197 134 321.5t351 124.5q231 0 362.5 -137t131.5 -373h-182q-18 354 -312 355q-125 0 -209.5 -81t-82.5 -202q2 -78 30 -154q12 -29 78 -159h377v-133h-313q27 -84 26 -144q0 -106 -34.5 -181 t-125.5 -159q63 27 156 29q49 0 174 -33t170 -33q109 2 205 74l90 -143q-115 -102 -291 -103q-68 0 -218 47.5t-220 47.5q-98 0 -219 -91z" />
<glyph unicode="&#xa5;" horiz-adv-x="1316" d="M8 541v204h320q-66 119 -103 195h-217v207h127q-72 197 -110 377h219q20 -37 65 -185q53 -166 64 -192h608q41 127 59 192q33 121 41 185h215q0 -123 -79 -377h88v-207h-162q-45 -113 -86 -195h248v-204h-363q-78 -127 -176 -250q-129 -162 -344 -248q-166 -70 -299 -68 q-72 0 -94 11v166q166 -4 309 49q115 43 192 110q66 57 62 86q-31 37 -121 144h-463zM467 940q37 -72 119 -195h245q39 72 82 195h-446z" />
<glyph unicode="&#xa8;" horiz-adv-x="686" d="M57 1454q0 55 45 113.5t80 58.5q39 0 76 -55.5t37 -116.5q0 -49 -31 -108q-37 -68 -82 -68q-35 0 -80 59.5t-45 116.5zM393 1454q0 55 44 113.5t79 58.5t73 -57.5t38 -114.5q0 -51 -31 -108q-35 -68 -80 -68q-35 0 -79 59.5t-44 116.5z" />
<glyph unicode="&#xa9;" horiz-adv-x="1712" d="M61 762q2 324 234.5 556t552.5 230q326 -2 555 -231t231 -555q2 -317 -232.5 -552t-553.5 -235q-317 0 -553 234.5t-234 552.5zM180 762q0 -270 199 -469t469 -199t471 199t201 469t-201 469t-471 199t-469 -199t-199 -469zM463 768q0 195 129 311q121 109 299 109 q143 0 143 -25q0 -74 -28 -73q-6 0 -38 6t-59 6q-147 0 -233 -96.5t-86 -243.5q0 -158 108 -256q98 -88 224 -86q10 0 55 5t55 5v-86q-23 -16 -114 -16q-201 0 -328 123.5t-127 316.5z" />
<glyph unicode="&#xaa;" horiz-adv-x="724" d="M66 1085q0 102 94 170q84 61 190 62h125v-121h-98q-164 0 -164 -115q0 -121 193 -120q100 0 108 43q4 14 4 40v72q0 25 2 68v73q0 98 -33 136q-39 41 -143 41q-84 0 -201 -37q-2 18 -6 49t-4 41q0 39 40 52t167 13q178 0 253 -59.5t75 -200.5v-420q0 -37 -164 -36 q-223 0 -324 51q-115 59 -114 198zM74 616v138h590v-138h-590z" />
<glyph unicode="&#xab;" horiz-adv-x="1024" d="M106 479v201l343 340v-240l-197 -194l197 -193v-254zM520 479v201l344 340v-240l-196 -194l196 -193v-254z" />
<glyph unicode="&#xad;" horiz-adv-x="542" d="M98 766v139h344v-139h-344z" />
<glyph unicode="&#xae;" horiz-adv-x="1712" d="M61 762q2 324 234.5 556t552.5 230q326 -2 555 -231t231 -555q2 -317 -232.5 -552t-553.5 -235q-317 0 -553 234.5t-234 552.5zM180 762q0 -270 199 -469t469 -199t471 199t201 469t-201 469t-471 199t-469 -199t-199 -469zM522 373v839h379q129 0 229.5 -89t100.5 -193 q-2 -272 -322 -312q35 -41 146 -83q82 -31 164 -64v-104q-43 -6 -232 84q-217 104 -319 213v77q29 -8 55 -16q59 -16 129 -16q254 0 254 213q0 86 -76 147t-168 61h-203q-16 0 -16 -24v-733h-121z" />
<glyph unicode="&#xb1;" horiz-adv-x="741" d="M74 254v139h590v-139h-590zM74 766v139h225v225h137v-225h228v-139h-228v-225h-137v225h-225z" />
<glyph unicode="&#xb2;" horiz-adv-x="792" d="M57 672q8 117 73 226.5t169 158.5q262 121 262 252q0 125 -155 125q-176 0 -197 -217l-135 40q0 139 91 218t251 79q127 0 211 -67q92 -69 90 -184q-2 -123 -113 -216q-57 -47 -215 -126q-41 -20 -94 -70q-66 -57 -66 -90q-8 -2 -12 -2h496v-127h-656z" />
<glyph unicode="&#xb3;" horiz-adv-x="827" d="M45 856l115 86q84 -170 246 -170q86 0 142 44t56 118q0 76 -49 100q-27 14 -105.5 20.5t-109.5 26.5v95q31 20 95.5 24t84.5 17q37 25 37 100q0 113 -151 113q-164 0 -205 -199l-129 55q4 86 80 166q98 104 258 102q117 -2 208 -59q102 -63 99 -166q6 -74 -51 -137 q-31 -29 -62 -57q0 2 47 -25t76 -61q41 -50 35 -107q2 -133 -103.5 -208t-252.5 -75q-258 0 -361 197z" />
<glyph unicode="&#xb4;" horiz-adv-x="491" d="M102 1239l172 297l119 -68l-168 -297z" />
<glyph unicode="&#xb6;" horiz-adv-x="1140" d="M70 1102q0 188 141 305t367 117h487v-144h-53v-1708h-189v1708h-141v-1708h-190v1026q-195 -2 -306 103q-117 106 -116 301z" />
<glyph unicode="&#xb8;" horiz-adv-x="704" d="M98 -449l41 87q86 -31 176 -31q117 0 117 86t-113 86q-39 0 -86 -17l-43 43l138 195h104l-98 -143q41 10 82 10q86 0 141 -43t55 -119q0 -90 -77.5 -147.5t-200.5 -57.5q-115 0 -236 51z" />
<glyph unicode="&#xb9;" horiz-adv-x="421" d="M57 1313v82q35 10 70 22q55 23 111 103h90v-873h-146v666h-125z" />
<glyph unicode="&#xba;" horiz-adv-x="794" d="M45 1188q0 166 107 262q100 90 254 90q141 0 233 -78q106 -92 106 -258t-99 -269.5t-257 -103.5q-156 0 -250 98.5t-94 258.5zM74 616v138h663v-138h-663zM205 1192q0 -240 188 -240q94 0 150 82q47 70 47 154q0 106 -56.5 171.5t-140.5 65.5q-88 0 -138 -67.5 t-50 -165.5z" />
<glyph unicode="&#xbb;" horiz-adv-x="1024" d="M143 139v254l197 193l-197 194v240l344 -340v-201zM557 139v254l197 193l-197 194v240l344 -340v-201z" />
<glyph unicode="&#xbc;" horiz-adv-x="1724" d="M57 0l1286 1524h177l-1282 -1524h-181zM178 1313v82l66 20q61 27 110 105h92v-873h-143v666h-125zM946 244q-2 72 31 274q39 246 90 359h152q-121 -379 -121 -543q0 -14 -8 -23h309v490l149 96v-586h103v-129h-107q-2 0 -4 -2v-180h-145l6 184h-438q-16 29 -17 60z" />
<glyph unicode="&#xbd;" horiz-adv-x="1724" d="M57 0l1286 1524h177l-1282 -1524h-181zM102 1313v82q35 10 70 22q55 23 109 103h92v-873h-148v666h-123zM1020 -8q25 281 242 385q262 127 262 252t-156 125q-182 0 -197 -217l-135 41q0 139 90.5 219t249.5 80q127 0 215 -69.5t88 -182.5q0 -121 -110 -215 q-61 -51 -217 -129q-43 -23 -97 -68q-63 -55 -63 -90h483v-131h-655z" />
<glyph unicode="&#xbe;" horiz-adv-x="1863" d="M45 856l115 86q84 -170 246 -170q86 0 142 44t56 118q0 76 -49 100q-27 14 -105.5 20.5t-109.5 26.5v95q31 20 95.5 24t84.5 17q37 25 37 100q0 113 -151 113q-164 0 -205 -199l-129 55q4 86 80 166q98 104 258 102q117 -2 208 -59q102 -63 99 -166q6 -74 -51 -137 q-31 -29 -62 -57q0 2 47 -25t76 -61q41 -50 35 -107q2 -133 -103.5 -208t-252.5 -75q-258 0 -361 197zM158 0l1284 1524h176l-1280 -1524h-180zM1133 244q0 330 124 633h150q-121 -367 -121 -543q0 -6 -8 -23h307v490l150 96v-590q0 2 2 4h100v-129h-104l-2 -2v-180h-150 l8 184h-440q-16 29 -16 60z" />
<glyph unicode="&#xbf;" horiz-adv-x="780" d="M53 -4q0 121 53 219q43 78 168 217q104 117 136 234q10 74 20 149h98q12 -31 13 -70q0 -129 -130 -369.5t-130 -359.5q0 -109 86 -166q80 -55 211 -55q42 1 159 19v-138q-53 -27 -188 -26q-233 0 -364.5 89t-131.5 257zM377 1016v133q0 39 24 39h156q25 0 25 -31v-137 q0 -29 -25 -29h-156q-25 0 -24 25z" />
<glyph unicode="&#xc0;" horiz-adv-x="1445" d="M45 0q0 299 174 807q188 551 391 717h226q211 -168 395 -713q166 -498 166 -811h-230q0 78 -26 217q-33 180 -78 180h-662q0 -14 35 160h588q33 0 33 29q-119 342 -144 403q-137 342 -204 342q-49 0 -172 -299q-94 -223 -131 -348t-82 -355.5t-76 -328.5h-203zM491 1902 l119 68l168 -297l-119 -68z" />
<glyph unicode="&#xc1;" horiz-adv-x="1445" d="M45 0q0 299 174 807q188 551 391 717h226q211 -168 395 -713q166 -498 166 -811h-230q0 78 -26 217q-33 180 -78 180h-662q0 -14 35 160h588q33 0 33 29q-119 342 -144 403q-137 342 -204 342q-49 0 -172 -299q-94 -223 -131 -348t-82 -355.5t-76 -328.5h-203zM694 1704 l172 297l119 -68l-168 -297z" />
<glyph unicode="&#xc2;" horiz-adv-x="1445" d="M45 0q0 299 174 807q188 551 391 717h226q211 -168 395 -713q166 -498 166 -811h-230q0 78 -26 217q-33 180 -78 180h-662q0 -14 35 160h588q33 0 33 29q-119 342 -144 403q-137 342 -204 342q-49 0 -172 -299q-94 -223 -131 -348t-82 -355.5t-76 -328.5h-203zM404 1642 q53 82 108 164q98 143 123 143h181q33 0 129 -141q51 -82 104 -166h-172l-152 152l-151 -152h-170z" />
<glyph unicode="&#xc3;" horiz-adv-x="1445" d="M45 0q0 299 174 807q188 551 391 717h226q211 -168 395 -713q166 -498 166 -811h-230q0 78 -26 217q-33 180 -78 180h-662q0 -14 35 160h588q33 0 33 29q-119 342 -144 403q-137 342 -204 342q-49 0 -172 -299q-94 -223 -131 -348t-82 -355.5t-76 -328.5h-203zM372 1655 q31 115 80 156.5t144 41.5q45 0 126.5 -35.5t127.5 -35.5q42 -1 81 69h129q-25 -113 -73.5 -154.5t-143.5 -41.5q-41 0 -126 36.5t-126 36.5q-49 0 -83 -73h-136z" />
<glyph unicode="&#xc4;" horiz-adv-x="1445" d="M45 0q0 299 174 807q188 551 391 717h226q211 -168 395 -713q166 -498 166 -811h-230q0 78 -26 217q-33 180 -78 180h-662q0 -14 35 160h588q33 0 33 29q-119 342 -144 403q-137 342 -204 342q-49 0 -172 -299q-94 -223 -131 -348t-82 -355.5t-76 -328.5h-203zM440 1792 q0 55 45 113.5t80 58.5q39 0 76 -55.5t37 -116.5q0 -49 -31 -108q-37 -68 -82 -68q-35 0 -80 59.5t-45 116.5zM776 1792q0 55 44 113.5t79 58.5t73 -57.5t38 -114.5q0 -51 -31 -108q-35 -68 -80 -68q-35 0 -79 59.5t-44 116.5z" />
<glyph unicode="&#xc5;" horiz-adv-x="1445" d="M45 0q0 299 174 807q188 551 391 717h226q211 -168 395 -713q166 -498 166 -811h-230q0 78 -26 217q-33 180 -78 180h-662q0 -14 35 160h588q33 0 33 29q-119 342 -144 403q-137 342 -204 342q-49 0 -172 -299q-94 -223 -131 -348t-82 -355.5t-76 -328.5h-203zM544 1804 q0 78 54.5 133.5t134.5 55.5q76 0 132 -55.5t56 -133.5q0 -76 -55 -131t-133 -55t-133.5 55t-55.5 131zM628 1802q0 -41 31 -71.5t74 -30.5t72.5 29.5t29.5 72.5q0 45 -29.5 75t-72.5 30t-74 -31t-31 -74z" />
<glyph unicode="&#xc6;" horiz-adv-x="1820" d="M45 0q0 299 174 807q188 551 391 717h1057v-156h-706q80 -141 172 -369h587v-155h-528q139 -395 188 -676h287v-168h-500q0 78 -26 217q-33 180 -78 180h-662q0 -14 35 160h588q33 0 33 29q-119 342 -144 403q-137 342 -204 342q-49 0 -172 -299q-94 -223 -131 -348 q-31 -102 -74 -360q-35 -215 -84 -324h-203z" />
<glyph unicode="&#xc7;" horiz-adv-x="1187" d="M70 774q0 358 239 574q219 197 543 196q104 0 181 -14t77 -37q0 -2 -16 -141q-123 31 -209 30q-264 0 -426 -180q-154 -172 -156 -434q-2 -291 197 -469q174 -156 409 -156q37 0 106.5 10.5t86.5 10.5v-162q-41 -25 -201 -27q-367 -4 -600 228q-231 225 -231 571z M618 -455l41 87q86 -31 176 -31q117 0 117 86t-113 86q-39 0 -86 -17l-43 43l138 195h104l-98 -143q41 10 82 10q86 0 141 -43t55 -119q0 -90 -77.5 -147.5t-200.5 -57.5q-115 0 -236 51z" />
<glyph unicode="&#xc8;" horiz-adv-x="1179" d="M96 0v1524h955v-156h-717q-23 0 -23 -25v-1153q0 -23 23 -22h743v-168h-981zM370 1935l119 68l168 -297l-119 -68zM377 844v155h725v-155h-725z" />
<glyph unicode="&#xc9;" horiz-adv-x="1179" d="M96 0v1524h955v-156h-717q-23 0 -23 -25v-1153q0 -23 23 -22h743v-168h-981zM377 844v155h725v-155h-725zM540 1708l172 297l119 -68l-168 -297z" />
<glyph unicode="&#xca;" horiz-adv-x="1179" d="M96 0v1524h955v-156h-717q-23 0 -23 -25v-1153q0 -23 23 -22h743v-168h-981zM283 1649q53 82 108 164q98 143 123 143h181q33 0 129 -141q51 -82 104 -166h-172l-152 152l-151 -152h-170zM377 844v155h725v-155h-725z" />
<glyph unicode="&#xcb;" horiz-adv-x="1179" d="M96 0v1524h955v-156h-717q-23 0 -23 -25v-1153q0 -23 23 -22h743v-168h-981zM321 1843q0 55 45 113.5t80 58.5q39 0 76 -55.5t37 -116.5q0 -49 -31 -108q-37 -68 -82 -68q-35 0 -80 59.5t-45 116.5zM377 844v155h725v-155h-725zM657 1843q0 55 44 113.5t79 58.5t73 -57.5 t38 -114.5q0 -51 -31 -108q-35 -68 -80 -68q-35 0 -79 59.5t-44 116.5z" />
<glyph unicode="&#xcc;" horiz-adv-x="405" d="M-15 1919l119 68l168 -297l-119 -68zM98 0v1524h209v-1524h-209z" />
<glyph unicode="&#xcd;" horiz-adv-x="405" d="M98 0v1524h209v-1524h-209zM147 1694l172 297l119 -68l-168 -297z" />
<glyph unicode="&#xce;" horiz-adv-x="405" d="M-115 1587q53 82 108 164q98 143 123 143h181q33 0 129 -141q51 -82 104 -166h-172l-152 152l-151 -152h-170zM98 0v1524h209v-1524h-209z" />
<glyph unicode="&#xcf;" horiz-adv-x="405" d="M-99 1814q0 55 45 113.5t80 58.5q39 0 76 -55.5t37 -116.5q0 -49 -31 -108q-37 -68 -82 -68q-35 0 -80 59.5t-45 116.5zM98 0v1524h209v-1524h-209zM237 1814q0 55 44 113.5t79 58.5t73 -57.5t38 -114.5q0 -51 -31 -108q-35 -68 -80 -68q-35 0 -79 59.5t-44 116.5z" />
<glyph unicode="&#xd1;" horiz-adv-x="1437" d="M98 0v1524h205q141 0 827 -742q0 -4 7.5 7.5t7.5 21.5v713h194v-1524h-194v354q0 90 -144 256q-49 57 -217 226q-197 197 -229 225q-74 68 -236 184h-28v-1245h-193zM342 1672q31 115 80 156.5t144 41.5q45 0 126.5 -35.5t127.5 -35.5q42 -1 81 69h129 q-25 -113 -73.5 -154.5t-143.5 -41.5q-41 0 -126 36.5t-126 36.5q-49 0 -83 -73h-136z" />
<glyph unicode="&#xd2;" d="M74 754q0 299 190 526q223 264 598 264q346 0 560 -207.5t216 -535.5q2 -362 -223 -594t-575 -232q-348 0 -559 224q-207 217 -207 555zM307 766q0 -276 146 -449q152 -178 405 -178q254 0 406 178q147 173 147 449q0 272 -145 446q-152 180 -408 181 q-254 0 -402.5 -177.5t-148.5 -449.5zM628 1941l119 68l168 -297l-119 -68z" />
<glyph unicode="&#xd3;" d="M74 754q0 299 190 526q223 264 598 264q346 0 560 -207.5t216 -535.5q2 -362 -223 -594t-575 -232q-348 0 -559 224q-207 217 -207 555zM307 766q0 -276 146 -449q152 -178 405 -178q254 0 406 178q147 173 147 449q0 272 -145 446q-152 180 -408 181 q-254 0 -402.5 -177.5t-148.5 -449.5zM780 1698l172 297l119 -68l-168 -297z" />
<glyph unicode="&#xd4;" d="M74 754q0 299 190 526q223 264 598 264q346 0 560 -207.5t216 -535.5q2 -362 -223 -594t-575 -232q-348 0 -559 224q-207 217 -207 555zM307 766q0 -276 146 -449q152 -178 405 -178q254 0 406 178q147 173 147 449q0 272 -145 446q-152 180 -408 181 q-254 0 -402.5 -177.5t-148.5 -449.5zM533 1628q53 82 108 164q98 143 123 143h181q33 0 129 -141q51 -82 104 -166h-172l-152 152l-151 -152h-170z" />
<glyph unicode="&#xd5;" d="M74 754q0 299 190 526q223 264 598 264q346 0 560 -207.5t216 -535.5q2 -362 -223 -594t-575 -232q-348 0 -559 224q-207 217 -207 555zM307 766q0 -276 146 -449q152 -178 405 -178q254 0 406 178q147 173 147 449q0 272 -145 446q-152 180 -408 181 q-254 0 -402.5 -177.5t-148.5 -449.5zM471 1657q31 115 80 156.5t144 41.5q45 0 126.5 -35.5t127.5 -35.5q42 -1 81 69h129q-25 -113 -73.5 -154.5t-143.5 -41.5q-41 0 -126 36.5t-126 36.5q-49 0 -83 -73h-136z" />
<glyph unicode="&#xd6;" d="M74 754q0 299 190 526q223 264 598 264q346 0 560 -207.5t216 -535.5q2 -362 -223 -594t-575 -232q-348 0 -559 224q-207 217 -207 555zM307 766q0 -276 146 -449q152 -178 405 -178q254 0 406 178q147 173 147 449q0 272 -145 446q-152 180 -408 181 q-254 0 -402.5 -177.5t-148.5 -449.5zM553 1800q0 55 45 113.5t80 58.5q39 0 76 -55.5t37 -116.5q0 -49 -31 -108q-37 -68 -82 -68q-35 0 -80 59.5t-45 116.5zM889 1800q0 55 44 113.5t79 58.5t73 -57.5t38 -114.5q0 -51 -31 -108q-35 -68 -80 -68q-35 0 -79 59.5t-44 116.5 z" />
<glyph unicode="&#xd8;" d="M74 754q0 299 190 526q223 264 598 264q252 0 447 -114l80 94h208l-163 -195q202 -194 204 -528q4 -365 -222 -595.5t-576 -230.5q-252 0 -434 117l-74 -92h-209l158 190q-207 223 -207 564zM307 766q0 -244 113 -408l768 928q-137 106 -330 107q-254 0 -403.5 -177.5 t-147.5 -449.5zM530 242q135 -102 328 -103q254 0 406 178q149 173 147 449q0 233 -111 401z" />
<glyph unicode="&#xd9;" horiz-adv-x="1429" d="M98 573v951h213v-918q0 -197 101 -317q113 -135 317 -135q408 0 408 456v914h192v-967q0 -266 -165 -420.5t-447 -154.5q-307 0 -469 170q-150 158 -150 421zM526 1941l119 68l168 -297l-119 -68z" />
<glyph unicode="&#xda;" horiz-adv-x="1429" d="M98 573v951h213v-918q0 -197 101 -317q113 -135 317 -135q408 0 408 456v914h192v-967q0 -266 -165 -420.5t-447 -154.5q-307 0 -469 170q-150 158 -150 421zM667 1694l172 297l119 -68l-168 -297z" />
<glyph unicode="&#xdb;" horiz-adv-x="1429" d="M98 573v951h213v-918q0 -197 101 -317q113 -135 317 -135q408 0 408 456v914h192v-967q0 -266 -165 -420.5t-447 -154.5q-307 0 -469 170q-150 158 -150 421zM385 1671q53 82 108 164q98 143 123 143h181q33 0 129 -141q51 -82 104 -166h-172l-152 152l-151 -152h-170z " />
<glyph unicode="&#xdc;" horiz-adv-x="1429" d="M98 573v951h213v-918q0 -197 101 -317q113 -135 317 -135q408 0 408 456v914h192v-967q0 -266 -165 -420.5t-447 -154.5q-307 0 -469 170q-150 158 -150 421zM409 1845q0 55 45 113.5t80 58.5q39 0 76 -55.5t37 -116.5q0 -49 -31 -108q-37 -68 -82 -68q-35 0 -80 59.5 t-45 116.5zM745 1845q0 55 44 113.5t79 58.5t73 -57.5t38 -114.5q0 -51 -31 -108q-35 -68 -80 -68q-35 0 -79 59.5t-44 116.5z" />
<glyph unicode="&#xdd;" horiz-adv-x="1316" d="M25 1524h219q53 -106 134 -322.5t134 -320.5q88 -170 213 -295q104 86 238 495q108 337 118 443h215q0 -272 -168 -643q-150 -330 -362 -590q-131 -162 -344 -248q-166 -70 -299 -68q-70 0 -94 11v166q168 -4 309 49q113 43 190 110q63 55 64 86q0 100 -258 525 q-274 455 -309 602zM657 1708l172 297l119 -68l-168 -297z" />
<glyph unicode="&#xdf;" horiz-adv-x="1355" d="M-18 -248l342 1772h469q180 0 329 -109q158 -117 156 -278q-2 -98 -77 -198.5t-167 -123.5q43 -55 127 -113q78 -53 103 -90q43 -63 45 -182q2 -182 -164 -313q-143 -117 -289 -117h-516l27 156h358q145 0 248.5 77.5t103.5 200.5q0 129 -120.5 224.5t-268.5 95.5h-49 l33 164h98q115 0 196 60t81 169q0 94 -91.5 157.5t-201.5 63.5h-193q-41 0 -49 -45l-303 -1571h-227z" />
<glyph unicode="&#xe0;" horiz-adv-x="1200" d="M74 389q0 174 172 285q164 109 409 108h197q0 -127 2 -161q-129 6 -154 6q-162 0 -272 -47q-147 -63 -147 -199q0 -150 120 -209q90 -45 267 -45q160 0 200 35q35 31 37 153v131v240q0 209 -61 285q-74 90 -295 90q-137 0 -336 -66q8 14 8 33q0 12 -5 40t-5 42 q0 102 338 98q307 -4 430 -103t123 -337v-764q0 -29 -262 -29q-346 0 -504 56q-262 90 -262 358zM370 1595l119 68l168 -297l-119 -68z" />
<glyph unicode="&#xe1;" horiz-adv-x="1200" d="M74 389q0 174 172 285q164 109 409 108h197q0 -127 2 -161q-129 6 -154 6q-162 0 -272 -47q-147 -63 -147 -199q0 -150 120 -209q90 -45 267 -45q160 0 200 35q35 31 37 153v131v240q0 209 -61 285q-74 90 -295 90q-137 0 -336 -66q8 14 8 33q0 12 -5 40t-5 42 q0 102 338 98q307 -4 430 -103t123 -337v-764q0 -29 -262 -29q-346 0 -504 56q-262 90 -262 358zM505 1364l172 297l119 -68l-168 -297z" />
<glyph unicode="&#xe2;" horiz-adv-x="1200" d="M74 389q0 174 172 285q164 109 409 108h197q0 -127 2 -161q-129 6 -154 6q-162 0 -272 -47q-147 -63 -147 -199q0 -150 120 -209q90 -45 267 -45q160 0 200 35q35 31 37 153v131v240q0 209 -61 285q-74 90 -295 90q-137 0 -336 -66q8 14 8 33q0 12 -5 40t-5 42 q0 102 338 98q307 -4 430 -103t123 -337v-764q0 -29 -262 -29q-346 0 -504 56q-262 90 -262 358zM275 1343q53 82 108 164q98 143 123 143h181q33 0 129 -141q51 -82 104 -166h-172l-152 152l-151 -152h-170z" />
<glyph unicode="&#xe3;" horiz-adv-x="1200" d="M74 389q0 174 172 285q164 109 409 108h197q0 -127 2 -161q-129 6 -154 6q-162 0 -272 -47q-147 -63 -147 -199q0 -150 120 -209q90 -45 267 -45q160 0 200 35q35 31 37 153v131v240q0 209 -61 285q-74 90 -295 90q-137 0 -336 -66q8 14 8 33q0 12 -5 40t-5 42 q0 102 338 98q307 -4 430 -103t123 -337v-764q0 -29 -262 -29q-346 0 -504 56q-262 90 -262 358zM235 1323q31 115 80 156.5t144 41.5q45 0 126.5 -35.5t127.5 -35.5q42 -1 81 69h129q-25 -113 -73.5 -154.5t-143.5 -41.5q-41 0 -126 36.5t-126 36.5q-49 0 -83 -73h-136z " />
<glyph unicode="&#xe4;" horiz-adv-x="1200" d="M74 389q0 174 172 285q164 109 409 108h197q0 -127 2 -161q-129 6 -154 6q-162 0 -272 -47q-147 -63 -147 -199q0 -150 120 -209q90 -45 267 -45q160 0 200 35q35 31 37 153v131v240q0 209 -61 285q-74 90 -295 90q-137 0 -336 -66q8 14 8 33q0 12 -5 40t-5 42 q0 102 338 98q307 -4 430 -103t123 -337v-764q0 -29 -262 -29q-346 0 -504 56q-262 90 -262 358zM274 1487q0 55 45 113.5t80 58.5q39 0 76 -55.5t37 -116.5q0 -49 -31 -108q-37 -68 -82 -68q-35 0 -80 59.5t-45 116.5zM610 1487q0 55 44 113.5t79 58.5t73 -57.5t38 -114.5 q0 -51 -31 -108q-35 -68 -80 -68q-35 0 -79 59.5t-44 116.5z" />
<glyph unicode="&#xe5;" horiz-adv-x="1200" d="M74 389q0 174 172 285q164 109 409 108h197q0 -127 2 -161q-129 6 -154 6q-162 0 -272 -47q-147 -63 -147 -199q0 -150 120 -209q90 -45 267 -45q160 0 200 35q35 31 37 153v131v240q0 209 -61 285q-74 90 -295 90q-137 0 -336 -66q8 14 8 33q0 12 -5 40t-5 42 q0 102 338 98q307 -4 430 -103t123 -337v-764q0 -29 -262 -29q-346 0 -504 56q-262 90 -262 358zM430 1493q0 78 54.5 133.5t134.5 55.5q76 0 132 -55.5t56 -133.5q0 -76 -55 -131t-133 -55t-133.5 55t-55.5 131zM514 1491q0 -41 31 -71.5t74 -30.5t72.5 29.5t29.5 72.5 q0 45 -29.5 75t-72.5 30t-74 -31t-31 -74z" />
<glyph unicode="&#xe6;" horiz-adv-x="1761" d="M49 389q0 174 170 287q166 106 410 106h198v-161q-123 6 -151 6q-164 0 -273 -47q-147 -63 -147 -199q0 -150 121 -209q90 -45 266 -45q160 0 201 35q35 31 37 153v324q0 225 -64 313q-76 109 -291 109q-129 0 -336 -66q0 12 -2 77t-2 75q33 18 66 35q80 27 270 26 q408 0 512 -200q190 201 486 200q80 0 172 -20v-148q-18 0 -81 8.5t-79 8.5q-182 -6 -299 -117q-106 -100 -109 -231h461v-144h-467q-2 -219 127 -329q111 -98 291 -97q139 1 168 17v-156q0 -25 -156 -25q-295 0 -471 152v-123q0 -29 -262 -29q-346 0 -504 56 q-262 90 -262 358z" />
<glyph unicode="&#xe7;" horiz-adv-x="937" d="M74 602q0 215 135 391q174 225 491 226q109 0 140 -23v-137q-305 -2 -428 -117q-111 -104 -109 -338q2 -469 471 -473q43 0 78 4l2 -147q0 -16 -141 -17q-285 0 -462 178.5t-177 452.5zM446 -455l41 87q86 -31 176 -31q117 0 117 86t-113 86q-39 0 -86 -17l-43 43 l138 195h104l-98 -143q41 10 82 10q86 0 141 -43t55 -119q0 -90 -77.5 -147.5t-200.5 -57.5q-115 0 -236 51z" />
<glyph unicode="&#xe8;" horiz-adv-x="972" d="M74 618q0 254 196 426q188 166 443 164q86 0 170 -20v-148q-18 0 -80 8.5t-78 8.5q-184 -6 -301 -115q-104 -100 -105 -233h461v-144h-469q0 -215 119 -325q109 -100 299 -101q139 1 166 17l2 -156q0 -23 -156 -25q-328 -2 -505 187q-162 172 -162 456zM485 1577l119 68 l168 -297l-119 -68z" />
<glyph unicode="&#xe9;" horiz-adv-x="972" d="M74 618q0 254 196 426q188 166 443 164q86 0 170 -20v-148q-18 0 -80 8.5t-78 8.5q-184 -6 -301 -115q-104 -100 -105 -233h461v-144h-469q0 -215 119 -325q109 -100 299 -101q139 1 166 17l2 -156q0 -23 -156 -25q-328 -2 -505 187q-162 172 -162 456zM596 1343l172 297 l119 -68l-168 -297z" />
<glyph unicode="&#xea;" horiz-adv-x="972" d="M74 618q0 254 196 426q188 166 443 164q86 0 170 -20v-148q-18 0 -80 8.5t-78 8.5q-184 -6 -301 -115q-104 -100 -105 -233h461v-144h-469q0 -215 119 -325q109 -100 299 -101q139 1 166 17l2 -156q0 -23 -156 -25q-328 -2 -505 187q-162 172 -162 456zM332 1286 q53 82 108 164q98 143 123 143h181q33 0 129 -141q51 -82 104 -166h-172l-152 152l-151 -152h-170z" />
<glyph unicode="&#xeb;" horiz-adv-x="972" d="M74 618q0 254 196 426q188 166 443 164q86 0 170 -20v-148q-18 0 -80 8.5t-78 8.5q-184 -6 -301 -115q-104 -100 -105 -233h461v-144h-469q0 -215 119 -325q109 -100 299 -101q139 1 166 17l2 -156q0 -23 -156 -25q-328 -2 -505 187q-162 172 -162 456zM370 1485 q0 55 45 113.5t80 58.5q39 0 76 -55.5t37 -116.5q0 -49 -31 -108q-37 -68 -82 -68q-35 0 -80 59.5t-45 116.5zM706 1485q0 55 44 113.5t79 58.5t73 -57.5t38 -114.5q0 -51 -31 -108q-35 -68 -80 -68q-35 0 -79 59.5t-44 116.5z" />
<glyph unicode="&#xec;" horiz-adv-x="393" d="M-27 1605l119 68l168 -297l-119 -68zM98 0v1192h197v-1192h-197z" />
<glyph unicode="&#xed;" horiz-adv-x="393" d="M98 0v1192h197v-1192h-197zM149 1405l172 297l119 -68l-168 -297z" />
<glyph unicode="&#xee;" horiz-adv-x="393" d="M-123 1298q53 82 108 164q98 143 123 143h181q33 0 129 -141q51 -82 104 -166h-172l-152 152l-151 -152h-170zM98 0v1192h197v-1192h-197z" />
<glyph unicode="&#xef;" horiz-adv-x="393" d="M-86 1495q0 55 45 113.5t80 58.5q39 0 76 -55.5t37 -116.5q0 -49 -31 -108q-37 -68 -82 -68q-35 0 -80 59.5t-45 116.5zM98 0v1192h197v-1192h-197zM250 1495q0 55 44 113.5t79 58.5t73 -57.5t38 -114.5q0 -51 -31 -108q-35 -68 -80 -68q-35 0 -79 59.5t-44 116.5z" />
<glyph unicode="&#xf1;" horiz-adv-x="1183" d="M98 0v1192h197v-1192h-197zM194 1344q31 115 80 156.5t144 41.5q45 0 126.5 -35.5t127.5 -35.5q42 -1 81 69h129q-25 -113 -73.5 -154.5t-143.5 -41.5q-41 0 -126 36.5t-126 36.5q-49 0 -83 -73h-136zM348 1030v141q104 41 225 41q285 0 424 -184q123 -164 123 -455 q0 -135 -28 -294q-35 -205 -97 -279h-202q63 160 87.5 284t24.5 298q0 246 -82 356q-88 119 -297 119q-31 0 -178 -27z" />
<glyph unicode="&#xf2;" horiz-adv-x="1343" d="M74 598q2 285 188 453q174 154 434 155q236 2 400 -145q182 -161 182 -440q0 -281 -171 -460t-439 -179q-266 0 -431 172t-163 444zM295 604q0 -201 86 -325q100 -143 291 -144q193 0 301 164q88 135 88 299q0 209 -110.5 334t-278.5 127q-182 2 -285 -141 q-92 -127 -92 -314zM466 1583l119 68l168 -297l-119 -68z" />
<glyph unicode="&#xf3;" horiz-adv-x="1343" d="M74 598q2 285 188 453q174 154 434 155q236 2 400 -145q182 -161 182 -440q0 -281 -171 -460t-439 -179q-266 0 -431 172t-163 444zM295 604q0 -201 86 -325q100 -143 291 -144q193 0 301 164q88 135 88 299q0 209 -110.5 334t-278.5 127q-182 2 -285 -141 q-92 -127 -92 -314zM606 1436l172 297l119 -68l-168 -297z" />
<glyph unicode="&#xf4;" horiz-adv-x="1343" d="M74 598q2 285 188 453q174 154 434 155q236 2 400 -145q182 -161 182 -440q0 -281 -171 -460t-439 -179q-266 0 -431 172t-163 444zM295 604q0 -201 86 -325q100 -143 291 -144q193 0 301 164q88 135 88 299q0 209 -110.5 334t-278.5 127q-182 2 -285 -141 q-92 -127 -92 -314zM356 1307q53 82 108 164q98 143 123 143h181q33 0 129 -141q51 -82 104 -166h-172l-152 152l-151 -152h-170z" />
<glyph unicode="&#xf5;" horiz-adv-x="1343" d="M74 598q2 285 188 453q174 154 434 155q236 2 400 -145q182 -161 182 -440q0 -281 -171 -460t-439 -179q-266 0 -431 172t-163 444zM280 1311q31 115 80 156.5t144 41.5q45 0 126.5 -35.5t127.5 -35.5q42 -1 81 69h129q-25 -113 -73.5 -154.5t-143.5 -41.5 q-41 0 -126 36.5t-126 36.5q-49 0 -83 -73h-136zM295 604q0 -201 86 -325q100 -143 291 -144q193 0 301 164q88 135 88 299q0 209 -110.5 334t-278.5 127q-182 2 -285 -141q-92 -127 -92 -314z" />
<glyph unicode="&#xf6;" horiz-adv-x="1343" d="M74 598q2 285 188 453q174 154 434 155q236 2 400 -145q182 -161 182 -440q0 -281 -171 -460t-439 -179q-266 0 -431 172t-163 444zM295 604q0 -201 86 -325q100 -143 291 -144q193 0 301 164q88 135 88 299q0 209 -110.5 334t-278.5 127q-182 2 -285 -141 q-92 -127 -92 -314zM374 1468q0 55 45 113.5t80 58.5q39 0 76 -55.5t37 -116.5q0 -49 -31 -108q-37 -68 -82 -68q-35 0 -80 59.5t-45 116.5zM710 1468q0 55 44 113.5t79 58.5t73 -57.5t38 -114.5q0 -51 -31 -108q-35 -68 -80 -68q-35 0 -79 59.5t-44 116.5z" />
<glyph unicode="&#xf8;" horiz-adv-x="1343" d="M74 598q0 283 188 453q176 158 434 155q180 0 320 -84q27 33 57 70h197l-137 -168q143 -149 145 -403q2 -281 -170 -460t-440 -179q-180 0 -320 79q-23 -25 -53 -61h-197l127 158q-152 164 -151 440zM295 604q2 -174 63 -285l539 660q-92 80 -225 80q-180 2 -285 -141 q-94 -129 -92 -314zM457 197q88 -61 215 -62q193 -2 301 164q90 135 88 299q-2 150 -62 264l-262 -356q-236 -309 -280 -309z" />
<glyph unicode="&#xf9;" horiz-adv-x="1183" d="M74 633q0 258 96 559h207q-96 -389 -96 -506q2 -293 93 -419t306 -128q47 0 160 25v-139q-37 -27 -45 -29q-43 -14 -156 -14q-565 0 -565 651zM438 1634l119 68l168 -297l-119 -68zM891 0v1192h194v-1192h-194z" />
<glyph unicode="&#xfa;" horiz-adv-x="1183" d="M74 633q0 258 96 559h207q-96 -389 -96 -506q2 -293 93 -419t306 -128q47 0 160 25v-139q-37 -27 -45 -29q-43 -14 -156 -14q-565 0 -565 651zM571 1444l172 297l119 -68l-168 -297zM891 0v1192h194v-1192h-194z" />
<glyph unicode="&#xfb;" horiz-adv-x="1183" d="M74 633q0 258 96 559h207q-96 -389 -96 -506q2 -293 93 -419t306 -128q47 0 160 25v-139q-37 -27 -45 -29q-43 -14 -156 -14q-565 0 -565 651zM316 1364q53 82 108 164q98 143 123 143h181q33 0 129 -141q51 -82 104 -166h-172l-152 152l-151 -152h-170zM891 0v1192h194 v-1192h-194z" />
<glyph unicode="&#xfc;" horiz-adv-x="1183" d="M74 633q0 258 96 559h207q-96 -389 -96 -506q2 -293 93 -419t306 -128q47 0 160 25v-139q-37 -27 -45 -29q-43 -14 -156 -14q-565 0 -565 651zM333 1550q0 55 45 113.5t80 58.5q39 0 76 -55.5t37 -116.5q0 -49 -31 -108q-37 -68 -82 -68q-35 0 -80 59.5t-45 116.5z M669 1550q0 55 44 113.5t79 58.5t73 -57.5t38 -114.5q0 -51 -31 -108q-35 -68 -80 -68q-35 0 -79 59.5t-44 116.5zM891 0v1192h194v-1192h-194z" />
<glyph unicode="&#xfd;" horiz-adv-x="1105" d="M25 -37v160q18 -12 98 -14q106 -2 216 34.5t110 85.5q0 43 -127 224q-141 199 -158 241q-92 238 -135 498h200q37 -195 117 -418q39 -109 121 -248q92 -158 131 -157q55 0 131 170q49 111 86 235q76 258 76 418h186q-6 -457 -246 -819q-274 -418 -708 -418q-74 0 -98 8z M510 1423l172 297l119 -68l-168 -297z" />
<glyph unicode="&#xff;" horiz-adv-x="1105" d="M25 -37v160q18 -12 98 -14q106 -2 216 34.5t110 85.5q0 43 -127 224q-141 199 -158 241q-92 238 -135 498h200q37 -195 117 -418q39 -109 121 -248q92 -158 131 -157q55 0 131 170q49 111 86 235q76 258 76 418h186q-6 -457 -246 -819q-274 -418 -708 -418q-74 0 -98 8z M311 1489q0 55 45 113.5t80 58.5q39 0 76 -55.5t37 -116.5q0 -49 -31 -108q-37 -68 -82 -68q-35 0 -80 59.5t-45 116.5zM647 1489q0 55 44 113.5t79 58.5t73 -57.5t38 -114.5q0 -51 -31 -108q-35 -68 -80 -68q-35 0 -79 59.5t-44 116.5z" />
<glyph unicode="&#x152;" horiz-adv-x="1994" d="M74 754q0 299 190 526q223 264 598 264q94 0 180 -20h807v-156h-716q-23 0 -23 -25v-1153q0 -23 23 -22h743v-168h-846q-90 -25 -190 -25q-348 0 -559 224q-207 217 -207 555zM307 766q0 -276 146 -449q152 -178 405 -178q19 0 37 2v1252h-37q-254 0 -402.5 -177.5 t-148.5 -449.5zM1176 844v155h725v-155h-725z" />
<glyph unicode="&#x153;" horiz-adv-x="1937" d="M74 598q2 285 188 453q174 154 434 155q145 0 273 -59q133 -66 213 -184q90 115 229 181t293 64q86 0 170 -20v-148q-18 0 -79.5 8.5t-78.5 8.5q-184 -6 -301 -115q-104 -100 -104 -233h461v-144h-469q0 -215 118 -325q109 -100 299 -101q139 1 166 17l2 -156 q0 -23 -155 -25q-393 -2 -566 263q-172 -256 -499 -256q-266 0 -431 172t-163 444zM295 604q0 -201 86 -325q100 -143 291 -144q193 0 301 164q88 135 88 299q0 209 -110.5 334t-278.5 127q-182 2 -285 -141q-92 -127 -92 -314z" />
<glyph unicode="&#x178;" horiz-adv-x="1316" d="M25 1524h219q53 -106 134 -322.5t134 -320.5q88 -170 213 -295q104 86 238 495q108 337 118 443h215q0 -272 -168 -643q-150 -330 -362 -590q-131 -162 -344 -248q-166 -70 -299 -68q-70 0 -94 11v166q168 -4 309 49q113 43 190 110q63 55 64 86q0 100 -258 525 q-274 455 -309 602zM387 1784q0 55 45 113.5t80 58.5q39 0 76 -55.5t37 -116.5q0 -49 -31 -108q-37 -68 -82 -68q-35 0 -80 59.5t-45 116.5zM723 1784q0 55 44 113.5t79 58.5t73 -57.5t38 -114.5q0 -51 -31 -108q-35 -68 -80 -68q-35 0 -79 59.5t-44 116.5z" />
<glyph unicode="&#x2c6;" horiz-adv-x="788" d="M80 1282q53 82 108 164q98 143 123 143h181q33 0 129 -141q51 -82 104 -166h-172l-152 152l-151 -152h-170z" />
<glyph unicode="&#x2dc;" horiz-adv-x="800" d="M57 1393q31 115 80 156.5t144 41.5q45 0 126.5 -35.5t127.5 -35.5q42 -1 81 69h129q-25 -113 -73.5 -154.5t-143.5 -41.5q-41 0 -126 36.5t-126 36.5q-49 0 -83 -73h-136z" />
<glyph unicode="&#x2000;" horiz-adv-x="1008" />
<glyph unicode="&#x2001;" horiz-adv-x="2017" />
<glyph unicode="&#x2002;" horiz-adv-x="1008" />
<glyph unicode="&#x2003;" horiz-adv-x="2017" />
<glyph unicode="&#x2004;" horiz-adv-x="672" />
<glyph unicode="&#x2005;" horiz-adv-x="504" />
<glyph unicode="&#x2006;" horiz-adv-x="336" />
<glyph unicode="&#x2007;" horiz-adv-x="336" />
<glyph unicode="&#x2008;" horiz-adv-x="252" />
<glyph unicode="&#x2009;" horiz-adv-x="403" />
<glyph unicode="&#x200a;" horiz-adv-x="112" />
<glyph unicode="&#x2010;" horiz-adv-x="542" d="M98 766v139h344v-139h-344z" />
<glyph unicode="&#x2011;" horiz-adv-x="542" d="M98 766v139h344v-139h-344z" />
<glyph unicode="&#x2012;" horiz-adv-x="542" d="M98 766v139h344v-139h-344z" />
<glyph unicode="&#x2013;" horiz-adv-x="1148" d="M4 766v139h1143v-139h-1143z" />
<glyph unicode="&#x2014;" horiz-adv-x="1900" d="M2 766v139h1899v-139h-1899z" />
<glyph unicode="&#x2018;" horiz-adv-x="350" d="M74 1157v170q0 25 38 87.5t81 109.5h67q10 0 10 -25q-57 -115 -61 -151h67v-191h-202z" />
<glyph unicode="&#x2019;" horiz-adv-x="350" d="M74 1331v193h202v-172q0 -70 -118 -195h-66q-8 0 -8 12q0 16 28.5 82t30.5 80h-69z" />
<glyph unicode="&#x201c;" horiz-adv-x="651" d="M74 1157v170q0 25 38 87.5t81 109.5h67q10 0 10 -25q-57 -115 -61 -151h67v-191h-202zM377 1157v170q0 25 34.5 85.5t80.5 111.5h69q12 0 12 -25q-55 -100 -65 -151h70v-191h-201z" />
<glyph unicode="&#x201d;" horiz-adv-x="651" d="M74 1331v193h202v-172q0 -70 -118 -195h-66q-8 0 -8 12q0 16 28.5 82t30.5 80h-69zM377 1331v193h201v-172q0 -31 -48 -101q-39 -59 -71 -94h-66q-8 0 -8 12q0 18 28.5 84t30.5 78h-67z" />
<glyph unicode="&#x202f;" horiz-adv-x="403" />
<glyph unicode="&#x205f;" horiz-adv-x="504" />
<glyph unicode="&#x2122;" horiz-adv-x="1939" d="M80 1372v148h649v-148h-237v-815h-181v815h-231zM819 557v963h154q39 0 131 -127q66 -90 219 -336q72 131 145 262q123 201 193 201h149v-963h-176v705q-72 -88 -153 -277q-66 -150 -129 -301h-78q-96 244 -150 350q-68 135 -143 215v-692h-162z" />
<glyph unicode="&#x25fc;" horiz-adv-x="1187" d="M0 0v1188h1188v-1188h-1188z" />
</font>
</defs>
</svg>
