<?xml version="1.0" standalone="no"?>
<!DOCTYPE svg PUBLIC "-//W3C//DTD SVG 1.1//EN" "http://www.w3.org/Graphics/SVG/1.1/DTD/svg11.dtd" >
<svg xmlns="http://www.w3.org/2000/svg">
<metadata></metadata>
<defs>
<font id="arcticregular" horiz-adv-x="234" >
<font-face units-per-em="2048" ascent="1638" descent="-410" />
<missing-glyph horiz-adv-x="390" />
<glyph horiz-adv-x="2048" />
<glyph horiz-adv-x="2048" />
<glyph unicode="&#xd;" horiz-adv-x="390" />
<glyph unicode=" "  horiz-adv-x="390" />
<glyph unicode="&#x09;" horiz-adv-x="390" />
<glyph unicode="&#xa0;" horiz-adv-x="390" />
<glyph unicode="!" horiz-adv-x="320" d="M-34 38q20 -32 44 -48q136 -16 128 108q-40 72 -112 64q-76 -44 -60 -124zM-10 270h120v1568h-120v-1568z" />
<glyph unicode="&#x22;" horiz-adv-x="627" d="M4 1851q-8 -68 32 -112v-336h120v188q8 96 -8 156q32 36 32 84q-32 80 -108 76q-48 -20 -68 -56zM228 1847q-4 -64 36 -100v-344h120l-4 352l20 28v80q-52 56 -120 44q-40 -24 -52 -60z" />
<glyph unicode="#" horiz-adv-x="1730" d="M10 536l348 -4l-8 -28q-16 -88 -24 -112q0 -12 -4 -16l-4 -32l-8 -32l-4 -16q-8 -24 -8 -44l-4 -8l-4 -28q-12 -28 -12 -52h12l24 -8l64 -12q16 -4 24 28l4 16q4 32 12 52q8 52 20 88l16 88q8 20 12 40q8 48 20 80h408l-4 -20l-12 -40l-4 -20q-4 -32 -16 -76 q-4 -32 -12 -52q0 -12 -4 -16l-4 -28l-24 -100l-4 -24q72 -20 120 -20v12q4 20 8 24v12l12 44l8 44l4 24l8 28l4 20l4 20l12 44l4 16v16l4 8l4 28q12 28 12 52l28 4h320v108q-4 12 -16 12h-212q-56 -4 -92 4l4 20l8 20l4 28l4 24l12 44l4 20q8 24 8 44l8 20q0 16 8 44 q8 44 16 68q4 32 16 56h268q48 -8 80 -4v104l-8 16l-316 8l4 24l4 24l12 44q4 32 16 72l4 20q4 32 12 52l4 12l4 24q4 32 12 52q4 32 12 56q0 12 4 16l12 68q8 20 8 36l-32 8q-48 16 -84 16l-20 -96l-8 -24q-4 -32 -16 -72l-4 -20q-4 -32 -12 -52q-8 -52 -20 -88v-12l-4 -24 l-36 -140h-404l4 28l4 28l24 100l4 20l4 20q4 32 12 52l4 12l4 24q4 32 12 52q4 32 12 56q0 12 4 16l12 68q8 20 8 36l-32 8q-52 12 -84 12l-8 -28l-4 -20q-4 -28 -12 -48l-8 -44l-4 -24l-4 -20l-8 -24l-4 -16l-4 -24l-4 -20l-12 -44l-4 -20l-24 -108l-4 -20l-16 -72h-368 v-120h344l-8 -24l-8 -44l-4 -12q-4 -32 -16 -68q-4 -32 -12 -56l-8 -44l-4 -24q-8 -20 -12 -40q-8 -48 -20 -80h-372v-120zM510 660q4 12 4 22t8 26l8 44q4 12 8 40q12 40 16 68l4 12q4 32 10 54t10 42q8 24 8 44l12 36h316q56 4 92 -4l-4 -20l-8 -24q-4 -32 -16 -76l-8 -40 l-4 -16l-8 -40q-8 -24 -8 -40q-4 -8 -6 -16t-6 -28q-8 -52 -20 -88h-316q-56 -4 -92 4z" />
<glyph unicode="$" horiz-adv-x="1110" d="M0 560q0 -180 104 -304q-12 -28 -12 -52l-4 -16l-4 -16l-4 -16q-16 -60 -20 -100l8 -4l72 -16l36 -4l4 16l4 16q16 60 20 100l24 -16l12 -4l28 -16q12 -4 16 -8l12 -4q40 -12 64 -24l-4 -12q-4 -36 -12 -60l12 -4l72 -16h36l4 12q4 44 16 72q224 20 356 180 q136 188 92 396q-60 228 -252 324l8 28q4 12 6 22l6 30q8 52 20 88l12 68l12 40q4 32 12 56q0 12 4 16q0 12 4 16l4 20q4 32 12 52l4 32l20 76l4 36q52 -92 52 -184h96q4 192 -116 320l4 8l4 20l24 120q8 24 8 40l-44 12h-12q-32 12 -60 12q-8 -44 -16 -68q-4 -32 -16 -56 q-68 44 -144 56q-8 44 8 80q-72 20 -120 20q-8 -52 -20 -88q-308 -44 -416 -312q-92 -376 224 -564l-12 -52l-20 -96l-8 -24q-4 -32 -16 -72q-4 -32 -12 -56l-4 -16q-8 -52 -20 -88q-4 -32 -12 -56l-4 -16v-16l-4 -8l-4 -28q-12 -28 -12 -52q-40 84 -40 160h-96zM128 1464 q76 232 292 284q16 -8 8 -24l-4 -28l-8 -20q-4 -36 -12 -60q-4 -12 -6 -22t-4 -18t-6 -28q-8 -52 -20 -88q-4 -32 -12 -56q-4 -32 -12 -52q0 -12 -2 -22t-6 -14l-4 -28l-4 -24q-12 -32 -16 -56v-12l-12 -44l-12 -64q-200 152 -160 376zM232 276l68 308l4 20l4 20q4 32 12 52 q8 52 20 88q4 32 10 54t10 42q8 24 8 44l12 36l24 -4l24 -4l28 -4q52 4 88 -12l-8 -32l-4 -16l-4 -20l-4 -16l-4 -20q-4 -32 -16 -68l-4 -28l-24 -100l-4 -20q-4 -28 -12 -48l-8 -44q-4 -12 -8 -40l-12 -44l-8 -44q-4 -24 -8 -28v-12l-8 -24q0 -8 -4 -28l-12 -44l-8 -44 l-48 16l-16 8q-56 24 -88 56zM400 1044l4 8l4 20l12 64l12 44l8 44l4 12l12 64l12 44l4 16l12 64l4 20l4 16l4 20l8 24l4 16l4 28l4 24q12 32 16 56v12l12 44l12 64l8 -4q88 -20 148 -68l-8 -28q0 -16 -8 -44l-4 -16q-16 -60 -20 -100l-12 -40q-4 -32 -12 -52 q-4 -32 -12 -56q-4 -32 -12 -52q0 -12 -2 -22t-6 -14l-4 -28l-4 -24q-12 -32 -16 -56v-12l-12 -44l-12 -64h-32q-32 8 -48 8q-48 -4 -88 12zM504 192q12 32 20 80q8 44 16 68l4 32l16 56l4 24l20 88l4 20q4 32 12 52q8 52 20 88q4 32 10 54t10 42q8 24 8 44l12 36 q220 -164 168 -404q-84 -252 -324 -280z" />
<glyph unicode="%" horiz-adv-x="978" d="M0 1688q-16 -204 136 -312q160 -96 324 -32l-40 -140l-4 -16l-8 -28l-12 -36q0 -8 -8 -28q-12 -56 -24 -88l-32 -108l-4 -24l-24 -76l-4 -24l-16 -44l-4 -20l-12 -48l-20 -64l-4 -20l-8 -16q-4 -28 -16 -60l-28 -88q-4 -40 -16 -68l16 -12q36 -224 236 -292 q400 -40 412 336q-16 168 -144 252q-152 88 -300 32v8l120 428l4 16l8 20q8 44 20 72l16 52l4 20l28 104l8 16q0 12 4 16q4 24 16 60l12 36q0 12 4 16l4 12q12 56 24 88l-20 12q-36 356 -396 324q-216 -68 -252 -276zM116 1608q0 192 172 240q120 4 192 -72 q120 -200 -68 -316q-224 -76 -296 148zM308 340q16 196 196 228q132 -12 196 -112q68 -200 -112 -288q-224 -48 -280 172z" />
<glyph unicode="&#x26;" horiz-adv-x="1200" d="M20 402q156 -508 664 -364l28 16q44 20 72 44q36 24 56 52l20 -20q12 -20 24 -32l52 -64q72 32 88 84l-8 12l-20 20q-12 20 -24 32l-52 64q60 124 60 240h-120v-40l-4 -12q-8 -48 -20 -80l-12 12l-20 24l-16 24l-12 12l-20 24l-60 76l-16 20l-12 16l-40 52l-16 20l-32 36 q-16 24 -32 40q-36 44 -44 56l-20 24l-4 8l-36 40q196 16 288 168q88 164 0 312q-140 184 -352 152q-192 -64 -244 -236q-36 -208 112 -336q-264 -196 -228 -496zM148 394q-44 268 172 404l20 -20l16 -20l28 -36l8 -8q36 -44 44 -56l24 -32l8 -8l60 -76l12 -16l44 -56 l16 -20q28 -36 40 -48l40 -52l12 -12l16 -20l20 -24l20 -24l20 -24q-124 -120 -276 -124q-272 32 -344 272zM360 946q-256 272 52 408q192 4 240 -164q4 -188 -176 -228h-28z" />
<glyph unicode="'" horiz-adv-x="390" d="M90 1790l4 -8l28 -32v-340h120v256q4 56 -4 92q20 24 24 48q4 32 -4 60q-52 56 -120 44q-32 -20 -48 -48v-72z" />
<glyph unicode="(" horiz-adv-x="710" d="M10 894q4 -624 432 -1024q12 0 24 8l20 24l44 44q-444 468 -400 1044q60 568 464 900q-20 68 -76 92q-520 -460 -508 -1088z" />
<glyph unicode=")" horiz-adv-x="550" d="M10 1874q500 -384 548 -944q36 -584 -324 -988q44 -48 92 -72q380 456 352 988v112q-100 640 -576 988q-20 12 -36 12q-40 -52 -56 -96z" />
<glyph unicode="*" horiz-adv-x="1130" d="M10 848q0 -12 12 -12h304q-12 -8 -16 -16q-12 -8 -16 -16q-12 -8 -16 -16l-176 -176q36 -52 72 -80q12 -8 20 0l200 196v-288h112q8 8 8 16v312l200 -200q24 -28 48 -44q64 60 80 88l-176 176q-24 28 -48 44l24 4h292v120h-316l224 224q-8 16 -16 24l-64 64l-12 -8 l-24 -24q-12 -8 -16 -16l-148 -148q-28 -24 -44 -48l-4 16v276h-120v-256l-208 208q-56 -40 -84 -88q20 -24 28 -28l148 -148q24 -28 48 -44l-24 -4h-292v-108z" />
<glyph unicode="+" horiz-adv-x="1120" d="M40 846h380l4 -20v-376h120v304q-4 56 4 92h416v120h-416q-8 36 -4 64v296h-120v-268q4 -56 -4 -92h-380v-120z" />
<glyph unicode="," horiz-adv-x="420" d="M10 52q48 -72 124 -48q88 -80 48 -180q-48 -84 -136 -88v-96q312 16 232 352l-24 36q-28 40 -60 60q-16 44 -48 76q-48 12 -88 8q-64 -48 -48 -120z" />
<glyph unicode="-" horiz-adv-x="1040" d="M3 498h924v108h-924v-108z" />
<glyph unicode="." horiz-adv-x="300" d="M12 144q-48 -144 96 -144q84 40 60 128q-52 56 -120 44q-24 -16 -36 -28z" />
<glyph unicode="/" horiz-adv-x="580" d="M0 16l20 -4q52 -12 92 -12l8 28l4 28l12 40q4 36 12 60l4 16l20 88l8 44l4 12q4 32 12 52q4 32 16 76q8 52 20 88q4 32 12 56l4 16l12 68q8 20 8 36l12 44l4 20l4 16l4 20l4 16l8 32l4 20l4 28l12 40q4 36 12 60l4 12l4 20l16 72l4 28q12 44 16 64q8 52 20 88q0 16 8 40 l12 64l4 20l12 40l4 24l4 20l4 20l4 20q12 28 12 52q12 40 16 68l4 16l8 44q12 28 12 52q20 72 20 120q-64 20 -112 20l-12 -64l-40 -176l-4 -8l-8 -44q0 -8 -2 -16t-4 -18t-6 -14l-4 -28l-24 -100l-4 -20l-8 -44q-12 -36 -16 -64q0 -8 -2 -18t-6 -14q0 -12 -4 -16l-4 -32 l-8 -32l-4 -16q-8 -24 -8 -44l-4 -8l-4 -28q-12 -28 -12 -52l-8 -24l-24 -124l-8 -24v-12l-8 -24q0 -8 -4 -28l-28 -116q-8 -44 -16 -68l-16 -88l-12 -44q-4 -28 -12 -48l-8 -44l-4 -20l-8 -28l-20 -88q-4 -28 -6 -38l-6 -30q-12 -32 -12 -56l-8 -24l-12 -64z" />
<glyph unicode="0" horiz-adv-x="2050" d="M4 792q132 -596 668 -760q624 -144 1004 324q356 516 44 1000q-348 484 -904 428q-416 -76 -640 -384q-200 -292 -172 -608zM164 1128q216 484 692 540h156l8 -12l-12 -56l-4 -32l-12 -68v-12q-12 -44 -12 -72l-4 -12l-4 -20q-4 -40 -12 -64v-20q-8 -24 -8 -44 q-4 -8 -4 -28l-8 -28l-12 -88l-4 -24l-16 -100l-4 -12q-4 -40 -16 -100q-8 -32 -8 -56l-4 -12l-8 -56l-4 -12q-4 -44 -16 -100q0 -16 -8 -40q0 -20 -4 -34t-8 -42l-4 -20q-4 -44 -12 -72l-8 -68l-4 -16l-8 -40q-4 -24 -4 -40l-8 -28l-4 -28l-4 -24l-4 -28l-4 -24 q-360 80 -532 380q-180 308 -68 612zM884 120l4 32l12 56l4 24l4 32q4 16 8 40l4 36l4 24l4 32l8 28l20 120q4 48 12 80l8 40q0 32 8 52v16q8 24 12 60q4 16 8 40l4 36l4 24l4 32q8 24 8 44l4 28l8 28l4 28l4 24l4 28l4 24l4 24l4 28l12 68q4 40 12 64l4 36l4 20l8 56l4 16 l4 16l4 44q4 8 8 28l4 28q4 52 16 88q572 -204 612 -764l-4 -12q-4 -84 -24 -140q-96 -320 -352 -484q-240 -152 -488 -124z" />
<glyph unicode="1" horiz-adv-x="742" d="M0 1444q168 12 276 120l4 -12v-1552h112v1844h-116q-36 -256 -276 -280v-120z" />
<glyph unicode="2" horiz-adv-x="1790" d="M0 964l116 4q20 480 396 716q436 248 852 36q632 -408 384 -1076q-288 -592 -948 -524h-260v-120h1464v120h-564q368 228 460 600q76 300 -16 560q-284 704 -1036 652q-412 -68 -644 -364q-216 -284 -204 -604z" />
<glyph unicode="3" horiz-adv-x="1207" d="M0 1420h116q8 204 164 320q184 120 376 52q288 -148 244 -436q-88 -312 -392 -328v-116q248 -8 376 -196q180 -412 -224 -584q-204 -52 -352 68q-156 136 -156 320h-120q12 -260 192 -408q196 -144 416 -108q248 60 356 260q104 212 36 412q-80 212 -264 300 q356 256 224 636q-180 368 -568 320q-416 -116 -424 -512z" />
<glyph unicode="4" horiz-adv-x="1600" d="M0 1804l4 -144q164 -716 856 -824v-836h120v840l12 4h412v120l-424 4v836h-120v-828l-4 -12q-76 8 -124 24q-604 224 -616 816h-116z" />
<glyph unicode="5" horiz-adv-x="1230" d="M0 784q4 -372 264 -592q264 -212 568 -192q360 36 564 300q208 292 152 616q-144 588 -720 652l4 244h476v116h-600v-480q384 4 600 -272q212 -320 84 -648q-260 -492 -756 -392q-508 152 -520 648h-116z" />
<glyph unicode="6" horiz-adv-x="1450" d="M108 1412q-228 -488 8 -928q232 -372 604 -464q380 -84 520 268q60 476 -404 512q-456 -88 -352 -544q-480 384 -336 932q204 588 784 620l128 -4l4 24q0 48 8 80l-4 16h-224q-512 -92 -736 -512zM588 352q-20 268 236 328q268 -16 308 -260q-8 -252 -240 -296 q-248 0 -304 228z" />
<glyph unicode="7" horiz-adv-x="1299" d="M0 1708l1008 -4q0 -12 -4 -16v-12l-12 -80l-4 -16l-4 -16l-4 -20l-4 -28l-8 -56l-4 -12q-4 -44 -16 -96l-4 -28q0 -16 -8 -40l-4 -36l-4 -24l-4 -32l-12 -56l-4 -24l-4 -28q0 -16 -8 -40q0 -20 -4 -34t-6 -28l-4 -28t-6 -34l-4 -28l-16 -88v-12l-24 -132q-4 -24 -8 -52 l-4 -32q-4 -16 -6 -30t-6 -34l-4 -28l-16 -88l-4 -40q-4 -28 -6 -38t-6 -34q-8 -24 -10 -42t-6 -46l-16 -92v-12l-4 -20l-4 -32l-4 -28q68 -16 120 -8l4 24l4 32q0 16 8 40l4 36l4 24l4 32l12 60l8 56l4 12l8 56l4 12q4 44 12 72l24 164q4 12 6 22t6 38l8 40q0 32 8 52v16 q8 24 12 60q4 16 8 40q0 20 4 34t6 28t6 38l20 120v16l8 28q4 60 16 100l4 24l4 28l4 24l4 24q4 40 16 92l8 56l4 28l4 24q8 24 12 60l16 96v12l4 20q8 48 8 80h-12l-20 4q-48 8 -80 8q-16 -8 -28 -8h-1004v-120z" />
<glyph unicode="8" horiz-adv-x="1480" d="M0 560q136 -568 676 -560h76q520 128 552 620q-36 472 -476 612q300 164 216 464q-136 304 -452 264q-260 -76 -312 -316q-28 -284 220 -404q-516 -184 -500 -680zM116 596q44 488 516 540q336 -16 492 -284q116 -232 8 -436q-116 -208 -320 -276q-252 -68 -452 64 q-212 156 -244 392zM392 1556q16 232 232 288q224 8 304 -184q56 -200 -124 -304q-312 -120 -412 200z" />
<glyph unicode="9" horiz-adv-x="1330" d="M0 80q448 -180 836 16q388 212 496 592l20 64q4 36 12 64q56 720 -548 1028q-32 0 -56 12h-152q-404 -136 -296 -512q152 -284 444 -240q304 84 324 372q208 -292 168 -612q-76 -448 -444 -648q-392 -192 -760 -24l-4 -8q-32 -56 -40 -104zM420 1408q-56 256 220 332 q264 4 320 -240q-24 -236 -240 -280q-224 -12 -300 188z" />
<glyph unicode=":" horiz-adv-x="330" d="M-166 22q24 -36 52 -52q108 -12 120 84q-12 104 -112 92q-76 -44 -60 -124zM-166 606q48 -72 120 -48q72 44 48 124q-52 56 -120 44q-64 -48 -48 -120z" />
<glyph unicode=";" horiz-adv-x="420" d="M-10 42q48 -72 124 -48l12 -8q140 -204 -100 -260v-96q304 16 236 344q-36 68 -88 104q-16 40 -36 68q-32 20 -68 24q-100 -28 -80 -128zM-10 406q52 -76 128 -44q64 48 40 120q-52 56 -120 44q-64 -48 -48 -120z" />
<glyph unicode="&#x3c;" horiz-adv-x="840" d="M50 1030l24 -56l20 -24l60 -68q28 -40 72 -84l16 -20l88 -100l4 -8l44 -48q20 -28 36 -44l44 -48q12 -20 24 -28l60 -72q60 28 96 68l-12 20q-12 20 -24 28l-4 8l-44 48l-4 8l-52 56q-8 8 -14 18t-22 26q-28 28 -44 52l-32 36l-20 24q-36 36 -40 44l-52 60l-8 12l-20 20 q-20 28 -40 44l40 36l16 16q12 8 28 24q40 28 60 52l20 16l68 60q12 4 16 12l16 12l20 20l8 4l56 52q40 28 60 48l8 8l24 20l28 24q-24 68 -84 92l-28 -28l-8 -4q-32 -32 -60 -52q-32 -32 -60 -52l-12 -12q-20 -12 -28 -24l-92 -80q-20 -12 -32 -28l-20 -16l-20 -16 q-28 -28 -52 -44l-52 -48l-8 -4l-20 -20q-32 -24 -48 -40z" />
<glyph unicode="=" horiz-adv-x="1080" d="M20 1119h904v116h-904v-116zM24 611h908v116h-688q-24 4 -40 4h-176v-40q-4 -48 -4 -80z" />
<glyph unicode="&#x3e;" horiz-adv-x="783" d="M10 596q36 -56 80 -76l16 12q28 28 52 44l8 8q28 28 72 64q12 8 32 28l8 4q32 32 76 68l8 4l48 44l8 4q60 52 96 84l20 20q20 12 28 24l24 20q32 24 48 40q-8 28 -20 48l-44 52q-8 12 -16 22l-16 20t-16 14l-52 60l-8 12l-16 16q-4 8 -24 28l-4 8l-52 56q-28 40 -68 80 l-8 12l-44 48q-12 20 -32 36q-12 20 -24 28q-24 36 -48 56l-16 4q-52 -36 -80 -76l12 -16q28 -28 44 -52l60 -68q8 -12 24 -28l20 -24l72 -80q24 -32 56 -68l20 -24l40 -44l8 -12l24 -24q24 -36 52 -56l-104 -92l-12 -8l-84 -76q-12 -4 -24 -20q-32 -24 -48 -40 q-12 -8 -16 -16l-20 -16l-76 -64q-28 -28 -52 -44l-28 -24z" />
<glyph unicode="?" horiz-adv-x="997" d="M30 1268l16 -8q44 -24 72 -32q148 240 400 200q268 -60 300 -312q8 -224 -152 -352q-172 -120 -348 -48q-44 -12 -80 -8v-388h108q12 4 12 16l4 256q436 -36 548 368q44 252 -104 428q-192 180 -436 144q-264 -56 -340 -264zM274 -12q140 -20 128 112q-40 64 -108 60 q-132 -76 -20 -172z" />
<glyph unicode="@" horiz-adv-x="1630" d="M28 544q112 -372 436 -512l132 -32h816v116h-700q-96 -4 -156 12l-16 8q-60 16 -100 40q-448 324 -288 896l8 12q24 64 56 100q276 328 660 220q420 -152 420 -564q-240 200 -492 52q-240 -184 -160 -448q212 -384 580 -196q44 24 68 52q8 -24 4 -48h116v688l-4 12 q-16 92 -24 116l-12 36q-228 492 -772 440q-748 -172 -572 -1000zM748 528q-20 256 244 308q236 -8 296 -224q16 -260 -244 -300q-236 0 -296 216z" />
<glyph unicode="A" horiz-adv-x="2081" d="M0 0h116v728q-1 19 -1 35q0 33 5 57l1696 -4v-816h116v1012q-4 8 -4 28l-8 28q0 16 -8 40q-4 36 -12 60q-262 695 -953 695q-48 0 -99 -3q-412 -68 -644 -364q-205 -276 -205 -583q0 -22 1 -45v-868zM116 944q88 700 772 800h18q657 0 870 -592q37 -98 37 -182 q0 -15 -1 -30z" />
<glyph unicode="B" horiz-adv-x="1091" d="M0 0q25 -1 49 -1q356 0 595 221q284 276 284 632v20v11q0 404 -292 649q-261 215 -565 215q-35 0 -71 -3v-1744zM96 120l4 1508q532 -64 684 -544l4 -8q24 -91 24 -164v-20h-492v-120h484q-40 -288 -240 -460q-216 -184 -468 -192z" />
<glyph unicode="C" horiz-adv-x="934" d="M0 828q20 -360 260 -584q268 -244 588 -244h20v116q-324 12 -528 220q-224 236 -224 528q8 316 204 524q232 232 524 240h24v116h-112q-380 -68 -588 -348q-171 -242 -171 -503q0 -32 3 -65z" />
<glyph unicode="D" horiz-adv-x="1057" d="M0 0q41 -3 81 -3q374 0 627 239q268 272 268 616v20q0 404 -280 648q-274 229 -597 229q-49 0 -99 -5v-1744zM116 120l4 1508q336 -16 540 -244q200 -235 200 -507v-21q-16 -324 -228 -524q-232 -212 -506 -212h-10z" />
<glyph unicode="E" horiz-adv-x="963" d="M0 832q20 -364 264 -592q267 -240 584 -240h20v116q-560 40 -724 548l-4 8l-4 28q-18 60 -18 116q0 18 2 36h488v120h-484q0 40 8 68l4 8l8 28q12 52 28 88q232 460 696 464v116h-108q-352 -60 -560 -308q-202 -257 -202 -550q0 -27 2 -54z" />
<glyph unicode="F" horiz-adv-x="972" d="M0 0h116v856l28 4h436v120h-456l-4 8l4 12l4 36l4 24l28 84q8 28 20 48l20 44q244 404 668 408v116h-108q-520 -100 -708 -552l-28 -88q-8 -24 -8 -44l-4 -12l-12 -80v-984z" />
<glyph unicode="G" horiz-adv-x="1113" d="M36 608q237 -612 849 -612q48 0 99 4v536h-476v-120h356l4 -16v-192q1 -19 1 -35q0 -33 -5 -57q-324 16 -528 224q-220 236 -220 526v10q12 340 240 548q236 204 516 204v116h-112q-456 -84 -660 -456q-104 -215 -104 -424q0 -129 40 -256z" />
<glyph unicode="H" horiz-adv-x="856" d="M0 0h116l4 916l504 -4v-908h116v1792h-116v-756l-16 -4h-400q-19 -1 -35 -1q-33 0 -57 5v752l-32 4h-84v-1796z" />
<glyph unicode="I" horiz-adv-x="589" d="M0 1628h120q32 4 60 -4v-1504l-12 -4h-152l-4 -32v-84h472v116h-92q-19 -1 -35 -1q-33 0 -57 5v1504l16 4h156v116h-472v-116z" />
<glyph unicode="J" horiz-adv-x="2041" d="M0 968q4 -456 324 -732q301 -242 637 -242q102 0 207 22q400 96 602 408q169 260 169 552q0 57 -7 116v688h-116v-836q0 -48 -4 -80l-48 -200q-172 -380 -524 -504q-150 -44 -288 -44q-249 0 -460 144q-376 280 -376 704l-32 4h-84z" />
<glyph unicode="K" horiz-adv-x="997" d="M0 0h96l20 8v428q152 -232 368 -340l8 -4l132 -48l8 -4q36 -12 64 -16l16 -4l24 -4q20 0 32 -4l100 -4v120q-324 12 -532 224q-220 236 -220 522v10q12 336 236 548q236 208 516 208v120q-508 -24 -748 -428l-4 8v452h-116v-1792z" />
<glyph unicode="L" horiz-adv-x="750" d="M0 0h568v116h-360q-19 -1 -35 -1q-33 0 -57 5v1676q-21 5 -39 5q-9 0 -17 -1h-60v-1800z" />
<glyph unicode="M" horiz-adv-x="2110" d="M0 0h116l4 984l8 28l4 32q4 24 8 28v12l28 88q204 444 636 536q52 8 88 8v-868h116v868q19 3 36 3q36 0 68 -11q488 -112 656 -548l16 -56l4 -16q20 -72 24 -120l4 -28v-940h116v988q-4 8 -4 28l-8 28q0 16 -8 40q-4 36 -12 60q-262 695 -953 696q-48 0 -99 -4 q-600 -108 -800 -640l-4 -12q-4 -24 -12 -40l-12 -56l-4 -8l-12 -80l-4 -44v-956z" />
<glyph unicode="N" horiz-adv-x="1520" d="M0 0h116l4 984q4 24 8 28l4 32l8 40l28 88q144 328 432 468l4 -32v-1572q7 1 14 1q36 0 66 -17q661 277 661 942q0 56 -5 114v716h-112v-844l-4 -12q0 -52 -4 -72l-4 -44q-4 -40 -12 -68q-8 -20 -8 -36l-40 -112q-136 -268 -364 -404l-16 -8q-28 -16 -52 -20v1584 q-12 32 -48 20q-8 16 -24 16q-432 -172 -592 -564q-4 -20 -12 -32l-4 -20l-12 -32l-28 -124l-4 -56v-964z" />
<glyph unicode="O" horiz-adv-x="2060" d="M36 1164q-34 -143 -34 -273q0 -436 382 -723q283 -176 558 -176q238 0 470 132q463 311 463 811q0 40 -3 81q-68 408 -364 632q-276 194 -580 194q-53 0 -108 -6q-616 -120 -784 -672zM164 656q-46 142 -46 273q0 225 134 419q236 332 608 372q25 1 50 1q327 0 558 -197 q256 -236 288 -548q-8 -504 -408 -752q-212 -109 -419 -109q-144 0 -285 53q-364 156 -480 488z" />
<glyph unicode="P" horiz-adv-x="770" d="M0 0h116v744q489 80 489 514q0 45 -5 94q-130 405 -515 405q-41 0 -85 -5v-1752zM116 856l4 792q300 -36 372 -304q8 -51 8 -97q0 -242 -228 -359q-72 -32 -141 -32h-15z" />
<glyph unicode="Q" horiz-adv-x="2016" d="M16 848q168 -564 684 -700q131 -27 251 -27q405 0 689 311q52 -84 52 -168q0 -52 -20 -104q-20 -56 -60 -92l4 -8l56 -56q52 4 88 96q35 90 35 173q0 132 -91 243q170 274 170 537q0 238 -138 467q-311 446 -797 446q-58 0 -119 -6q-420 -72 -644 -384 q-179 -266 -179 -546q0 -90 19 -182zM120 944q-2 31 -2 62q0 316 190 542q232 260 552 296h29q502 0 751 -400q115 -214 115 -415q0 -224 -143 -433q-110 55 -208 55q-143 0 -260 -119l8 -8q36 -40 64 -60q100 82 204 82q63 0 128 -30q-276 -279 -606 -279q-110 0 -226 31 q-516 176 -596 676z" />
<glyph unicode="R" horiz-adv-x="760" d="M0 0h116v740q268 -24 368 -252l20 -72l4 -416h116l-4 452l-12 48q-80 216 -268 304q268 179 267 434q0 88 -31 186q-153 333 -488 333q-43 0 -88 -5v-1752zM116 860l4 788q300 -36 372 -304q7 -48 7 -92q0 -242 -223 -360q-70 -33 -134 -33q-13 0 -26 1z" />
<glyph unicode="S" horiz-adv-x="1260" d="M0 496q12 -328 308 -456q125 -42 241 -42q136 0 259 58q228 124 276 348q7 45 7 88q0 166 -99 296q-178 213 -433 213q-14 0 -27 -1q-44 12 -68 24q-32 12 -52 24l-8 8l-20 12l-64 56q-106 150 -106 282q0 171 178 314q113 65 223 65q99 0 193 -53q196 -132 200 -344h100 l-4 104q-130 397 -497 397q-40 0 -83 -5q-336 -92 -404 -400q-5 -45 -5 -87q0 -269 221 -425l20 -12l104 -48l24 -4q40 -12 68 -16q188 0 312 -112q128 -144 128 -320q-94 -361 -440 -361q-22 0 -44 1q-372 48 -412 396h-96z" />
<glyph unicode="T" horiz-adv-x="1010" d="M0 1660h252q19 1 35 1q33 0 57 -5v-1656h108q12 4 12 16v1640l24 4h368v116h-856v-116z" />
<glyph unicode="U" horiz-adv-x="2080" d="M0 860l4 -16v-24l16 -68q4 -36 12 -60q260 -688 932 -692q704 20 936 692l4 24l16 76l4 8q8 48 8 80v932h-116v-912q-4 -24 -8 -60l-12 -68l-8 -20l-16 -64q-248 -560 -804 -572q-592 36 -804 560l-8 24l-4 16l-4 20l-12 36l-12 64l-4 28l-4 32v916h-116v-952z" />
<glyph unicode="V" horiz-adv-x="1130" d="M0 876l4 -44v-12l16 -68v-12l12 -48q208 -568 748 -676l32 -8h12q24 -8 44 -8h96v1820h-116v-1684q-9 -9 -26 -9q-20 0 -50 13q-440 128 -600 516l-4 12l-52 232v920h-116v-944z" />
<glyph unicode="W" horiz-adv-x="2090" d="M0 1836l4 -1020l4 -24l8 -24q0 -16 8 -40q4 -24 12 -40l8 -36q280 -652 920 -652h120q636 120 816 692v12q12 32 16 60q16 72 16 120v952h-116v-916q0 -24 -4 -40l-4 -28q0 -24 -4 -28l-4 -24l-8 -40q-8 -20 -8 -36l-12 -28q-4 -20 -12 -32l-12 -36l-12 -20 q-20 -52 -44 -84l-16 -28l-56 -72q-248 -276 -580 -304v868h-68q-32 0 -52 -4v-864q-384 28 -608 300l-36 48l-80 132l-64 196q-8 28 -8 52q-8 36 -8 64v920l-32 4h-84z" />
<glyph unicode="X" horiz-adv-x="2069" d="M0 0h116q12 384 272 620q260 228 576 228q384 -12 620 -268q232 -260 232 -569v-11h116v116q-120 628 -684 812q680 260 684 928h-116q-12 -372 -256 -604q-268 -244 -596 -244q-404 20 -644 300q-204 251 -204 537v11h-116v-116q120 -632 684 -808q-680 -268 -684 -932z " />
<glyph unicode="Y" horiz-adv-x="2090" d="M0 1820q4 -408 268 -672q284 -272 636 -296v-852h120v848q24 12 80 12l56 12h12l132 40l8 4l36 12l8 4q20 12 36 16l36 20q504 310 504 844v8h-116q-16 -368 -256 -604q-268 -244 -596 -244q-404 20 -644 300q-204 251 -204 537v11h-116z" />
<glyph unicode="Z" horiz-adv-x="1003" d="M0 1604l732 -4l-8 -12l-88 -208l-12 -28l-56 -132q-16 -24 -20 -48l-24 -56l-16 -28l-24 -64l-20 -44q-8 -20 -16 -32l-16 -44q-12 -20 -16 -36q-12 -20 -16 -32l-140 -332l-12 -24l-40 -88l-4 -16q-36 -84 -44 -96l-12 -28l-16 -40q-20 -64 -52 -104v-108h872v112h-732 l12 24l12 32q24 44 32 76l56 128l8 12q4 20 12 32l12 32l8 12l32 76l12 28l24 56l12 24q0 8 12 28l24 60l68 160q16 24 20 48l8 12l12 28l20 44l12 28l12 28l12 28l36 84l12 28l16 44l8 12l64 156q12 24 16 28l52 128q8 16 28 16v116h-884v-116z" />
<glyph unicode="[" horiz-adv-x="282" />
<glyph unicode="\" horiz-adv-x="640" d="M0 1860l4 -24l8 -24q0 -8 4 -28l12 -44l8 -44l4 -20l4 -20q12 -28 12 -52l4 -16l4 -16l4 -16q16 -60 20 -100l4 -8q4 -28 12 -48l8 -44q4 -24 8 -28l8 -40q8 -52 20 -88l4 -32l12 -44l4 -16l4 -28l24 -100v-12l8 -20q4 -36 16 -88l12 -40l4 -16l4 -20l36 -164l4 -20 q8 -44 16 -68l4 -32l16 -56q8 -64 24 -108v-16l8 -28l4 -20l4 -16l4 -24l8 -28l4 -20l8 -44l8 -24q0 -8 4 -28l12 -44l8 -44h32l12 4l68 12v32l-12 64l-4 20q-12 28 -12 52l-4 16l-4 16l-4 16q-16 60 -20 100l-12 44l-4 16l-4 28l-12 40q-4 36 -12 60l-12 64l-16 56v16 l-8 20v16l-12 52l-12 40q-4 36 -16 88l-12 40l-16 80l-4 24q-12 36 -16 64l-4 20l-4 24l-8 24l-4 16l-4 24q-8 44 -16 68v12l-20 76l-4 24q-8 44 -16 68v12l-16 60q-4 32 -12 52q-4 32 -16 76q-8 52 -20 88q-4 32 -12 56l-4 16l-12 68q-8 20 -8 36q-20 12 -40 8 q-84 -8 -76 -48z" />
<glyph unicode="]" horiz-adv-x="312" />
<glyph unicode="^" horiz-adv-x="330" />
<glyph unicode="_" horiz-adv-x="490" />
<glyph unicode="`" horiz-adv-x="357" />
<glyph unicode="a" horiz-adv-x="938" d="M24 240q142 -245 352 -245q98 0 212 53q48 24 80 60q8 -24 4 -48h112v684h-112v-96q-136 113 -291 112q-32 0 -65 -4q-316 -110 -316 -364q0 -70 24 -152zM116 352q16 232 232 288h18q194 0 278 -164q22 -60 22 -112q0 -132 -138 -212q-86 -34 -156 -34q-184 0 -256 234z " />
<glyph unicode="b" horiz-adv-x="970" d="M0 320l4 -20v-240h120v40q134 -104 270 -104q100 0 202 56q191 135 191 338q0 26 -3 54q-64 216 -256 292q-74 22 -143 22q-145 0 -261 -98v1296h-120v-1508l-4 -12v-116zM148 264q-25 71 -25 130q0 179 229 246q272 0 320 -252q-28 -200 -204 -260q-42 -9 -79 -9 q-154 0 -241 145z" />
<glyph unicode="c" horiz-adv-x="579" d="M0 364q44 -360 392 -364v112q-260 36 -276 280q28 260 276 276v116h-72l-28 -8l-32 -8q-32 -16 -60 -20q-201 -144 -201 -359q0 -13 1 -25z" />
<glyph unicode="d" horiz-adv-x="970" d="M0 320q102 -322 395 -322q39 0 81 6q116 28 192 104q8 -24 4 -48h112l-4 1896h-108v-1308q-133 111 -281 111q-60 0 -123 -19q-220 -92 -268 -304v-116zM116 352q16 236 236 288h9q197 0 283 -164q22 -60 22 -112q0 -126 -130 -208q-91 -38 -164 -38q-182 0 -256 234z " />
<glyph unicode="e" horiz-adv-x="920" d="M4 316q92 -316 392 -316v112q-228 32 -280 240l28 4h640v88q-108 316 -399 316q-33 0 -69 -4q-315 -102 -315 -386q0 -26 3 -54zM140 480q80 128 208 160q14 1 27 1q191 0 265 -165h-408q-19 -1 -35 -1q-33 0 -57 5z" />
<glyph unicode="f" horiz-adv-x="814" d="M0 688l260 -4v-684h116v684l16 4l244 4l-4 120l-256 4l4 564l4 8q0 24 6 46t14 38q64 112 172 152q42 6 79 6q246 0 277 -278h112q-19 401 -418 401q-22 0 -46 -1q-192 -56 -280 -216l-12 -32l-28 -112v-576l-20 -4h-240v-124z" />
<glyph unicode="g" horiz-adv-x="930" d="M-128 -404q55 -395 378 -395q53 0 114 11q220 84 280 296v1216h-120v-40q-135 105 -283 105q-32 0 -65 -5q-200 -56 -284 -228q-32 -81 -32 -156q0 -92 48 -176q156 -205 337 -205q129 0 271 105q8 -8 8 -20v-548l-4 -12l-4 -28l-8 -24q-60 -124 -176 -164q-38 -5 -71 -5 q-241 0 -269 277zM-24 384q20 232 232 284h18q209 0 286 -180q10 -45 10 -84q0 -143 -134 -224q-87 -34 -157 -34q-185 0 -255 238z" />
<glyph unicode="h" horiz-adv-x="960" d="M0 0h116v328l4 24l32 84q99 140 251 140h17q152 -40 216 -168q20 -64 24 -92v-316h116v272q1 16 1 31q0 60 -13 105q-117 288 -397 288h-15q-144 -20 -232 -112l-4 28v1280h-116v-1892z" />
<glyph unicode="i" horiz-adv-x="341" d="M-40 956q36 -54 86 -54q16 0 34 6q54 33 54 86q0 18 -6 38q-43 46 -96 46q-12 0 -24 -2q-51 -38 -51 -92q0 -14 3 -28zM-12 4h120v744h-120v-744z" />
<glyph unicode="j" horiz-adv-x="420" d="M-690 -106q4 -232 184 -344q113 -58 218 -58q118 0 226 74q96 76 136 172l12 36l4 16l4 16q0 16 4 40l4 32l4 28v732h-120v-744l-4 -20l-16 -80q-64 -132 -188 -172q-42 -6 -79 -6q-245 0 -273 274zM6 966q-54 -46 -54 -88q0 -45 62 -84h15q100 0 100 92q0 15 -3 32 q-38 51 -92 51q-14 0 -28 -3z" />
<glyph unicode="k" horiz-adv-x="700" d="M0 8h116v280q112 -284 388 -288v116q-264 36 -280 280q32 260 280 276v120q-300 -20 -384 -288l-4 28v1372h-116v-1896z" />
<glyph unicode="l" horiz-adv-x="320" d="M0 0h108v1892h-108v-1892z" />
<glyph unicode="m" horiz-adv-x="1650" d="M0 0h116v376q0 68 16 120q60 116 164 160q53 17 102 17q79 0 146 -45q124 -96 124 -232q24 -8 40 -4h84q31 280 266 280q40 0 86 -8q136 -52 188 -168l16 -60v-436h116v464l-4 24l-20 64q-76 148 -208 208q-95 33 -178 33q-195 0 -322 -185q-160 193 -333 194 q-135 0 -279 -118l-4 44v92h-116v-820z" />
<glyph unicode="n" horiz-adv-x="970" d="M0 8h116v376q0 68 16 120q64 120 176 168q43 8 82 8q200 0 274 -208l4 -28v-444h116v392q1 16 1 31q0 61 -13 109q-64 156 -200 228q-99 41 -188 41q-145 0 -264 -109l-4 44v92h-116v-820z" />
<glyph unicode="o" horiz-adv-x="946" d="M8 500q-6 -53 -6 -100q0 -361 378 -400q406 15 406 422q0 26 -2 54q-108 312 -399 312q-33 0 -69 -4q-236 -68 -308 -284zM120 348q-1 16 0 31q0 233 232 289q252 0 312 -224q2 -23 2 -45q0 -221 -222 -279q-16 -1 -32 -1q-236 0 -292 229z" />
<glyph unicode="p" horiz-adv-x="950" d="M-100 748v-1628h120v1004q132 -107 274 -107q60 0 122 19q216 88 268 296v164q-108 312 -399 312q-33 0 -69 -4q-116 -28 -192 -100l-4 44h-120zM20 352q-1 20 -1 39q0 238 233 297h21q157 0 247 -116q49 -94 49 -174q0 -142 -157 -234q-73 -24 -134 -24q-180 0 -258 212 z" />
<glyph unicode="q" horiz-adv-x="1030" d="M-52 256q104 -192 292 -228q34 -4 66 -4q161 0 274 100l4 -24v-480q-2 -30 -2 -55t2 -45q0 -16 8 -36l24 -80q92 -172 256 -216q45 -8 87 -8q145 0 253 96q124 132 124 294v10h-100q-12 0 -16 -4q-35 -274 -259 -274q-34 0 -73 6q-124 52 -168 160q-16 48 -16 84v792 l4 28l4 24q0 24 -8 60v264h-120v-40q-135 105 -283 105q-32 0 -65 -5q-315 -108 -315 -362q0 -75 27 -162zM36 380q20 232 232 284h18q209 0 286 -180q10 -45 10 -84q0 -143 -134 -224q-87 -34 -157 -34q-185 0 -255 238z" />
<glyph unicode="r" horiz-adv-x="960" d="M0 0h116v432l16 60q68 132 188 168q39 5 74 5q250 0 278 -277h112q0 256 -220 364q-94 37 -179 36q-146 0 -265 -108l-4 44v92h-116v-816z" />
<glyph unicode="s" horiz-adv-x="638" d="M0 232q0 -48 8 -80q90 -154 247 -154q18 0 37 2q220 36 228 248q-48 228 -268 232q-44 24 -68 52q-16 40 -16 73q0 84 104 119q8 1 16 1q39 0 72 -17q56 -44 64 -112h96q-11 231 -233 231q-24 0 -51 -3q-176 -80 -176 -212q0 -66 44 -144l4 -8l16 -16q28 -28 52 -44 l32 -12l28 -12q176 -8 180 -168q-56 -109 -161 -108h-15q-120 20 -144 132h-96z" />
<glyph unicode="t" horiz-adv-x="720" d="M0 688l260 -4v-684h108q12 12 8 28v656l20 4h232v120h-160q-19 -1 -35 -1q-33 0 -57 5v300h-116v-300l-20 -4h-240v-120z" />
<glyph unicode="u" horiz-adv-x="960" d="M0 320l12 -48q64 -156 192 -228q105 -46 200 -46q145 0 268 106v-96h112v772h-112v-332q1 -16 1 -31q0 -60 -13 -105q-100 -197 -255 -197q-74 0 -161 45q-64 48 -100 108l-24 68l-4 24v432h-116v-472z" />
<glyph unicode="v" horiz-adv-x="680" d="M0 388q-1 -13 -1 -25q0 -60 17 -103q96 -212 300 -260h188v756h-116v-644q-172 24 -248 164q-16 40 -20 68l-4 16v396h-116v-368z" />
<glyph unicode="w" horiz-adv-x="1660" d="M0 416q-1 -15 -1 -29q0 -41 9 -71q68 -192 236 -260q86 -26 162 -26q199 0 326 182q96 -132 240 -172q53 -11 101 -11q155 0 271 107l4 -44v-92h116v820h-116v-436l-20 -68q-60 -112 -164 -152q-51 -16 -98 -16q-81 0 -150 48q-120 92 -120 228q-20 8 -40 8h-12 q-15 1 -28 1q-26 0 -44 -5q-34 -279 -268 -279q-37 0 -80 7q-136 48 -192 168l-16 60v436h-116v-404z" />
<glyph unicode="x" horiz-adv-x="1050" d="M0 760q8 -272 236 -384q-216 -140 -224 -376h120q36 272 288 304q304 -12 324 -304h112v9q0 257 -228 375q212 144 220 376h-120q-40 -284 -308 -308q-288 36 -304 308h-116z" />
<glyph unicode="y" horiz-adv-x="1000" d="M-34 463q0 -96 16 -156q36 -104 108 -176q156 -126 304 -126t288 126l4 -24v-668q-8 -28 -8 -52q-24 -80 -72 -132q-103 -103 -222 -103q-52 0 -106 19q-192 96 -196 288q-32 5 -73 5q-20 0 -43 -1v-84q109 -347 420 -347q44 0 92 7l4 4q184 56 272 208l40 104 q4 48 12 80v924l4 12v404h-116v-272q1 -19 1 -37q0 -71 -13 -119q-103 -216 -293 -216q-45 0 -95 12q-132 60 -188 176l-20 80v376h-120v-312z" />
<glyph unicode="z" horiz-adv-x="730" d="M0 684h400l-16 -20l-8 -16l-60 -88l-12 -20l-32 -52l-8 -8l-16 -24q-20 -36 -36 -56l-188 -288l4 -8v-104h536v112l-392 4l40 60q24 32 36 56l28 40l104 160l4 8q24 32 36 56l12 16l20 32q20 28 28 44l60 88l-4 44v80h-536v-116z" />
<glyph unicode="{" horiz-adv-x="730" d="M4 264q92 -252 332 -264q168 -8 280 96q-32 60 -76 88q-264 -176 -412 88q-20 76 -8 144q24 60 40 84q204 220 84 464q128 280 -84 480l-36 72q-16 84 4 152q164 276 412 88q56 44 76 92l-8 8l-20 16q-60 40 -80 48l-60 20l-28 4h-136q-212 -64 -276 -256 q-40 -252 136 -416q28 -60 32 -108q-12 -116 -76 -200q80 -104 68 -220l-4 -12q-12 -44 -28 -72q-172 -176 -132 -396z" />
<glyph unicode="|" horiz-adv-x="310" d="M10 -12h108v712h-108v-712zM10 780h108v748h-108v-748z" />
<glyph unicode="}" horiz-adv-x="720" d="M0 92q288 -212 528 24q204 292 -52 544l-8 20q-24 44 -28 80q0 124 72 204v20q-76 96 -68 204l20 64l24 44q84 84 116 176q44 212 -80 360q-152 140 -340 112q-112 -28 -184 -96v-16l32 -32q24 -28 48 -44q128 108 272 52q156 -88 148 -252q-16 -64 -36 -100 q-160 -168 -136 -372l20 -60l12 -28l8 -24q-120 -268 76 -460l40 -68l4 -24q16 -44 12 -80q-32 -156 -164 -212q-148 -40 -256 56q-60 -36 -80 -92z" />
<glyph unicode="~" horiz-adv-x="1013" d="M70 1320q32 -28 54 -42t42 -18q76 92 184 108q60 0 104 -16q308 -188 536 64v24l-8 4q-60 44 -84 52q-184 -188 -388 -36l-88 24l-68 4l-32 -4l-64 -12q-140 -44 -188 -152z" />
<glyph unicode="&#xa1;" horiz-adv-x="360" d="M-14 88q20 -32 44 -48q136 -16 128 108q-40 72 -112 64q-76 -44 -60 -124zM10 320h120v1568h-120v-1568z" />
<glyph unicode="&#xa2;" horiz-adv-x="636" />
<glyph unicode="&#xa3;" horiz-adv-x="636" />
<glyph unicode="&#xa4;" horiz-adv-x="420" />
<glyph unicode="&#xa5;" horiz-adv-x="636" />
<glyph unicode="&#xa6;" horiz-adv-x="201" />
<glyph unicode="&#xa7;" horiz-adv-x="420" />
<glyph unicode="&#xa8;" horiz-adv-x="371" />
<glyph unicode="&#xa9;" horiz-adv-x="714" />
<glyph unicode="&#xaa;" horiz-adv-x="402" />
<glyph unicode="&#xab;" horiz-adv-x="540" />
<glyph unicode="&#xac;" horiz-adv-x="1395" />
<glyph unicode="&#xad;" horiz-adv-x="1040" d="M3 498h924v108h-924v-108z" />
<glyph unicode="&#xae;" horiz-adv-x="747" />
<glyph unicode="&#xaf;" horiz-adv-x="360" />
<glyph unicode="&#xb0;" horiz-adv-x="285" />
<glyph unicode="&#xb1;" horiz-adv-x="636" />
<glyph unicode="&#xb2;" horiz-adv-x="300" />
<glyph unicode="&#xb3;" horiz-adv-x="300" />
<glyph unicode="&#xb4;" horiz-adv-x="462" />
<glyph unicode="&#xb6;" horiz-adv-x="450" />
<glyph unicode="&#xb7;" horiz-adv-x="207" />
<glyph unicode="&#xb8;" horiz-adv-x="321" />
<glyph unicode="&#xb9;" horiz-adv-x="300" />
<glyph unicode="&#xba;" horiz-adv-x="402" />
<glyph unicode="&#xbb;" horiz-adv-x="540" />
<glyph unicode="&#xbc;" horiz-adv-x="786" />
<glyph unicode="&#xbd;" horiz-adv-x="786" />
<glyph unicode="&#xbe;" horiz-adv-x="786" />
<glyph unicode="&#xbf;" horiz-adv-x="567" />
<glyph unicode="&#xc0;" horiz-adv-x="609" />
<glyph unicode="&#xc1;" horiz-adv-x="609" />
<glyph unicode="&#xc2;" horiz-adv-x="609" />
<glyph unicode="&#xc3;" horiz-adv-x="609" />
<glyph unicode="&#xc4;" horiz-adv-x="609" />
<glyph unicode="&#xc5;" horiz-adv-x="609" />
<glyph unicode="&#xc6;" horiz-adv-x="819" />
<glyph unicode="&#xc7;" horiz-adv-x="729" />
<glyph unicode="&#xc8;" horiz-adv-x="648" />
<glyph unicode="&#xc9;" horiz-adv-x="648" />
<glyph unicode="&#xca;" horiz-adv-x="648" />
<glyph unicode="&#xcb;" horiz-adv-x="648" />
<glyph unicode="&#xcc;" />
<glyph unicode="&#xcd;" />
<glyph unicode="&#xce;" />
<glyph unicode="&#xcf;" />
<glyph unicode="&#xd0;" horiz-adv-x="663" />
<glyph unicode="&#xd1;" horiz-adv-x="612" />
<glyph unicode="&#xd2;" horiz-adv-x="696" />
<glyph unicode="&#xd3;" horiz-adv-x="696" />
<glyph unicode="&#xd4;" horiz-adv-x="696" />
<glyph unicode="&#xd5;" horiz-adv-x="696" />
<glyph unicode="&#xd6;" horiz-adv-x="696" />
<glyph unicode="&#xd7;" horiz-adv-x="1160" d="M10 748q0 -12 12 -12h304q-12 -8 -16 -16q-12 -8 -16 -16q-12 -8 -16 -16l-176 -176q36 -52 72 -80q12 -8 20 0l200 196v-288h112q8 8 8 16v312l200 -200q24 -28 48 -44q64 60 80 88l-176 176q-24 28 -48 44l24 4h292v120h-316l224 224q-8 16 -16 24l-64 64l-12 -8 l-24 -24q-12 -8 -16 -16l-148 -148q-28 -24 -44 -48l-4 16v276h-120v-256l-208 208q-56 -40 -84 -88q20 -24 28 -28l148 -148q24 -28 48 -44l-24 -4h-292v-108z" />
<glyph unicode="&#xd8;" horiz-adv-x="696" />
<glyph unicode="&#xd9;" horiz-adv-x="660" />
<glyph unicode="&#xda;" horiz-adv-x="660" />
<glyph unicode="&#xdb;" horiz-adv-x="660" />
<glyph unicode="&#xdc;" horiz-adv-x="660" />
<glyph unicode="&#xdd;" horiz-adv-x="526" />
<glyph unicode="&#xde;" horiz-adv-x="576" />
<glyph unicode="&#xdf;" horiz-adv-x="498" />
<glyph unicode="&#xe0;" horiz-adv-x="980" d="M-162 312q128 -392 508 -308q100 32 160 96q8 -24 4 -48h112v684h-112v-96q-148 124 -324 112q-284 -64 -348 -324v-116zM-46 344q16 236 236 288q204 4 292 -164q76 -204 -108 -320q-316 -132 -420 196zM34 1228q12 -8 16 -16q12 -8 16 -16q12 -8 16 -16q12 -8 16 -16 q12 -8 16 -16q12 -8 16 -16l176 -176q60 -68 112 -100l16 16q40 36 60 68l-364 364l-20 4l-32 -32q-28 -24 -44 -48z" />
<glyph unicode="&#xe1;" horiz-adv-x="1015" d="M-264 266q188 -360 540 -228q68 28 112 76q8 -24 4 -48h112v680l-8 4h-104v-96q-152 128 -332 112q-412 -112 -324 -500zM-164 358q16 232 232 288q208 8 296 -164q76 -212 -116 -324q-312 -120 -412 200zM0 938q40 -56 84 -88l376 376q-12 20 -24 28l-52 52h-16z" />
<glyph unicode="&#xe2;" horiz-adv-x="369" />
<glyph unicode="&#xe3;" horiz-adv-x="369" />
<glyph unicode="&#xe4;" horiz-adv-x="369" />
<glyph unicode="&#xe5;" horiz-adv-x="369" />
<glyph unicode="&#xe6;" horiz-adv-x="747" />
<glyph unicode="&#xe7;" horiz-adv-x="510" />
<glyph unicode="&#xe8;" horiz-adv-x="980" d="M-88 498q-80 -252 112 -420q124 -92 260 -88v112q-116 12 -192 80q-68 72 -88 160l16 4h652v88q-112 340 -444 316q-232 -52 -316 -252zM0 1206l272 -272q60 -68 112 -100l16 16q40 36 60 68q-12 8 -16 16q-12 8 -16 16l-96 96q-12 8 -16 16l-76 76q-8 12 -16 16 l-128 128l-20 4l-32 -32q-28 -24 -44 -48zM28 470q96 152 252 164q180 -20 252 -168z" />
<glyph unicode="&#xe9;" horiz-adv-x="990" d="M-290 498q-80 -252 112 -420q124 -92 260 -88v112q-116 12 -192 80q-68 72 -88 160l16 4h652v88q-112 340 -444 316q-232 -52 -316 -252zM-174 470q96 152 252 164q180 -20 252 -168zM-50 918q8 -16 16 -24l64 -64q32 24 52 48l44 44q8 12 16 16q8 12 16 16q8 12 16 16 q8 12 16 16l76 76q12 8 16 16l128 128q-40 56 -92 80z" />
<glyph unicode="&#xea;" horiz-adv-x="486" />
<glyph unicode="&#xeb;" horiz-adv-x="486" />
<glyph unicode="&#xec;" />
<glyph unicode="&#xed;" />
<glyph unicode="&#xee;" horiz-adv-x="390" d="M30 808q16 -44 56 -68l240 240l224 -224l24 20l32 32l-4 20q-12 8 -16 16q-20 24 -28 28l-76 76q-12 8 -16 16l-128 128h-16l-12 -16l-16 -4q-8 -12 -16 -16q-24 -20 -28 -28l-76 -76q-8 -12 -16 -16zM254 -24h120v748h-120v-748z" />
<glyph unicode="&#xef;" horiz-adv-x="350" d="M20 896q52 -76 128 -44q64 48 40 120q-52 56 -120 44q-64 -48 -48 -120zM180 0h120v744h-120v-744zM256 888q40 -48 100 -48q76 32 68 108q-28 88 -120 68q-72 -52 -48 -128z" />
<glyph unicode="&#xf0;" horiz-adv-x="483" />
<glyph unicode="&#xf1;" horiz-adv-x="384" />
<glyph unicode="&#xf2;" horiz-adv-x="366" />
<glyph unicode="&#xf3;" horiz-adv-x="366" />
<glyph unicode="&#xf4;" horiz-adv-x="366" />
<glyph unicode="&#xf5;" horiz-adv-x="366" />
<glyph unicode="&#xf6;" horiz-adv-x="366" />
<glyph unicode="&#xf7;" horiz-adv-x="681" d="M0 16l20 -4q52 -12 92 -12l8 28l4 28l12 40q4 36 12 60l4 16l20 88l8 44l4 12q4 32 12 52q4 32 16 76q8 52 20 88q4 32 12 56l4 16l12 68q8 20 8 36l12 44l4 20l4 16l4 20l4 16l8 32l4 20l4 28l12 40q4 36 12 60l4 12l4 20l16 72l4 28q12 44 16 64q8 52 20 88q0 16 8 40 l12 64l4 20l12 40l4 24l4 20l4 20l4 20q12 28 12 52q12 40 16 68l4 16l8 44q12 28 12 52q20 72 20 120q-64 20 -112 20l-12 -64l-8 -28q-8 -44 -16 -68l-4 -32l-24 -104q-12 -40 -16 -68l-4 -16l-8 -44l-8 -24l-12 -64l-8 -24q0 -16 -4 -28t-8 -40l-8 -32l-4 -16 q-8 -24 -8 -44l-4 -8l-4 -28q-12 -28 -12 -52l-32 -132q0 -24 -8 -40q0 -12 -4 -16q-8 -52 -20 -88q0 -16 -8 -44l-4 -20l-4 -16l-4 -24l-8 -24q0 -12 -4 -16l-4 -24q-8 -44 -16 -68l-4 -32l-12 -52q-12 -40 -16 -68l-4 -20l-24 -112l-4 -16l-4 -16l-4 -16l-4 -16l-16 -64 v-16q-12 -28 -12 -52l-8 -32q-12 -48 -12 -84z" />
<glyph unicode="&#xf8;" horiz-adv-x="366" />
<glyph unicode="&#xf9;" horiz-adv-x="342" />
<glyph unicode="&#xfa;" horiz-adv-x="342" />
<glyph unicode="&#xfb;" horiz-adv-x="342" />
<glyph unicode="&#xfc;" horiz-adv-x="342" />
<glyph unicode="&#xfd;" horiz-adv-x="393" />
<glyph unicode="&#xfe;" horiz-adv-x="348" />
<glyph unicode="&#xff;" horiz-adv-x="393" />
<glyph unicode="&#x152;" horiz-adv-x="954" />
<glyph unicode="&#x153;" horiz-adv-x="756" />
<glyph unicode="&#x178;" horiz-adv-x="526" />
<glyph unicode="&#x2c6;" horiz-adv-x="360" />
<glyph unicode="&#x2dc;" horiz-adv-x="1080" d="M180 1020q32 -28 54 -42t42 -18q76 92 184 108q60 0 104 -16q308 -188 536 64v24l-8 4q-60 44 -84 52q-184 -188 -388 -36l-88 24l-68 4l-32 -4l-64 -12q-140 -44 -188 -152z" />
<glyph unicode="&#x2000;" horiz-adv-x="991" />
<glyph unicode="&#x2001;" horiz-adv-x="1982" />
<glyph unicode="&#x2002;" horiz-adv-x="991" />
<glyph unicode="&#x2003;" horiz-adv-x="1982" />
<glyph unicode="&#x2004;" horiz-adv-x="660" />
<glyph unicode="&#x2005;" horiz-adv-x="495" />
<glyph unicode="&#x2006;" horiz-adv-x="330" />
<glyph unicode="&#x2007;" horiz-adv-x="330" />
<glyph unicode="&#x2008;" horiz-adv-x="247" />
<glyph unicode="&#x2009;" horiz-adv-x="396" />
<glyph unicode="&#x200a;" horiz-adv-x="110" />
<glyph unicode="&#x2010;" horiz-adv-x="1040" d="M3 498h924v108h-924v-108z" />
<glyph unicode="&#x2011;" horiz-adv-x="1040" d="M3 498h924v108h-924v-108z" />
<glyph unicode="&#x2012;" horiz-adv-x="1040" d="M3 498h924v108h-924v-108z" />
<glyph unicode="&#x2013;" horiz-adv-x="684" />
<glyph unicode="&#x2014;" horiz-adv-x="1800" d="M-30 960h1592v108h-1592v-108z" />
<glyph unicode="&#x2018;" horiz-adv-x="288" d="M10 1800l4 -8l28 -32v-340h120v256q4 56 -4 92q20 24 24 48q4 32 -4 60q-52 56 -120 44q-32 -20 -48 -48v-72z" />
<glyph unicode="&#x2019;" horiz-adv-x="320" d="M110 1820l4 -8l28 -32v-340h120v256q4 56 -4 92q20 24 24 48q4 32 -4 60q-52 56 -120 44q-32 -20 -48 -48v-72z" />
<glyph unicode="&#x201a;" />
<glyph unicode="&#x201c;" horiz-adv-x="710" d="M78 1790q-116 -332 220 -380v104q-112 12 -144 112q-16 96 56 156q56 -16 104 16q24 36 28 72q-28 100 -128 80l-16 -8q-32 -36 -44 -72q-48 -40 -76 -80zM322 1594q64 -192 248 -188v96q-100 16 -140 96q-32 108 52 172q56 -12 96 12q32 36 28 80q-16 88 -100 84 q-68 -28 -84 -88q-132 -112 -100 -264z" />
<glyph unicode="&#x201d;" horiz-adv-x="730" d="M-174 1798q48 -72 124 -48l12 -8q140 -204 -100 -260v-96q176 4 236 152q56 192 -96 304q-8 36 -32 64q-36 20 -72 20q-92 -36 -72 -128zM94 1814q48 -76 132 -56q152 -204 -92 -264v-104q332 56 224 372l-16 20q-32 48 -72 72q-12 44 -44 72l-8 4h-72q-68 -44 -52 -116z " />
<glyph unicode="&#x201e;" horiz-adv-x="402" />
<glyph unicode="&#x2022;" horiz-adv-x="387" />
<glyph unicode="&#x2026;" horiz-adv-x="792" />
<glyph unicode="&#x202f;" horiz-adv-x="396" />
<glyph unicode="&#x2039;" horiz-adv-x="321" />
<glyph unicode="&#x203a;" horiz-adv-x="321" />
<glyph unicode="&#x205f;" horiz-adv-x="495" />
<glyph unicode="&#x2122;" horiz-adv-x="681" />
<glyph unicode="&#x25fc;" horiz-adv-x="760" d="M0 0v760h760v-760h-760z" />
</font>
</defs>
</svg>
