<?xml version="1.0" standalone="no"?>
<!DOCTYPE svg PUBLIC "-//W3C//DTD SVG 1.1//EN" "http://www.w3.org/Graphics/SVG/1.1/DTD/svg11.dtd" >
<svg xmlns="http://www.w3.org/2000/svg">
<metadata></metadata>
<defs>
<font id="black_boys_on_mopedsregular" horiz-adv-x="694" >
<font-face units-per-em="2048" ascent="1638" descent="-410" />
<missing-glyph horiz-adv-x="1024" />
<glyph horiz-adv-x="2048" />
<glyph horiz-adv-x="2048" />
<glyph unicode="&#xd;" horiz-adv-x="1024" />
<glyph unicode=" "  horiz-adv-x="1024" />
<glyph unicode="&#x09;" horiz-adv-x="1024" />
<glyph unicode="&#xa0;" horiz-adv-x="1024" />
<glyph unicode="!" horiz-adv-x="309" d="M100 1169q4 16 35 29q61 27 98 -2t37 -84q0 -16 -5 -64.5t-3 -74.5q-2 23 -2 -70v-143q0 -80 2 -193q0 -33 6 -102q5 -9 11 -23q8 -53 -13 -77q-12 -14 -57 -15q-47 0 -65.5 15.5t-20.5 31.5q0 6 3 22.5t3 22.5q0 90 -10 162l-4 397q2 66 2 72q-2 8 -11 47q-8 31 -6 49z M133 141q0 49 29 70q37 31 92 29q48 -2 68 -41q8 -18 8 -37q0 -37 -31 -63.5t-70 -26.5q-14 0 -27.5 3t-41 16t-27.5 50z" />
<glyph unicode="&#x22;" horiz-adv-x="454" d="M45 1331q0 41 72 55q41 8 68.5 -26.5t27.5 -79.5q0 -8 8 -34.5t9.5 -40t5.5 -44.5q-14 -49 -82 -53q-53 -8 -74 33q-12 25 -17.5 91t-15.5 89q-2 6 -2 10zM256 1343q0 6 4 22.5t4 20.5q23 29 62 29q49 0 69 -33q4 -12 11 -34q8 -39 22 -115q0 -6 9 -20.5t9 -28.5 q0 -31 -24.5 -54.5t-56.5 -17.5q-20 0 -60 8q-31 14 -33 54q2 27 -4 110q-4 20 -12 59z" />
<glyph unicode="#" horiz-adv-x="774" d="M41 506q8 14 31 37q20 12 67 12q84 0 80 0q8 88 -10 92q-29 2 -78 21q-20 16 -20 34q0 27 31.5 47.5t58.5 16.5q2 4 2 12q0 10 -13.5 71.5t-11.5 92.5q4 53 74 53q61 0 76 -37q10 -23 10 -34q-2 -53 4 -154q49 -4 152 -4q10 25 4 72q-8 70 -9 75v111q-8 14 -2 43 q6 27 20.5 41t43.5 14q59 0 72 -45q6 -25 6 -86v-106q2 -72 2 -109q51 0 102 2q60 -2 70 -55q14 -72 -103 -72q-20 0 -59 4q-2 -35 -6 -102q10 -8 39 -8h45q35 -2 55 -27q4 -10 12 -31q2 -8 -13 -31.5t-32 -25.5q-29 -4 -110 2q-10 -31 -8 -90t-5 -86q-31 -25 -75 -25 q-31 0 -51 13q-10 29 -5 92q10 94 11 100q-74 8 -142 6q-10 -25 -8 -76t-4 -73q-20 -8 -27 -23q-27 -2 -53 -4q-37 -2 -49 17.5t-10 35.5l8 74q4 57 4 47q-18 8 -104 13q-53 4 -72 53zM352 647q0 -92 2 -96h150v96h-152z" />
<glyph unicode="$" horiz-adv-x="546" d="M45 813q10 59 86 125q68 59 135 84q2 6 13 115q6 68 57 75q16 2 32.5 -19.5t16.5 -41.5q0 -6 -2 -12v-103q27 -12 56.5 -25.5t52.5 -39.5q37 -45 26 -78q-16 -49 -76 -49q-47 0 -59 37q-10 -25 -10 -45q0 8 2 -97q6 -8 16 -8q78 -12 129 -78.5t55 -144.5q4 -66 -65 -117 q-57 -41 -125 -49q-14 -2 -25 -12q6 -47 9 -178q-20 -16 -27 -29q-6 0 -31.5 -6t-42.5 -6q-20 16 -26 30q2 -2 6 45q4 49 0 78q-2 4 0 47q2 31 -12 47q-10 6 -29 17q-25 20 -62 45q-47 18 -47 69q0 55 37 78q6 4 12 -6q25 -4 43 -12q8 -25 17 -47q14 -31 43 -43q18 96 6 182 q-10 -2 -25 -2q-66 0 -118 37q-61 43 -62 110q0 4 -3 13.5t-3 13.5zM172 825q0 -78 80 -80q2 60 8 173q-2 8 -6 12q-82 -29 -82 -105zM360 453q0 -8 9 -27q70 10 69 72q0 71 -63 116q-2 -59 -15 -161z" />
<glyph unicode="%" horiz-adv-x="612" d="M88 963q0 12 4 24t26.5 30.5t43.5 16.5q78 -8 100 -39q12 -18 14 -47q2 -31 -12 -47q-23 -23 -49 -31q-8 -4 -18 -4q-35 0 -72 31t-37 66zM104 37q0 16 13 43q12 35 14 39q6 18 14 53q41 180 78 285q68 164 156 422q8 14 20 47q6 31 21 92q10 35 29 102q4 25 2 94 q0 14 18 31t33 19q33 2 61 -11q37 -14 43 -47q2 -10 -4 -30q-8 -27 -10 -33q-23 -160 -172 -531q-16 -45 -43 -118q-37 -92 -127 -424q0 -12 -2 -41q-8 -35 -60 -37q-61 0 -72.5 13t-11.5 32zM481 324q0 14 4 26t27 29.5t43 15.5q78 -8 100 -37q12 -20 15 -49q1 -31 -13 -45 q-23 -23 -49 -33q-8 -2 -18 -2q-35 0 -72 30t-37 65z" />
<glyph unicode="&#x26;" horiz-adv-x="1062" d="M82 307q6 55 27 164q6 20 53 72q39 41 121 129q-29 37 -74 110q-16 35 -31.5 102.5t-13.5 110.5q-8 25 13.5 77t55.5 58q31 63 173 72q115 8 176 -22q117 -57 116 -148q0 -80 -94 -192q-37 -45 -166 -172q82 -88 158 -154q76 143 176 209q51 33 131 53q8 2 21 2 q63 0 129 -43q75 -51 69 -119q-4 -23 -16 -71q-29 -117 -125 -129q-49 -8 -108.5 32.5t-55.5 94.5q18 14 37 14q20 0 49 -24.5t43 -24.5q6 0 12 4q31 35 41 76q18 68 -18 84q-23 10 -47 10q-70 0 -148 -82q-63 -70 -102 -162q35 -39 107 -104q33 -33 102 -86q53 -33 53 -60 q0 -12 -6 -28q-8 -23 -37 -27q-82 -10 -108 27q-20 29 -174 176q-12 -14 -33 -47q-47 -86 -142 -135q-80 -43 -161 -48q-37 -2 -86 19q-10 6 -37 27q-53 43 -72 108q0 18 -8 47zM195 313q0 -23 4 -43q4 0 8 -8q4 -25 32.5 -44t57.5 -19q18 0 33 8q57 14 121.5 83t80.5 132 q-72 63 -178 170q-160 -147 -159 -279zM283 1028q-12 -35 4 -98.5t26 -87.5q20 -47 56 -82q51 37 118 117q78 90 82 137q6 12 6 24q0 41 -59 62q-47 14 -98 8q-111 -12 -135 -80z" />
<glyph unicode="'" horiz-adv-x="221" d="M45 1331q0 41 72 55q41 8 68.5 -26.5t27.5 -79.5q0 -8 8 -34.5t9.5 -40t5.5 -44.5q-14 -49 -82 -53q-53 -8 -74 33q-12 25 -17.5 91t-15.5 89q-2 6 -2 10z" />
<glyph unicode="(" horiz-adv-x="524" d="M92 563v109q41 352 189 520q57 66 86 92q76 72 125 78q20 4 49 -14q14 -45 0 -68q-25 -18 -66 -55q-143 -131 -196 -260q-59 -147 -66 -357q-6 -166 66 -307q53 -104 159.5 -173.5t124.5 -100.5q-6 -18 -11 -39t-22 -29h-43q-31 0 -53 14q-51 37 -125 97q-12 10 -92 108 q-8 14 -22 45q-53 102 -72 166q-10 57 -31 174z" />
<glyph unicode=")" horiz-adv-x="526" d="M94 27q-2 16 45 45q41 25 84 49q94 61 154 180q72 139 67 301q-8 229 -67 363q-37 82 -152 217q-39 29 -108 98q-12 14 0 68q23 10 45 10q51 0 112 -58q14 -12 103 -108q94 -104 135 -248q23 -74 51 -272v-109q-14 -109 -31 -174q-10 -37 -86 -199q-25 -57 -98 -120 q-66 -55 -127 -97q-16 -10 -51 -14t-43 0q-14 8 -20.5 27.5t-12.5 40.5z" />
<glyph unicode="*" horiz-adv-x="718" d="M104 530q6 45 60 52q47 0 92 2q-23 31 -86 80q-51 41 -53 59q-4 25 8 35q27 23 63 22q20 0 35 -12q33 -39 92 -94q-4 23 -2 61q0 29 27 48.5t55 19.5q14 0 27 -4q25 -12 27 -41q2 -47 6 -58q23 29 61 76q27 29 70 29q47 0 65 -33q8 -23 -24.5 -56.5t-63.5 -66.5 q18 -10 78 -2q51 7 84 -26q6 -6 6 -17q0 -16 -12 -35.5t-23 -21.5q-49 -8 -129 -31q12 -16 66.5 -48t73.5 -52q8 -8 6 -29q0 -23 -15 -35q-23 -23 -53 -22q-37 0 -92 39q-39 27 -76 53q-4 0 -8 -6q8 -27 18 -84q8 -63 -69 -64q-47 0 -64 29q-8 35 -30 106 q-4 -16 -18.5 -48.5t-53.5 -32.5q-35 0 -57 20q-8 6 -15 27q-6 25 2 37q27 23 56 69q-27 -4 -76 0q-20 4 -32.5 21.5t-25.5 33.5z" />
<glyph unicode="+" horiz-adv-x="772" d="M131 592q0 23 25.5 43t46.5 22q6 0 98 -2q70 -4 94 11q-6 80 11 231q18 23 47 23q37 0 47 -29q2 -8 12 -111v-106q18 -8 68 -4q70 4 78 6t22 4h84q47 -6 55 -45q4 -23 -8 -35q-49 -47 -123 -31q-20 2 -170 -6q8 -74 17 -207q2 -23 -13 -30q-31 -14 -67 -15 q-31 0 -42.5 12.5t-11.5 28.5q-2 10 0 29q2 23 2 27q0 20 -5 67t-5 74q-37 -2 -108 0h-90q-63 6 -64 43z" />
<glyph unicode="," horiz-adv-x="436" d="M221 123q-4 92 84 108q53 10 106.5 -52t53.5 -126q0 -25 -12 -43q0 -8 -4.5 -21.5t-16.5 -33.5q-12 -12 -51 -21q-25 -6 -54.5 13.5t-25.5 52.5q4 10 10 33q-27 18 -51 37q-37 27 -39 53z" />
<glyph unicode="-" d="M51 604q0 35 37 53q47 20 107 9h86q174 0 337 18q29 4 60.5 -14.5t23.5 -51.5q-6 -23 -35.5 -38t-56.5 -15h-18q-16 2 -23 2q-37 0 -157 -8q-135 -8 -195 -8q-27 -2 -82 -4q-33 -2 -58.5 15.5t-25.5 41.5z" />
<glyph unicode="." horiz-adv-x="370" d="M199 135q0 14 6 29q25 14 59 31q35 2 77 -18.5t42 -55.5q0 -27 -23.5 -50.5t-50.5 -23.5q-37 -6 -73.5 22.5t-36.5 65.5z" />
<glyph unicode="/" horiz-adv-x="565" d="M104 37q0 16 13 43q12 35 14 39q6 18 14 53q41 180 78 285q68 164 156 422q8 14 20 47q6 31 21 92q10 35 29 102q4 25 2 94q0 14 18 31t33 19q33 2 61 -11q37 -14 43 -47q2 -10 -4 -30q-8 -27 -10 -33q-23 -160 -172 -531q-16 -45 -43 -118q-37 -92 -127 -424 q0 -12 -2 -41q-8 -35 -60 -37q-61 0 -72.5 13t-11.5 32z" />
<glyph unicode="0" horiz-adv-x="886" d="M55 594h13q0 10 8 39t8 43q0 12 -6 22q8 0 14 7q-2 4 -10 4q2 2 7 6t7 6q-2 2 -5 3t-5 3q12 33 23 90q8 47 32 129q37 119 168 246q37 35 80 43q6 0 80 4q102 4 193 -43q104 -53 163 -160q31 -55 58 -149q31 -104 30 -180v-113q0 -76 -32 -256q-10 -66 -41 -137 q-47 -106 -161 -188.5t-220 -82.5q-35 0 -64 11q-156 49 -241 186q-16 27 -43 90q-29 72 -32 111t-16 102v152q8 4 -8 12zM180 512q4 -115 13 -160q14 -84 61 -153q45 -61 70 -80q92 -66 174 -66q18 0 34 4q39 6 93 52q45 41 67 75q31 51 58 154q41 150 41 317 q-1 90 -13 166q-12 29 -28 74q-20 92 -122 170t-188 70q-39 -4 -131 -129q-45 -59 -90 -238q-41 -166 -39 -256z" />
<glyph unicode="1" horiz-adv-x="663" d="M94 -27q16 84 160 68q104 -10 123 2q8 219 -10 700q8 90 16 295q-14 2 -41 -18q-31 -27 -39 -31q-27 -10 -53 -10q-35 0 -51 22q-10 12 -11 29q0 37 74 84q86 53 103 96q43 35 90 35q61 0 73 -61q-4 -8 -8 -23q-8 -63 -14 -241q0 -10 -2 -45t-2 -39v-220q0 -4 3 -50 t3 -50v-467q55 -10 76 -2q27 10 47 10q47 0 80 -53q4 -6 0 -45q-27 -33 -53.5 -43t-79.5 -6q-59 6 -78 2q-2 0 -30 -8t-42 -8q-4 0 -15.5 6t-17.5 6q-10 0 -54 -2t-69 -2h-88q-53 2 -61 14q-18 25 -19 37q-6 6 -10 18z" />
<glyph unicode="2" horiz-adv-x="839" d="M80 1036q0 35 59 140l33 22q10 10 37 27q59 20 121.5 39.5t111.5 21.5q131 4 246 -47q78 -33 127 -120t45 -163q-6 -70 -47 -127q-25 -31 -104 -102q-72 -76 -222 -223q-12 -29 -55 -64q-2 -8 -10 -24q-27 -47 -76 -105q2 -18 -16 -43q-23 -35 -23 -39q-16 -39 -43 -114 q-6 -25 -20 -76q47 14 125 35q47 8 92 8q92 0 213 -45q29 -10 86 -31q29 2 57 2q47 0 68 -22q14 -17 16 -60q0 -27 -49 -47q-47 -20 -139 9.5t-271 74.5q-84 10 -145 -37q-106 -78 -152 -78q-31 0 -55 25v45q0 2 5 8t6 13.5t8 23.5q8 113 49 219q10 31 57 131 q61 129 223 297q47 45 135 135q39 37 78 72q55 53 58 84q4 6 10 21q2 23 -2 61q-2 4 -5 18.5t-7 45.5q-61 123 -236 122q-117 0 -178 -59q-6 -2 -17 -6q-35 -23 -43 -43q-43 -100 -94 -100q-57 0 -57 75z" />
<glyph unicode="3" horiz-adv-x="1019" d="M59 1214q0 23 13 37q35 35 112 37q63 0 289 6q43 0 264 15q33 4 68 8q51 6 68.5 -4t25.5 -29q16 -35 -10 -67q-14 -8 -35 -31q-27 -43 -81 -114t-79 -111q-33 -57 -100 -173q367 -55 457 -301q8 -8 16 -26q18 -84 18 -156q0 -98 -34 -168q-6 -20 -29 -55 q-211 -207 -590 -213q-41 0 -90 22q-55 29 -129 99q-84 78 -94 125q-6 16 -21 49q0 4 -14 90q-4 -6 -4 -23q-4 14 -4 33q0 74 57 163t125 89q33 0 64 -24q8 -6 8 -27q0 -8 -7.5 -21.5t-9.5 -21.5q-29 -25 -57 -49q-41 -39 -45 -66q-4 -16 -4 -35q0 -102 92 -201.5t195 -99.5 q18 0 38 4q35 2 103 9q80 18 164 61q102 53 126.5 113.5t24.5 132.5q0 70 -24 129q-6 16 -19 47q-82 123 -182 154q-25 8 -102.5 10t-112.5 6q-68 8 -109 35q-12 14 -12 35q0 49 41 73q33 20 121 164q59 84 172 250q-252 0 -500 -31q0 -31 15 -112q18 -109 20 -129 q2 -25 -20.5 -50.5t-57.5 -31.5q-33 -6 -57 24q-8 12 -10 49q0 31 -33 230q-2 4 -8 10q-12 63 -13 61z" />
<glyph unicode="4" horiz-adv-x="929" d="M41 580q4 18 22 63v6q6 0 17 8q86 115 307 435q43 61 68 104q12 23 47 53.5t55 38.5q14 4 33 -2q12 -6 24 -10q33 -6 35 -6q23 -6 35 -20.5t16 -84.5q-2 -63 2 -188q4 -92 17 -279q23 -2 76 4q61 8 82 9q76 0 75 -58q0 -12 -4 -28q-37 -45 -104 -45q-10 0 -31.5 2 t-32.5 2q-25 0 -43 -6q0 -72 8 -216q12 -166 25 -204q55 2 164 -2q51 -4 51 -76q0 -37 -35 -55.5t-135 -6.5q-104 12 -156 9q-8 0 -47 -4q-31 -4 -51 -5q-37 0 -110 -4q-47 -2 -66 2q-27 4 -42 24.5t-15 39.5q0 33 34.5 54.5t71.5 21.5q16 0 29 -4h125q12 0 35 6 q4 74 -17 276q0 33 -1 69t-17 58q-115 -10 -256 -35q-113 -20 -160 -20q-35 0 -68 6q-25 4 -63 68zM254 662q-2 -8 4 -15q61 0 164 15q131 20 164 24q-18 170 -23 369q-4 0 -6 2q6 6 6 10q0 2 -6 12q-4 8 0 15q6 8 6 20q-29 -29 -57 -76q-47 -76 -55 -88q-78 -102 -197 -288 z" />
<glyph unicode="5" horiz-adv-x="892" d="M27 1061q-6 41 12 65q29 39 131 39q29 0 76 -3t59 -3q82 4 223 6q23 0 76 9.5t78 9.5q63 0 72 -51q-2 -45 4 -142q12 -80 -6 -104q-41 -18 -68 -19q-47 0 -63 43q-10 27 -11 70q2 55 -2 72q-61 2 -184 -6q-49 -4 -231 -25l-15 -10q-4 -31 8 -135q14 -111 15 -138 q2 0 57 19q27 4 78 12q68 16 143 16q152 0 264 -59q133 -72 175 -211q20 -72 20 -88v-127q0 -35 -35 -145q-8 -18 -65 -90q-152 -178 -361 -179q-94 0 -176 41q-35 35 -104 86q-2 20 -31 58q-23 31 -47 61q-2 23 -29 92q-25 61 -24 76q0 25 25.5 44.5t53.5 19.5q39 0 54 -37 q0 -20 2 -64q12 -59 57 -131q51 -80 104 -108q61 -31 127 -31q115 0 205 88q49 47 58 57q23 25 39 70q-4 16 4 24q18 14 14 72q0 8 3 26.5t3 28.5q0 2 -14 89q-6 6 -13 14q-12 111 -141 166q-100 43 -207 37q-33 -2 -87 -10.5t-79 -24.5q-90 -53 -131 -53q-49 0 -75 57 q2 23 2 65q-6 43 -17 131q-8 72 -26 230z" />
<glyph unicode="6" horiz-adv-x="868" d="M39 594q0 109 2 123q8 39 59 162q12 18 35 53q55 102 170 168q98 55 201 63q10 0 96 -8q10 -2 90 -22q31 -8 60.5 -42t29.5 -65q0 -18 -12 -33q-18 -20 -53 -22q-33 -4 -51 8q-10 23 -56 57q-51 20 -100 21q-145 0 -254 -164q-96 -147 -82 -270q137 133 346 133 q33 0 68 -4q2 0 12 -7q78 0 166 -73q80 -66 119 -148q10 -16 30 -59q8 -27 11 -76q2 -68 2 -74q8 -63 -51 -233q-23 -63 -136 -123q-100 -51 -204 -51q-143 0 -277 100q-18 14 -92 115l-35 65q-14 14 -33 50q-18 61 -49 188q-12 68 -12 168zM182 469q43 -236 131 -336 q98 -111 219 -104q47 -6 107.5 13t89.5 54q68 80 74 219q6 135 -60 215q-98 125 -247 125q-139 0 -291 -174q-8 -4 -23 -12z" />
<glyph unicode="7" horiz-adv-x="942" d="M31 1290q33 47 90 47q53 0 78 -45q14 -27 10 -84q-8 -63 2 -86q98 113 166 103q92 -14 178 -64q47 -27 92 -55q55 -33 90 -39q25 -4 84 31q31 18 33 80.5t68 62.5q72 0 71 -59q0 -11 -2 -21q-35 -123 -182 -467q-4 -12 -137 -401q-25 -84 -72 -242q-12 -37 -15 -82 t-12 -73q-4 -16 -18 -27q-2 0 -47 -12q-18 -6 -43 2q-8 14 -29 28q-8 18 0 52q12 57 45 174q31 90 88 268q2 0 9 10q37 152 92 285q39 90 102 274q-8 -2 -24 -2q-90 10 -129 27.5t-117 58.5q-84 55 -121 56q-20 0 -35.5 -24t-28.5 -46q-2 -4 -18 -33q-12 -39 -51 -149 q-27 -63 -94 -64q-25 0 -50 8q-33 10 -36 37q-6 43 4 168q0 2 -9 119q-4 74 -24 133q-14 43 -8 51z" />
<glyph unicode="8" horiz-adv-x="907" d="M35 367q2 39 22 112q-2 4 -4 13q72 168 180 247q-154 53 -192 144q-23 55 0 110q41 94 151.5 164t202.5 72q20 -4 64 -4q25 2 49 2q117 0 203 -45q106 -55 135 -164q14 -51 8 -72q-29 -104 -149 -184q25 -10 65 -29q31 -8 82 -35q125 -102 121 -213q2 -43 -10 -159 q-2 -14 -31 -70q-57 -115 -189 -180q-106 -53 -211 -58q-309 -10 -456 193q0 6 -2 14q-43 78 -39 142zM168 377q0 -121 111 -191q96 -61 225 -61q39 0 74 6q70 6 151 70q90 69 102 143q16 96 17 123q0 82 -55 131q-82 70 -271 94q-14 10 -35 21q-37 4 -47 2 q-82 -10 -172 -113q-100 -113 -100 -225zM180 938q12 -115 230 -119q98 2 159 21q33 8 80 24q76 49 76 121q0 35 -22.5 65.5t-84 56.5t-104.5 23q-35 -2 -90 -10q-16 -4 -82 -24q-45 -16 -100 -64q-66 -55 -62 -94z" />
<glyph unicode="9" horiz-adv-x="845" d="M51 745q-8 150 43 224q63 92 183 164.5t215 74.5q84 -6 88 -6q61 -10 94 -45q10 -8 28 -24l62 -78q41 -51 53 -86q14 -25 39 -72q16 -39 16 -139q0 -129 -6 -238q-10 -133 -49 -223q-45 -102 -149 -193q-20 -10 -58 -28q-84 -45 -207 -51q-100 -4 -186 53q-2 2 -7 12 t-5 14q2 2 6 5q-8 61 68 61q27 0 47 -10q6 -8 22 -19q37 -12 74 -12q123 0 217 111q90 102 90 215q0 20 -4 37q-100 -96 -260 -97q-117 0 -222.5 54.5t-146.5 134.5t-45 161zM186 809q-4 -53 15.5 -124t101.5 -128t156 -53q100 -14 196 90q90 100 90 211q0 55 -28 94 q2 4 2 10q-4 2 -13.5 25.5t-23.5 23.5q-12 66 -49 89q-23 14 -35 22l2 2q-6 10 -25 12h-24q-68 14 -96 9q-63 -12 -142 -72q-84 -61 -108 -125q-16 -39 -19 -86z" />
<glyph unicode=":" horiz-adv-x="303" d="M119 743q0 12 4 24.5t26.5 31t40.5 16.5q80 -8 101 -39q14 -18 16 -47q2 -31 -14 -47q-23 -23 -49 -31q-8 -4 -19 -4q-33 0 -69.5 31t-36.5 65zM125 492q0 14 6 28q25 14 59 31q35 2 77 -18.5t42 -57.5q0 -25 -23 -48.5t-50 -23.5q-37 -6 -74 23t-37 66z" />
<glyph unicode=";" horiz-adv-x="323" d="M102 520q-4 92 84 109q53 10 106.5 -52.5t53.5 -125.5q0 -25 -12 -43q0 -8 -4 -21.5t-17 -34.5q-12 -12 -51 -20q-25 -6 -54.5 13.5t-25.5 51.5q4 10 11 33q-27 18 -52 37q-37 27 -39 53zM109 854q0 10 4 23q14 35 90 45q29 -14 55 -29q33 -22 33 -51q0 -27 -19.5 -51.5 t-48.5 -24.5q-10 0 -20 4q-37 0 -65.5 25.5t-28.5 58.5z" />
<glyph unicode="&#x3c;" horiz-adv-x="518" d="M70 606q0 25 39 51q31 20 59 41q88 66 215 189q37 51 68 51q31 -2 59 -16q37 -18 29 -48q-8 -29 -37 -55q-45 -41 -242 -203q16 -35 158 -108q6 -2 63 -53q14 -4 47 -25q33 -31 23 -74q-8 -29 -70 -43q-57 -2 -101 38t-85 81q-68 45 -131 84q-29 16 -82 59q-12 16 -12 31 z" />
<glyph unicode="=" horiz-adv-x="708" d="M94 764q6 14 33 28.5t41 14.5q39 2 125 -2q117 -6 143 -6q23 0 135 2q55 2 125 -10q12 -2 24.5 -25t8.5 -35q-8 -25 -36.5 -40t-49.5 -13q-139 23 -467 -4l-12 6q-47 6 -60 20q-27 33 -10 64zM127 467q-2 16 11.5 33.5t119.5 40.5q57 12 160 20q80 6 170 -2h100 q57 -4 55 -47q0 -63 -90 -63q-23 0 -75 6h-193q-31 -6 -45 -6q-41 -2 -87 -11.5t-63 -9.5q-16 0 -32 6q-27 6 -31 33z" />
<glyph unicode="&#x3e;" horiz-adv-x="614" d="M170 350q-12 45 20 74q18 6 48 25q31 33 112.5 76.5t108.5 78.5q-31 33 -109 93.5t-121 107.5q-25 23 -49 63q0 20 2 27q16 27 62 35q47 8 92 -51q41 -51 113 -111l122 -98q25 -12 66 -41q10 -10 8 -33q-2 -21 -8 -29q-18 -18 -78.5 -56t-132.5 -87q-37 -33 -72 -68 q-55 -49 -88 -49q-86 0 -96 43z" />
<glyph unicode="?" horiz-adv-x="655" d="M55 915q0 102 125 201q66 53 221 88q23 4 43 4q96 0 177 -84t81 -182q0 -76 -65 -162q-2 -2 -125 -137q-70 -76 -72 -123q-2 -41 30 -92t32 -70q0 -18 -17 -36q-61 -23 -106 8q-12 8 -21.5 37.5t-13.5 35.5q-31 51 -31 103q0 82 76 174l94 98q70 78 84 125q4 16 4 39 q0 51 -27.5 99.5t-74.5 60.5q-35 10 -107 -10q-117 -33 -184 -140q-23 -35 6 -102q0 -43 -57 -43q-16 0 -27 8q-45 43 -45 100zM389 164q0 63 74 65q20 0 51 -6q78 -14 78 -88q-1 -29 -19 -49q-27 -31 -59 -25q-14 -8 -31 -8q-37 0 -65.5 36t-28.5 75z" />
<glyph unicode="@" horiz-adv-x="841" d="M49 543q2 8 4 24q-6 70 -4 82q10 31 29 90q-4 0 8 -4q23 39 45 78q27 47 68 90q86 88 231 88q111 0 223 -49q106 -45 162 -106q37 -46 55 -150q6 -33 -19.5 -94.5t-59 -76.5t-78.5 -15q-66 0 -117 32q-63 -84 -158 -83q-104 0 -143 108q-8 20 0 74q12 55 37 82 q10 12 37 30q12 6 37 15q70 18 127 -8.5t85 -59.5q18 -25 39 -51.5t50 -32.5q43 51 43 103q0 82 -105 143q-90 53 -182 53q-16 0 -31 -2q-20 -2 -59 -9t-92.5 -61.5t-79.5 -105.5q-35 -74 -35 -164t35 -162q18 -35 62 -74.5t82 -52t95 -4.5q55 8 95 29q27 14 81 59 q43 33 58 33q6 -2 67 -35q2 -14 -4 -39q-51 -68 -145 -110q-86 -39 -170 -41q-145 -2 -229 67q-20 18 -54 56q-78 94 -90 254z" />
<glyph unicode="A" horiz-adv-x="1165" d="M49 207q0 49 49 57q10 1 21 1q23 0 53 -5q10 -4 162 -14q12 86 41 239q63 252 133 639q-20 4 -43 4q-39 0 -116 -22.5t-113 -22.5q-14 0 -41 23q-8 25 11 44t42.5 23.5t75.5 14.5q88 16 213 24q59 4 61 5q33 -4 49.5 -32t32.5 -89q20 -76 27.5 -92.5t23.5 -53.5 q8 -25 31 -73q47 -113 147 -353q37 -98 117 -299q35 4 90 35t82 31q25 0 47 -19q6 -6 10 -30v-10q0 -19 -6 -27q-14 -16 -59 -33q-168 -66 -289 -162q-23 -16 -80 -18q-16 0 -33.5 14t-17.5 33q0 25 55 63q39 25 78 52q2 10 -67 241h-6q-113 0 -349 -73q-14 -4 -16 -16.5 t-6 -41.5q-4 -6 -8 -18q0 -8 23.5 -17.5t29.5 -17.5t6 -21q0 -25 -21.5 -46t-52.5 -21q2 0 -74 10q-14 2 -186 17q-82 8 -108 24q-18 12 -19 33zM494 436q184 35 288 53q13 9 13 13q-35 68 -88 205q-20 47 -111 245z" />
<glyph unicode="B" horiz-adv-x="999" d="M-104 1077q-1 12 -1 18.5t1 8.5q16 36 92 36q11 0 24 -1q6 0 34 4t38 6t31 6q233 11 308 11q22 0 30 -1q133 -10 178 -20q121 -29 168 -101q9 -15 9 -39q0 -18 -5 -40q-23 -80 -131 -140q-43 -25 -176 -71q289 -59 403 -222q10 -15 10 -62v-17q-20 -86 -116 -156 q-82 -57 -143.5 -84t-121.5 -51q-45 -18 -157 -45q-123 -29 -185 -51q-67 -25 -86 -25h-4q-20 6 -28 12q-14 10 -21 27q-8 31 25 51q14 10 80 21q0 2 -3.5 12t-3.5 16q6 47 7 51q-8 125 -27 371q-4 61 -6 100q-2 4 -8 11q8 50 8 109q0 97 -21 218l4 4q-18 2 -36 3 q-16 0 -43 -3.5t-41 -3.5q-45 0 -86 37zM217 1067q16 -115 19 -168v-123q106 16 292 80q96 33 121 68q33 47 33 69q0 41 -74 61.5t-178 24.5h-111q-47 0 -102 -12zM244 668q10 -213 30 -437q-4 -14 -4 -16q8 -14 15 -33q111 12 277.5 83t217.5 169q8 16 8 30t-8 25 q-147 182 -434 183q-47 0 -102 -4z" />
<glyph unicode="C" horiz-adv-x="772" d="M49 457v202q0 29 14.5 123.5t18.5 104.5q72 190 158 209q39 8 86 8q152 0 274 -74q8 -4 21 -4q2 6 4 51q1 0 1 8q0 16 -3 64v13q0 38 10 56q12 20 49 21q63 0 70 -37q0 -2 -4 -151q-4 -113 -5 -142q2 -35 5 -30q-8 -31 -29 -37q-29 -10 -49 -10q-17 0 -27 8q-10 0 -22 6 q-10 29 -46 76q-47 39 -122.5 67.5t-128.5 28.5q-68 0 -109 -105q-52 -129 -52 -328q0 -21 1 -42q4 -100 6 -127q10 -84 45 -144q25 -41 76 -67.5t100 -28.5h20q225 0 265 215q13 66 13 121q0 45 -9 82q-4 16 4 44t72 34q14 0 34.5 -13.5t20.5 -27.5t1 -29q0 -74 -9 -158 q-16 -176 -92 -256q-35 -37 -166 -84q-57 -18 -127 -18q-111 0 -199 41q-96 45 -119 117q-8 10 -18 28q-10 61 -33 185z" />
<glyph unicode="D" horiz-adv-x="1099" d="M-43 96q25 48 93 48q10 0 20 -1q87 -8 124 -8q19 0 25 2q0 45 -4 121q-8 104 -10 127q-10 172 -35 616q-2 31 -10 46q-10 6 -27 0q-20 -6 -49 -7q-45 0 -83 16.5t-38 45.5q0 10 6 22q23 49 97 50q16 0 59 -5q35 -4 51 -2h8q29 0 150 -10q109 -10 178 -24 q256 -57 426 -330q29 -47 61 -150q12 -36 12 -96q0 -38 -5 -86q-12 -96 -91 -182q-63 -68 -188 -129q-213 -104 -383 -109q-33 -2 -109.5 -5t-80.5 -3h-117q-9 -2 -17 -2q-20 -1 -36 11q-22 16 -27 44zM291 1059q20 -471 39 -697q8 -74 24 -219q11 -1 21 -1q99 0 221 50 q136 54 229 144q2 2 29 49q41 68 41 147q0 193 -211 383q-27 25 -117 74q-121 63 -276 70z" />
<glyph unicode="E" horiz-adv-x="1081" d="M-4 1161q45 37 102 41h74q256 4 829 119q2 1 5 1q6 0 16 -3q14 -4 16 -6q16 -23 23 -51q-2 -30 -2 -62q0 -63 8 -131q-25 -35 -76 -35q-27 0 -47 10q-2 55 -10 164q-174 -33 -555 -96q-18 -2 -31 -10q10 -188 10 -369q3 -1 8 -1q28 0 121 20q53 8 164 39v15q0 33 -6 94.5 t-6 97.5v16q0 39 53 39q61 0 66 -52q8 -78 24 -233v-317q6 -8 9 -13q-6 -25 -35 -42t-58 -17q-37 0 -49 33q4 20 6 63l-2 189q-129 -4 -291 -54q0 -37 -2 -188q-1 -62 -1 -105t1 -65q0 -10 17 -37q43 -2 133 -8q104 -10 209 -21q97 -11 170 -11q21 0 39 1q2 27 10 84v121 q-12 20 -12 39q0 31 25.5 52.5t56.5 21.5q25 0 39 -15q8 -8 4 -53q-2 -10 1 -35.5t3 -34.5q0 -12 -3 -39.5t-3 -29.5v-123q0 -2 6 -21q4 -18 0 -24q-29 -57 -86 -58q-14 0 -35 4.5t-25 4.5h-125q-49 0 -177 14t-218 14h-129q-16 0 -65.5 -5t-75.5 -5q-55 0 -90 18 q-10 6 -11 31q0 23 13 35q27 27 73 31h64q23 -4 61 4q12 6 15 29q2 14 0 43q-2 33 -2 36q0 213 -2 244q-37 4 -103 27q-19 15 -19 37q0 11 5 24q12 33 55 47q31 10 62 19q6 23 2 55q-4 29 -6 55q-4 88 -15 271q-8 0 -55 -6.5t-74 -6.5q-94 0 -94 58q0 8 2 18q-2 4 -4 4z" />
<glyph unicode="F" horiz-adv-x="1073" d="M23 10q-1 6 -1 11q0 15 5 24q31 57 104 59q119 6 121 7.5t10 11.5v22q0 59 6 234v225q-100 -4 -110 -4q-47 4 -47 62q0 29 18 40q12 8 39 23q29 4 84 18q-8 53 -16 156q0 20 7 87t7 97q0 43 -12 58q-16 0 -54.5 -7.5t-56.5 -7.5q-47 0 -70 39q-8 10 -8 23q0 33 51 55 q43 20 76 21q45 2 119 14q92 16 119 20q94 12 282 31q123 4 340 27q28 5 48 5t32 -5q29 -12 33 -47q2 -8 0 -58q0 -16 -6 -92q-4 -61 -4 -98q0 -4 5 -11.5t5 -9.5q0 -14 2 -39q-4 -10 -16 -26q-27 -16 -68 -17q-43 0 -48 33q-3 18 -3 45q0 22 2 49q8 82 8 99q0 39 -12 59 q-84 -6 -266 -18q-250 -12 -379 -49q-2 -23 -11 -41q0 -14 2 -39q-4 -39 -4 -84q0 -117 33 -248q15 -1 33 -1q71 0 184 13q0 33 -4 92q-6 70 -7 94.5t-5 47.5q-2 29 6 47t47 20q37 4 53.5 -8t18.5 -37.5t4 -48.5q6 -70 8 -188q45 -12 45 -62q0 -10 -2 -16q-10 -10 -27 -35 q-2 -4 0 -33q0 -43 9 -133q6 -39 -9 -49q-35 -25 -75 -25q-41 0 -47 33v137q-2 16 -7 47q-10 6 -40 6q-11 0 -25 -1q-37 -6 -76 -11h-6q-28 0 -76 -16v1q-2 0 -2 -122v-168q0 2 -5 -60.5t-5 -94.5q0 -55 0 -54l6 -6q49 0 152 8q4 0 34 6q20 6 33 3q16 -6 31.5 -27t15.5 -37 q0 -23 -30 -41q-20 -10 -43 -22q-14 0 -41 2h-119q-51 0 -158.5 -37t-153.5 -37q-25 0 -45 8q-10 6 -23 17.5t-15 33.5z" />
<glyph unicode="G" horiz-adv-x="970" d="M35 522q0 57 6 100.5t16 122.5q4 4 9 17q10 59 43 176q86 211 227 291q109 61 227 61q143 0 258 -94q2 2 4 18q-2 14 -2 33t2 45q8 33 64 33q10 0 18 -4q27 -10 31 -37q2 -13 2 -31q0 -53 -14 -147v-8q0 -35 -15 -84q-23 -25 -51 -25q-45 0 -65 39q0 14 -7 37 q-33 57 -75 90q-55 43 -152 49q-15 1 -30 1q-145 0 -234 -126q-70 -102 -98 -243q-6 -18 -17 -58q-22 -120 -22 -217v-8q0 -141 45 -270q27 -76 108 -123q76 -45 156 -45q53 0 106 22q37 14 113 133q16 27 27 62q12 47 16 59q16 39 17.5 99.5t9.5 87.5q-12 1 -26 1 q-46 0 -114 -10q-119 -18 -120 -18q-68 0 -97 53q-8 18 -4 39q8 25 35 43q33 25 100 25q17 0 37 -2q145 -14 234 -15q12 0 67 2q24 1 43 1t31 -1h13q26 0 59 -6q24 -22 24 -49q0 -23 -14 -37q-20 -20 -63 -22q7 0 7 1t-77 3q-6 -57 -27 -156q10 -88 33 -256q14 -31 35 -96 q4 -33 -23.5 -54.5t-64.5 -21.5q-35 0 -51 21q-2 20 -13 63q-20 57 -18 72q2 0 -4 8q-115 -158 -305 -158q-113 0 -219 55q-76 37 -127 130q-74 133 -74 329z" />
<glyph unicode="H" horiz-adv-x="1085" d="M41 1245q31 63 113 64q-2 0 96 -9q61 -5 100 -5q19 0 33 1q103 5 103 7h-1q102 0 102 -56q0 -6 -1 -12q-10 -49 -94 -51q-63 -2 -125 -4q12 -72 16 -160v-158q-2 -111 -2 -160q2 -2 6 -4q33 -2 66 -2q76 0 194 13q160 18 195 20q10 66 10 156q0 170 -29 381q2 0 -82 0 q-43 0 -77.5 15t-34.5 62q0 20 14 33q41 35 100 35q94 0 94 -1l-3 -1h141q8 0 37.5 3t46.5 3q66 0 82 -41q8 -16 8 -31q0 -45 -84 -53q-61 -2 -123 -4q23 -244 23 -469v-543q0 -12 6 -47q8 -53 8 -104q-3 -61 -3 -104q0 -22 1 -39q4 -6 8 -11q100 12 98 13q78 -1 78 -63 q-1 -19 -23 -44q-24 -27 -85 -27h-47q-33 -2 -52 -2q-39 0 -80 -6q-23 -4 -96 -33q-64 -26 -96 -26h-2q-27 0 -49.5 19.5t-22.5 45.5q0 43 101 68q145 37 149 39q-4 131 -10 301q-6 160 -6 152v114q0 2 4 31q2 23 0 33q-2 18 -15 22q-2 2 -61 2q-102 -2 -238 -28 q-51 -12 -153 -35l-4 -293q2 -8 2 -80q0 -57 12 -70q10 -4 109 -8q68 -2 84 -49q4 -12 -9.5 -36.5t-27.5 -31.5q-33 -12 -45 -12q-45 2 -134 11l-90 8h-133q-33 2 -63.5 19t-30.5 40q0 33 39 53q31 14 68 15q14 0 51 -3.5t53 -1.5q-2 40 -2 101t2 143q0 -2 0 170q0 6 3 25.5 t3 29.5q-6 8 -12 25q-4 16 0 29q11 26 11 73q0 14 -1 29q0 12 3 42t3 44q0 27 -3 84l-3 57v170q0 12 -8 39q-57 -6 -84 -6q-119 0 -131 84z" />
<glyph unicode="I" horiz-adv-x="497" d="M23 63q-1 4 -1 8q0 16 17 39q22 29 47 35h14q54 0 133 13q-2 115 -6 446q-1 33 -1 65.5t1 65.5q2 82 2 115v137v15q0 46 -10 116q-72 -12 -92 -12q-63 0 -94 41q-4 12 -4 22q0 80 166 97q31 3 61 3q45 0 88 -7q59 -6 121 -13q55 -3 61 -28q2 -10 2 -21q0 -49 -65 -63 q-55 -4 -109 -11q-16 -2 -14 -20q2 -16 4 -33q0 -51 4 -149l4 -770q18 -4 84 -4h12q44 0 64 -13q14 -10 18 -43v-9q0 -25 -10 -40q-23 -16 -69 -35l-148 8h-49h-107q-63 4 -67 5q-45 8 -57 40z" />
<glyph unicode="J" horiz-adv-x="876" d="M51 332q0 45 19.5 95t52.5 69q100 55 151 55q35 0 63 -27.5t28 -62.5q0 -29 -25 -49q-8 -6 -37 -9q-33 -4 -40 7.5t-32 31.5q-8 4 -24 -4q-27 -10 -31 -49q2 -20 2 -59q-2 -68 55 -140q6 -6 68 -45q119 -73 209 -73h2q23 0 43 4q31 4 80 30q70 74 96 205q14 74 23 232 v139q0 129 -47 283v18q-8 6 -15 31q-10 33 -12 37q-2 18 -6 41.5t-23 29.5h-2q-13 0 -67 -18q-66 -20 -90 -21q-25 0 -41 11q-29 18 -37 36.5t-4 30.5q18 63 108 84q63 8 129 17q47 10 234 22q16 -2 34.5 -19.5t18.5 -31.5q-4 -49 -62 -66l-90 -20q27 -59 58 -182 q37 -145 37 -226v-186q0 -150 -19 -219q-33 -123 -41 -146q-37 -102 -100 -151q-72 -55 -166 -70q-20 -2 -45 -2q-156 0 -301 92q-153 97 -153 229q0 9 1 19q-2 10 -2 27z" />
<glyph unicode="K" horiz-adv-x="1251" d="M43 1096q0 37 115 57q76 14 229 43q10 2 49 12q31 8 47 9q57 0 58 -41q0 -33 -21 -60q-25 -16 -73 -19t-52 -8.5t-14 -91.5q-12 -98 -12 -137v-90q-2 -66 -2 -100l6 -6l454 426q-29 2 -88 4q-100 2 -106 80q0 12 17.5 29.5t33.5 21.5q27 8 209 8q59 4 170 6q16 -2 47 0 q35 4 49 4q70 0 90 -43q4 -9 4 -18q0 -21 -20 -43q-8 -10 -47 -21q-12 -4 -34 -4t-52 4q-14 1 -34 1t-46 -1q-6 -20 -25 -31q-47 -29 -118 -102q-59 -61 -119 -125q25 -66 82 -205q70 -170 82 -176q20 -41 61 -119q88 -139 102 -139q59 6 179 23q14 4 38.5 -5.5t30.5 -24 t6 -28.5q0 -55 -65 -71q-18 -6 -133 -6q-47 0 -130 -21.5t-163 -42.5q-39 -8 -64 -8h-10q-12 0 -30.5 17.5t-18.5 33.5q0 8 4 14q27 39 98 56q84 16 107 32q-55 90 -158 277q-27 63 -96 209q-10 25 -37 80q-49 -35 -115 -103q-76 -78 -110 -108q-14 -10 -45 -37 q-1 -29 -1 -56q0 -136 17 -216h14q25 0 59 5q44 7 56 7q33 0 47 -29q8 -18 8 -31q0 -66 -133 -66q-19 0 -41 1q-10 0 -61 -11.5t-72.5 -11.5t-58.5 -7t-60 -7q-43 0 -79 20q-12 8 -11 25q8 61 74 68q106 12 118.5 18t12.5 33v57q-2 41 -2 58v139q0 2 -10 16q8 32 8 87v22 q-1 64 -1 111.5t1 76.5q2 86 14 211q4 31 -4 35q-23 -2 -74 -13.5t-73 -11.5q-29 0 -53.5 15.5t-24.5 42.5z" />
<glyph unicode="L" horiz-adv-x="1013" d="M47 1163q0 61 121 62q25 0 78 -4q43 -2 57 0q43 6 207 8q39 0 54.5 -16.5t15.5 -43.5q0 -37 -23 -49q-28 -16 -83 -16h-13q-27 1 -48 1q-42 0 -57 -3q4 -98 19 -293v-100q0 -33 24 -275q6 -55 17 -174q4 -6 10 -6q53 -7 99 -7q18 0 36 1q76 6 154 12q49 2 98 6 q66 4 129 21q0 23 -10 73q-12 63 -14 74q2 20 2 60q-8 53 -17 94q2 0 8 6q-2 18 21.5 32.5t50.5 14.5q14 0 25 -6q18 -10 28 -48q7 -26 8 -47q0 -10 -2 -20q-2 -18 -2 -40q0 -70 19 -183q12 -16 26 -51q2 -8 2 -15q-1 -25 -23 -41q-28 -20 -78 -23t-97 -5q-31 -2 -367 -31 q-78 -4 -254 -22q-82 -14 -92 -15q-57 0 -90 37q-4 37 0 43q25 45 92 51q55 4 109 8q2 0 4 5q1 12 1 24q0 75 -22 168v115q0 106 -24 356q-4 61 -13 178q-12 8 -32 6q-27 -4 -33 -2q-31 4 -64 9q-41 8 -51 36q-6 18 -6 35z" />
<glyph unicode="M" horiz-adv-x="1474" d="M72 68q-3 8 -3 18t3 23q2 12 59 43q37 20 64.5 27t54.5 14q20 2 63 10q8 4 13 16q0 51 2 133q12 125 24 516v111v29q0 74 -8 153q-8 12 -18 10q-57 -12 -160 -24h-5q-74 0 -85 63q-2 8 4 19q14 31 57 37q33 2 69 5t116 9q16 0 51 6q17 6 34 6q25 0 52 -12q16 -18 53 -92 q57 -133 178 -397q33 -59 90 -170q37 -74 115 -222q29 160 115 707q2 6 12 141q6 57 86 68q26 -1 65 -1t91 1q55 0 166 6q6 1 11 1q25 0 46 -16q26 -18 26 -49t-31.5 -49t-66.5 -20q-27 12 -63 12q-80 0 -156 -20q-10 -2 -8 -47q0 -37 8 -109q4 -8 12 -29q8 -70 29 -204 q35 -195 51 -338q25 -211 25 -217q12 -4 47 16q51 27 59 31q20 8 54 8q61 0 65 -39q0 2 -10 -59q-47 -45 -119 -50q-33 -16 -104 -55q-29 -6 -88 -25q-39 -23 -140 -63q-13 -3 -25 -3q-29 0 -48 21q-1 6 -1 11q0 50 64 88q59 29 119 59q-20 350 -90 676q0 -2 -4 -6 q-25 -211 -78 -600q-4 -29 -29 -86q-8 -6 -21.5 -13.5t-56.5 -17.5q-6 -1 -11 -1q-32 0 -48 42q-25 78 -96 236q-45 90 -140 258q-31 51 -69 137q-55 123 -66 143q-4 -33 -8 -145q-1 -12 -1 -29.5t1 -38.5v-74q0 -14 -4 -43q-6 -35 -6 -47q-2 -35 -8 -184q-1 -47 -1 -76 t1 -39q0 -20 22 -24q6 0 24.5 4t26.5 6q35 2 78 13.5t57 11.5q31 0 56 -25q4 -18 4 -35t-4 -33q-31 -29 -78 -41q-27 -2 -82 -8q-102 -14 -219 -39q-57 -23 -170 -55q-23 -4 -53 2q-37 6 -41 23z" />
<glyph unicode="N" horiz-adv-x="1196" d="M41 1139q0 10 18.5 28.5t30.5 20.5q16 4 52 4q24 0 57 -2q25 0 72.5 3t68.5 3q14 0 47 -20.5t45 -40.5q2 0 115 -207q45 -84 103.5 -173t135.5 -216q51 -88 150 -267q8 35 8 74q0 10 4 48t4 55q0 16 -3 52t-3 38v118q0 18 -10 504q-8 2 -18 2q-18 0 -55.5 -8t-51.5 -10 q-27 2 -72 2q-2 2 -27.5 19.5t-23.5 29.5q0 14 10 39q29 35 76 41l78 4q104 2 330 23q5 1 10 1q28 0 56 -18q34 -22 34 -47q0 -10 -8 -18q-33 -43 -94 -50q-100 -6 -115 -10q-2 -43 -2 -137q2 -96 12 -279q-2 -39 -4 -110q9 -260 10 -260v4v-43q0 -95 -6 -254 q-4 -25 -28.5 -55.5t-57.5 -34.5q-4 0 -53 18q-6 27 -16 45q-41 61 -111 174q-45 88 -141 265q-68 94 -203 303q-14 29 -49 86l-4 2q-3 -39 -3 -78q0 -52 5 -105q0 -4 3 -14t3 -16v-142q0 -98 -6 -155q2 -29 10 -84q29 -16 70 -17q16 0 44.5 3.5t43.5 3.5q59 0 86 -43 q2 -7 2 -13q0 -32 -45 -53q-37 -19 -73 -19q-8 0 -15 1q-16 1 -36 1q-54 0 -134 -8q-39 -4 -117 -20q-48 -8 -89 -8h-16q-92 8 -92 82q0 12 4 24q33 49 117 49h33q20 -2 31 -2q41 0 57 15q-2 12 -2 41v221q8 23 6 63l-4 70q-2 55 -8 100q-4 74 -11 197q0 -6 3 39 q2 27 -13.5 37t-48.5 10q-16 0 -49 -4t-49 -4q-78 0 -78 82z" />
<glyph unicode="O" horiz-adv-x="1003" d="M51 573q0 111 29 232q37 158 100 270q51 94 121 166q92 100 168 100h6q207 0 361 -131q35 -29 75 -108q37 -70 52 -119q14 -39 36 -111q12 -49 19 -116q4 -54 6 -107q4 -34 4 -75q0 -93 -22 -218q-20 -119 -68 -215q-37 -72 -133 -131q-87 -54 -153 -54q-7 0 -13 1h-14 q-127 0 -303 66q-205 102 -246 370q-6 18 -23 109q-2 35 -2 71zM170 578q0 -70 8 -134q8 -14 17 -43q33 -168 114 -245q74 -70 178 -90q90 -16 124 -16q9 0 14 1q242 4 282 432q7 64 8 64v-2q-8 215 -24 282q-12 51 -41 113q-10 33 -29 98q-6 14 -20 37l4 4q-41 45 -131 119 q-76 47 -154 47q-123 0 -211 -147q-139 -231 -139 -520z" />
<glyph unicode="P" horiz-adv-x="948" d="M37 1241q0 18 12 29q45 35 137 43q72 4 146 8q10 0 28.5 -2t26.5 -2q16 0 96 4q28 1 52 1t43 -1q94 -8 243 -47q6 -2 62 -31q37 -18 73 -55q45 -43 52 -82q8 -60 8 -82v-8q-27 -139 -133 -207q-74 -47 -221 -72q-180 -31 -222 -45v-106q6 -66 9 -252q2 -125 22 -203 q2 -4 31 0q39 2 119 10q16 4 49 11q10 1 20 1q41 0 58 -22q12 -14 12 -41q0 -52 -46 -62q-28 -6 -60 -6q-21 0 -44 3q-13 2 -29 2q-24 0 -55 -4q-74 -8 -82 -9q-43 -2 -140 -16t-138 -14q-66 0 -94 24q-25 18 -11 41q14 29 33 35q41 16 115 16q51 0 135 13q-3 23 -3 61 q0 19 1 41q0 16 -4 49q0 2 -3 10.5t-3 12.5q0 76 -2 92q-6 23 -6 78v30v125t-4.5 25.5t-4.5 15.5v138v-3q-1 0 -16 396q0 14 -12 22q-27 -2 -83.5 -14t-82.5 -12q-51 0 -82 34q-2 14 -2 27zM428 1206q0 -20 4 -151q2 -86 10 -258q4 0 58 6q16 0 45 6q98 16 198 35 q121 29 144 129q8 28 8 49q0 11 -2 20q-37 174 -434 177q-10 0 -31 -13z" />
<glyph unicode="Q" horiz-adv-x="1019" d="M35 631q0 160 69 311q49 102 160 211q133 131 232 131q37 0 159 -22q106 -20 242 -132q43 -37 90 -153q49 -123 49 -252q0 -96 -26 -203q-25 -94 -47 -133q-78 -127 -197 -211q0 -109 31 -186q36 -93 101 -93q6 0 13 1q4 0 56 45q30 28 63 28h2q23 0 43 -12 q0 -2 8.5 -22.5t8.5 -30.5q0 -6 -2 -8q-20 -16 -56 -43q-84 -72 -151 -72q-20 0 -47 6q-43 12 -101.5 75.5t-68.5 110.5q2 0 6 5q-14 20 -33 135q-61 -18 -133 -19q-119 0 -225 56q-113 59 -177 165q-37 63 -59 185q-10 63 -10 127zM141 680q0 -68 17 -141q6 -47 32 -138 q37 -84 146 -149q2 29 33 104q35 55 53 68q53 37 115 37q145 0 217 -154q29 33 69 82q23 23 44.5 77t33.5 64q-2 10 -2 21q0 10 10.5 56t12.5 95q-2 57 -15 158q-4 4 -14 43q-47 162 -164 205q-31 20 -88 47q-63 19 -130 19q-34 0 -69 -5q-59 -8 -166 -139 q-92 -117 -118 -221q-16 -63 -17 -129zM446 211q34 -6 66 -6q64 0 115 24q-18 72 -45 95q-18 14 -45 14q-55 0 -68 -51q-4 -8 -10 -19q-6 -20 -13 -57z" />
<glyph unicode="R" horiz-adv-x="1114" d="M113 1210q72 14 301 45h-1q0 -2 146 -6l90 -7t162 -52q78 -51 104 -135q6 -20 6 -53q0 -13 -1 -27q-2 -53 -17 -76q-47 -86 -190 -154q0 -6 2 -8q51 -37 69 -65q53 -86 72 -250q27 -223 43 -281q2 -12 28.5 -38.5t43.5 -28.5q4 0 8 -1q56 0 70 58q-2 23 18 62 q28 26 67 26h3q41 0 53 -37q1 -6 1 -12q0 -30 -29 -81q-36 -62 -75.5 -89t-123.5 -35q-6 -1 -11 -1q-62 0 -116 60q-58 66 -66 146q-23 225 -57 324q-4 25 -22.5 72.5t-84.5 78.5q-49 18 -100 39q-8 2 -21 0q-29 -8 -117 -33v-39v-159q0 -4 3.5 -39t3.5 -49q4 -35 10 -185 q14 -6 31 0q35 15 65 15q17 0 33 -5q31 -10 31 -49q0 -57 -60.5 -68.5t-177.5 -31.5q-94 -18 -139 -18q-70 0 -96 32v10q0 59 69 72q61 6 123 15q8 10 8 22q-2 47 -22 338q-4 52 -4 86v20q-37 2 -49 7q-31 10 -39 39v6q4 2 6 20q24 37 58 37q8 0 16 -2q2 5 2 16q0 17 -4 50 q-18 195 -23 311q-8 8 -35 4q-41 -8 -43 -8q-106 0 -106 49q0 52 84 63zM346 1024q2 -55 8 -137q10 -121 11 -135q35 2 102 20q10 10 29 23q14 4 73 4q113 0 211 102q18 18 19 57q0 104 -74 150q-68 42 -281 41h-38q-18 0 -56 -16q8 -31 2 -52q-6 -25 -6 -46v-11z" />
<glyph unicode="S" horiz-adv-x="770" d="M66 461q8 57 84 57q49 0 59 -35q0 -33 8 -96q12 -74 78 -147q67 -78 128 -78h9q74 8 148 35q102 37 122 86q14 37 15 77q0 125 -92 187q-41 27 -152 43q-63 8 -78 8h-6q-95 0 -177 64q-85 66 -85 151v119q0 39 45 182q20 68 23 72q18 43 47 57q70 35 147 35 q152 0 223 -123q6 -6 21 -18q2 29 8 88q-2 27 -4 51q0 29 29 39q8 4 22 6q4 1 9 1q16 0 35 -12q21 -12 21 -66q0 -9 -1 -19q-2 -45 -9 -127q-6 -68 -18 -207q2 -16 2 -38.5t-2 -51.5q-10 -39 -61 -39q-27 0 -52 14q-12 39 -12 33q1 7 1 15q0 52 -23 132q-23 47 -63 134.5 t-105 93.5q-7 1 -14 1q-70 0 -93 -57q-8 -27 -22 -77q-25 -76 -31 -146q-2 -23 -4 -18q6 -41 14 -82q10 -51 50 -78t153 -33q276 -16 342 -192q10 -17 20 -56q4 -53 4 -90q0 -52 -8 -73q-59 -168 -399 -211q-12 -1 -24 -1q-103 0 -205 109q0 -18 8 -110q3 -29 3 -54 q0 -33 -5 -57q-51 -33 -82 -33q-47 0 -47 92q0 16 2 52t2 51q0 35 -6 49v113q0 4 2 9t4 9q-1 10 -1 23q0 26 3 65q4 37 0 47q-10 20 -10 25z" />
<glyph unicode="T" horiz-adv-x="1058" d="M12 1120q0 14 19.5 36t58.5 28q6 0 19.5 -2t21.5 -2h216h-3q83 -3 156.5 -3t138.5 3q184 8 365 32q12 6 36 13q6 1 12 1q37 0 62 -22q23 -19 23 -48q0 -8 -2 -17q-14 -57 -25 -156q-1 -16 -1 -31q0 -29 5 -49q7 -24 6 -40q0 -18 -8 -27q-23 -20 -61 -21q-45 0 -60 27 q-1 27 -1 53q0 52 3 100q4 88 4 92q-2 0 -6 5q-190 -8 -358 -25q-2 -10 -2 -26.5t2 -39.5q8 -63 8 -73q-8 -63 -8 -189q6 -53 6 -456v-150q0 -35 10 -49h127q35 4 56.5 -16.5t21.5 -49.5q0 -45 -43 -63q-17 -6 -49 -6q-20 0 -45 2q-22 3 -57 3q-18 0 -39 -1q-57 -8 -185 -16 h-22q-91 0 -113 30q-16 25 0 51q29 45 150 45q43 0 53 7.5t10 27.5q0 18 -2 35q0 31 2 90q3 52 3 130t-3 182q-3 108 -3 206q0 172 9 316l-6 6q-30 -2 -74 -2q-66 0 -164 4q-18 0 -124 -8q27 -186 32 -281q0 -12 -4 -55q-2 -31 -51 -31q-27 0 -31 19q-2 4 -24 110 q-12 70 -35 197q0 8 -14 51q-12 35 -13 53z" />
<glyph unicode="U" horiz-adv-x="1153" d="M8 1098q14 51 70 71q16 6 86 15q23 6 67 12q8 1 21 1q25 0 65 -3q-4 0 76 4q9 1 18 0q42 0 91 -14q29 -8 28 -41q0 -41 -32 -60q-23 -14 -76 -18h-11q-34 0 -81 -10q-14 -8 -15 -29q2 -16 2 -31v-26q0 -62 7 -160q6 -86 6 -107v-127q0 -6 4 -30.5t4 -28.5v-151 q6 -16 12 -50q6 -92 95.5 -176t183.5 -84q39 0 143 29q41 12 76 59t43 90q10 18 24 58q18 102 48 311q12 137 12 258q0 84 -6 160h-9q-24 0 -67 -8q-57 -14 -80 -15q-53 0 -78 45q-1 6 -1 11q0 33 44 51q14 4 76 16q4 0 250 47q28 6 52 6q27 0 48 -8q12 -4 22.5 -22.5 t10.5 -26.5q-9 -78 -126 -78h-17q-6 -63 -7 -188q2 -27 2 -60q0 -92 -16 -237q-12 -109 -24 -215q-27 -158 -91 -248q-18 -29 -66 -63.5t-85 -44.5q-115 -35 -201 -35q-53 0 -92 12q-106 33 -186 119q-53 57 -78 110q-29 61 -39 228q-8 190 -31 571q0 14 -18 41q-78 6 -90 8 q-53 14 -64 62z" />
<glyph unicode="V" horiz-adv-x="1126" d="M43 1018q0 49 43 63q98 31 160 31q20 6 61 12q9 -1 19 -1q34 -1 80 9q62 12 81 13q31 0 56 -12q20 -18 20 -48q0 -51 -49 -65q-45 -2 -123 -27q4 -72 19 -116q31 -92 86 -256q2 -20 10 -56q43 -164 145 -463q12 29 31 113q23 119 29 141q37 143 63 293q39 205 41 215 q27 129 37 207q8 57 14 113l-4 4q-104 -4 -137 -4h-14q-18 0 -49 33q0 2 3 6t5 6q-2 12 2 35q23 29 80 34q49 4 151 15q45 2 123 4q98 8 94 8q86 0 86 -51q0 -15 -6 -31q-18 -57 -86 -57q-14 0 -57 4q-35 4 -53 2q-4 -2 -13 -8q-6 -31 -20 -152q-8 -70 -53 -319 q-35 -158 -97 -467q-10 -63 -26 -119q-14 -78 -31 -154q-23 -86 -86 -110q-34 -13 -54 -13q-12 0 -18 5q-27 18 -31 26q-4 25 -16 74q-4 12 -53 151q-12 43 -39 132q-27 82 -51 165q-41 127 -125 402q-14 72 -49 172q-86 -20 -111 -21q-35 0 -65 15q-23 18 -23 47z" />
<glyph unicode="W" horiz-adv-x="1523" d="M29 1141q0 27 14 43q27 33 45 37q41 14 111 16q59 0 118 2q47 6 134 16h20q48 0 74 -8q41 -14 41 -59q0 -20 -8 -31q-25 -27 -70 -33q-37 -4 -76 -6q-12 -2 -37 -8q-16 -10 -14 -45t37 -133q16 -47 92 -383q33 -113 98 -346q-2 0 6 -8q29 109 54 290l32 250q4 39 13 115 q8 45 20 141q0 63 15 189q8 37 55 45q29 2 57 -8q37 -14 37 -41q0 -76 25 -177q20 -59 49 -168q6 -33 153 -600q4 -12 13 -22q29 106 41 182q37 217 96 674q1 1 1 14q0 26 -3 97q-4 6 -10 8q-55 12 -113 24q-74 16 -74 47q0 8 6 19q20 45 80 45q18 0 66 -8q41 -8 61 -5 q7 1 19 1q24 0 67 -4q57 -4 117 -9q70 -4 111 -20q31 -14 30 -55q0 -51 -39 -61q-33 -9 -59 -9h-10q-4 0 -54 14q-32 8 -56 8h-9q-2 -2 -2 -110q-6 -92 -29 -240q-31 -217 -35 -246q-16 -133 -92 -544q-12 -63 -16 -74q-14 -35 -53 -53q-25 2 -48 4q-33 4 -45 18 q-23 23 -32 76q-20 84 -21 86q-16 51 -82 297q-35 135 -106 412q-14 -74 -29 -189q-16 -160 -37 -295q-10 -88 -35 -245q-16 -78 -57 -101q-39 -8 -113 -22q-16 6 -38 28q-63 205 -170 625q-12 55 -39 166q-27 82 -78 246q-4 25 -25 67q-61 -10 -82 -10q-63 0 -98 37 q-12 12 -14 37z" />
<glyph unicode="X" horiz-adv-x="1323" d="M29 1194q-2 10 -2 19q-1 35 29 53q38 22 89 26q43 0 86 2q55 2 168 9q27 4 56 10q37 5 62 5q8 0 15 -1q51 -2 52 -55q0 -35 -21 -60q-23 -8 -58.5 -15t-92.5 -16q-1 -2 -1 -5q0 -16 31 -54q53 -68 58 -74q35 -55 90 -120q74 -92 88 -111q76 86 156 205l118 184q6 8 6 25 q-14 2 -30 2q-12 0 -34 -3t-30 -3q-37 0 -69 45q-1 6 -1 12q0 52 99 65q84 10 199 11q35 0 131 4q82 2 129 2q16 -2 37 -33q10 -14 2 -43q-6 -31 -23 -41q-17 -12 -59 -12q-16 0 -35 2t-46 2q-40 0 -98 -4q-127 -180 -358 -533q90 -111 268 -338q10 -16 21 -32 q16 -25 33 -27h137q49 2 100 4q63 -2 76 -29q6 -14 8 -26q1 -7 1 -13q0 -30 -30 -51q-27 -18 -63 -20q-28 2 -67 2q-59 0 -144 -4q-53 -8 -168 -8q-8 0 -51 -7.5t-68 -7.5q-79 0 -79 65q0 11 2 23q31 37 80 44t96 14q-57 78 -240 295q-57 -61 -133 -185q-51 -84 -102 -166 q25 -23 108 -37q63 -10 76 -67q-2 6 -12 -19q0 -8 -3 -22q-10 -35 -34 -37q-11 -1 -22 -1q-59 0 -101 19q-31 16 -121 35q-49 8 -145 25q-49 8 -101 16q-59 16 -59 58q0 8 4 18q20 25 33 29q46 21 103 21q37 0 79 -9q33 -6 55 -6q18 18 56 86q47 88 55 100q33 49 176 240 q-66 82 -178 233q-41 57 -131 178q-43 55 -51 56q-6 0 -56 -4q-43 -2 -63 0q-80 10 -88 55z" />
<glyph unicode="Y" horiz-adv-x="1216" d="M16 1169v8q0 41 37 66q10 6 58.5 14.5t148.5 8.5q109 0 158 6q48 6 87 6q32 0 58 -4q31 -6 37 -35q2 -9 2 -17q0 -49 -63 -67q-31 -10 -127 -14q0 -20 -2 -17q45 -100 84 -153q27 -37 98 -121q27 -41 88 -107q27 35 65 115q45 96 64 129q41 66 106 223l-4 4 q-50 -3 -85 -3q-55 0 -72 7q-27 13 -27 42q0 25 17.5 48t39.5 27q109 14 289 19l98 8q12 1 24 1q41 0 71 -11q39 -15 39 -54q0 -29 -23 -53q-21 -21 -85 -21q-11 0 -23 1q-4 0 -97 -4q-14 -6 -26 -33q-82 -197 -152 -320q-53 -94 -90 -186q-18 -35 -41 -96q0 -14 10 -66 q8 -59 10 -82q5 -84 5 -152v-22q-1 -20 -1 -41q0 -42 3 -90q2 -14 16 -18q37 -2 107 -4q59 -6 73 -52q-2 -20 -14 -59q-12 -23 -43 -27q-22 -4 -52 -4q-19 0 -42 2q-54 5 -82 5q-9 0 -15 -1q-39 -4 -122 -10q-6 0 -34 -2t-42 -2q-68 0 -90 45q-6 10 -2 27q19 67 120 67h15 l28 -4q20 -4 31.5 4.5t14.5 36.5q2 20 0 56q-2 43 -2.5 48t-3.5 32.5t-3 37.5q0 74 2 56q-10 141 -30 231q-8 4 -23 14q-51 43 -78 84q-72 100 -145 203q-92 131 -125 215q-18 2 -59 -4q-47 -8 -68 -8q-20 0 -37 4q-72 23 -74 63z" />
<glyph unicode="Z" horiz-adv-x="913" d="M49 100q2 14 27 43q33 37 39 43q57 98 172 289q96 156 165.5 252t139.5 193q117 160 162 241q-20 6 -56 6h-139q-31 0 -103.5 3.5t-109.5 3.5q-80 0 -96 -5q-6 -2 -7 -18t-5 -59q2 4 10 -97q0 -10 8 -45q6 -25 2 -37q-6 -23 -12 -26q-31 -33 -82 -33q-23 0 -39 10 q-29 16 -31 90q2 59 4 166v15q0 25 -4 63q-4 19 -4 34q0 34 20 53q30 28 85 28q53 0 165 -10q160 -12 183 -15q47 2 127 2q23 0 65 2q35 2 58 0q33 -2 69 -12q16 -4 37 -29q4 -10 14 -24q3 -8 3 -17q0 -24 -19 -59q-70 -125 -135 -219q-84 -111 -230 -320q-59 -86 -172 -264 q-33 -59 -100 -178q-4 -8 -2 -16q8 -12 23 -13q68 -3 161 -3q46 0 99 1q225 4 262 4q-1 25 -1 55q0 90 5 226q0 20 -5 70.5t-5 70.5q0 78 57 78h8q12 2 33 0q16 -6 25 -31l12 -32v-123v-50q0 -108 6 -280q0 -4 10 -29q2 -5 2 -12q0 -19 -16 -49q-16 -29 -64 -29q-12 0 -48 5 t-56 5l-182 -4q-84 -2 -240 -6q-33 -2 -156 -12q-14 -1 -26 -1q-24 0 -40 5q-22 8 -50 39q-24 26 -24 51q0 5 1 10z" />
<glyph unicode="[" horiz-adv-x="423" d="M90 227q4 41 0 115q4 6 8 14q-6 78 -6 385q0 4 2 12.5t4 10.5q-8 23 0 41q-2 4 -4 13t-2 13q0 14 4 80q4 76 6 144q0 10 3.5 47t3.5 55q0 4 -5 17q-2 12 0 18q4 10 19 22q6 0 96 15q63 10 105 10q27 0 48 -3t64 -11q14 -4 21 -31q6 -27 -2 -41q-23 -16 -56 -16 q-25 0 -49 2q-53 -2 -102 -11q-16 -12 -21 -96q-10 -147 -12 -164v-575q0 -39 14 -131q16 -4 37 -4q16 0 49 3t47 3q70 0 82 -55q-4 -8 -22 -50q-12 -10 -27 -12h-45h-74q-8 0 -51 -6q-33 -4 -49 0q-23 8 -65 25q2 8 -6.5 22t-9.5 15t-5 124z" />
<glyph unicode="\" horiz-adv-x="518" d="M55 1214q14 53 84 58q18 0 41 -10q29 -16 29 -41q0 -100 72 -334q25 -80 129 -363q78 -213 104 -346q4 -14 14 -51q2 -2 14.5 -31.5t12.5 -50.5q0 -19 -12 -35q-18 -4 -51 -16q-23 2 -68 20q-8 6 -10 29q-2 31 -4 35q-37 129 -74 260q-47 158 -96 280q-74 184 -97 252 q-55 154 -75 281q-4 14 -11 29q-6 23 -2 34z" />
<glyph unicode="]" horiz-adv-x="458" d="M98 1153q-10 37 2.5 55.5t28.5 20.5t33 2q41 6 80 6t188 -23q12 -12 16 -22q-2 8 -2 -35q0 -14 3.5 -46t3.5 -46q2 -23 6 -119q4 -74 4 -119l-3 -8t-3 -14q6 -27 0 -41q6 -27 6 -23q0 -229 -6 -372q10 -43 6 -127q-4 -109 -4 -138q0 -4 -8.5 -16t-8.5 -22 q-20 -12 -63 -25q-4 0 -40 3t-61 3q-14 0 -42.5 -2t-38.5 -2q-43 0 -64 16q-8 16 -22 45q14 59 86 60q16 0 48.5 -3t47.5 -3q18 0 33 4q2 16 8 71q6 49 6 54v590l-8 88q-4 45 -7.5 92t-17.5 71q-29 8 -102 11q-25 -2 -49 -2q-31 2 -56 16z" />
<glyph unicode="a" horiz-adv-x="673" d="M49 197q10 31 31 94q16 53 55 88q131 117 289 117q45 0 86 -13v12q0 240 -152 271q-29 4 -57 -8q-35 -14 -44 -41t-36 -64q-20 -14 -47 -14q-45 0 -49 43v6q0 35 41 103q55 92 180 92q139 0 201 -84q94 -132 94 -292q0 -21 -2 -42q-25 -305 -25 -295q0 -45 7 -76 q8 -43 43 -74q16 -6 47 -26q10 -8 14 -35q1 -6 1 -12q0 -16 -5 -25q-10 -25 -74 -35h-3q-28 0 -101 70q-76 -33 -178 -33q-137 0 -224 62q-93 66 -93 187q0 12 1 24zM172 152q16 -59 100 -91q61 -20 123 -20q18 2 105 20q-6 31 -6 86q0 51 7 145.5t7 117.5 q-139 -14 -160 -21q-94 -25 -144 -97q-37 -53 -37 -104q0 -18 5 -36z" />
<glyph unicode="b" horiz-adv-x="815" d="M27 946q0 26 22 41q33 23 96 31q51 4 101 10q5 1 11 1q19 0 49 -11q38 -14 42 -35q1 -4 1 -13q0 -17 -3 -52q-4 -70 -10 -205q0 -57 -6 -174q4 -2 8 -2q45 29 125 49q63 17 112 17q19 0 35 -3q104 -12 181 -98q60 -70 83 -156q4 -18 4 -45q0 -45 -12 -115 q-27 -131 -176 -206q-117 -58 -242 -58h-12q-43 0 -123 47q-12 -16 -12 -47q0 -14 4 -39.5t4 -32.5q0 -8 -4 -10q-23 -29 -59 -37q-2 -2 -49 -2q-2 12 -17 31v43q0 191 15 533q0 49 6 163l6 109v115q0 8 4 26.5t2 32.5q-2 20 -12 47q-84 -20 -105 -20q-69 0 -69 65zM305 111 q119 -86 180 -86q12 0 21 4q94 2 162 49q51 37 80 119q4 18 4 43q0 84 -56 161q-63 90 -151 91q-16 0 -31 -5q-29 -4 -98 -43q-78 -45 -99 -53q-8 -143 -12 -280z" />
<glyph unicode="c" horiz-adv-x="610" d="M55 305v105q6 39 41 122q10 25 35 70q16 23 68 70q61 57 202 84q16 4 37 4q70 0 131 -29q70 -33 70 -78q0 -25 -19.5 -49t-54.5 -24q-43 0 -61.5 34.5t-89.5 34.5q-6 0 -24.5 -3t-27.5 -5q-57 -6 -110 -70q-47 -53 -62 -110q-4 -16 -8 -64q2 -25 2 -73q-1 -10 -1 -19 q-1 -70 63 -142q72 -81 155 -81q31 0 56 14q41 33 127 90q-6 -2 23.5 -5t34.5 -9t11 -16v-7q-1 -30 -31 -68q-34 -42 -77 -71q-63 -39 -148 -39q-113 0 -204 66q-98 72 -121 190q-6 23 -17 78z" />
<glyph unicode="d" horiz-adv-x="866" d="M20 160q-1 6 -1 18t1 29q4 41 5 53q0 92 47 205t115.5 177.5t240.5 70.5q6 0 11 1q55 0 122 -18q-2 37 -4 112t-4 112q-10 6 -25 2q-29 -10 -65 -11q-80 0 -80 54q0 10 4 22q8 35 59 41q69 9 133 9q21 0 42 -1q43 -2 61 -41q-6 -12 -10 -41q12 -133 35 -393l26 -211 q4 -70 15 -205q2 -49 18 -141q3 -12 38 -12q13 0 30 2h6q28 0 60 -16q29 -15 29 -39q0 -4 -1 -9q-10 -65 -92 -65h-2q-20 0 -61.5 4t-57.5 4q-39 0 -58 12q-25 16 -28 47v41q-192 -69 -304 -69h-3q-72 0 -127 22q-68 27 -119 99q-45 66 -56 135zM143 256q-1 -17 -1 -33 q0 -95 52 -149q60 -62 171 -62q29 0 53 6q49 10 78 23q84 37 127 37h4q-8 80 -21 227q-20 82 -20 217q-4 14 -13 43q-23 -4 -55 8q-47 14 -67 17q-36 5 -66 5q-62 0 -98 -20q-31 -16 -48.5 -48.5t-31.5 -61.5q-31 -51 -47 -105q-10 -33 -17 -104z" />
<glyph unicode="e" horiz-adv-x="690" d="M20 291q0 8 13 51q8 29 2 57q4 -4 14 -4q6 31 21 92q0 8 2 29q2 8 22 43q70 125 250 125q2 0 96 -4q18 0 88 -23q57 -16 119 -94q55 -72 64 -121q4 -39 10 -100q2 -4 8 -12q10 -29 10 -47q-4 -23 -34.5 -44.5t-53.5 -19.5q-78 10 -209 23h-30q-47 0 -109 -4 q-98 -10 -121 -27q2 -49 37 -115q39 -74 84 -90q25 -8 59 -8q61 0 158 31q29 20 90 53h41q12 -8 29 -29q1 -6 1 -12q0 -36 -31 -70q-36 -39 -85 -49q-168 -41 -219 -41q-76 0 -137 37q-115 72 -174 338zM43 387zM164 385l78 -16q29 -6 60 -7q19 0 38 3q11 1 26 1 q43 0 121 -8q95 -6 99 -6q2 12 2 25q0 77 -58 141q-56 63 -120 62h-4q-27 4 -74 6q-29 -4 -56 -8q-35 -6 -49 -25q-63 -77 -63 -160v-8z" />
<glyph unicode="f" horiz-adv-x="671" d="M45 745q25 62 149 62h15q8 55 41 160q43 84 134 139t183 55q53 0 97.5 -20.5t62.5 -41t47 -59.5q45 -113 45 -131q0 -53 -76 -53q-49 0 -67 41q-4 23 -17 68q-39 92 -116 92q-70 0 -136.5 -79t-66.5 -153q0 -14 4 -26q59 0 107 -19q32 -14 32 -60v-3q0 -31 -22 -45 q-28 -22 -99 -22q-12 0 -24 1q-1 -10 -1 -28q0 -69 19 -254q6 -61 13 -172q0 -35 6 -107q18 -4 43 -4q20 0 59 4t53 4q33 0 48 -12q29 -24 29 -51q0 -9 -3 -17q-4 -10 -16 -22q-29 -27 -80 -27q-14 0 -51 2q-29 4 -43 2h-18q-40 0 -107 -6q-78 -16 -115 -16q-51 0 -83 19.5 t-32 64.5q0 35 26 53q23 16 57 16h8t13 4.5t17 4.5t28.5 -3.5t33.5 -3.5q-2 76 -11 232q0 16 -14 147q-8 82 -8 138v22q-80 10 -103 16q-65 20 -65 61q0 13 4 27z" />
<glyph unicode="g" horiz-adv-x="956" d="M25 -23q0 164 139 232q-51 57 -64 72q-27 41 -28 86q0 8 4 30.5t4 30.5q0 23 43 70q-53 49 -64 82q-16 61 -16 122q0 168 121 293q18 8 49 25q6 6 18 16q39 27 119 56q24 8 58 8h14q74 -6 72 -6q14 63 77.5 120.5t120.5 59.5h18q87 0 138 -35q49 -33 49 -100 q0 -20 -8 -33.5t-41 -18.5q-55 -6 -49 -8q-14 4 -33 19q-10 20 -41 49q-4 2 -27.5 -1t-39 -31t-27.5 -50q113 -66 170 -207q16 -45 16 -92q0 -102 -78 -203q-57 -76 -162.5 -126t-199.5 -50q-31 0 -58.5 6t-78.5 29q-14 -23 -15 -43q0 -37 43 -63.5t90 -30.5q70 -10 211 -25 q295 -14 426 -217q21 -33 29 -109q3 -22 3 -37q0 -21 -5 -30q-20 -47 -74 -123q-27 -25 -55 -45q-6 -4 -86 -41q-121 -55 -279 -55q-195 0 -297 78q-68 49 -135 133q-25 29 -57 86q-14 37 -14 77zM152 8v-8q0 -65 59 -143q59 -76 125 -109q98 -51 219 -51q72 0 137 20 q205 73 205 177q0 45 -35 100q-74 115 -246 147q-127 14 -256 29q-66 -31 -131 -61q-76 -41 -77 -101zM176 694v-10q0 -74 80 -135q73 -58 144 -58q7 0 14 1q88 8 169 73.5t99 153.5q4 22 4 44q0 61 -32 117q-44 78 -105 103q-39 16 -113 16q-10 0 -28.5 -11t-26.5 -13 q-20 2 -53 -2q-45 -23 -92 -84q-35 -47 -48 -92q-6 -23 -12 -103z" />
<glyph unicode="h" horiz-adv-x="1110" d="M45 1151q0 10 4 20q20 45 146 64h11q29 0 73 8q30 10 55.5 10t44.5 -10q25 -12 25 -79q0 -12 -1 -25v2q1 0 13 -127l6 -129q10 -4 39 20q45 37 59 45q35 23 158 37q10 1 22 1q39 0 88 -11q25 -6 62 -43t53 -68q53 -117 64 -340q6 -133 8 -213q0 -51 -2 -118 q-2 -74 -1 -127q0 -12 5.5 -18.5t58.5 -4.5q25 2 72 12q4 0 33 -2q37 -4 47 -55q1 -6 1 -11q0 -45 -73 -71q-35 0 -98 -2q-39 -4 -113 -16.5t-217 -32.5h-11q-43 0 -61 29q-8 12 -8 26q0 33 47 62q40 26 75 26h3q33 0 68 -2q43 4 49 33v17q0 26 4 61v241q0 438 -119 502 q-19 10 -48 10q-18 0 -40 -4q-49 -8 -112.5 -61t-106.5 -113q4 -26 4 -62q0 -24 -2 -54q-6 -102 -6 -121v-123v-51q2 -51 2 -80q72 -6 141 -13q86 -12 86 -61q0 -16 -10 -41q-16 -12 -55 -33q-23 -8 -82 -8q-4 0 -22.5 -3t-28.5 -3q-47 0 -93 2q-18 2 -42 2t-54 -2 q-74 -6 -94 -6h-8q-77 0 -103 37q-12 14 -4 35q8 18 31 40.5t59 22.5q13 0 63 -6q37 -4 68 -5q10 0 19 1q-1 18 -1 41t1 51q8 23 4 43l-4 31q2 25 4 90q4 57 4 61v156q0 4 -6 67.5t-6 65.5v133q-8 72 -23 205q-2 8 -12 12q-31 -12 -88 -31q-8 -2 -17 -2q-26 -1 -61 13 q-47 18 -47 53z" />
<glyph unicode="i" horiz-adv-x="565" d="M45 733q-4 8 -4 18.5t4 24.5q16 51 74 60l90 8q10 2 59 16q37 10 60 10q37 0 59 -22q16 -16 19 -49q2 -51 4 -51q12 -55 16 -148q2 -68 4 -135v-103q0 -4 4 -39.5t4 -39.5v-150q0 -82 8 -102q4 -12 50 -13q29 0 82 -6q14 -4 24 -26q13 -21 13 -38q0 -14 -9 -26 q-10 -16 -43 -33q-32 -17 -50 -17q-4 0 -7 1q-51 14 -139 14h-23q-30 -1 -55 -1q-75 0 -109 5q-18 2 -41 31q-4 8 -4 17q0 27 34 51t61.5 26t84.5 4q6 16 0 43v162q0 10 -8 155.5t-8 172.5q-2 59 -25 166q-8 4 -16 4h1q0 -2 -79 -23q-30 -8 -54 -8q-57 0 -81 41zM184 1034 q0 43 29 79t74 40h8q42 0 82 -37q2 -2 19.5 -37t17.5 -51q-4 -33 -41 -57.5t-70 -30.5q-14 0 -45 6q-74 16 -74 88z" />
<glyph unicode="j" horiz-adv-x="622" d="M-176 -164q0 51 35 78q20 4 61 8q29 0 33 -63q0 -27 14 -84q37 -76 109 -76q57 0 117.5 44t97.5 105q4 14 11 36t26 132q16 88 16 146q0 41 -8 94q-14 86 -19 109q-6 37 -22 157q-10 72 -27 137q-6 27 -26 76q-2 2 -52 -6q-19 -3 -36 -3q-49 0 -82 22q-13 10 -13 46v15 q2 16 33 33.5t53 17.5q45 0 119 17q16 4 59.5 -7.5t49.5 -31.5q8 -39 24 -119q23 -92 27 -146q4 -84 6 -108q29 -194 29 -317v-15q-4 -223 -72 -340q-20 -37 -115 -104q-125 -90 -223 -90q-31 0 -74 8q-23 4 -57 37q-94 86 -94 192zM96 993q-1 6 -1 13q0 29 29 70 q35 48 72 48h3q31 0 59 -6q104 -19 104 -80q0 -37 -34 -70q-33 -32 -70 -32h-4q-16 -10 -47 -10q-90 0 -111 67z" />
<glyph unicode="k" horiz-adv-x="1030" d="M29 1083q2 39 15 54.5t79 33.5q73 20 107 20q6 0 10 -1q12 -2 33.5 -22.5t21.5 -34.5q-2 -23 4 -56q6 -45 8 -57q6 -104 12 -299v-139q0 -53 7 -142q160 133 350 305q-29 6 -70 29q-10 14 -10 31q0 35 35 63q29 23 74 22q10 0 20 -1q70 -4 190 -10q12 0 48 2q31 0 49 -2 q29 -2 57.5 -14.5t28.5 -61.5q0 -33 -36 -50.5t-71 -17.5q-16 0 -28 2q-18 4 -43 4t-58 -4q-41 -4 -100 -65q-49 -45 -146 -133q12 -55 68 -146q10 -20 29 -57q63 -98 67 -105q49 -72 105 -127q6 -10 14 -20q10 -18 19 -18q10 0 40.5 3t49.5 3q68 0 84 -41q6 -9 12 -27 q4 -29 -39 -52.5t-66 -23.5q-16 2 -35 2q-29 0 -65 -4q-90 -6 -156 -16q-19 -2 -36 -2q-64 0 -86 37q-6 10 -5 43q8 6 19 30q29 10 80 35q4 14 -4 25q-96 137 -170 266q-18 23 -49 62q-20 -4 -50 -46q-37 -51 -47 -59q-23 -18 -73 -43q-4 -25 -7 -98v-121q14 -2 47 0 q39 6 54 6q45 0 68.5 -25.5t11.5 -56.5q-4 -10 -23 -26q-35 -29 -59 -31q-10 0 -36 3t-38 3q-18 0 -47 -6q-37 -8 -45 -10q-123 -16 -129 -17q-70 0 -80 47q-4 18 10 39q23 31 64 39q33 6 67 12q4 0 13 25v233q0 -2 4 48q3 33 3 51q0 9 -1 14q-6 162 -11.5 324.5 t-31.5 318.5q-10 4 -47 4q-74 0 -80 49z" />
<glyph unicode="l" horiz-adv-x="487" d="M14 1137q0 12 6 24q23 66 111 66q16 0 31 -6q47 -6 93 -13.5t71 -48.5q6 -14 6 -49q0 -20 3 -61t3 -62q2 -186 12 -344q14 -229 15 -328v-137q0 -63 6 -184q78 -14 96 -21q55 -18 55 -53q0 -12 -4 -22q-12 -32 -64 -50q-35 -12 -66 -13q-14 0 -28 3q10 -2 -55 -2 q-10 0 -39.5 2t-40.5 2q-39 0 -75 -2q-49 4 -74 25q-14 12 -19 41q-4 29 6 45q25 39 80 51q8 2 95 6l6 6v275q-2 61 -10.5 177t-28.5 341q0 4 2 98q0 78 -14 129q-11 33 -76 33h-8q-33 0 -64 19.5t-31 52.5z" />
<glyph unicode="m" horiz-adv-x="1671" d="M23 901q0 78 176 86q21 1 39 1q45 0 73 -7q45 -13 45 -71q0 -11 -2 -23q-2 -4 8 -72l80 80q18 8 52 29q76 45 149 45q141 0 223 -154q45 35 144 86q47 14 98 14q70 0 109 -24q229 -141 307 -594q6 -18 12 -52t12 -65q6 -41 21 -55q45 2 121 4h39q25 -4 31 -16t20 -37 q2 -7 2 -14q0 -34 -44 -58q-38 -21 -68 -21q-11 0 -21 3q-28 7 -68.5 7t-91.5 -7q-87 -11 -139 -11q-23 0 -39 2q-14 2 -45 29q-4 47 0 55q20 37 75 45q41 2 80 3v8q0 64 -53 286q-16 63 -31 101q-121 284 -251 284h-1q-18 0 -36 -4q-39 -12 -82 -73q-51 -74 -64 -84 q8 -162 25 -488q16 -12 45 -12q10 0 34.5 3t36.5 3q70 0 70 -61q0 -34 -48 -60q-45 -25 -73 -24h-4h2q0 -2 -170 -2q-14 0 -49 -5.5t-53 -5.5q-53 0 -86 35q-8 6 -8 21q0 43 31.5 62.5t138.5 27.5q1 29 1 62q0 66 -3 151q0 8 -9 96q-6 104 -12 209q-18 135 -88 186 q-16 6 -49 19q-8 4 -21 4q-66 0 -153 -107q-12 -14 -18.5 -26.5t-20.5 -40.5q-23 -12 -47 -39q-2 -12 -2 -52.5t2 -107.5q2 -43 9 -127t32 -205l106 -16q58 -15 58 -73v-9q-31 -47 -72 -59q-1 -1 -13 -1q-23 0 -85 3q-16 0 -72 -4q-61 -4 -96 -4q-63 0 -107 12q-4 2 -37 49 v11q0 59 62 77q57 12 112 25q-8 51 -18 155q-10 141 -27 381q-6 92 -14 137q-4 16 -47 15q-49 -3 -71 -3q-11 0 -15 1q-45 8 -53 32q-4 14 -4 29z" />
<glyph unicode="n" horiz-adv-x="995" d="M20 797q4 14 21 34q10 6 63 21q73 21 116 21q21 0 34 -5q51 -16 51 -88q0 -103 -2 -103v1q166 119 275 120q7 0 14 -1q102 -6 149 -63.5t72 -143.5q14 -31 53 -184q6 -55 11 -113q10 -96 30 -150q72 23 84 23q29 0 53 -16q21 -46 21 -56q0 -56 -131 -67q-47 -4 -168 -41 q-82 -25 -90 -25q-18 0 -33.5 9.5t-13.5 37.5q4 39 67.5 64.5t67.5 31.5q1 3 1 12q0 17 -5 54q-8 68 -17 135q-12 88 -30 135q-25 78 -49 154q-39 90 -105 90q-14 0 -31 -4q-29 -8 -90 -54t-71 -67q-23 -10 -48 -39q-2 -16 -2 -45q0 -33 5.5 -121t5.5 -123q0 -41 -4 -59 q2 -2 100 -10q65 -6 65 -52q0 -13 -4 -25.5t-22 -33.5q-2 -2 -31 -6q-22 -4 -54 -4q-21 0 -46 2q-12 1 -29 1t-39 -1q-55 -4 -76 -4q-72 0 -116 24q-18 10 -19 37q0 45 43 54q7 -1 15 -1q29 0 77 11v19q0 189 -36 536q-4 6 -9 8q-18 -6 -37 -6q-82 0 -86 76z" />
<glyph unicode="o" horiz-adv-x="743" d="M39 356q0 14 8 68q8 23 23 70q25 92 123 168q84 66 176 94q6 2 15 2q12 0 28 -4q45 -12 47 -13q47 -6 127 -32q16 -14 51 -41q123 -94 147 -258q7 -21 13 -60v-15q0 -97 -49 -192q-35 -63 -123 -118q-80 -49 -156 -60q-21 -1 -41 -1q-225 0 -334 165q-20 33 -37 94 q-14 53 -18 133zM172 346q0 -41 10 -82q23 -84 111 -137q80 -51 160 -51q20 0 35.5 7t43.5 21q57 29 78 56q57 74 58 202q0 122 -113 224q-37 35 -100 49q-47 8 -95 16q-188 -119 -188 -305z" />
<glyph unicode="p" horiz-adv-x="866" d="M-111 793q-8 14 -8 28q0 20 17 43q28 37 122 37q16 0 55.5 7t55.5 7q55 2 29 5q20 -2 47 -23q16 -12 16 -63q0 -63 4 -76q100 117 285 162q6 1 14 1q32 0 99 -18q104 -27 166 -141q55 -98 55 -205q0 -49 -12 -80q-35 -80 -64 -104q-8 -16 -33 -43q-129 -86 -278 -86 q-119 0 -219 55v-528q18 -6 45 -7q8 0 26 3h27q88 0 88 -60q0 -23 -22.5 -49.5t-49.5 -32.5q-8 -2 -27 -2t-48 2h-19q-40 0 -94 -6q-78 -12 -105 -12q-4 0 -41 -4q-14 -2 -24 -2t-16 2q-31 6 -55.5 30.5t-22.5 51.5q20 51 84 63q16 2 104 6q8 8 19 27q2 53 2 334v151 q0 131 -7.5 227.5t-29.5 278.5h-14q-22 0 -53 -4q-42 -6 -56 -6q-41 0 -62 31zM223 530q8 -51 8 -55q33 -37 107 -100q20 -14 82 -27q16 0 49 -4q137 8 188 59q59 59 60 142q0 45 -18.5 106.5t-80.5 110.5q-51 39 -90 39q-9 0 -18 -2q-117 -27 -217 -148q-31 -29 -66 -65 q-5 -13 -5 -34q0 -10 1 -22z" />
<glyph unicode="q" horiz-adv-x="704" d="M-98 455q-4 25 -4 49q0 60 24 119q20 51 41 104q33 66 78 102q80 66 223 66q90 0 148 -25q-2 16 6 48q4 14 18 43q27 35 58 40q31 0 88 7q4 0 39 8q27 8 43 8q25 0 38 -12q41 -33 41 -60q0 -39 -81 -59q-59 -16 -111 -16q6 -137 22 -392q12 -231 52 -686q18 -12 45 -12 q10 0 34.5 4t36.5 4q25 0 47.5 -17t22.5 -40q0 -25 -28.5 -52.5t-51.5 -33.5q-14 -2 -67 -2q-27 -2 -101 -8q-39 -8 -110 -21q-13 -1 -24 -1q-46 0 -79 18q-18 12 -18 36q0 47 34.5 67.5t69.5 27.5q43 6 60 12q-20 129 -37 465q-27 -2 -101 -19q-55 -12 -98 -12h-12 q-182 4 -295 145q-23 57 -37 64l4 4q-16 14 -18 27zM33 530q0 -25 6 -43q55 -157 231 -157h2q70 0 125 28q5 5 54 15q-8 119 -31 350q-25 -6 -49 2q-18 16 -60 45q-16 4 -39.5 11t-48.5 7q-78 0 -137 -92q-53 -82 -53 -166z" />
<glyph unicode="r" horiz-adv-x="817" d="M-96 731q0 27 28.5 48.5t55.5 21.5h31q58 0 92 6q33 8 67 14q17 2 31 2q65 0 84 -37q8 -18 2 -61q14 0 50 22.5t48 26.5q82 36 137 36q8 0 15 -1q49 -6 55 -8q35 -6 57 -23q35 -23 68 -71t33 -82q0 -11 -2 -19q-27 -43 -78 -43q-41 0 -64 33q-12 23 -24 47q-18 31 -45 39 q-16 6 -35 6q-72 0 -137 -78q-55 -68 -70 -121q-4 -15 -4 -80q0 -44 2 -110q4 -70 10 -211q2 -4 8 -8q12 0 41 2t43 2q74 0 95 -47q-2 -12 0 -37q-29 -43 -74 -57q-23 -6 -35 -4q-35 5 -65 5q-15 0 -29 -1q-63 -10 -72 -11h-31q-144 0 -164 18q-22 20 -22 44q0 31 22.5 49 t65.5 20q68 4 76 5q8 23 6 53q-4 25 -6 49q-8 121 -18 365q0 55 -2 75q-6 43 -21 62q-10 2 -23 2q-14 0 -58 -9.5t-66 -9.5q-14 0 -27 4q-51 10 -51 72z" />
<glyph unicode="s" horiz-adv-x="788" d="M49 51q0 2 8 64q4 16 9 75q1 22 1 49l-4 112q0 31 41 48q35 18 60 13q43 -6 55 -64q18 -86 31.5 -108.5t81.5 -30.5q37 -10 108 -29q25 -5 49 -5q55 0 105 28q55 31 55 84q0 72 -110 96q-84 8 -166 16q-158 23 -174 27q-140 44 -140 131q0 17 25 78q8 23 25 59 q41 55 73 70q137 65 279 65h4q121 0 192 -51q14 12 15 35q-2 12 -2 33q4 14 23.5 33.5t31.5 19.5q3 1 7 1q19 0 69 -17q8 -4 10 -33q0 -27 -4 -41q-14 -59 -27 -193v1l2 -66v-8q0 -35 -16 -53q-18 -20 -64 -21q-57 0 -75 31q-4 6 -17 49q-10 20 -30 63q0 6 -2 23 q-10 14 -31 41q-4 14 -19 37q-16 12 -59 12q-129 0 -203 -41q-18 -10 -41 -39q-26 -36 -26 -59q0 -14 6 -25q29 -39 80 -44t100 -9q12 -2 51 -6q23 0 68 -6q86 -20 172 -41q100 -38 100 -133v-7q-4 -100 -51 -151q-20 -12 -57 -33q-76 -45 -181 -45q-53 0 -104 12 q-23 6 -70 19q-39 6 -114 18q-2 -8 -2 -59q2 -41 -18.5 -54.5t-57.5 -13.5q-57 0 -72 43z" />
<glyph unicode="t" horiz-adv-x="673" d="M59 616q20 12 64 17l74 6q8 51 14 184q0 51 6 164q0 25 29 41q16 9 33 9q21 0 45 -13q29 -14 30 -45v-8q0 -59 -24 -301q16 -4 45 8q43 20 45 20q27 4 80 15q8 -4 63 -6q43 -2 62 -21q12 -10 16 -29q4 -20 -7 -40.5t-102 -47.5q-51 -16 -100 -18q-39 -2 -78 -2 q-14 -2 -26 -12q-6 -57 -6 -115q0 -375 210 -375q8 0 46 62q8 14 9 38.5t3 71.5q6 27 47 39q29 6 59 10q25 -20 25 -59q0 -14 -5 -46t-5 -48l-15 -37q-20 -51 -37 -74q-29 -47 -71 -59q-31 -10 -75 -10q-34 0 -77 6q-33 4 -83 41.5t-74 72.5q-86 125 -86 336q0 30 2 62v18 q0 46 -9 49h-20q-133 0 -133 52q0 26 26 44z" />
<glyph unicode="u" horiz-adv-x="1024" d="M-199 803q31 47 80 47q14 0 44 -4t44 -4h123q90 0 90 -41q0 -14 -8 -33q-2 -4 -31 -25q-6 -68 -12 -135q-4 -50 -4 -90q0 -27 2 -49q18 -229 27 -262q37 -145 159 -164q7 -1 15 -1q41 0 80 38q37 37 55 92q41 123 53 342v60q0 100 4 260q22 22 64 22h4q63 0 74 -39 q2 -49 8 -143q2 -49 10 -150q8 -47 18 -133q0 -72 17 -201q-2 -37 -2 -62q0 -45 7 -45q11 -1 34 -3q6 -2 65 -4q41 -3 47 -19q8 -25 9 -49q0 -39 -27 -51q-31 -14 -70 -14q-16 0 -32 2q2 0 -60 -2h-9q-37 0 -63 15q-28 17 -36 54q0 4 4 60q4 41 2 53q-104 -190 -283 -191 q-119 0 -211 101q-59 63 -78 178q-4 92 -10 184q-6 70 -6 236q0 8 5 41t5 57q-18 2 -55 0q-47 -4 -62 -4q-91 0 -91 61q0 7 1 15z" />
<glyph unicode="v" horiz-adv-x="923" d="M-51 809q-1 6 -1 11q0 39 52 52q25 6 54 6q37 0 81 -10q51 0 101 -2q68 -2 77 -53q1 -4 1 -7q0 -42 -85 -65q0 -4 -2 -10q104 -338 230 -598q29 76 55 174q55 211 74 277q23 80 39 176q-2 2 -13 8q-31 2 -59 4q-41 6 -57 33q6 16 11 34.5t23 24.5q51 18 144 25 q111 8 149 14q9 2 17 2q26 -1 44 -19q22 -21 22 -50q0 -5 -1 -9q-2 -31 -59 -47q-6 -2 -80 -12q-4 -2 -8 -10q-39 -188 -105 -420q-74 -258 -92 -338q-16 -27 -45 -78q-59 -31 -78 -31q-31 2 -57 64q-39 100 -125 301q-4 10 -104 264q-18 43 -50 125q-20 70 -24 76 q-16 29 -51 29h-9q-16 0 -40.5 16t-28.5 43z" />
<glyph unicode="w" horiz-adv-x="1329" d="M-70 758q10 33 37 47q37 20 107 22q84 0 112 9q11 3 24 3q25 0 58 -10q54 -17 54 -54v-7q-4 -18 -42 -35.5t-67 -19.5q-12 -8 -6 -56q2 -39 20 -102q23 -74 27 -94q25 -127 33 -164q27 -123 55 -203q29 57 70 215q33 125 63 252q10 53 21 107q16 68 43 104q14 1 28 1 q61 0 92 -23q10 -8 21 -43q8 -27 22 -78q18 -61 54 -187q20 -106 84 -331q18 8 22 43q4 27 6 55q41 156 123 522q-29 4 -57 8q-37 8 -47 33q2 14 6 30.5t20 24.5q41 25 111 35q61 6 123 15q16 2 35 2q98 -1 110 -52q2 -10 2 -18q0 -45 -63 -55q-51 -4 -101 -9 q-41 -174 -116 -489q-18 -82 -56 -227q-23 -68 -43 -138q-29 -56 -90 -56q-8 0 -16 1q-25 2 -37 31q-6 12 -24 84q-39 129 -93 360q-8 16 -19 55.5t-34 125.5l-6 8q-47 -162 -92 -326q-53 -186 -103 -278q-8 -16 -65 -35q-16 -5 -30 -5q-22 0 -42 11q-51 158 -112 420 q-86 383 -89.5 395t-17.5 12q-23 2 -65 6q-14 2 -35 22q-16 15 -16 28q0 4 1 8z" />
<glyph unicode="x" horiz-adv-x="1050" d="M57 700q-2 3 -2 8q-1 12 11 32q16 28 38.5 36t47.5 8t85 -12t99 -16q18 1 42 1q48 0 120 -5q57 -10 65 -43q1 -5 1 -10q0 -52 -120 -76q51 -92 140 -187q84 104 94 119q51 72 72 123q-104 45 -105 78q0 51 66 51q29 -2 137 -33q84 -10 246 -57q23 -10 23 -44q0 -5 -1 -11 q-6 -8 -12 -27q-32 -29 -65 -29l-17 2q-29 10 -57 21q-34 12 -55 12q-8 0 -13 -2q-20 -6 -47 -49q-49 -84 -90 -139q-72 -92 -76 -99q-10 -14 -4 -20q16 -25 180 -226q8 0 49 5.5t64 5.5q87 0 87 -57q0 -7 -1 -15q0 -10 -26.5 -27.5t-39.5 -17.5q-20 -2 -63 -6 q-72 -8 -211 -17h-80q-49 8 -66 41q4 47 50 60q37 10 75 18q-35 49 -114 144q-43 -53 -140 -164q41 -31 41 -76q0 -16 -8 -27q-30 -36 -76 -36h-2q-37 0 -100 26q-72 31 -92.5 37t-51 18.5t-44.5 20.5q-31 18 -52 47q2 10 9 25q22 26 56 26h3t121 -28q53 -12 57 -13 q8 0 60 68q43 55 127 164q4 8 -3.5 16t-113.5 135q-66 80 -92 92q-23 60 -118 60h-3q-72 0 -105 69z" />
<glyph unicode="y" horiz-adv-x="960" d="M-129 -188q26 32 77 32h3q27 0 37 -18q23 -37 43 -76q37 -49 88 -57q13 -2 27 -2q66 0 157 47q33 18 62 72q10 33 34 100q10 20 43 115q6 8 11 16q6 12 0 22q-10 16 -181 220q-88 106 -200 282q-20 39 -70 113q-23 6 -55 16q-49 14 -64 37q-8 11 -8 25q0 21 19 47t93 26 h5q2 0 98 -8q24 -2 44 -2q35 0 61 6q31 6 53 6q29 0 45 -10q20 -14 20 -47q0 -43 -37 -51q-27 -2 -55 -4q-35 -4 -45 -17q-2 -20 4 -32q47 -100 152.5 -243.5t181.5 -211.5q27 86 43 238q25 250 27 256q-45 0 -127 8q-47 10 -66 37q-16 23 0 47q26 35 104 35h9q6 0 141 -11 h12q21 0 52 5q41 6 55 6q49 0 78 -37q6 -8 6 -17q0 -23 -25.5 -47t-44.5 -20q-6 -2 -14 -6q-20 6 -51 4q-8 -88 -19 -176q-12 -111 -30 -187q0 -18 -5 -53q-10 -27 -26.5 -77t-36.5 -122q0 -10 -4 -26q-35 -104 -70 -209q-49 -123 -133 -193q-43 -33 -127 -55 q-72 -18 -119 -18q-53 0 -110 14q-80 20 -160 164q-4 4 -4 16q0 9 2 21z" />
<glyph unicode="z" horiz-adv-x="722" d="M41 850q10 12 20 41q8 6 29 18q37 14 77 14q11 0 23 -1q93 -13 232 -13h20q25 0 75 -4t71 -4q-10 0 41 4q25 4 59 -10q23 -8 27 -45q2 -33 -8 -49q-55 -86 -168 -242q0 -4 -2 -14q-14 -27 -45 -78q-51 -92 -146 -248q-66 -98 -113 -180q16 0 61.5 2t63.5 2q100 0 170 -2 q33 2 101 2q6 14 14 147q6 90 68 91q16 0 37 -7q28 -17 28 -53q0 -13 -3 -33t-5 -28q-2 -64 -2 -104t2 -58q2 -9 2 -17q0 -31 -25 -44q-12 -2 -34 -11q-14 -6 -31 -6q-16 0 -45 7t-39 7h-248q-2 0 -60.5 -4t-92.5 -6q-45 0 -97 4q-12 2 -27.5 20.5t-21.5 20.5q4 20 19 51 q80 80 122 162q16 18 43 60q47 84 132 243q8 18 81 127q31 39 91 140q8 12 12 34q-32 8 -122 8q-52 0 -124 -3q-66 -2 -102 -27q0 -14 7 -54t7 -59q0 -35 -18 -47q-29 -18 -68 -18q-57 0 -76 41q2 14 -2 32q2 6 2 27q0 42 -8 145q4 16 -4 19z" />
<glyph unicode="&#xad;" d="M51 604q0 35 37 53q47 20 107 9h86q174 0 337 18q29 4 60.5 -14.5t23.5 -51.5q-6 -23 -35.5 -38t-56.5 -15h-18q-16 2 -23 2q-37 0 -157 -8q-135 -8 -195 -8q-27 -2 -82 -4q-33 -2 -58.5 15.5t-25.5 41.5z" />
<glyph unicode="&#x2000;" horiz-adv-x="707" />
<glyph unicode="&#x2001;" horiz-adv-x="1415" />
<glyph unicode="&#x2002;" horiz-adv-x="707" />
<glyph unicode="&#x2003;" horiz-adv-x="1415" />
<glyph unicode="&#x2004;" horiz-adv-x="471" />
<glyph unicode="&#x2005;" horiz-adv-x="353" />
<glyph unicode="&#x2006;" horiz-adv-x="235" />
<glyph unicode="&#x2007;" horiz-adv-x="235" />
<glyph unicode="&#x2008;" horiz-adv-x="176" />
<glyph unicode="&#x2009;" horiz-adv-x="283" />
<glyph unicode="&#x200a;" horiz-adv-x="78" />
<glyph unicode="&#x2010;" d="M51 604q0 35 37 53q47 20 107 9h86q174 0 337 18q29 4 60.5 -14.5t23.5 -51.5q-6 -23 -35.5 -38t-56.5 -15h-18q-16 2 -23 2q-37 0 -157 -8q-135 -8 -195 -8q-27 -2 -82 -4q-33 -2 -58.5 15.5t-25.5 41.5z" />
<glyph unicode="&#x2011;" d="M51 604q0 35 37 53q47 20 107 9h86q174 0 337 18q29 4 60.5 -14.5t23.5 -51.5q-6 -23 -35.5 -38t-56.5 -15h-18q-16 2 -23 2q-37 0 -157 -8q-135 -8 -195 -8q-27 -2 -82 -4q-33 -2 -58.5 15.5t-25.5 41.5z" />
<glyph unicode="&#x2012;" d="M51 604q0 35 37 53q47 20 107 9h86q174 0 337 18q29 4 60.5 -14.5t23.5 -51.5q-6 -23 -35.5 -38t-56.5 -15h-18q-16 2 -23 2q-37 0 -157 -8q-135 -8 -195 -8q-27 -2 -82 -4q-33 -2 -58.5 15.5t-25.5 41.5z" />
<glyph unicode="&#x2013;" horiz-adv-x="1065" d="M51 604q0 35 58 53q74 20 168 9h135q273 0 529 18q45 4 94.5 -14.5t36.5 -51.5q-9 -23 -55.5 -38t-88.5 -15h-28q-25 2 -36 2q-58 0 -247 -8q-211 -8 -306 -8q-42 -2 -128 -4q-52 -2 -92 15.5t-40 41.5z" />
<glyph unicode="&#x2014;" horiz-adv-x="2089" d="M51 604q0 35 116 53q148 20 336 9h270q546 0 1057 18q91 4 190 -14.5t74 -51.5q-19 -23 -111.5 -38t-177.5 -15h-56q-50 2 -72 2q-117 0 -493 -8q-424 -8 -612 -8q-85 -2 -257 -4q-104 -2 -184 15.5t-80 41.5z" />
<glyph unicode="&#x202f;" horiz-adv-x="283" />
<glyph unicode="&#x205f;" horiz-adv-x="353" />
<glyph unicode="&#x25fc;" horiz-adv-x="808" d="M0 0v809h809v-809h-809z" />
</font>
</defs>
</svg>
