<?xml version="1.0" standalone="no"?>
<!DOCTYPE svg PUBLIC "-//W3C//DTD SVG 1.1//EN" "http://www.w3.org/Graphics/SVG/1.1/DTD/svg11.dtd" >
<svg xmlns="http://www.w3.org/2000/svg">
<metadata></metadata>
<defs>
<font id="dark_bastionregular" horiz-adv-x="1833" >
<font-face units-per-em="2048" ascent="1638" descent="-410" />
<missing-glyph horiz-adv-x="1037" />
<glyph horiz-adv-x="2048" />
<glyph horiz-adv-x="2048" />
<glyph unicode="&#xd;" horiz-adv-x="1037" />
<glyph unicode=" "  horiz-adv-x="1037" />
<glyph unicode="&#x09;" horiz-adv-x="1037" />
<glyph unicode="&#xa0;" horiz-adv-x="1037" />
<glyph unicode="!" horiz-adv-x="251" d="M31 0h189v189h-189v-189zM31 331h189v1088h-189v-1088zM79 94q0 47 47 47t48 -47q0 -47 -48 -47q-47 0 -47 47zM79 425v95q0 47 47 47t48 -47v-95q0 -47 -48 -47q-47 0 -47 47zM79 662q0 47 47 47t48 -47q-1 -47 -48 -47t-47 47z" />
<glyph unicode="&#x22;" horiz-adv-x="581" d="M31 899l189 189v331h-189v-189h95v-95l-95 -95v-141zM362 899l188 189v331h-188v-189h94v-95l-94 -95v-141z" />
<glyph unicode="#" horiz-adv-x="913" d="M31 425h143v-141h189v141h188v-141h190v141h142v190h-142v189h142v189h-142v142h-190v-142h-188v142h-189v-142h-143v-189h143v-189h-143v-190zM79 520q0 47 47 47h663q47 0 46 -47q0 -47 -46 -47h-95v-95q0 -47 -48 -47q-47 0 -47 47v95h-284v-95q0 -47 -47 -47t-48 47 v95h-94q-47 0 -47 47zM220 662q1 47 48 47t47 -47t-47 -47t-48 47zM363 615v189h188v-189h-188zM599 662q0 47 47 47t48 -47q0 -47 -48 -47q-47 0 -47 47z" />
<glyph unicode="$" horiz-adv-x="1008" d="M31 425q0 -158 113 -276q106 -112 266 -141v-150h189v150q160 30 266 141q113 117 112 276q0 158 -111 277q-107 112 -267 140v382q63 -16 102.5 -67.5t39.5 -116.5h189q0 144 -94 251t-237 125v145h-189v-145q-142 -18 -236.5 -125t-94.5 -251q0 -143 94.5 -250 t236.5 -125v-463q-81 24 -133 81q-57 63 -57 142h-189zM101 332q0 47 48 48q32 0 43 -31q6 -16 10 -22q68 -152 255 -178v371q0 47 48 47q47 0 47 -47v-371q117 13 200 86q90 81 89 195q0 30 -10 73q-1 4 -3 13q-1 3 -1 6q0 47 48 47q33 0 44 -32l6 -20q12 -43 11 -87 q0 -153 -117 -262q-110 -102 -267 -114v-101q0 -47 -47 -48q-47 0 -48 48v101q-115 13 -206 76q-97 65 -140 168q-1 3 -8 22q-2 7 -2 12zM268 1040q0 64 39.5 115.5t102.5 68.5v-366q-63 16 -102.5 67t-39.5 115zM450 662q1 47 48 47t46 -47q0 -47 -46 -47q-47 0 -48 47z M599 202v446q81 -23 132 -81q57 -63 58 -142q0 -80 -58 -142q-52 -56 -132 -81zM730 666q1 47 48 47t47 -47t-47 -47t-48 47z" />
<glyph unicode="%" horiz-adv-x="1354" d="M31 -3h236l1056 1422l-237 -2zM31 1088q0 -129 76 -227q82 -105 208 -105q125 0 208 105q76 98 76 227t-76 226q-82 105 -208 105q-125 0 -208 -105q-76 -98 -76 -226zM162 88q0 13 12 29l315 425q16 21 36 22q17 0 34 -15t17 -33q1 -14 -11 -30l-318 -429 q-16 -22 -37 -15q-13 -1 -26 9q-22 17 -22 37zM220 1088q0 50 23 91q27 51 72 51q46 0 73 -51q22 -41 22 -91q0 -49 -22 -92q-27 -50 -73 -50t-72 50q-23 42 -23 92zM592 655q0 47 46 48q47 0 48 -48q-1 -46 -48 -46t-46 46zM741 331q0 -130 76 -226q81 -105 208 -105 q126 0 208 105q76 97 76 226t-76 227q-83 104 -208 104t-208 -104q-76 -98 -76 -227zM794 333q0 107 58 187q9 10 24 28q14 21 40 21q47 0 47 -47q0 -20 -15 -34q-4 -4 -14 -17q-45 -55 -45 -138q0 -70 36 -125q40 -64 106 -64q65 0 107 65q35 55 35 124q0 81 -44 137 q-4 4 -15 19l-8 8q-8 12 -8 26q0 47 48 47q22 0 36 -18v1q16 -19 27 -34q58 -79 58 -186q0 -109 -62 -192q-68 -91 -174 -92q-106 0 -174 92q-63 83 -63 192zM930 331q0 49 22 91q27 51 73 51t72 -51q22 -42 23 -91q0 -50 -23 -91q-27 -51 -72 -51q-46 0 -73 51 q-22 41 -22 91z" />
<glyph unicode="&#x26;" horiz-adv-x="1004" d="M31 425q0 -184 145 -307q136 -116 324 -118h1h1h3q187 2 324 118q144 124 144 307v331h-184l-195 -94v-189l190 94v-142q0 -106 -90 -173q-83 -63 -192 -63q-108 0 -191 63q-90 68 -91 173q0 107 91 175q83 63 194 62v189h-48q-79 0 -134 55t-55 134q0 80 55 135t134 55 t134 -55.5t55 -134.5h189q0 158 -110 268.5t-268 110.5t-268 -110.5t-110 -268.5q0 -170 128 -284q-175 -128 -176 -331zM79 426q0 45 11 87q1 4 6 20q12 31 45 32q47 0 47 -48q0 -3 -1 -6q-1 -7 -3 -12q-11 -44 -10 -73q0 -125 104 -208q97 -76 226 -76h1q129 0 225 76 q105 82 105 207v95q0 47 48 47q47 0 47 -47v-95q0 -33 -18 -109v-1q-3 -7 -8 -21q-2 -4 -6 -13l-2 -4q-55 -108 -161 -169t-230 -61q-131 0 -238 64q-114 67 -162 183q-1 3 -8 22h1q-19 54 -19 110zM204 662q1 47 48 47t47 -47t-47 -47t-48 47zM835 662q0 47 48 47 q47 0 47 -47t-47 -47t-48 47z" />
<glyph unicode="'" horiz-adv-x="251" d="M31 899l189 189v331h-189v-189h95v-95l-95 -95v-141z" />
<glyph unicode="(" horiz-adv-x="388" d="M31 709q0 -255 50 -574q21 -135 97 -514h179l-89 510q-47 316 -48 578q0 263 48 579q12 82 89 509h-179q-75 -380 -97 -514q-50 -319 -50 -574zM77 657q0 47 47 47t48 -47q0 -47 -48 -47q-47 0 -47 47zM84 505q-1 47 48 47q47 0 47 -47q0 -118 30 -302q8 -43 91 -490 q2 -10 2 -12q0 -47 -48 -47q-47 0 -47 47q-115 491 -123 804z" />
<glyph unicode=")" horiz-adv-x="388" d="M31 -379q74 405 90 510q47 320 47 578q0 259 -47 579q-16 104 -90 509h179q80 -401 98 -514q49 -312 49 -574q0 -261 -49 -574q-18 -114 -98 -514h-179zM87 -299q0 -47 47 -47t48 47q114 487 122 804q1 47 -47 47q-47 0 -47 -47q0 -123 -30 -302q-17 -89 -91 -490 q-2 -10 -2 -12zM217 657q0 -47 47 -47t47 47t-47 47t-47 -47z" />
<glyph unicode="*" horiz-adv-x="765" d="M31 940l115 -151l136 104v-137h190v144l147 -113l115 150l-197 151l197 150l-115 150l-147 -112v143h-190v-137l-136 104l-115 -151l194 -147z" />
<glyph unicode="+" horiz-adv-x="819" d="M31 615h284v-285h190v285h284v189h-284v284h-190v-284h-284v-189zM363 425v95q0 47 47 47t47 -47v-95q0 -47 -47 -47t-47 47zM363 661q0 47 47 48q47 0 47 -48q0 -46 -47 -46t-47 46z" />
<glyph unicode="," horiz-adv-x="251" d="M31 0h95v-95l-95 -95v-141l189 189v331h-189v-189zM79 94q0 47 47 47t48 -47q-1 -47 -48 -47t-47 47z" />
<glyph unicode="-" horiz-adv-x="819" d="M31 615h758v189h-758v-189z" />
<glyph unicode="." horiz-adv-x="251" d="M31 0h189v189h-189v-189zM79 94q0 47 47 47t48 -47q0 -47 -48 -47q-47 0 -47 47z" />
<glyph unicode="/" horiz-adv-x="1067" d="M31 -1l216 -1l790 1421h-217zM156 128l258 461q23 41 65 19q42 -24 19 -65l-263 -465q-13 -23 -34 -20q-12 -3 -26 6q-42 23 -19 64zM502 715q-6 47 41 53q47 5 53 -41q6 -47 -41 -53q-47 -5 -53 41z" />
<glyph unicode="0" horiz-adv-x="1103" d="M31 709q0 259 128 466q149 243 392 244q243 0 393 -243q128 -208 128 -467t-128 -466q-149 -243 -393 -243q-243 0 -392 243q-128 209 -128 466zM85 662q0 -47 47 -47t47 47t-47 47t-47 -47zM99 520q0 -11 5 -20q45 -198 169 -325.5t279 -127.5t280 128t170 325q4 9 4 20 q0 47 -47 47q-44 0 -47 -43q-4 -11 -7 -22q-38 -143 -121 -242q-100 -119 -232 -119q-119 0 -216 103q-80 84 -137 264l-7 19q-5 40 -46 40q-47 0 -47 -47zM220 709q0 -178 76 -331q94 -189 255 -189q162 0 256 189q76 152 76 331t-76 331q-94 190 -256 190 q-161 0 -255 -190q-76 -152 -76 -331zM931 662q0 -47 47 -47t47 47t-47 47t-47 -47z" />
<glyph unicode="1" horiz-adv-x="488" d="M31 1135l48 47l284 237v-1230h94v-189h-378v189h95v946h-143zM126 94q0 -47 48 -47h189q47 0 47 47t-47 47h-48v379q0 47 -47 47t-48 -47v-379h-46q-47 0 -48 -47zM220 662q0 -47 48 -47q47 0 47 47t-47 47t-48 -47z" />
<glyph unicode="2" horiz-adv-x="1008" d="M31 0v47q0 249 111 456q134 253 363 253q109 0 192 63q91 68 92 174q0 106 -92 174q-83 63 -192 63q-110 0 -194 -63q-91 -68 -91 -174h-189q0 185 146 308q139 117 328 118q189 0 327 -118q145 -123 145 -308q0 -184 -145 -308q-139 -117 -327 -118q-114 0 -194 -138 q-59 -104 -80 -240h699v-189h-899zM85 95q0 -47 47 -48h709q48 1 48 48t-48 47h-657q19 198 109 333q21 32 21 45q0 47 -47 47q-27 0 -41 -24v1q-75 -141 -102 -233q-38 -127 -39 -216zM321 615q0 -47 48 -48q47 1 47 48t-47 47t-48 -47z" />
<glyph unicode="3" horiz-adv-x="1008" d="M31 425h189q0 -106 92 -174q83 -62 193 -62q109 0 192 63q91 68 92 173q0 106 -92 175q-83 63 -192 62h-48v189h48q23 0 46 -2v2q79 0 134.5 55t55.5 134q0 80 -55 135t-135 55h-94q-80 0 -134.5 -55t-54.5 -135h-189q0 158 110.5 268.5t267.5 110.5h94 q158 0 268.5 -110.5t110.5 -268.5q0 -170 -128 -284q175 -128 175 -331q0 -184 -145 -308q-139 -117 -327 -117q-189 0 -327 116q-147 124 -147 309zM105 329q0 -5 2 -13q2 -6 8 -22q45 -107 153.5 -177t239.5 -70h2q168 0 294 104q132 109 132 275q0 43 -11 87q-2 6 -6 20 q-12 31 -44 32q-47 0 -48 -48q0 -3 1 -6q1 -7 3 -12q11 -44 10 -73q0 -126 -104 -208q-98 -76 -227 -76q-97 2 -179 48q-89 49 -126 133q-1 3 -9 23q-12 30 -44 30q-47 0 -47 -47zM716 662q0 -47 48 -47q47 0 47 47t-47 47t-48 -47z" />
<glyph unicode="4" horiz-adv-x="1103" d="M31 425l95 190l362 804l206 -2l-355 -802h260v331h190v-331h283v-190h-283v-425h-190v425h-568zM132 520q0 -47 47 -47h474v-379q0 -47 47 -47t47 47v379h237q47 0 47 47t-47 47h-805q-47 0 -47 -47zM653 662q0 -47 47 -47t47 47t-47 47t-47 -47z" />
<glyph unicode="5" horiz-adv-x="1008" d="M31 473h189q0 -118 83.5 -201t201.5 -83t201 82.5t83 201.5q0 118 -83 200.5t-201 82.5h-379v663h757v-189h-568v-284h190q197 0 334.5 -138t137.5 -335t-137.5 -335t-334.5 -138q-198 0 -336 138t-138 335zM85 378q0 -4 2 -13q0 -4 2 -10q38 -137 151.5 -222.5 t257.5 -85.5q177 0 301.5 124.5t124.5 301.5q0 24 -3 47q0 47 -47 47t-48 -47h-1q4 -23 4 -47q0 -138 -96.5 -235t-234.5 -97q-107 0 -194 63t-121 164q-2 5 -5 19q-6 38 -46 38q-47 0 -47 -47zM781 662q0 -47 48 -47q47 0 47 47t-47 47t-48 -47z" />
<glyph unicode="6" horiz-adv-x="1008" d="M31 425v95q0 343 179 604q202 294 531 295v-189q-176 0 -311 -138q-118 -120 -172 -303q114 63 247 62q188 0 327 -117q145 -124 145 -309q0 -184 -145 -308q-139 -117 -327 -117q-189 0 -327 116q-147 124 -147 309zM85 425q0 -166 133 -275q124 -104 292 -103 q168 0 294 103q132 109 132 275q0 43 -10 83q-2 5 -7 25q-10 34 -45 34q-47 0 -48 -48q0 -4 1 -10q4 -12 8 -27q6 -26 6 -57q0 -126 -104 -207q-97 -76 -227 -77q-129 0 -226 77q-105 82 -105 207q0 34 6 55q1 5 8 26h-1q3 8 3 14q0 47 -47 47q-39 0 -47 -38l-4 -15 q-12 -39 -12 -89zM166 662q0 -47 46 -47q48 0 48 47t-48 47q-47 0 -46 -47zM220 425q0 -106 92 -174q83 -62 193 -62q109 0 192 63q92 67 92 173t-92 175q-83 63 -192 62q-110 0 -194 -62q-91 -68 -91 -175zM719 662q0 -47 47 -47q48 0 48 47t-48 47q-47 0 -47 -47z" />
<glyph unicode="7" horiz-adv-x="1017" d="M31 1230v189h955l-426 -1419h-197l368 1230h-700zM445 102q-13 -46 31 -59q46 -13 59 32l129 431q13 46 -31 59q-46 13 -59 -32zM614 669q-13 -44 32 -59q46 -14 59 32t-32 59t-59 -32z" />
<glyph unicode="8" horiz-adv-x="1008" d="M31 425q0 203 176 331q-128 114 -128 284q0 158 110.5 268.5t267.5 110.5h94q158 0 268.5 -110t110.5 -269q0 -170 -128 -284q175 -128 175 -331q0 -118 -68 -220q-139 -205 -404 -205q-141 0 -257 67q-122 70 -179 193q-38 81 -38 165zM85 426q0 -56 18 -110q3 -8 8 -22 q2 -4 6 -13l2 -4q53 -105 157 -167.5t234 -62.5t238 64q114 68 162 183q1 2 8 21l-1 1q19 54 19 110q0 43 -11 87q-2 6 -6 20q-12 31 -44 32q-47 0 -48 -48q0 -3 1 -6q1 -7 3 -12q11 -44 10 -73q0 -126 -104 -208q-98 -76 -227 -76t-226 76q-105 82 -105 208q0 29 12 73 q1 4 2 12q0 4 1 6q0 47 -47 48q-33 0 -45 -32l-6 -20q-11 -35 -11 -87zM210 662q0 -47 48 -47q47 0 47 47t-47 47t-48 -47zM220 425q0 -106 92 -174q83 -62 193 -62q109 0 192 63q92 67 92 173t-92 175q-83 63 -192 62q-110 0 -194 -62q-91 -68 -91 -175zM268 1040 q0 -79 55.5 -134t133.5 -55h94q79 0 134.5 55t55.5 134q0 80 -55 135t-135 55h-94q-80 0 -134.5 -55t-54.5 -135zM716 662q0 -47 48 -47q47 0 47 47t-47 47t-48 -47z" />
<glyph unicode="9" horiz-adv-x="1008" d="M31 993q0 185 146 308q139 117 328 118q189 0 327 -118q146 -124 145 -308v-94q0 -343 -179 -605q-202 -294 -530 -294v189q177 0 311 137q118 120 172 304q-113 -63 -246 -63q-189 0 -327 117q-147 124 -147 309zM220 993q0 -106 92 -175q83 -62 193 -62q109 0 192 63 q92 68 92 174t-92 174q-83 63 -192 63q-110 0 -194 -63q-91 -68 -91 -174zM315 99q0 -47 48 -47q5 0 12 3v-1q1 1 2.5 1t4.5 1q205 40 352 217q115 139 127 245q1 5 1 9q0 47 -47 48q-40 0 -47 -40q-92 -189 -197 -275q-69 -57 -216 -114q-40 -6 -40 -47zM802 662 q0 -47 47 -47q48 0 48 47t-48 47q-47 0 -47 -47z" />
<glyph unicode=":" horiz-adv-x="251" d="M31 0h189v189h-189v-189zM31 586h189v189h-189v-189zM79 94q0 47 47 47t48 -47q0 -47 -48 -47q-47 0 -47 47z" />
<glyph unicode=";" horiz-adv-x="251" d="M31 0h95v-95l-95 -95v-141l189 189v331h-189v-189zM31 586h189v189h-189v-189zM79 94q0 47 47 47t48 -47q-1 -47 -48 -47t-47 47z" />
<glyph unicode="&#x3c;" horiz-adv-x="867" d="M31 580l805 -371v208l-571 264l570 262v209l-804 -371v-201zM76 671q21 44 64 23q42 -21 21 -64t-63 -22q-43 21 -22 63zM203 607q20 43 63 23l489 -225q43 -19 23 -62t-63 -23l-489 224q-43 20 -23 63z" />
<glyph unicode="=" horiz-adv-x="867" d="M31 425h804v190h-804v-190zM31 804h804v189h-804v-189zM79 520q0 47 47 47h615q47 0 48 -47q-1 -47 -48 -47h-615q-47 0 -47 47z" />
<glyph unicode="&#x3e;" horiz-adv-x="867" d="M31 209v208l571 264l-570 262v209l804 -371v-201zM90 343q20 -43 62 -23l489 224q43 20 24 63q-20 43 -63 23l-489 -225q-43 -19 -23 -62zM706 630q21 -43 63 -22q43 21 22 63q-21 44 -63 23q-43 -21 -22 -64z" />
<glyph unicode="?" horiz-adv-x="1008" d="M31 993h189q0 107 91 174q83 63 194 63q109 0 192 -63q91 -69 92 -174q0 -106 -92 -174q-83 -63 -192 -63h-142v-426h188v239q175 15 298 131q129 121 128 293q0 185 -145 308q-139 118 -327 118q-189 0 -328 -118q-146 -124 -146 -308zM363 0h188v189h-188v-189zM410 94 q0 47 47 47t48 -47q0 -47 -48 -47q-47 0 -47 47zM410 425v95q0 47 47 47t48 -47v-95q0 -47 -48 -47q-47 0 -47 47zM410 661q0 47 47 48q47 0 48 -48q-1 -46 -48 -46t-47 46z" />
<glyph unicode="@" horiz-adv-x="1665" d="M31 699q0 -336 234 -570.5t570 -234.5q308 0 535.5 202t263.5 508h-191q-35 -226 -207 -373t-401 -147q-256 0 -435.5 179.5t-179.5 435.5t179.5 435.5t435.5 179.5q151 0 285 -70v-167q-126 95 -285 95q-197 0 -334.5 -138t-137.5 -335t137.5 -335t334.5 -138 q183 0 318 121.5t153 304.5h3v697q-211 154 -474 154q-336 0 -570 -234t-234 -570zM79 652q0 47 47 47t48 -47q0 -47 -48 -48q-47 1 -47 48zM104 509q0 47 46 48q34 0 45 -32l6 -21q64 -210 239 -338.5t395 -128.5q218 0 393.5 129t239.5 338q3 10 6 19q11 33 45 33 q47 0 47 -48q0 -6 -2 -14q-1 -2 -4 -12q-71 -240 -272.5 -390t-452.5 -150q-252 0 -452 149t-273 390q-1 4 -3.5 11t-2.5 17zM410 652q0 47 47 47t48 -47q0 -47 -48 -48q-47 1 -47 48zM460 509q0 47 48 48q26 0 41 -24q6 -10 18 -28q99 -138 268 -138t269 137q7 10 16 25 q14 24 41 24q47 0 47 -46q0 -11 -4 -20q-3 -7 -7 -14q-125 -200 -362 -200q-111 0 -208.5 54.5t-154.5 149.5l-1 1l-3 5q-2 3 -4 7l1 1q-4 9 -5 18zM551 699q0 118 83 201t201 83t201.5 -83t83.5 -201q0 -119 -83 -201.5t-202 -82.5q-118 0 -201 83t-83 201zM1166 652 q1 47 48 47t47 -47t-47 -48q-47 0 -48 48z" />
<glyph unicode="A" horiz-adv-x="1546" d="M31 1l209 -2l229 520h616l228 -520l202 2l-618 1418h-240zM132 110l186 423q13 30 39 30q11 0 23 -5q31 -13 31 -38q0 -11 -6 -25l-186 -422q-13 -30 -38 -30q-10 0 -23 5q-31 13 -31 39q0 11 5 23zM380 672q13 31 38 31q11 0 24 -6q31 -13 31 -38q0 -11 -6 -24 q-13 -30 -39 -30q-11 0 -23 5q-30 13 -30 39q0 10 5 23zM552 709l225 512l225 -512h-450zM1087 634q-6 13 -6 24q0 25 31 37q13 6 24 6q25 0 37 -31q5 -13 5 -24q0 -25 -29 -37q-13 -6 -24 -6q-25 0 -38 31zM1151 494q-6 13 -6 24q0 25 31 38q13 6 24 6q25 0 38 -31 l185 -422q6 -14 6 -25q0 -25 -30 -37q-13 -5 -24 -5q-26 0 -39 30z" />
<glyph unicode="B" horiz-adv-x="1056" d="M31 -1h521q189 0 327 117q146 124 146 309q0 222 -203 349q109 111 109 266q0 158 -110.5 268.5t-268.5 110.5h-521v-1420zM79 94v426q0 47 47 47t48 -47v-379h378q130 0 227 77q104 80 104 205q0 42 -14 83q-4 6 -4 12v2q-1 4 -1 7q0 47 47 48q32 0 44 -30q5 -15 12 -32 q10 -39 10 -81v-7q0 -166 -132 -275q-125 -103 -293 -103h-426q-47 0 -47 47zM79 661q0 48 47 48t48 -48q0 -47 -48 -47q-47 0 -47 47zM221 188v473h331q109 0 193 -62q91 -68 91 -174t-91 -174q-83 -63 -193 -63h-331zM221 851v379h331q79 0 134 -55.5t55 -134.5t-55 -134 t-134 -55h-331zM774 661q1 48 48 48t47 -48q0 -47 -47 -47t-48 47z" />
<glyph unicode="C" horiz-adv-x="1198" d="M31 709q0 -296 207 -503t503 -207q237 0 426 142l-136 136q-131 -89 -290 -89q-218 0 -369 151.5t-151 369.5t151.5 369t368.5 151q159 0 290 -88l136 135q-189 142 -426 143q-295 0 -502.5 -207.5t-207.5 -502.5zM79 661q0 47 47 48q47 0 48 -48q0 -47 -48 -47 q-47 0 -47 47zM117 508h1q-1 5 -1 9q0 47 47 48q39 0 46 -38l5 -12q60 -168 207 -271t326 -103q124 0 235 51l1 -1q11 6 22 6q47 0 48 -48q-1 -27 -24 -40l-1 -1q-153 -61 -277 -61h-4q-218 0 -391.5 126.5t-239.5 334.5z" />
<glyph unicode="D" horiz-adv-x="1198" d="M31 -1h426q296 0 503 207t207 503q0 295 -207.5 502.5t-502.5 207.5h-426v-1420zM79 94v426q0 47 47 47t48 -47v-379h285q180 0 326 101.5t208 270.5q4 9 6 18q7 38 46 38q47 0 48 -47q0 -11 -5 -21q0 -5 -3 -12q-66 -188 -223.5 -307.5t-356.5 -133.5v-1h-379 q-47 0 -47 47zM79 661q0 48 47 48t48 -48q0 -47 -48 -47q-47 0 -47 47zM221 188v1041h236q218 0 369 -151.5t151 -368.5q0 -218 -151 -369.5t-369 -151.5h-236zM1025 661q0 47 47 48q47 0 48 -48q-1 -47 -48 -47t-47 47z" />
<glyph unicode="E" horiz-adv-x="867" d="M31 -1h805v189h-615v426h425v189h-425v426h615v190h-805v-1420zM79 94v426q0 47 47 47t48 -47v-379h567q47 0 48 -47q0 -47 -48 -47h-615q-47 0 -47 47zM79 661q0 48 47 48t48 -48q0 -47 -48 -47q-47 0 -47 47z" />
<glyph unicode="F" horiz-adv-x="760" d="M31 -1h190v615h425v189h-425v426h615v190h-805v-1420zM79 94v426q0 47 47 47t48 -47v-426q0 -47 -48 -47q-47 0 -47 47zM79 661q0 47 47 48q47 0 48 -48q-1 -47 -48 -47t-47 47z" />
<glyph unicode="G" horiz-adv-x="1198" d="M31 709q0 -296 207 -503t503 -207q122 0 237 40v-40h189v568h-47v-473q-1 -47 -48 -47t-47 47v13q-1 0 -4 -2q-130 -58 -273 -58q-218 0 -391.5 126.5t-239.5 334.5h1q-1 5 -1 9q0 47 47 48q39 0 46 -38l5 -12q60 -168 207 -271t326 -103q124 0 235 51l1 -1q18 11 41 23 v353h-47v-322q-112 -57 -237 -57q-218 0 -369 151.5t-151 369.5t151.5 369t368.5 151q159 0 290 -88l136 135q-189 142 -426 143q-295 0 -502.5 -207.5t-207.5 -502.5zM79 661q0 47 47 48q47 0 48 -48q0 -47 -48 -47q-47 0 -47 47zM694 567h331v47h-236q-47 0 -48 47 q0 47 48 48h283q47 0 48 -48v-94h47v189h-473v-189z" />
<glyph unicode="H" horiz-adv-x="1197" d="M31 0h189v615h757v-615h189v1419h-189v-615h-757v615h-189v-1419zM79 93v426q0 47 47 48q47 0 48 -48v-426q0 -47 -48 -47q-47 0 -47 47zM79 661q0 47 47 47t48 -47q-1 -48 -48 -48t-47 48zM1025 93v426q0 47 47 48q47 0 48 -48v-426q0 -47 -48 -47q-47 0 -47 47z M1025 661q0 47 47 47t48 -47q0 -47 -48 -48q-47 0 -47 48z" />
<glyph unicode="I" horiz-adv-x="441" d="M31 0h379v189h-95v1041h95v189h-379v-189h95v-1041h-95v-189zM79 93q0 47 47 48h48v378q0 47 46 48q47 0 48 -48v-378h47q48 -1 48 -48t-48 -47h-189q-47 0 -47 47zM174 661q-1 47 46 47t48 -47q0 -47 -48 -48q-47 0 -46 48z" />
<glyph unicode="J" horiz-adv-x="913" d="M31 424q0 -177 124.5 -301.5t301.5 -124.5t301.5 124.5t124.5 301.5v994h-189v-994q0 -98 -69 -167t-168 -69q-98 0 -167.5 69t-69.5 167h-189zM96 320q0 46 45 46h2q38 0 47 -37q30 -85 103.5 -136.5t163.5 -51.5q118 0 201 82.5t83 200.5v95q0 47 48 48q46 -1 46 -48 v-95q0 -158 -110 -268t-268 -110q-118 0 -215 66.5t-139 177.5q-1 3 -3 11q-3 4 -3 10q-1 4 -1 9zM741 661q0 47 48 47q47 0 46 -47q1 -48 -46 -48t-48 48z" />
<glyph unicode="K" horiz-adv-x="1161" d="M31 0h189v286l201 253l460 -539l250 -2l-591 692l576 730l-240 -1l-656 -829v829h-189v-1419zM79 93v426q0 47 47 48q47 0 48 -48v-426q0 -47 -48 -47q-47 0 -47 47zM79 661q0 47 47 47t48 -47q-1 -48 -48 -48t-47 48zM400 666q0 17 17.5 32.5t34.5 15.5t32.5 -17 t15.5 -34t-17.5 -32.5t-34.5 -15.5t-32.5 16.5t-15.5 34.5zM488 558q0 17 17 32.5t34 15.5q19 0 36 -20l401 -470q13 -16 13 -31q0 -17 -17 -32.5t-34 -15.5h-2q-18 0 -34 19l-401 470q-13 16 -13 32z" />
<glyph unicode="L" horiz-adv-x="961" d="M31 0h899v189h-710v1230h-189v-1419zM79 93v426q0 47 47 48q47 0 48 -48v-378h661q47 0 48 -48q-1 -47 -48 -47h-709q-47 0 -47 47zM79 661q0 47 47 47t48 -47q0 -47 -48 -48q-47 0 -47 48z" />
<glyph unicode="M" horiz-adv-x="1434" d="M31 0h189v1088l402 -661l72 -1v-1h107l413 676v-1101h190v1419h-217l-474 -779l-472 779h-210v-1419zM79 93v426q0 47 47 48q47 0 48 -48v-426q0 -47 -48 -47q-47 0 -47 47zM79 661q0 47 47 47t48 -47q-1 -48 -48 -48t-47 48zM1261 93v426q0 47 48 48q47 0 47 -48v-426 q0 -47 -47 -47t-48 47zM1261 661q0 47 48 47q47 0 47 -47q0 -48 -47 -48t-48 48z" />
<glyph unicode="N" horiz-adv-x="1197" d="M31 0h189v1103l747 -1103h199v1419h-189v-1095l-742 1095h-204v-1419zM79 93v426q0 47 47 48q47 0 48 -48v-426q0 -47 -48 -47q-47 0 -47 47zM79 661q0 47 47 47t48 -47q-1 -48 -48 -48t-47 48zM595 643q0 20 23 35q16 11 30 11q20 0 36 -22q11 -16 11 -30q0 -21 -24 -36 q-16 -11 -30 -11q-20 0 -35 22q-11 16 -11 31zM689 486q-11 16 -11 29q0 20 23 36q16 11 30 11q20 0 36 -22l258 -371v350q0 47 47 48q47 0 48 -48v-426q-1 -47 -48 -47h-54q-24 3 -38 21zM1025 661q0 47 47 47t48 -47q-1 -48 -48 -48t-47 48z" />
<glyph unicode="O" horiz-adv-x="1482" d="M31 709q0 -296 207 -502.5t503 -206.5q295 0 502.5 207t207.5 502q0 296 -207 503t-503 207t-503 -207t-207 -503zM79 662q0 47 47 47t48 -47q0 -47 -48 -47q-47 0 -47 47zM112 508h1q-1 4 -1 10q0 47 47 48q38 0 47 -39l3 -11q48 -157 205 -269q148 -106 329 -106 q179 0 325.5 102.5t207.5 269.5q2 5 7 19q7 37 44 37h2q47 0 47 -46q0 -11 -5 -21q-1 -4 -2 -12q-71 -200 -243 -321.5t-383 -121.5q-218 0 -391.5 127.5t-239.5 333.5zM220 709q0 218 152 369.5t369 151.5q218 0 369 -152t151 -369t-151.5 -368.5t-368.5 -151.5t-369 151.5 t-152 368.5zM1309 662q0 47 47 47t48 -47q0 -47 -48 -47q-47 0 -47 47z" />
<glyph unicode="P" horiz-adv-x="1056" d="M31 0h189v567h331q189 0 327 117q147 124 147 309t-146 308q-139 118 -328 118h-520v-1419zM79 94v426q0 47 47 47t48 -47v-426q0 -47 -48 -47q-47 0 -47 47zM79 662q0 47 47 47t48 -47q-1 -47 -48 -47t-47 47zM220 756v474h331q110 0 193 -63q91 -68 91 -174t-91 -175 q-84 -62 -193 -62h-331z" />
<glyph unicode="Q" horiz-adv-x="1482" d="M31 709q0 -296 207 -502.5t503 -206.5q198 0 366 102l88 -104l256 2l-192 224q192 205 192 485q0 296 -207 503t-503 207t-503 -207t-207 -503zM79 662q0 47 47 47t48 -47q0 -47 -48 -47q-47 0 -47 47zM112 508h1q-1 4 -1 10q0 47 47 48q38 0 47 -39l3 -11 q48 -156 205 -269q148 -106 329 -106q173 0 316 96l-205 244q-20 23 -20 43q0 16 15.5 30.5t32.5 14.5q21 0 44 -27l206 -246q98 92 144 217l7 19q7 37 44 37h2q47 0 47 -46q0 -11 -5 -21q-1 -4 -2 -12q-55 -154 -176 -266l77 -92q20 -23 20 -42q0 -17 -15.5 -31t-32.5 -14 q-22 0 -44 27l-78 93q-170 -117 -377 -118q-218 0 -391.5 127.5t-239.5 333.5zM220 709q0 218 151.5 369.5t369.5 151.5t369 -152t151 -369q0 -193 -127 -340l-336 392l-145 -122l330 -390q-113 -60 -242 -60q-217 0 -369 151.5t-152 368.5zM739 630q0 47 47 48 q47 -1 47 -48q0 -46 -45 -46h-2q-47 0 -47 46zM1309 662q0 47 47 47t48 -47q0 -47 -48 -47q-47 0 -47 47z" />
<glyph unicode="R" horiz-adv-x="1058" d="M31 0h189v567h288l302 -567h218l-319 592q138 44 225 149q91 112 91 252q0 185 -146 308q-139 117 -328 118h-520v-1419zM79 94v426q0 47 47 47t48 -47v-426q0 -47 -48 -47q-47 0 -47 47zM79 662q0 47 47 47t48 -47q-1 -47 -48 -47t-47 47zM220 756v474h331 q110 0 193 -63q91 -68 91 -174t-91 -175q-83 -62 -193 -62h-331zM526 637q-8 15 -8 27q0 23 27 38q14 8 27 8q23 0 38 -28q8 -14 8 -26q0 -22 -27 -37q-15 -8 -28 -8q-23 0 -37 26zM593 499q-8 14 -8 27q0 23 28 38q14 7 25 7q23 0 39 -27l238 -426q8 -15 8 -28 q0 -22 -27 -36q-14 -8 -26 -8q-23 0 -38 27z" />
<glyph unicode="S" horiz-adv-x="1006" d="M31 425q0 -184 146 -308q138 -117 325 -117h3q187 0 326 117q145 124 145 308q0 185 -146 309q-139 117 -328 117h-46q-79 0 -134.5 55t-55.5 134q0 80 55 135t135 55h94q80 0 134.5 -55t54.5 -135h189q0 158 -110.5 268.5t-267.5 110.5h-94q-158 0 -268.5 -110 t-110.5 -269q0 -158 110 -268t269 -110h46q110 0 193 -62q91 -68 92 -175q0 -106 -92 -173q-83 -63 -191 -63q-109 0 -193 63q-91 68 -91 173h-189zM91 329q0 47 48 47q32 0 44 -30q4 -9 9 -24q38 -85 127 -134q84 -47 181 -47v1q129 0 227 76q105 82 105 208q0 29 -11 73 l-4 12v6q0 47 47 48q34 0 45 -32l6 -20q11 -35 11 -80v-7q0 -166 -132 -275q-126 -104 -294 -104q-130 0 -238 64q-113 68 -161 183q-3 4 -8 22q-2 6 -2 13zM706 662q0 47 48 47q47 0 46 -47q1 -47 -46 -47t-48 47z" />
<glyph unicode="T" horiz-adv-x="1008" d="M31 1230h379v-1230h189v1230h378v189h-946v-189zM457 94v426q0 47 48 47q47 0 46 -47v-426q0 -47 -46 -47q-47 0 -48 47zM457 662q0 47 48 47q47 0 46 -47q1 -47 -46 -47t-48 47z" />
<glyph unicode="U" horiz-adv-x="1197" d="M31 709q0 -303 129 -491q149 -218 439 -218q289 0 438 218q129 188 129 491v710h-189v-710q0 -520 -378 -520q-379 0 -379 520v710h-189v-710zM79 665q0 48 47 48t48 -48q0 -47 -48 -47q-47 0 -47 47zM91 519q0 47 48 48q47 0 46 -47q31 -173 134 -272q109 -107 280 -107 q170 0 278 104q100 97 134 269l2 9q4 43 47 43q24 0 47 -44v-2v-2q0 -5 -1 -10q-37 -209 -164 -332q-135 -129 -340 -129h-3q-194 0 -344 133q-153 136 -163 328q-1 6 -1 11zM1025 665q0 47 47 48q47 0 48 -48q-1 -47 -48 -47t-47 47z" />
<glyph unicode="V" horiz-adv-x="1419" d="M31 1417l554 -1418h240l563 1418l-202 2l-480 -1200l-466 1200zM380 644q-5 13 -5 23q0 26 31 39q13 5 23 5q26 0 39 -32q5 -13 5 -23q0 -26 -32 -38q-13 -6 -23 -6q-25 0 -38 32zM430 509q-5 13 -5 23q0 26 31 38q13 5 23 5q26 0 38 -31l162 -396h44l161 396 q13 31 39 31q11 0 23 -5q31 -12 31 -38q0 -10 -5 -23l-174 -427q-9 -22 -33 -28v-1h-122q-29 3 -40 29zM955 685q13 32 39 32q10 0 23 -5q31 -12 31 -38q0 -11 -5 -24q-12 -31 -38 -31q-11 0 -24 5q-31 12 -31 38q0 11 5 23z" />
<glyph unicode="W" horiz-adv-x="1800" d="M31 1419l428 -1419h4l-1 -1h208l239 548l230 -547h204l426 1419h-198l-346 -1147l-230 532h-195l-224 -534l-347 1149h-198zM306 667q0 47 48 47q47 0 47 -47t-47 -48q-48 1 -48 48zM353 509q-3 11 -3 21q0 28 29 40q15 6 26 6q26 0 35 -32l119 -396h16l176 396 q14 31 40 31q10 0 22 -5q32 -13 32 -38q0 -11 -6 -23l-188 -427q-10 -23 -33 -28v-1h-94q-31 4 -40 29zM851 679q0 47 48 48q47 0 46 -48q1 -47 -46 -47t-48 47zM965 509q-6 13 -5 23q0 25 31 38q12 5 22 5q26 0 40 -31l175 -396h16l119 396q9 32 35 32q11 0 26 -6 q30 -12 30 -41q0 -9 -3 -20l-132 -427q-8 -26 -39 -29l-94 1q-23 5 -33 28zM1400 664q0 47 47 48q47 0 48 -48q-1 -47 -48 -47t-47 47z" />
<glyph unicode="X" horiz-adv-x="1355" d="M31 0h236l411 553l412 -553l234 -1l-528 712l527 710l-237 -2l-408 -549l-407 549h-235l525 -707zM178 78q-5 11 -5 21q0 14 10 26l315 425q16 21 35 22q17 0 34.5 -15t17.5 -32q1 -15 -11 -31l-280 -381q-46 -62 -78 -62q-26 0 -38 27zM585 665q0 47 48 48h70 q47 0 47 -48q0 -47 -47 -47h-70q-47 0 -48 47zM772 526q0 20 22 36q16 12 30 12q20 0 36 -23l314 -424q10 -14 10 -29q0 -9 -4 -19q-11 -26 -39 -26q-34 0 -79 61l-279 382q-12 16 -11 30z" />
<glyph unicode="Y" horiz-adv-x="1350" d="M31 1420l548 -737v-683h189v679l551 743l-237 -2l-408 -549l-407 549h-236zM625 98v425q0 47 47 47t48 -47v-425q0 -47 -48 -48q-47 0 -47 48zM625 665q0 47 47 48q47 0 48 -48q-1 -47 -48 -47t-47 47z" />
<glyph unicode="Z" horiz-adv-x="1387" d="M31 1230h946l-917 -1233h236l2 3h1058v189h-917l913 1230l-186 -2v2h-1135v-189zM203 95q0 13 12 29l315 426q16 22 37 22q14 0 29 -12q22 -16 22 -36q0 -14 -12 -30l-255 -349h910q47 0 48 -47q-1 -48 -48 -48h-993q-5 0 -13 2q-16 -3 -29 7q-22 16 -23 36zM633 663 q-1 48 46 48t48 -48q0 -47 -48 -47q-47 0 -46 47z" />
<glyph unicode="[" horiz-adv-x="536" d="M31 -379h474v189h-285v1798h285v189h-474v-2176zM79 -285v805q0 47 47 47t48 -47v-757h236q47 0 47 -48q0 -47 -47 -46h-284q-47 0 -47 46zM79 661q0 48 47 48t48 -48q0 -47 -48 -46q-47 0 -47 46z" />
<glyph unicode="\" horiz-adv-x="1067" d="M31 1419h217l789 -1420l-216 -1zM472 727q-6 -47 41 -53q47 -5 53 41q6 47 -41 53q-47 5 -53 -41zM570 543l262 -465q13 -23 34 -20q12 -3 27 6q42 23 19 64l-259 461q-23 41 -64 19q-42 -24 -19 -65z" />
<glyph unicode="]" horiz-adv-x="536" d="M31 -190h284v1798h-284v189h474v-2176h-474v189zM79 -285q0 -47 47 -46h284q47 0 47 46v805q0 47 -47 47t-47 -47v-757h-237q-47 0 -47 -48zM363 661q0 -47 47 -46q47 0 47 46q0 48 -47 48t-47 -48z" />
<glyph unicode="^" horiz-adv-x="949" d="M31 943h235l211 315l210 -313h231l-324 474h-9l1 2h-218l1 -2h-11z" />
<glyph unicode="_" horiz-adv-x="1103" d="M3 -210v-189h1098v189h-1098zM50 -305q0 47 48 47h908q47 0 48 -47q-1 -48 -48 -48h-908q-47 0 -48 48z" />
<glyph unicode="`" horiz-adv-x="580" d="M31 1371l294 -474h224l-294 474h-224z" />
<glyph unicode="a" horiz-adv-x="1008" d="M31 473q0 -197 138 -335t336 -138q158 0 284 94v-94h188v520h-2q-18 182 -153 304t-317 122q-198 0 -336 -138t-138 -335zM79 473q0 24 2 47h1q0 47 47 47t47 -47q-3 -23 -2 -47q0 -139 96 -235.5t235 -96.5q138 0 234 97t96 235q0 23 -3 47q0 47 48 47q47 0 47 -47h3 v-426q0 -47 -47 -47t-48 47v111q-128 -158 -330 -158q-178 0 -302 123.5t-124 302.5zM126 662q1 47 48 47q46 0 46 -45q0 -49 -46 -49q-47 0 -48 47zM220 473q0 118 83.5 200.5t201.5 82.5t201 -82.5t83 -200.5t-83 -201t-201 -83t-201.5 82.5t-83.5 201.5zM789 662 q-1 47 46 47t48 -47q0 -47 -48 -47q-47 0 -46 47z" />
<glyph unicode="b" horiz-adv-x="1008" d="M31 425h3q18 -183 152.5 -304t318.5 -121q197 0 334.5 138t137.5 335t-137.5 335t-334.5 138q-158 0 -285 -95v568h-189v-994zM79 473q0 24 2 47h1q0 47 47 47t47 -47q-3 -23 -2 -47q0 -139 96 -235.5t235 -96.5q138 0 234 97t96 235q0 24 -3 47q0 47 48 47q47 0 47 -47 q3 -23 3 -47q0 -177 -124 -301.5t-301 -124.5t-301.5 124t-124.5 302zM126 662q1 47 48 47q46 0 46 -45q0 -49 -46 -49q-47 0 -48 47zM220 473q0 118 83.5 200.5t201.5 82.5t201 -82.5t83 -200.5t-83 -201t-201 -83t-201.5 82.5t-83.5 201.5zM789 662q-1 47 46 47t48 -47 q0 -47 -48 -47q-47 0 -46 47z" />
<glyph unicode="c" horiz-adv-x="897" d="M31 473q0 -197 138 -335t336 -138q212 0 353 158l-134 135q-85 -104 -219 -104q-118 0 -201.5 82.5t-83.5 201.5q0 118 83.5 200.5t201.5 82.5q141 0 226 -113l135 134q-142 169 -361 169q-198 0 -336 -138t-138 -335zM79 473q0 24 2 47h1q0 47 47 47t47 -47 q-3 -23 -2 -47q0 -139 96 -235.5t235 -96.5q103 0 189 60q12 8 27 8h2q45 0 45 -46q0 -30 -28 -43l1 -1q-107 -72 -236 -72q-177 0 -301.5 124t-124.5 302zM126 662q1 47 48 47q46 0 46 -45q0 -49 -46 -49q-47 0 -48 47z" />
<glyph unicode="d" horiz-adv-x="1008" d="M31 473q0 -197 138 -335t336 -138q183 0 317.5 121.5t152.5 303.5h2v994h-188v-568q-126 95 -284 95q-198 0 -336 -138t-138 -335zM79 473q0 24 2 47h1q0 47 47 47t47 -47q-3 -23 -2 -47q0 -139 96 -235.5t235 -96.5q138 0 234 97t96 235q0 24 -3 47q0 47 48 47 q47 0 47 -47q3 -23 3 -47q0 -177 -124 -301.5t-301 -124.5t-301.5 124t-124.5 302zM126 662q1 47 48 47q46 0 46 -45q0 -49 -46 -49q-47 0 -48 47zM220 473q0 118 83.5 200.5t201.5 82.5t201 -82.5t83 -200.5t-83 -201t-201 -83t-201.5 82.5t-83.5 201.5zM789 662 q-1 47 46 47t48 -47q0 -47 -48 -47q-47 0 -46 47z" />
<glyph unicode="e" horiz-adv-x="998" d="M31 473q0 -196 137.5 -334t333.5 -139v-3h428v192h-425q-90 0 -164 52t-104 137h612l119 189q-34 166 -164 272.5t-299 106.5q-198 0 -336 -138t-138 -335zM79 473q0 24 2 47h1q0 47 47 47t47 -47q-3 -23 -2 -47q0 -95 48 -169q37 -55 46 -66q13 -16 49 -40 q68 -47 188 -57h330q47 0 48 -47q0 -47 -48 -47h-330q-177 0 -301.5 124t-124.5 302zM126 662q1 47 48 47q46 0 46 -45q0 -49 -46 -49q-47 0 -48 47zM237 567q30 85 104 137t164 52t163 -51.5t104 -137.5h-535z" />
<glyph unicode="f" horiz-adv-x="674" d="M31 0h189v615h331v189h-331v236q0 80 55 135t135 55q79 0 134 -55.5t55 -134.5h190q0 158 -111 268.5t-268 110.5q-158 0 -268.5 -110.5t-110.5 -268.5v-1040zM79 94v426q0 47 47 47t48 -47v-426q0 -47 -48 -47q-47 0 -47 47zM79 662q0 47 47 47t48 -47q-1 -47 -48 -47 t-47 47z" />
<glyph unicode="g" horiz-adv-x="1008" d="M31 473q0 -197 138 -335t336 -138q158 0 284 94v-94q0 -118 -83 -201t-201 -83q-183 0 -258 165l-182 -58q55 -135 174.5 -216t265.5 -81q197 0 334.5 138.5t137.5 335.5v473q0 197 -137.5 335t-334.5 138q-198 0 -336 -138t-138 -335zM79 473q0 24 2 47h1q0 47 47 47 t47 -47q-3 -23 -2 -47q0 -139 96 -235.5t235 -96.5q138 0 234 97t96 235q0 24 -3 47q0 47 48 47h1h2q47 0 47 -47v-520q0 -177 -124 -301.5t-301 -124.5q-212 0 -339 168q-9 12 -9 27q0 47 47 48q24 0 39 -20q99 -128 262 -128q139 0 234.5 96t95.5 235v205 q-128 -158 -330 -158q-178 0 -302 123.5t-124 302.5zM126 662q1 47 48 47q46 0 46 -45q0 -49 -46 -49q-47 0 -48 47zM220 473q0 118 83.5 200.5t201.5 82.5t201 -82.5t83 -200.5t-83 -201t-201 -83t-201.5 82.5t-83.5 201.5zM789 662q-1 47 46 47t48 -47q0 -47 -48 -47 q-47 0 -46 47z" />
<glyph unicode="h" horiz-adv-x="1008" d="M31 0h189v473q0 119 83 201t202 82q118 0 201 -82.5t83 -200.5v-473h188v473q0 197 -137.5 335t-334.5 138q-158 0 -285 -95v568h-189v-1419zM79 94v426q0 47 47 47t48 -47v-426q0 -47 -48 -47q-47 0 -47 47zM79 662q0 47 47 47t48 -47q-1 -47 -48 -47t-47 47zM789 662 q0 47 47 47t47 -47t-47 -47t-47 47zM835 94v426q0 47 48 47q47 0 47 -47v-426q0 -47 -47 -47t-48 47z" />
<glyph unicode="i" horiz-adv-x="251" d="M31 7h189v946h-189v-946zM31 1096h189v188h-189v-188zM79 102v425q0 47 47 48q47 0 48 -48v-425q0 -47 -48 -47q-47 0 -47 47zM79 670q0 47 47 47t48 -47q-1 -48 -48 -48t-47 48z" />
<glyph unicode="j" horiz-adv-x="349" d="M-628 -169q54 -135 173.5 -216t264.5 -81q198 0 336 138t138 335v946h-190v-946q0 -118 -83 -201t-201 -83q-181 0 -258 165zM-537 -224q0 47 47 48q23 0 38 -19q100 -129 262 -129q138 0 234.5 96.5t96.5 234.5v520q0 47 48 48q47 0 47 -48v-520q0 -177 -124.5 -301.5 t-301.5 -124.5q-213 0 -339 168q-8 11 -8 27zM99 1096h189v188h-189v-188zM141 670q1 47 48 47t47 -47t-47 -48q-47 0 -48 48z" />
<glyph unicode="k" horiz-adv-x="1012" d="M31 7h189v276l195 175l327 -451h239l-424 578l412 369l-285 -1l-464 -415v888h-189v-1419zM73 102v425q0 47 48 48q47 0 47 -48v-101l151 133q17 15 32 15q17 0 33 -17.5t16 -34.5q0 -18 -19 -34l-213 -189v-197q0 -47 -47 -47t-48 47zM73 670q1 47 48 47t47 -47t-47 -48 q-47 0 -48 48zM445 499q-12 16 -12 31q0 20 22 36q15 12 28 12h2q20 0 36 -22l317 -426q12 -16 11 -31q0 -17 -17 -32.5t-35 -15.5q-19 0 -35 22z" />
<glyph unicode="l" horiz-adv-x="251" d="M31 7h189v1419h-189v-1419zM73 102v425q0 47 48 48q47 0 47 -48v-425q0 -47 -47 -47t-48 47zM73 670q0 47 48 47q47 0 47 -47q0 -48 -47 -48t-48 48z" />
<glyph unicode="m" horiz-adv-x="1620" d="M31 7h173v473q0 115 72 198q74 86 185 86h3q113 0 188 -86q72 -83 71 -198v-473h174v473q0 115 72 198q74 86 184 86h3q113 0 188 -86q72 -83 72 -198v-473h173v473q0 190 -120 328q-126 145 -313 145q-217 0 -346 -189q-130 189 -346 189q-187 0 -313 -145 q-120 -139 -120 -328v-473zM73 102v425q0 47 48 48q47 0 47 -48v-425q0 -47 -47 -47t-48 47zM121 670q0 47 47 47t48 -47q-1 -48 -48 -48t-47 48zM760 102v425q0 47 47 48q47 0 48 -48v-425q0 -47 -48 -47q-47 0 -47 47zM760 670q0 47 47 47t48 -47q-1 -48 -48 -48t-47 48z M1414 670q0 47 48 47q46 0 46 -45q0 -49 -46 -50q-48 1 -48 48zM1456 102v425q0 47 48 48q47 0 47 -48v-425q0 -47 -47 -47t-48 47z" />
<glyph unicode="n" horiz-adv-x="1008" d="M31 7h189v473q0 119 83 201.5t202 82.5q118 0 201 -83t83 -201v-473h188v473q0 197 -137.5 335t-334.5 138q-198 0 -336 -138t-138 -335v-473zM73 102v425q0 47 48 48q47 0 47 -48v-425q0 -47 -47 -47t-48 47zM121 670q0 47 47 47t47 -47q0 -48 -47 -48t-47 48zM783 670 q0 47 48 47q46 0 46 -45q0 -49 -46 -50q-48 1 -48 48zM831 102v425q0 47 46 48q47 0 48 -48v-425q0 -47 -48 -47q-47 0 -46 47z" />
<glyph unicode="o" horiz-adv-x="1008" d="M31 480q0 -197 138.5 -335t335.5 -138t334.5 138t137.5 335t-137.5 335t-334.5 138q-198 0 -336 -137.5t-138 -335.5zM73 480q0 24 3 47h1q0 47 47 48q47 0 47 -48q-3 -23 -3 -47q0 -139 96.5 -235t234.5 -96t235 96.5t97 234.5q0 24 -4 47v1q0 47 48 47q47 0 47 -47v-1 q3 -23 3 -47q0 -177 -124 -301t-302 -124q-177 0 -301.5 124t-124.5 301zM121 670q0 47 47 47t48 -47q0 -47 -48 -48q-47 0 -47 48zM220 480q0 119 83 201.5t202 82.5q118 0 201 -83t83 -201t-83 -201t-201 -83t-201.5 83t-83.5 201zM783 670q0 47 48 47q46 0 46 -47 t-46 -48q-47 0 -48 48z" />
<glyph unicode="p" horiz-adv-x="1008" d="M31 -466h189v568q126 -95 285 -95q197 0 334.5 138t137.5 335t-137.5 335t-334.5 138q-183 0 -318 -121.5t-153 -304.5h-3v-993zM73 -371v898h4q0 47 47 48q47 0 47 -48q-3 -23 -3 -47q0 -139 96.5 -235t234.5 -96t235 96.5t97 234.5q0 24 -4 47q0 47 48 48q47 0 47 -48 q3 -23 3 -47q0 -177 -124.5 -301t-301.5 -124q-203 0 -331 157v-583q0 -47 -47 -48q-47 0 -48 48zM121 670q0 47 47 47t47 -47t-47 -48q-47 0 -47 48zM220 480q0 119 83 201.5t202 82.5q118 0 201 -83t83 -201t-83 -201t-201 -83t-201.5 83t-83.5 201zM783 670q1 47 48 47 q46 0 46 -45q0 -49 -46 -50q-47 0 -48 48z" />
<glyph unicode="q" horiz-adv-x="1032" d="M31 480q0 -197 138.5 -335t335.5 -138q158 0 284 95v-568h188v993h-2q-18 183 -152.5 304.5t-317.5 121.5q-198 0 -336 -137.5t-138 -335.5zM73 480q0 24 3 47h1q0 47 47 48q47 0 47 -48q-3 -23 -3 -47q0 -139 96.5 -235t234.5 -96t235 96.5t97 234.5v1q0 23 -4 46 q0 47 48 48q47 0 47 -48h3v-898q0 -47 -48 -48q-47 0 -46 48v583q-128 -157 -329 -157h-3q-177 0 -301.5 124t-124.5 301zM121 670q0 47 47 47t47 -47t-47 -48q-47 0 -47 48zM220 480q0 119 83 201.5t202 82.5q118 0 201 -83t83 -201t-83 -201t-201 -83t-201.5 83t-83.5 201 zM783 670q1 47 48 47q46 0 46 -45q0 -49 -46 -50q-47 0 -48 48z" />
<glyph unicode="r" horiz-adv-x="900" d="M31 7h189v473q0 119 83 201.5t202 82.5q115 0 197 -80l167 97q-142 172 -364 172q-198 0 -336 -138t-138 -335v-473zM73 102v425q0 47 48 48q47 0 47 -48v-425q0 -47 -47 -47t-48 47zM121 670q0 47 47 47t47 -47q0 -48 -47 -48t-47 48z" />
<glyph unicode="s" horiz-adv-x="913" d="M31 284q0 -137 152 -218q124 -66 274 -66q149 0 274 66q151 81 152 218q0 137 -152 217q-125 66 -274 66q-189 0 -189 94q0 95 189 95q68 0 137 -18q99 -27 100 -76h189q0 137 -152 218q-125 66 -274 66t-274 -66q-152 -81 -152 -218t152 -218q124 -66 274 -66 q189 0 189 -94q0 -95 -189 -95q-70 0 -137 18q-99 27 -100 77h-189zM104 648q0 47 47 47t48 -47q-1 -47 -48 -47t-47 47zM132 188q0 47 47 47q22 0 37 -17q8 -8 18 -17q85 -59 230 -60q87 0 151 29q85 38 85 114q0 72 -70 111q-57 32 -134 32q-10 0 -30 -1.5t-30 -1.5 q-89 0 -184 44q-4 2 -9 5q-30 12 -30 43q0 47 47 48q15 0 29 -10q6 -4 15 -8q70 -26 159 -26h1q18 2 36 2q149 0 250 -86q78 -66 78 -152q0 -117 -131 -184q-104 -53 -233 -53q-179 0 -293 86q-9 5 -29 25q-10 14 -10 30z" />
<glyph unicode="t" horiz-adv-x="536" d="M31 0h189v804h285v189h-285v426h-189v-1419zM79 94v426q0 47 47 47t48 -47v-426q0 -47 -48 -47q-47 0 -47 47zM79 662q0 47 47 47t48 -47q-1 -47 -48 -47t-47 47z" />
<glyph unicode="u" horiz-adv-x="1008" d="M31 473q0 -197 138 -335t336 -138q197 0 334.5 138t137.5 335v473h-188v-473q0 -118 -83 -201t-201 -83t-201.5 82.5t-83.5 201.5v473h-189v-473zM85 473q0 24 3 47q0 47 47 47t48 -47q-4 -23 -4 -47q0 -138 96.5 -235t234.5 -97q139 0 235 96.5t96 235.5q0 24 -2 47 q0 47 47 47t48 -47q2 -17 2 -35v-12q0 -177 -124.5 -301.5t-301.5 -124.5t-301 124t-124 302zM85 662q0 47 47 47t47 -47t-47 -47t-47 47zM841 662q0 47 48 47q47 0 47 -47t-47 -47t-48 47z" />
<glyph unicode="v" horiz-adv-x="1159" d="M31 943l417 -944h263l417 944l-206 2l-343 -761l-343 761zM226 643q-5 12 -5 23q0 26 31 38q13 5 24 5q26 0 38 -31q5 -13 5 -23q0 -26 -31 -39q-13 -5 -23 -5q-26 0 -39 32zM276 507q-6 13 -6 23q0 26 33 38q11 4 21 4q25 0 39 -30l177 -397h72l176 397q14 31 39 31 q10 0 22 -5q32 -13 33 -38q-1 -10 -6 -23l-189 -427q-10 -22 -32 -28v-1h-7q-2 -1 -4 -1l-4 1h-137q-28 3 -39 29zM858 683q12 31 38 31q11 0 24 -5q31 -12 31 -38q0 -10 -5 -23q-13 -32 -39 -32q-10 0 -22 5q-32 13 -32 39q0 10 5 23z" />
<glyph unicode="w" horiz-adv-x="1620" d="M31 473q0 -190 120 -328q125 -145 313 -145q217 0 346 189q130 -189 346 -189q187 0 313 145q120 138 120 328v473h-173v-473q0 -114 -72 -197q-75 -87 -188 -87q-112 0 -187 87q-73 83 -72 197v473h-174v-473q0 -115 -71 -197q-75 -87 -188 -87q-112 0 -187 87 q-73 83 -73 197v473h-173v-473zM68 664q0 48 47 48t48 -48q0 -47 -48 -47q-47 0 -47 47zM71 473v47q0 47 44 47q43 0 44 -46h1v-60q0 -131 90.5 -225.5t221.5 -94.5q118 0 200 83q78 79 94 198v98q0 47 45 47t45 -47v-98q16 -120 94 -198q82 -82 200 -83q131 0 221.5 94.5 t90.5 225.5v60h1q1 46 41 46h2q45 0 45 -47v-47q0 -174 -113 -298q-116 -128 -288 -128q-231 0 -339 218q-108 -218 -339 -218q-172 0 -289 128q-113 124 -112 298zM764 667q0 47 47 47t47 -47t-47 -47t-47 47zM1456 662q0 47 48 47q47 0 47 -47t-47 -47t-48 47z" />
<glyph unicode="x" horiz-adv-x="1053" d="M31 0h242l253 320l255 -320h241l-375 473l375 473h-241l-254 -321l-254 321h-242l375 -473zM169 87q0 15 14 31l288 358l-12 15q-13 16 -13 31q0 19 20 35q16 13 31 13q18 0 35 -19q16 18 34 18q14 0 30 -12q21 -17 22 -36q0 -14 -14 -30l-11 -15l288 -358q13 -16 12 -30 q1 -19 -20 -36q-12 -9 -24 -9q-34 0 -80 57l-237 299l-238 -299q-46 -57 -80 -57q-13 0 -24 9q-21 16 -21 35zM332 661q0 46 46 46h2q47 0 47 -46q0 -48 -47 -48t-48 48zM628 662q0 47 47 47t47 -47t-47 -47t-47 47z" />
<glyph unicode="y" horiz-adv-x="1008" d="M31 473q0 -197 138 -335t336 -138q158 0 284 94v-94q0 -118 -83 -201t-201 -83q-183 0 -258 165l-182 -58q55 -135 174.5 -216t265.5 -81q197 0 334.5 138.5t137.5 335.5v946h-188v-473q0 -118 -83 -201t-201 -83t-201.5 82.5t-83.5 201.5v473h-189v-473zM85 473 q0 24 3 47q0 47 47 47t48 -47q-4 -23 -4 -47q0 -138 96.5 -235t234.5 -97q139 0 235 96.5t96 235.5q0 23 -2 47q0 47 47 47h2h1q47 0 47 -47v-520q0 -177 -124.5 -301.5t-301.5 -124.5q-211 0 -338 168q-9 12 -9 27q0 47 47 48q23 0 38 -20h1q99 -128 261 -128q139 0 235 96 t96 235v205q-128 -158 -331 -158q-177 0 -301 124t-124 302zM85 662q0 47 47 47t47 -47t-47 -47t-47 47zM841 662q1 47 48 47t47 -47t-47 -47t-48 47z" />
<glyph unicode="z" horiz-adv-x="1056" d="M31 0h994v189h-603l600 757h-991v-190h600zM175 93q0 14 13 31l331 425q17 21 36 21q14 0 30 -11q22 -16 23 -36q0 -14 -13 -31l-271 -348h612q47 0 48 -47q-1 -48 -48 -48h-695q-6 0 -14 2q-16 -4 -29 6q-22 16 -23 36zM622 662q0 47 47 47t47 -47t-47 -47t-47 47z" />
<glyph unicode="{" horiz-adv-x="681" d="M31 614l2 -1v-3l192 -131v-574q0 -118 82.5 -201t200.5 -83h142v189h-142q-39 0 -66.5 28t-27.5 67v677l-186 124l186 124v684q0 39 27.5 66.5t66.5 27.5h142v189h-142q-118 0 -200.5 -82.5t-82.5 -200.5v-585l-192 -131zM102 657q0 47 47 47t48 -47q-1 -47 -48 -47 t-47 47zM268 -119v615q0 77 47 76t48 -47v-644q0 -118 142 -118h46q47 0 48 -48q0 -47 -48 -46h-46q-100 0 -167 54q-71 59 -70 158zM363 499z" />
<glyph unicode="|" horiz-adv-x="346" d="M79 -378h189v2171h-189v-2171zM121 -283v810q0 47 47 48q47 0 47 -48v-810q0 -47 -47 -47t-47 47zM121 670q0 47 47 47t47 -47q0 -48 -47 -48t-47 48z" />
<glyph unicode="}" horiz-adv-x="681" d="M31 -190h143q39 0 66.5 28t27.5 67v677l185 124l-185 124v684q0 38 -28 66t-66 28h-143v189h143q118 0 200.5 -82.5t82.5 -200.5v-585l192 -131l1 -184l-2 -1l1 -3l-192 -131v-574q0 -118 -82.5 -201t-200.5 -83h-143v189zM82 -285q0 -47 48 -46h47q100 0 167 54 q70 59 70 158v615q0 77 -48 76q-47 -1 -46 -47v-644q0 -118 -143 -118h-47q-47 0 -48 -48zM320 499zM484 657q1 -47 48 -47t47 47t-47 47t-48 -47z" />
<glyph unicode="~" horiz-adv-x="1008" d="M31 1088q0 -129 76 -227q82 -105 208 -105q125 0 208 105q76 98 76 227q0 50 22 91q27 51 73 51t72 -51q22 -41 23 -91v-237h188v237q0 129 -76 226q-82 105 -207 105t-208 -105q-76 -98 -76 -226q0 -50 -22 -92q-27 -50 -73 -50t-72 50q-22 41 -23 92v236h-189v-236z " />
<glyph unicode="&#xa0;" />
<glyph unicode="&#xa1;" />
<glyph unicode="&#xa2;" horiz-adv-x="897" d="M31 473q0 -155 92 -280t240 -172v-163h188v144q183 19 307 157l-134 134q-68 -83 -173 -101v561q112 -19 180 -110l135 134q-124 148 -315 166v145h-188v-164q-149 -47 -240.5 -171.5t-91.5 -279.5zM79 473q0 24 2 47h1q0 47 47 47t47 -47q-3 -23 -2 -47q0 -110 65 -198 t171 -119v364q0 47 47 47t48 -47v-379q104 0 189 60q12 8 27 8q47 1 47 -46q0 -30 -28 -43l1 -1q-107 -72 -236 -72v-94q0 -47 -48 -48q-47 0 -47 48v105q-146 32 -238.5 148.5t-92.5 266.5zM126 662q1 47 48 47t46 -47q0 -47 -46 -47q-47 0 -48 47zM220 473q1 164 143 245 v-491q-142 82 -143 246zM410 662q0 47 47 47t48 -47q0 -47 -48 -47q-47 0 -47 47z" />
<glyph unicode="&#xa3;" horiz-adv-x="913" d="M31 0h852v189h-663v378h474v189h-474v284h-189v-1040zM31 1040h189q0 78 82 136q74 54 155 54t156 -53q81 -58 81 -137h189q0 157 -136 270q-130 108 -290 109q-160 0 -290 -108q-136 -114 -136 -271zM79 94v426q0 47 47 47t48 -47v-379h615q47 0 47 -47t-47 -47h-663 q-47 0 -47 47zM79 662q0 47 47 47t48 -47q0 -47 -48 -47q-47 0 -47 47z" />
<glyph unicode="&#xa4;" horiz-adv-x="998" d="M31 616l135 -134l141 143q89 -53 192 -53q104 0 193 53l142 -143l134 134l-143 142q53 89 53 193t-53 192l143 142l-134 134l-142 -143q-89 53 -193 53t-192 -53l-141 143l-135 -134l143 -142q-53 -90 -53 -192q-1 -104 53 -193zM311 951q0 79 55 133.5t133 54.5 q80 0 135 -54.5t55 -133.5q0 -80 -55 -134.5t-135 -54.5q-78 0 -133 55t-55 134z" />
<glyph unicode="&#xa5;" />
<glyph unicode="&#xa6;" />
<glyph unicode="&#xa7;" horiz-adv-x="913" d="M31 284q0 -137 152 -218q124 -66 274 -66q149 0 274 66q151 81 152 218q0 108 -109 189q108 81 109 189q0 137 -152 218q-125 66 -274 66q-190 0 -189 94q0 95 189 95q69 0 138 -18q98 -27 99 -77h189q0 137 -152 218q-124 66 -274 66q-149 0 -274 -66 q-152 -81 -152 -218q0 -108 109 -189q-108 -81 -109 -189q0 -137 152 -218q124 -66 274 -66q189 0 189 -94q0 -95 -189 -95q-70 0 -137 18q-99 27 -100 77h-189zM101 648q0 47 48 47q47 0 46 -47q1 -47 -46 -47t-48 47zM129 188q0 47 47 47q22 0 37 -17q8 -8 18 -17 q85 -59 229 -60q88 0 151 28q86 38 86 115t-86 113q-64 28 -151 28q-118 0 -211 43q-4 2 -8 5q-30 12 -31 43q0 47 48 48q15 0 28 -10q6 -4 15 -8q70 -26 159 -26h20q90 0 159 26q5 3 15 8q13 10 29 10q47 0 47 -48q0 -32 -31 -43q-5 -4 -7 -5q132 -69 132 -184 q0 -117 -130 -184q-105 -53 -234 -53q-178 0 -292 86q-9 5 -28 25q-11 14 -11 30zM268 662q0 94 189 94t189 -94q0 -95 -188 -95h-1q-190 0 -189 95zM730 648q0 47 48 47q47 0 46 -47q1 -47 -46 -47t-48 47z" />
<glyph unicode="&#xa8;" />
<glyph unicode="&#xa9;" horiz-adv-x="1671" d="M31 699q0 -336 234 -570.5t570 -234.5q337 0 571 234.5t234 570.5q0 194 -87 364.5t-244 285.5q-5 4 -25 17q-52 36 -94 55l-9 4q-11 6 -33 15q-35 12 -104 35l-11 4q-8 2 -36 8q-76 16 -162 16q-261 0 -472 -154q-157 -115 -244.5 -285.5t-87.5 -364.5zM79 652 q0 47 47 47t48 -47q0 -47 -48 -48q-47 1 -47 48zM107 509q0 47 48 47q34 0 45 -32v1q5 -16 6 -21q64 -209 238.5 -338t394.5 -129q218 0 393 128.5t240 336.5q2 4 5 16q7 38 46 38q47 0 47 -48q0 -10 -11 -43q-76 -235 -274 -379t-446 -144q-252 0 -453.5 150.5 t-272.5 391.5q-1 5 -2 8q-4 8 -4 17zM220 699q0 252 181.5 433.5t433.5 181.5h1q281 0 465 -214q149 -174 150 -401q0 -257 -179.5 -436t-436.5 -179q-256 0 -435.5 179.5t-179.5 435.5zM338 692q0 -218 150 -372q150 -155 368 -155q173 0 310 105l-98 101q-96 -66 -212 -66 q-159 0 -269.5 114t-110.5 273t110 273t270 114q116 0 212 -66l98 101q-138 106 -310 105q-218 0 -368 -154.5t-150 -372.5zM1498 652q0 47 47 47t47 -47q0 -48 -47 -48t-47 48z" />
<glyph unicode="&#xaa;" />
<glyph unicode="&#xab;" />
<glyph unicode="&#xac;" />
<glyph unicode="&#xad;" horiz-adv-x="819" d="M31 615h758v189h-758v-189z" />
<glyph unicode="&#xae;" horiz-adv-x="1671" d="M31 699q0 -336 234 -570.5t570 -234.5q337 0 571 234t234 571q0 194 -87.5 364.5t-243.5 285.5q-5 4 -25 17q-52 36 -94 55l-9 4q-8 4 -33 15q-35 12 -104 35l-11 4q-8 2 -36 8q-76 16 -162 16q-208 0 -411 -113l-8 -4q-13 -7 -53 -37q-157 -115 -244.5 -285.5 t-87.5 -364.5zM79 652q0 47 47 47t48 -47q0 -47 -48 -48q-47 1 -47 48zM107 509q0 47 48 47q34 0 45 -32v1l6 -21q64 -209 238.5 -338t394.5 -129q218 0 393 128.5t240 336.5q2 4 5 16q7 38 46 38q47 0 47 -48q0 -10 -11 -43q-76 -235 -274 -379t-446 -144 q-252 0 -453.5 150.5t-272.5 391.5q-1 5 -2 8q-4 8 -4 17zM220 699q0 155 76.5 294.5t208.5 222.5v-1035q-133 85 -209 222.5t-76 295.5zM508 178h135v422h209l220 -422h91q-149 -94 -328 -94q-177 0 -327 94zM531 1233q0 -1 2 0q139 81 302 81h1q281 0 465 -214 q149 -174 150 -401q0 -301 -238 -486l-214 406q101 32 165.5 113t64.5 185q0 136 -106 228q-101 88 -239 88h-353zM643 740v352h241q80 0 141 -47q66 -51 66 -128q0 -78 -65 -129q-61 -48 -142 -48h-241zM1498 652q0 47 47 47t47 -47q0 -48 -47 -48t-47 48z" />
<glyph unicode="&#xaf;" />
<glyph unicode="&#xb0;" />
<glyph unicode="&#xb1;" />
<glyph unicode="&#xb2;" />
<glyph unicode="&#xb3;" />
<glyph unicode="&#xb4;" />
<glyph unicode="&#xb5;" horiz-adv-x="1008" d="M31 -474h189v568q126 -94 285 -94q197 0 334.5 138t137.5 335v473h-188v-473q0 -118 -83 -201t-201 -83t-201.5 82.5t-83.5 201.5v473h-189v-1420zM79 -379v899h3q0 47 47 47t47 -47q-3 -23 -2 -47q0 -139 96 -235.5t235 -96.5q138 0 234 97t96 235q0 24 -3 47 q0 47 48 47q47 0 47 -47q3 -23 3 -47q0 -177 -124 -301.5t-301 -124.5q-203 0 -331 158v-584q0 -47 -48 -47q-47 0 -47 47zM79 662q0 47 47 47t48 -47q0 -47 -48 -47q-47 0 -47 47zM835 662q0 47 48 47q47 0 47 -47t-47 -47t-48 47z" />
<glyph unicode="&#xb6;" horiz-adv-x="961" d="M31 1040q0 -158 110.5 -268t268.5 -110v-662h189v1230h142v-1230h189v1419h-520q-158 0 -268.5 -110.5t-110.5 -268.5zM457 94v426q0 47 48 47q47 0 46 -47v-426q0 -47 -46 -47q-47 0 -48 47zM457 662q0 47 48 47q47 0 46 -47q1 -47 -46 -47t-48 47zM789 94v426 q0 47 46 47q47 0 48 -47v-426q0 -47 -48 -47q-47 0 -46 47zM789 662q0 47 46 47q47 0 48 -47q-1 -47 -48 -47t-46 47z" />
<glyph unicode="&#xb7;" />
<glyph unicode="&#xb8;" />
<glyph unicode="&#xb9;" />
<glyph unicode="&#xba;" horiz-adv-x="536" d="M31 1182q0 -98 69 -167t168 -69t168 68.5t69 167.5q0 98 -69.5 167.5t-167.5 69.5t-167.5 -69t-69.5 -168zM174 1182q0 39 27 67t67 28q39 0 67 -27.5t28 -67.5q0 -39 -28 -66.5t-67 -27.5t-66.5 27.5t-27.5 66.5z" />
<glyph unicode="&#xbb;" />
<glyph unicode="&#xbc;" />
<glyph unicode="&#xbd;" />
<glyph unicode="&#xbe;" />
<glyph unicode="&#xbf;" />
<glyph unicode="&#xc0;" />
<glyph unicode="&#xc1;" />
<glyph unicode="&#xc2;" />
<glyph unicode="&#xc3;" />
<glyph unicode="&#xc4;" />
<glyph unicode="&#xc5;" />
<glyph unicode="&#xc6;" />
<glyph unicode="&#xc7;" />
<glyph unicode="&#xc8;" />
<glyph unicode="&#xc9;" />
<glyph unicode="&#xca;" />
<glyph unicode="&#xcb;" />
<glyph unicode="&#xcc;" />
<glyph unicode="&#xcd;" />
<glyph unicode="&#xce;" />
<glyph unicode="&#xcf;" />
<glyph unicode="&#xd0;" />
<glyph unicode="&#xd1;" />
<glyph unicode="&#xd2;" />
<glyph unicode="&#xd3;" />
<glyph unicode="&#xd4;" />
<glyph unicode="&#xd5;" />
<glyph unicode="&#xd6;" />
<glyph unicode="&#xd7;" horiz-adv-x="732" d="M31 508l135 -133l200 201l201 -201l133 133l-201 201l201 201l-133 134l-201 -201l-200 201l-135 -134l201 -201z" />
<glyph unicode="&#xd8;" />
<glyph unicode="&#xd9;" />
<glyph unicode="&#xda;" />
<glyph unicode="&#xdb;" />
<glyph unicode="&#xdc;" />
<glyph unicode="&#xdd;" />
<glyph unicode="&#xde;" horiz-adv-x="1056" d="M31 0h189v236h331q198 0 336 138t138 335q0 198 -138 335.5t-336 137.5h-331v237h-189v-1419zM79 94v426q0 47 47 47t48 -47v-142h377q170 0 269 137q10 14 19 28q14 24 40 24q47 0 47 -47q0 -13 -8 -27q-1 -2 -7 -12q-124 -197 -360 -197h-377v-190q0 -47 -48 -47 q-47 0 -47 47zM79 662q0 47 47 47t48 -47q0 -47 -48 -47q-47 0 -47 47zM220 425v568h331q119 0 202 -82.5t83 -201.5q0 -118 -83 -201t-202 -83h-331zM883 662q0 47 47 47t47 -47t-47 -47t-47 47z" />
<glyph unicode="&#xdf;" />
<glyph unicode="&#xe0;" />
<glyph unicode="&#xe1;" />
<glyph unicode="&#xe2;" />
<glyph unicode="&#xe3;" />
<glyph unicode="&#xe4;" />
<glyph unicode="&#xe5;" />
<glyph unicode="&#xe6;" />
<glyph unicode="&#xe7;" />
<glyph unicode="&#xe8;" />
<glyph unicode="&#xe9;" />
<glyph unicode="&#xea;" />
<glyph unicode="&#xeb;" />
<glyph unicode="&#xec;" />
<glyph unicode="&#xed;" />
<glyph unicode="&#xee;" />
<glyph unicode="&#xef;" />
<glyph unicode="&#xf0;" />
<glyph unicode="&#xf1;" />
<glyph unicode="&#xf2;" />
<glyph unicode="&#xf3;" />
<glyph unicode="&#xf4;" />
<glyph unicode="&#xf5;" />
<glyph unicode="&#xf6;" />
<glyph unicode="&#xf7;" />
<glyph unicode="&#xf8;" />
<glyph unicode="&#xf9;" />
<glyph unicode="&#xfa;" />
<glyph unicode="&#xfb;" />
<glyph unicode="&#xfc;" />
<glyph unicode="&#xfd;" />
<glyph unicode="&#xfe;" horiz-adv-x="1008" d="M31 -220h189v331q126 -95 285 -95q197 0 334.5 138.5t137.5 335.5t-137.5 334.5t-334.5 137.5q-158 0 -285 -95v332h-189v-1419zM79 -125v425q0 47 47 47h55q26 0 40 -23q10 -16 19 -29q99 -137 268 -137q168 0 268 137q10 13 19 29q13 23 40 23q47 0 48 -47 q0 -14 -8 -27q0 -1 -8 -12q-126 -198 -359 -197q-207 0 -334 162v-351q0 -47 -48 -48q-47 0 -47 48zM79 442q0 48 47 48t48 -48q0 -47 -48 -47q-47 0 -47 47zM220 490q0 118 83.5 200.5t201.5 82.5t201 -82.5t83 -200.5t-83 -201t-201 -83q-119 0 -202 82.5t-83 201.5z M835 442q0 47 48 48q47 0 47 -48q0 -47 -47 -47t-48 47z" />
<glyph unicode="&#xff;" />
<glyph unicode="&#x152;" />
<glyph unicode="&#x153;" />
<glyph unicode="&#x178;" />
<glyph unicode="&#x2c6;" />
<glyph unicode="&#x2dc;" />
<glyph unicode="&#x2000;" horiz-adv-x="898" />
<glyph unicode="&#x2001;" horiz-adv-x="1797" />
<glyph unicode="&#x2002;" horiz-adv-x="898" />
<glyph unicode="&#x2003;" horiz-adv-x="1797" />
<glyph unicode="&#x2004;" horiz-adv-x="599" />
<glyph unicode="&#x2005;" horiz-adv-x="449" />
<glyph unicode="&#x2006;" horiz-adv-x="299" />
<glyph unicode="&#x2007;" horiz-adv-x="299" />
<glyph unicode="&#x2008;" horiz-adv-x="224" />
<glyph unicode="&#x2009;" horiz-adv-x="359" />
<glyph unicode="&#x200a;" horiz-adv-x="99" />
<glyph unicode="&#x2010;" horiz-adv-x="819" d="M31 615h758v189h-758v-189z" />
<glyph unicode="&#x2011;" horiz-adv-x="819" d="M31 615h758v189h-758v-189z" />
<glyph unicode="&#x2012;" horiz-adv-x="819" d="M31 615h758v189h-758v-189z" />
<glyph unicode="&#x2013;" />
<glyph unicode="&#x2014;" />
<glyph unicode="&#x2018;" horiz-adv-x="251" d="M31 899h189v189h-94v94l94 95v142l-189 -189v-331z" />
<glyph unicode="&#x2019;" horiz-adv-x="251" d="M31 899l189 189v331h-189v-189h95v-95l-95 -95v-141z" />
<glyph unicode="&#x201a;" horiz-adv-x="251" d="M31 0h95v-95l-95 -95v-141l189 189v331h-189v-189zM79 94q0 47 47 47t48 -47q-1 -47 -48 -47t-47 47z" />
<glyph unicode="&#x201c;" horiz-adv-x="581" d="M31 899h189v189h-94v94l94 95v142l-189 -189v-331zM362 899h188v189h-94v94l94 95v142l-188 -189v-331z" />
<glyph unicode="&#x201d;" horiz-adv-x="581" d="M31 899l189 189v331h-189v-189h95v-95l-95 -95v-141zM362 899l188 189v331h-188v-189h94v-95l-94 -95v-141z" />
<glyph unicode="&#x201e;" horiz-adv-x="530" d="M31 0h95v-95l-95 -95v-141l189 189v331h-189v-189zM79 94q0 47 47 47t48 -47q-1 -47 -48 -47t-47 47zM300 0h95v-95l-95 -95v-141l189 189v331h-189v-189zM347 94q0 47 48 47q47 0 47 -47t-47 -47t-48 47z" />
<glyph unicode="&#x2022;" />
<glyph unicode="&#x2026;" horiz-adv-x="1146" d="M31 0h189v189h-189v-189zM79 94q0 47 47 47t48 -47q0 -47 -48 -47q-47 0 -47 47zM488 0h189v189h-189v-189zM535 94q1 47 48 47t47 -47t-47 -47t-48 47zM935 0h189v189h-189v-189zM983 94q0 47 47 47t48 -47q0 -47 -48 -47q-47 0 -47 47z" />
<glyph unicode="&#x202f;" horiz-adv-x="359" />
<glyph unicode="&#x2039;" />
<glyph unicode="&#x203a;" />
<glyph unicode="&#x205f;" horiz-adv-x="449" />
<glyph unicode="&#x2122;" />
<glyph unicode="&#x25fc;" horiz-adv-x="944" d="M0 0v944h944v-944h-944z" />
</font>
</defs>
</svg>
