<?xml version="1.0" standalone="no"?>
<!DOCTYPE svg PUBLIC "-//W3C//DTD SVG 1.1//EN" "http://www.w3.org/Graphics/SVG/1.1/DTD/svg11.dtd" >
<svg xmlns="http://www.w3.org/2000/svg">
<metadata></metadata>
<defs>
<font id="duo-lineregular" horiz-adv-x="983" >
<font-face units-per-em="2048" ascent="1638" descent="-410" />
<missing-glyph horiz-adv-x="593" />
<glyph horiz-adv-x="2048" />
<glyph horiz-adv-x="2048" />
<glyph unicode="&#xd;" horiz-adv-x="593" />
<glyph unicode=" "  horiz-adv-x="593" />
<glyph unicode="&#x09;" horiz-adv-x="593" />
<glyph unicode="&#xa0;" horiz-adv-x="593" />
<glyph unicode="!" horiz-adv-x="432" d="M57 156q35 55 99 55q41 0 41 -29q0 -12 -11 -24q-4 -4 -4 -13q0 -14 39 -14q16 0 30.5 4t14.5 10l-4 7q4 29 25.5 46t46.5 17q18 0 31 -8q26 -18 26 -55q0 -59 -54 -107.5t-116 -48.5q-61 0 -108 41t-56 119zM57 330v1001q0 31 19.5 48.5t46.5 17.5t43 -15.5t16 -50.5 v-1001q0 -33 -16 -51.5t-43 -18.5q-29 0 -47.5 17.5t-18.5 52.5zM262 330v1001q0 31 19.5 50.5t44.5 19.5q27 0 46 -19.5t19 -50.5v-1001q0 -63 -65 -64q-27 0 -45.5 15.5t-18.5 48.5z" />
<glyph unicode="&#x22;" horiz-adv-x="786" d="M45 1227q0 72 49 121t119 49t119 -49t49 -121q0 -82 -64.5 -178.5t-97.5 -96.5q-31 0 -98 88q-76 100 -76 187zM174 1227q0 -39 39 -39t39 39q0 37 -39 37t-39 -37zM418 1227q0 72 49 121t119 49q72 0 121 -49t49 -121q0 -80 -65.5 -177.5t-98.5 -97.5q-20 0 -68 52 q-106 115 -106 223zM549 1227q0 -39 37 -39q39 0 39 39q0 37 -39 37q-37 0 -37 -37z" />
<glyph unicode="#" d="M80 563q0 29 18.5 42t36.5 13h156l31 146h-187q-25 0 -40 17.5t-15 41.5q0 29 18.5 42.5t36.5 13.5h211l62 292q6 27 25.5 42.5t41.5 15.5q25 0 39 -14.5t8 -43.5l-61 -292h145l62 292q6 27 25.5 42.5t41.5 15.5q23 0 38 -15.5t9 -42.5l-61 -292h131q27 0 42 -15.5 t15 -40.5q0 -23 -6 -32q-14 -27 -57 -27h-150l-30 -146h186q27 0 42 -15t15 -40t-15 -42t-48 -17h-205l-63 -295q-6 -27 -27 -41t-45 -14q-53 0 -41 61l61 289h-145l-64 -295q-6 -27 -26.5 -41t-44.5 -14q-18 0 -30.5 10t-12.5 33q0 12 2 18l61 289h-131q-25 0 -40 17.5 t-15 41.5zM406 618h145l31 146h-146z" />
<glyph unicode="$" horiz-adv-x="956" d="M35 961q0 170 109.5 300t273.5 152q0 61 61 62q27 0 46.5 -17.5t19.5 -48.5q147 -16 241 -106q107 -103 107 -263q0 -31 -19.5 -48t-46.5 -17t-46 17.5t-19 47.5q0 121 -76 181.5t-207 60.5t-222 -93t-91 -228q0 -115 93 -206t200 -91q94 0 163.5 -68t69.5 -168 q0 -92 -67.5 -153.5t-151.5 -61.5q-82 0 -147 61q-57 53 -58 95q0 29 18.5 48t45.5 19q23 0 70 -47t71 -47q39 0 64.5 21.5t25.5 54.5q0 43 -34.5 80t-69.5 37q-162 0 -289 120q-135 127 -135 306zM55 373q0 29 22.5 46t51.5 17q55 0 55 -63q0 -68 92 -156q102 -96 201 -96 q125 0 213 92t88 223q0 121 -77.5 213t-186.5 92q-90 0 -166 56q-88 63 -88 164q0 90 60.5 156.5t150.5 66.5q80 0 143.5 -46t63.5 -91q0 -27 -19.5 -46.5t-46.5 -19.5t-61.5 37t-79.5 37q-33 0 -57.5 -27t-24.5 -67q0 -31 42 -61t83 -30q170 0 282.5 -130t112.5 -304 q0 -166 -104.5 -293t-261.5 -147q-2 -29 -20.5 -44t-47.5 -15q-27 0 -44 15t-17 44q-145 29 -252 146.5t-107 230.5z" />
<glyph unicode="%" horiz-adv-x="1210" d="M37 201q0 20 18 43l955 1009q23 18 45 19q27 0 47 -20.5t20 -49.5q0 -20 -16 -43l-956 -1007q-18 -20 -46 -21q-27 0 -47 20.5t-20 49.5zM57 1077q0 141 93.5 244.5t228.5 103.5q137 0 237.5 -92t100.5 -219q0 -143 -90 -247.5t-224 -104.5q-141 0 -243.5 90t-102.5 225z M184 1077q0 -78 62.5 -132t148.5 -54q82 0 137.5 62.5t55.5 152.5q0 74 -62.5 132t-144.5 58q-84 0 -140.5 -62.5t-56.5 -156.5zM279 1083q0 45 28.5 78t75.5 33q43 0 76 -29t33 -78q0 -43 -27 -76.5t-76 -33.5q-45 0 -77.5 26.5t-32.5 79.5zM498 311q0 141 88 247t223 106 q139 0 243.5 -90.5t104.5 -223.5q0 -139 -89 -244.5t-216 -105.5q-143 0 -248.5 88t-105.5 223zM625 319q0 -78 65.5 -133t149.5 -55q78 0 133 65.5t55 149.5q0 80 -65.5 134.5t-149.5 54.5q-78 0 -133 -63.5t-55 -152.5zM717 326q0 43 28.5 75.5t75.5 32.5q45 0 77 -27.5 t32 -78.5q0 -43 -26.5 -76t-76.5 -33q-45 0 -77.5 26.5t-32.5 80.5z" />
<glyph unicode="&#x26;" horiz-adv-x="1011" d="M37 453q0 127 57 227q49 86 127 137q-31 51 -47 99.5t-16 101.5q0 166 111.5 287.5t277.5 121.5q178 0 295 -114q100 -98 100 -207q0 -68 -65 -68q-29 0 -47.5 16.5t-18.5 51.5q0 45 -63 108q-82 84 -201 84q-109 0 -184.5 -82.5t-75.5 -197.5q0 -78 92 -205 q100 -137 201 -274q0 -25 -20.5 -47.5t-47.5 -22.5q-23 0 -51.5 33t-52.5 65q-33 -14 -33 -121q0 -47 35.5 -80.5t72.5 -33.5h383q63 0 64 -66q0 -31 -14.5 -48t-49.5 -17h-383q-88 0 -162.5 74.5t-74.5 168.5q0 82 16.5 136.5t59.5 87.5q-2 6 -12.5 21.5t-16.5 21.5 q-51 -37 -84 -95q-43 -74 -43 -163q0 -135 113 -236q96 -86 180 -86h424q63 1 63 -65q0 -31 -14 -48.5t-49 -17.5h-424q-143 0 -273 117q-150 135 -149 336zM365 1016q0 100 48 159.5t156 59.5q57 0 108.5 -45t51.5 -103q0 -25 -14.5 -47t-36.5 -22q-25 0 -49 24 q-55 57 -72 58q-63 0 -63 -88q0 -37 77.5 -139.5t157.5 -204.5q10 -12 10 -35q0 -29 -19.5 -48.5t-47.5 -19.5q-27 0 -51.5 36t-120.5 151q-135 162 -135 264z" />
<glyph unicode="'" horiz-adv-x="430" d="M45 1227q0 72 49 121t119 49t119 -49t49 -121q0 -82 -64.5 -178.5t-97.5 -96.5q-31 0 -98 88q-76 100 -76 187zM174 1227q0 -39 39 -39t39 39q0 37 -39 37t-39 -37z" />
<glyph unicode="(" horiz-adv-x="565" d="M49 293v719q0 166 119 313q127 158 293 158q14 0 32.5 -23t18.5 -41t-18.5 -39.5t-30.5 -21.5q-115 0 -206 -110.5t-91 -235.5v-719q0 -115 96 -211q90 -90 187 -90q16 0 37.5 -23.5t21.5 -42.5q0 -23 -17.5 -36t-39.5 -13q-125 0 -256 123q-145 135 -146 293zM229 377 v631q0 115 82 194q74 72 150 72q55 0 55 -49q0 -35 -83 -83t-83 -134v-631q0 -125 81 -175t81 -71q0 -57 -51 -57q-72 0 -146 82q-86 96 -86 221z" />
<glyph unicode=")" horiz-adv-x="575" d="M49 119q0 31 84 80t84 151v611q0 104 -49 153q-57 47 -113 96q0 55 51 56q70 0 144 -82q86 -96 86 -221v-613q0 -127 -82 -211q-72 -72 -148 -71q-57 0 -57 51zM55 -76q0 16 18.5 37t30.5 21q115 0 206 110.5t91 235.5v727q0 100 -96 198.5t-186 98.5q-18 0 -39 22.5 t-21 40.5q0 20 16.5 34.5t41.5 14.5q121 0 256 -129q143 -137 143 -280v-727q0 -170 -119 -316q-125 -154 -291 -153q-14 0 -32.5 22.5t-18.5 42.5z" />
<glyph unicode="*" horiz-adv-x="671" d="M53 999q0 16 6 27q8 14 27 27l98 57q20 10 35 10q27 0 45.5 -22t18.5 -47q0 -35 -31 -54l-100 -57q-16 -8 -33 -8q-29 0 -47.5 20.5t-18.5 46.5zM53 1243q0 27 18.5 47.5t45.5 20.5l33 -8l106 -60l16 -14l-2 16v131q0 31 19.5 48.5t44.5 17.5q66 0 65 -66v-131v-12l9 8 l108 74q18 12 37 12q29 0 47 -20.5t18 -51.5q0 -33 -28 -51l-111 -71l-18 -11l16 -4l98 -49q39 -18 39 -55q0 -25 -18 -45.5t-45 -20.5l-31 6l-100 47q-35 14 -35 54q0 49 47 67q-55 10 -55 72q-16 -14 -43 -14q-29 0 -47 20l2 -12q0 -27 -18.5 -47.5t-45.5 -20.5 q-12 0 -32 10l-107 58q-33 20 -33 55zM270 862v133q0 29 19.5 46.5t44.5 17.5q66 0 65 -64v-133q0 -63 -65 -63q-27 0 -45.5 15t-18.5 48z" />
<glyph unicode="+" d="M80 426q0 55 55 55h301v301q0 29 16.5 43.5t39.5 14.5q25 0 42 -15.5t17 -42.5v-301h301q57 0 57 -55q0 -23 -15 -40t-42 -17h-301v-301q0 -27 -18.5 -41.5t-40.5 -14.5q-23 0 -39.5 14.5t-16.5 41.5v301h-301q-27 0 -41 16t-14 41z" />
<glyph unicode="," horiz-adv-x="430" d="M45 152q0 70 49 118.5t119 48.5t119 -48.5t49 -118.5q0 -35 -16 -78l-95 -166q-10 -16 -23.5 -24.5t-27.5 -8.5q-29 0 -50.5 19.5t-21.5 46.5q0 16 9 32q2 6 10 15q-53 16 -87 60t-34 104zM174 152q0 -39 39 -39t39 39q0 37 -39 36q-39 0 -39 -36z" />
<glyph unicode="-" horiz-adv-x="706" d="M80 336q0 55 55 55h440q58 0 58 -55q0 -27 -13.5 -43.5t-44.5 -16.5h-440q-25 0 -40 17.5t-15 42.5zM80 537q0 55 55 55h440q58 0 58 -55q0 -27 -13.5 -43.5t-44.5 -16.5h-440q-25 0 -40 17.5t-15 42.5z" />
<glyph unicode="." horiz-adv-x="413" d="M43 166q0 70 49 119t121 49q68 0 117 -49t49 -119t-48 -120t-118 -50q-68 0 -119 49t-51 121zM172 166q0 -39 41 -39q12 0 24.5 12.5t12.5 26.5q0 12 -12.5 24.5t-24.5 12.5q-14 0 -27.5 -12.5t-13.5 -24.5z" />
<glyph unicode="/" horiz-adv-x="993" d="M27 6q0 12 10 33l786 1370q20 35 54 35q27 0 48 -19.5t21 -48.5q0 -16 -10 -33l-786 -1370q-20 -35 -54 -34q-27 0 -48 19t-21 48z" />
<glyph unicode="0" horiz-adv-x="1511" d="M35 715q0 299 207 508t503 209q295 0 502 -209t207 -508q0 -295 -207 -506t-502 -211t-502.5 210t-207.5 507zM166 715q0 -244 169 -415t410 -171q240 0 410 170t170 416q0 244 -170 416t-410 172t-409.5 -172.5t-169.5 -415.5zM225 717q0 217 151.5 370.5t368.5 153.5 q215 0 367 -151.5t152 -372.5q0 -219 -151.5 -370.5t-367.5 -151.5q-215 0 -367.5 152.5t-152.5 369.5zM354 717q0 -164 114 -277.5t277 -113.5q160 0 275 114.5t115 276.5q0 160 -115 276.5t-275 116.5q-162 0 -276.5 -114.5t-114.5 -278.5z" />
<glyph unicode="1" horiz-adv-x="581" d="M37 1192q0 29 31 51q59 41 78.5 62.5t50.5 76.5q18 35 53 35q27 0 48 -19t21 -46q0 -55 -84.5 -142.5t-130.5 -87.5q-27 0 -47 20.5t-20 49.5zM43 979q0 43 43 59l145 58l31 6q59 0 60 -68v-968q0 -31 -17.5 -48.5t-46.5 -17.5q-27 0 -46 17.5t-19 48.5v874 q-25 -12 -48.5 -21.5t-35.5 -9.5q-29 0 -47.5 20.5t-18.5 49.5zM389 66v1277q0 31 19.5 46.5t46.5 15.5q20 0 32 -6q31 -16 31 -56v-1277q0 -31 -17.5 -48.5t-45.5 -17.5q-27 0 -46.5 17.5t-19.5 48.5z" />
<glyph unicode="2" horiz-adv-x="1030" d="M45 2q61 90 274 389q145 205 242 354q106 166 107 213q0 51 -32 89t-79 38t-90 -28.5t-43 -63.5q0 -39 -45 -39q-25 0 -42.5 11.5t-17.5 33.5q0 88 74 148.5t162 60.5q104 0 172 -84q61 -76 61 -163q0 -102 -186 -369q-170 -240 -338 -477h621q35 0 50 -15.5t15 -38.5 q0 -27 -14 -43t-51 -16h-840zM119 1028q0 129 138 252t302 123q180 0 310 -130t130 -310q0 -106 -49 -205q-33 -66 -127 -197q-121 -168 -174 -260h236q31 0 48 -19.5t17 -43.5q0 -25 -15 -42.5t-50 -17.5h-469q119 168 236.5 335t160.5 251q57 113 57 192q0 131 -88 230.5 t-219 99.5q-115 0 -223.5 -82t-108.5 -176q0 -72 -55 -72q-23 0 -40 19.5t-17 52.5z" />
<glyph unicode="3" horiz-adv-x="1019" d="M25 360q0 70 63 70q31 0 51 -37q8 -12 39 -90t129.5 -148.5t196.5 -70.5q147 0 254.5 107.5t107.5 254.5q0 160 -98 265q-33 35 -100 73q25 18 37 33q82 92 81 232q0 115 -82.5 191.5t-197.5 76.5q-109 0 -170 -51q-59 -72 -90 -107q-6 -8 -21.5 -66.5t-58.5 -58.5 q-33 0 -45 19.5t-12 52.5q0 100 114 211q129 123 287 123q160 0 276.5 -117t116.5 -281q0 -61 -33 -155q-10 -31 -34 -84q53 -63 77 -107q78 -128 78 -245q0 -201 -139 -344.5t-338 -143.5q-174 0 -331.5 136.5t-157.5 260.5zM233 354q0 27 19.5 46.5t46.5 19.5 q33 0 89 -66.5t126 -66.5q63 0 108.5 49t45.5 115q0 70 -32 117.5t-75 47.5h-190q-25 0 -43.5 20.5t-18.5 45.5q0 27 16.5 47.5t45.5 20.5h190q113 0 180 -101q58 -85 58 -198q0 -121 -82 -207t-203 -86q-88 0 -184.5 72.5t-96.5 123.5zM297 883q0 27 18.5 47t46.5 20h148 q31 0 55.5 22.5t24.5 53.5q0 37 -24.5 63.5t-61.5 26.5q-47 0 -84 -57q-18 -29 -49 -29q-25 0 -46.5 19.5t-21.5 48.5q0 63 64.5 106t136.5 43q90 0 152.5 -64.5t62.5 -156.5q0 -86 -61.5 -147.5t-147.5 -61.5h-148q-29 0 -47 20.5t-18 45.5z" />
<glyph unicode="4" horiz-adv-x="1038" d="M33 328l86 694q6 63 74 63q31 0 45 -17t10 -46l-72 -571h514v-381q0 -70 -63 -70q-59 0 -60 70v258h-534zM264 532l66 480q4 33 22.5 53t48.5 20q27 0 43.5 -20.5t12.5 -48.5l-41 -359h147v703q0 29 20.5 49.5t49.5 20.5q27 0 45 -20.5t18 -49.5v-828h-432zM762 537v823 q0 31 17.5 50.5t45.5 19.5q31 0 49.5 -20.5t18.5 -49.5v-692q45 0 71.5 -12.5t26.5 -51.5q0 -68 -78 -67h-151zM778 72v379h135q45 0 63.5 -17.5t18.5 -46.5q0 -37 -45 -51q-14 -4 -45 -8v-256q0 -37 -17.5 -54.5t-43.5 -17.5q-66 0 -66 72z" />
<glyph unicode="5" horiz-adv-x="1062" d="M35 385q0 25 17.5 44.5t41.5 19.5q29 0 45 -19q10 -12 19 -41q33 -109 88 -176q104 -127 278 -127q178 0 285 137q86 113 86 232q0 168 -114.5 276.5t-276.5 108.5h-197v389h494q29 0 48 -19.5t19 -48.5q0 -31 -20.5 -49t-42.5 -18h-373v-131h92q164 0 307 -113 q183 -143 183 -395q0 -166 -129 -316q-145 -168 -361 -168q-227 0 -374 170q-115 133 -115 244zM104 635v786h695q31 0 51 -13t20 -42t-20.5 -45t-50.5 -16h-570v-545h279q123 0 212 -85t89 -208t-86 -207t-209 -84q-98 0 -182 65.5t-84 139.5q0 25 17.5 44t41.5 19 q29 0 43 -18q2 -2 21.5 -45t57.5 -65.5t89 -22.5q72 0 121 51t49 123q0 76 -52 122t-128 46h-404z" />
<glyph unicode="6" horiz-adv-x="1044" d="M33 483q0 51 24.5 146.5t65.5 199.5l205 529q12 29 28.5 45t44.5 16q29 0 50 -26q12 -18 6 -35l-211 -553q-37 -98 -65.5 -198.5t-28.5 -131.5q0 -152 106.5 -260.5t259.5 -108.5q147 0 251.5 109t104.5 260q0 145 -105 257t-237 112q-55 0 -159 -27q-16 -4 -43 -12 l202 553q23 57 74 57q29 0 49.5 -19.5t10.5 -45.5l-144 -389l56 2q162 0 291.5 -151t129.5 -341q0 -199 -143 -340t-342 -141q-197 0 -339 150.5t-142 342.5zM221 477q0 127 86 215t211 88q123 0 211 -88t88 -215q0 -125 -87 -212t-212 -87q-123 0 -210 87t-87 212zM350 477 q0 -70 48 -118t120 -48t121 47t49 119q0 70 -49 121t-121 51q-70 0 -119 -49t-49 -123z" />
<glyph unicode="7" horiz-adv-x="1013" d="M63 1141q0 66 84 65h549l-489 -1165q-18 -45 -68 -45q-20 0 -38.5 16.5t-18.5 38.5l4 17l428 1015h-367q-84 0 -84 58zM63 1346q0 31 26 48t58 17h838l-559 -1372q-20 -47 -66 -47q-16 0 -33.5 19.5t-17.5 39.5l4 21l492 1216h-658q-37 0 -60.5 15.5t-23.5 42.5z" />
<glyph unicode="8" horiz-adv-x="1060" d="M39 467q0 127 80 252q27 41 80 98q-29 41 -41 68q-41 82 -41 159q0 166 125 281t301 115q164 0 278.5 -119t114.5 -283q0 -78 -33 -157q-10 -25 -33 -64q51 -59 76 -100q78 -129 78 -254q0 -203 -139.5 -344.5t-339.5 -141.5q-205 0 -355.5 142.5t-150.5 347.5zM174 459 q0 -152 108.5 -258.5t260.5 -106.5q137 0 239 94q113 105 113 271q0 147 -96 256q-31 35 -97 80q37 41 54 69q55 88 55 166q0 119 -80 207t-196 88q-119 0 -205 -82t-86 -203q0 -106 63 -182q20 -25 66 -55q-39 -25 -62 -43q-137 -119 -137 -301zM252 463q0 119 82 203 t201 84t200.5 -84t81.5 -203t-83 -202t-199 -83q-117 0 -200 83t-83 202zM319 1042q0 88 60.5 150.5t148.5 62.5q90 0 151.5 -61.5t61.5 -151.5q0 -86 -61.5 -149.5t-151.5 -63.5q-88 0 -148.5 62.5t-60.5 150.5zM381 463q0 -66 43 -109t111 -43q63 0 108 43t45 109 q0 63 -45 108t-108 45q-66 0 -110 -44t-44 -109zM449 1042q0 -33 22.5 -57t56.5 -24q35 0 59.5 24t24.5 57q0 35 -24.5 59.5t-59.5 24.5q-33 0 -56 -25.5t-23 -58.5z" />
<glyph unicode="9" horiz-adv-x="1058" d="M37 926q0 205 146.5 345t348.5 140q203 0 342.5 -137t139.5 -338q0 -68 -20.5 -152t-63.5 -194l-201 -535q-10 -27 -26.5 -43t-43.5 -16q-20 0 -40.5 22.5t-20.5 47.5l4 12l197 512q39 102 64.5 196.5t25.5 145.5q0 143 -106.5 249.5t-254.5 106.5q-154 0 -263 -105.5 t-109 -256.5q0 -152 112.5 -256.5t263.5 -104.5q57 0 95.5 10.5t89.5 36.5l-201 -553q-25 -63 -78 -63q-20 0 -38.5 18.5t-18.5 40.5l4 19l137 360q-213 0 -362 158q-123 129 -123 334zM240 930q0 117 84 203t202 86q121 0 205 -84t84 -205q0 -123 -84 -207t-205 -84 q-119 0 -202.5 84t-83.5 207zM369 930q0 -68 46 -114t111 -46q66 0 113 47t47 113q0 63 -47 110t-113 47q-63 0 -110 -47t-47 -110z" />
<glyph unicode=":" horiz-adv-x="464" d="M72 739q0 72 47 121t119 49q70 0 119 -49t49 -121q0 -74 -49.5 -121t-118.5 -47q-70 0 -118 48.5t-48 119.5zM74 164q0 70 49 119t121 49q70 0 119 -49t49 -119q0 -72 -49.5 -121t-118.5 -49q-68 0 -119 49t-51 121zM199 739q0 -12 11 -23t28 -11q36 -1 36 34 q0 14 -10 26.5t-26 12.5q-39 0 -39 -39zM205 164q0 -39 39 -39q16 0 26.5 12.5t10.5 26.5t-11.5 25.5t-25.5 11.5q-16 0 -27.5 -11.5t-11.5 -25.5z" />
<glyph unicode=";" horiz-adv-x="430" d="M35 152q0 70 49 118.5t119 48.5q68 0 117 -48.5t49 -118.5q0 -47 -15 -78l-94 -166q-10 -16 -24.5 -24.5t-28.5 -8.5q-27 0 -48.5 19.5t-21.5 46.5q0 12 8 30q2 6 11 17q-53 16 -87 60t-34 104zM35 739q0 72 49 121t119 49t118 -50t48 -120q0 -72 -48.5 -120t-117.5 -48 q-68 0 -118 48.5t-50 119.5zM166 152q0 -39 37 -39q39 0 39 39q0 37 -39 36q-37 0 -37 -36zM166 739q0 -12 11 -23t26 -11q14 0 26.5 10t12.5 24t-12.5 26.5t-26.5 12.5q-37 0 -37 -39z" />
<glyph unicode="&#x3c;" d="M131 426l623 358q10 8 28 9q23 0 40.5 -19.5t17.5 -44.5q0 -27 -29 -43l-451 -260l451 -260q31 -16 31 -47q0 -23 -15.5 -42.5t-42.5 -19.5q-12 0 -28 11z" />
<glyph unicode="=" d="M80 297q0 29 18.5 42t36.5 13h717q27 0 42 -15t15 -40t-15 -42t-42 -17h-717q-25 0 -40 17t-15 42zM80 557q0 29 18.5 42t36.5 13h717q27 0 42 -15t15 -40t-15 -42t-42 -17h-717q-25 0 -40 17t-15 42z" />
<glyph unicode="&#x3e;" d="M145 121q0 29 29 45l453 260l-451 260q-29 16 -29 45q0 20 16.5 41t41.5 21q14 0 28 -9l623 -358l-625 -358q-14 -8 -30 -9q-23 0 -39.5 18.5t-16.5 43.5z" />
<glyph unicode="?" horiz-adv-x="1021" d="M68 1079q0 145 141 258t315 113q182 0 308 -134.5t126 -320.5q0 -178 -122 -307q-135 -98 -271 -196v-152q0 -27 -18.5 -47.5t-44.5 -20.5q-27 0 -46.5 19.5t-19.5 48.5v160q0 78 195.5 201.5t195.5 293.5q0 133 -88 228.5t-219 95.5q-117 0 -220 -82t-103 -158 q0 -33 -18.5 -49t-47.5 -16q-25 0 -44 17.5t-19 47.5zM238 340v227q0 135 197.5 247t197.5 161q0 57 -35 98t-86 41q-39 0 -75 -16.5t-36 -26.5q0 -29 -21.5 -46t-49.5 -17q-23 0 -40.5 19.5t-17.5 43.5q0 88 84 135q70 39 156 39q98 0 176 -80q72 -73 72 -153 q0 -176 -195.5 -283.5t-195.5 -161.5v-227q0 -27 -20.5 -47.5t-45.5 -20.5q-27 0 -46 19.5t-19 48.5zM242 152q10 29 34.5 45t49.5 16q47 0 47 -41l-4 -20q0 -27 28 -27q33 0 33 27q0 31 19.5 48t46.5 17q25 0 44 -17t19 -48q0 -70 -49 -115t-113 -45q-63 0 -109 41t-46 119 z" />
<glyph unicode="@" horiz-adv-x="1650" d="M59 596q0 322 210 536t530 214q344 0 562 -224.5t218 -568.5q0 -248 -70 -367q-84 -143 -284 -143q-115 0 -206 68.5t-91 150.5q-25 -8 -41 -12q-55 -14 -86 -14q-141 0 -242.5 103t-101.5 249q0 143 102.5 243.5t245.5 100.5q145 0 244.5 -99.5t99.5 -246.5v-209 q0 -57 21.5 -84t52.5 -27q86 0 102 44t16 245q0 233 -153.5 389t-384.5 156q-207 0 -353.5 -148.5t-146.5 -355.5q0 -213 143.5 -362.5t358.5 -149.5q43 0 65.5 8t28.5 8q33 0 33 -41q0 -23 -37 -40t-90 -17q-248 0 -416 174t-168 420q0 240 171 413t411 173 q266 0 443 -179.5t177 -447.5q0 -190 -26 -260q-41 -111 -174 -111q-55 0 -99 37q-55 47 -55 133v230q0 111 -78 186.5t-188 75.5q-109 0 -188.5 -76t-79.5 -186q0 -113 78.5 -196t187.5 -83q61 0 137 45q25 14 63 45v-69q0 -92 66 -149.5t158 -57.5q168 0 227 121 q45 92 45 313q0 311 -193.5 511t-504.5 200q-287 0 -472.5 -189.5t-185.5 -478.5q0 -276 201 -471t469 -195q47 0 84 13.5t63 21.5q20 0 29.5 -13t9.5 -34q0 -27 -67.5 -48.5t-118.5 -21.5q-297 0 -524.5 219.5t-227.5 528.5zM596 575q0 86 59.5 147.5t145.5 61.5 q88 0 146.5 -60.5t58.5 -148.5q0 -86 -59.5 -145t-145.5 -59t-145.5 59t-59.5 145zM680 575q0 -49 36 -84.5t85 -35.5t86 34.5t37 85.5t-36 87t-87 36q-49 0 -85 -35.5t-36 -87.5z" />
<glyph unicode="A" horiz-adv-x="1218" d="M53 63l4 23l222 1044q29 135 116.5 213t214.5 78q123 0 204 -75.5t110 -202.5l229 -1057l2 -23q0 -27 -20.5 -47t-44.5 -20q-31 0 -45.5 19.5t-24.5 70.5l-221 1028q-16 74 -69.5 126t-119.5 52q-166 0 -204 -186l-218 -1020q-12 -55 -23 -72.5t-46 -17.5 q-27 0 -46.5 19.5t-19.5 47.5zM258 57l4 29l76 346h534l72 -346l2 -23q0 -23 -19.5 -46t-41.5 -23q-29 0 -44.5 23.5t-23.5 68.5l-45 225h-334l-49 -225q-12 -49 -18 -61q-16 -31 -52 -31q-29 0 -45 18.5t-16 44.5zM358 522l123 557q18 78 44 104.5t83 26.5q53 0 81 -31.5 t42 -103.5l123 -553h-496zM514 633h178l-84 432z" />
<glyph unicode="B" horiz-adv-x="1091" d="M66 55v985q0 166 120.5 289t290.5 123q164 0 283 -116.5t119 -282.5q0 -41 -19 -111q-6 -23 -18 -61q68 -55 100 -97q102 -128 102 -284q0 -207 -138 -357.5t-339 -150.5q-47 0 -88 11t-96 36q-6 -16 -10 -23q-15 -24 -39 -24h-2q-39 0 -53.5 16.5t-14.5 44.5v201 q47 -51 82 -76q104 -76 219 -76q145 0 252 108.5t107 256.5q0 162 -125 281q-41 39 -127 88q31 31 45 55q45 74 45 166q0 117 -83 199.5t-200 82.5q-109 0 -195.5 -74.5t-86.5 -174.5v-1035q0 -27 -18.5 -45t-47.5 -18t-47 18.5t-18 44.5zM264 846v194q0 86 65.5 149.5 t155.5 63.5q84 0 141.5 -59t57.5 -145q0 -84 -57.5 -143.5t-141.5 -59.5h-221zM268 449v315h295q125 0 207 -107q70 -92 70 -190q0 -96 -74 -184q-84 -100 -203 -101q-113 0 -204 79t-91 188zM383 961h84q45 0 68.5 26.5t23.5 65.5q0 37 -22.5 61.5t-57.5 24.5 q-37 0 -66.5 -26t-29.5 -62v-90zM385 438q0 -37 58.5 -88t115.5 -51q72 0 116 54.5t44 109.5q0 53 -41 108q-53 72 -139 72h-154v-205z" />
<glyph unicode="C" horiz-adv-x="1171" d="M49 705q0 332 215 534q188 178 430 178h336q29 0 47.5 -18.5t18.5 -46.5q0 -25 -18.5 -45.5t-47.5 -20.5h-336q-195 0 -342 -139q-174 -164 -174 -442q0 -219 178 -406q168 -176 338 -176h342q25 0 43.5 -20.5t18.5 -45.5q0 -27 -17.5 -46t-44.5 -19h-342 q-227 0 -430 211q-215 223 -215 502zM262 700q0 207 145.5 360.5t342.5 153.5h280q25 0 45.5 -18t20.5 -43q0 -27 -18.5 -47.5t-47.5 -20.5h-280q-139 0 -249 -113.5t-110 -271.5q0 -147 105.5 -254.5t253.5 -107.5h286q29 0 47.5 -18.5t18.5 -49.5q0 -25 -19.5 -44 t-46.5 -19h-286q-203 0 -345.5 144.5t-142.5 348.5z" />
<glyph unicode="D" horiz-adv-x="1355" d="M51 68v917q0 164 121 293t274 129h220q240 0 434 -209q203 -217 203 -508q0 -262 -211 -481t-476 -219q-66 0 -163 26q-33 8 -88 29q-2 -18 -7 -27q-14 -27 -49 -26q-33 0 -46 21.5t-13 54.5v172q76 -41 123 -62q145 -63 233 -63q233 0 399 172t166 403 q0 225 -159.5 407.5t-343.5 182.5h-215q-98 0 -185 -78q-96 -88 -96 -209v-925q0 -29 -17.5 -50.5t-43.5 -21.5q-27 0 -43.5 20.5t-16.5 51.5zM242 444v504q0 111 68.5 188.5t178.5 77.5h201q147 0 276.5 -159.5t129.5 -343.5q0 -209 -139.5 -362.5t-344.5 -153.5 q-131 0 -245 69q-125 76 -125 180zM369 444q0 -31 81.5 -74.5t161.5 -43.5q150 0 252.5 112.5t102.5 272.5q0 125 -97.5 249.5t-179.5 124.5h-201q-49 0 -84.5 -37.5t-35.5 -99.5v-504z" />
<glyph unicode="E" horiz-adv-x="1181" d="M45 711q0 289 204 500.5t449 211.5h328q27 0 45.5 -20.5t18.5 -44.5q0 -33 -27 -51q-14 -10 -37 -11h-328q-174 0 -344 -176q-180 -186 -180 -409q0 -233 174 -407.5t387 -174.5h309q25 0 43.5 -20.5t18.5 -47.5q0 -25 -17.5 -44t-44.5 -19h-309q-274 0 -479 207 q-211 213 -211 506zM258 676h651q18 0 27.5 -19.5t9.5 -48.5t-9 -45t-32 -16h-477q35 -70 64 -105q88 -104 213 -104h346q27 0 41 -18.5t14 -45.5t-14.5 -43t-47.5 -16h-313q-193 0 -315 119q-88 86 -131 221q-14 59 -27 121zM258 752q12 59 25 118q43 135 131 222 q124 120 314 120h3h295q39 0 54.5 -15t15.5 -48q0 -59 -70 -59h-321q-125 0 -213 -105q-29 -35 -64 -104h477q20 0 30.5 -19.5t10.5 -46.5q0 -18 -6 -40.5t-31 -22.5h-651z" />
<glyph unicode="F" horiz-adv-x="886" d="M66 57v938q0 170 112 297q121 135 301 135h338q29 0 47.5 -20t18.5 -47q0 -25 -18.5 -43.5t-47.5 -18.5h-338q-119 0 -207 -108q-78 -96 -77 -195v-938q0 -27 -18.5 -45t-45.5 -18q-25 0 -45 18.5t-20 44.5zM285 57v607h432q27 0 47 -20.5t20 -45.5q0 -23 -16 -41 t-47 -18h-313v-482q0 -25 -17.5 -46t-42.5 -21t-44 21.5t-19 45.5zM285 743v242q0 86 67.5 151.5t169.5 65.5h291q25 0 45.5 -20t20.5 -43q0 -20 -18.5 -39t-43.5 -19h-278q-74 0 -105 -22.5t-31 -81.5v-117h314q27 0 47 -18.5t20 -42.5q0 -29 -19.5 -42.5t-47.5 -13.5h-432 z" />
<glyph unicode="G" horiz-adv-x="1351" d="M41 696q0 295 206 511t501 216h315q25 0 45 -18.5t20 -44.5q0 -25 -19 -44.5t-46 -19.5h-315q-238 0 -407 -177t-169 -423q0 -207 158 -383q168 -186 391 -186h168q100 0 176 61q86 70 86 185v258q0 31 19.5 52.5t43.5 21.5q27 0 46.5 -19.5t19.5 -48.5v-264 q0 -150 -109.5 -263.5t-281.5 -113.5h-168q-281 0 -480.5 214t-199.5 486zM240 690q0 221 151.5 377t351.5 156h320q29 0 47 -18.5t18 -47.5q0 -25 -19 -44t-46 -19h-320q-145 0 -259.5 -119t-114.5 -285q0 -156 137 -266q121 -98 254 -98h86q63 0 85.5 28.5t22.5 112.5v164 q0 27 20.5 47t43.5 20q27 0 46 -19.5t19 -47.5v-164q0 -115 -57 -188q-66 -84 -180 -84h-86q-209 0 -364.5 149.5t-155.5 345.5z" />
<glyph unicode="H" horiz-adv-x="1327" d="M72 55v1297q0 33 19.5 50t43.5 17q66 0 66 -67v-1297q0 -33 -18.5 -49t-47.5 -16q-25 0 -44 17.5t-19 47.5zM287 61v611h743v-617q0 -16 -21.5 -35.5t-45.5 -19.5q-23 0 -44.5 19.5t-21.5 35.5v492h-479v-486q0 -23 -21.5 -42t-44.5 -19q-25 0 -45 20.5t-20 40.5z M287 754v598q0 20 21.5 43.5t43.5 23.5q25 0 45.5 -18.5t20.5 -48.5v-473h477v473q0 23 20.5 43t47.5 20q23 0 44 -21.5t21 -41.5v-598h-741zM1106 55v1297q0 31 18.5 47t44.5 16q66 0 66 -63v-1297q0 -33 -18.5 -49t-47.5 -16q-25 0 -44 17.5t-19 47.5z" />
<glyph unicode="I" horiz-adv-x="501" d="M80 59v1284q0 31 19.5 46.5t45.5 15.5q27 0 46.5 -15.5t19.5 -46.5v-1284q0 -63 -66 -63q-25 0 -45 16.5t-20 46.5zM285 59v1284q0 31 19.5 46.5t45.5 15.5q27 0 46.5 -15.5t19.5 -46.5v-1284q0 -63 -66 -63q-25 0 -45 16.5t-20 46.5z" />
<glyph unicode="J" horiz-adv-x="638" d="M14 -254q0 29 15.5 47.5t48.5 18.5q72 0 119 43t47 108v1383q0 20 12 36q20 27 55 27q27 0 44.5 -17.5t17.5 -45.5v-1383q0 -119 -86 -200.5t-209 -81.5q-63 0 -64 65zM14 -469q0 27 15.5 45t48.5 18q152 0 266 127q104 117 105 242v1383q0 63 65 63q25 0 44.5 -17.5 t19.5 -45.5v-1383q0 -162 -117 -311q-145 -188 -383 -189q-63 0 -64 68z" />
<glyph unicode="K" horiz-adv-x="1251" d="M66 66v1286q0 29 19 46t44 17q66 0 66 -63v-1286q0 -33 -18.5 -49.5t-47.5 -16.5q-25 0 -44 17.5t-19 48.5zM283 66v589h405q113 0 196 -85t83 -191v-313q0 -33 -16.5 -51.5t-41.5 -18.5t-44 17.5t-19 52.5v313q0 61 -50.5 113.5t-107.5 52.5h-280v-479 q0 -31 -19.5 -50.5t-44.5 -19.5q-61 0 -61 70zM283 739v609q0 33 17 50t44 17t45.5 -16.5t18.5 -50.5v-492h280q63 0 110.5 51t47.5 107v334q0 31 18.5 49t42.5 18q59 0 60 -67v-334q0 -111 -82 -193t-197 -82h-405zM872 705q59 55 89 88q88 102 88 178v377q0 35 16 49 t41 14t44 -17.5t19 -45.5v-385q0 -78 -65 -177q-20 -33 -66 -84q43 -45 64 -75q66 -98 65 -201v-360q0 -27 -17 -48.5t-42 -21.5q-23 0 -41 19.5t-18 50.5v364q0 78 -88 184q-29 35 -89 91z" />
<glyph unicode="L" horiz-adv-x="862" d="M80 387v987q0 29 20.5 47.5t44.5 18.5q27 0 46.5 -17.5t19.5 -48.5v-987q0 -94 92 -178q84 -76 154 -76h358q35 0 50.5 -17t15.5 -48q0 -27 -17.5 -46.5t-48.5 -19.5h-358q-145 0 -261 124t-116 261zM287 412v962q0 29 20.5 47.5t44.5 18.5q27 0 46.5 -17.5t19.5 -48.5 v-962q0 -39 28.5 -57.5t75.5 -18.5h293q31 0 48.5 -17.5t17.5 -48.5q0 -27 -17.5 -46t-48.5 -19h-293q-94 0 -162 53q-74 59 -73 154z" />
<glyph unicode="M" horiz-adv-x="1720" d="M70 70v903q0 160 149.5 299t325.5 139q123 0 233 -63q37 -20 86 -66q47 43 84 64q111 65 240 65h4q180 0 322.5 -131t142.5 -309v-905q0 -31 -15.5 -48.5t-37.5 -17.5q-16 0 -29 8q-31 20 -31 58v870q0 141 -106.5 245.5t-247.5 104.5t-248 -90q-35 -29 -78 -90 q-49 61 -84 92q-111 94 -237 94q-139 0 -247 -95t-108 -220v-907q0 -29 -18 -49.5t-41 -20.5q-20 0 -31 6q-29 16 -28 64zM248 66v864q0 117 87 202t210 85q121 0 206 -83t85 -204v-867q0 -29 -18.5 -47t-47.5 -18q-25 0 -44 19.5t-19 45.5v867q0 68 -47.5 112.5 t-114.5 44.5q-59 0 -113.5 -54t-54.5 -99v-871q0 -29 -18.5 -47t-45.5 -18t-46 19.5t-19 48.5zM893 63v867q0 115 86 201t209 86q119 0 204 -83t85 -204v-867q0 -29 -18.5 -47t-47.5 -18q-25 0 -44 19.5t-19 45.5v867q0 59 -47.5 108t-112.5 49q-63 0 -114.5 -51t-51.5 -106 v-867q0 -25 -18.5 -45t-45.5 -20q-25 0 -45 18.5t-20 46.5z" />
<glyph unicode="N" horiz-adv-x="1280" d="M84 59v813q0 231 169 390t411 159q227 0 392 -162.5t165 -392.5v-807q0 -27 -18.5 -45t-45.5 -18q-25 0 -45 18.5t-20 44.5v807q0 176 -127 301t-303 125q-186 0 -317.5 -120.5t-131.5 -299.5v-813q0 -25 -19.5 -44t-43.5 -19q-25 0 -45.5 18.5t-20.5 44.5zM287 59v813 q0 152 112.5 247t264.5 95q143 0 249.5 -100t106.5 -242v-813q0 -27 -18.5 -45t-45.5 -18q-25 0 -45 18.5t-20 44.5v813q0 84 -67.5 147.5t-159.5 63.5q-100 0 -173 -62.5t-73 -148.5v-813q0 -27 -20.5 -45t-45.5 -18t-45 18.5t-20 44.5z" />
<glyph unicode="O" horiz-adv-x="1536" d="M39 711q0 307 212 521t517 214t521 -212t216 -517t-212 -521t-517 -216t-521 214t-216 517zM168 717q0 -252 176 -428t428 -176t428 176t176 428t-176 428t-428 176t-428 -176t-176 -428zM246 711q0 219 153.5 372.5t372.5 153.5t372.5 -153.5t153.5 -372.5t-153.5 -373 t-372.5 -154t-372.5 154t-153.5 373zM375 711q0 -164 116.5 -281t280.5 -117t280.5 117t116.5 281t-116.5 280.5t-280.5 116.5t-280.5 -117t-116.5 -280z" />
<glyph unicode="P" horiz-adv-x="1501" d="M72 -393v1153q0 279 201.5 472t502.5 193q287 0 494 -208.5t207 -503.5q0 -293 -207 -502t-498 -209q-141 0 -283 59q-47 18 -114 62v-516q0 -33 -16.5 -53.5t-39.5 -20.5t-40 21.5t-17 52.5v768q76 -90 133 -133q174 -133 377 -133q242 0 412 178t170 426t-169 423 t-409 175t-418 -160t-178 -393v-1151q0 -31 -15 -52.5t-38 -21.5q-18 0 -36.5 23.5t-18.5 50.5zM248 713q0 217 149.5 368.5t364.5 151.5t366.5 -151.5t151.5 -368.5q0 -215 -150.5 -367.5t-367.5 -152.5q-213 0 -363.5 152.5t-150.5 367.5zM377 713q0 -160 112.5 -274.5 t272.5 -114.5t274.5 114.5t114.5 274.5t-114.5 276.5t-274.5 116.5q-158 0 -271.5 -116t-113.5 -277z" />
<glyph unicode="Q" horiz-adv-x="1536" d="M53 721q0 293 207 497.5t502 204.5q299 0 508 -208.5t209 -509.5q0 -133 -60 -269q-18 -45 -59 -108h55q29 0 46.5 -19.5t17.5 -44.5q0 -29 -14.5 -47t-49.5 -18h-328q90 72 136 129q137 174 137 381q0 246 -176 422t-424 176q-242 0 -412 -172t-170 -418t164 -422 t403 -176h670q29 0 46.5 -19.5t17.5 -44.5q0 -59 -64 -59h-670q-291 0 -491.5 213t-200.5 512zM246 711q0 213 151.5 366.5t364.5 153.5q215 0 365.5 -152.5t150.5 -367.5q0 -217 -150.5 -370t-365.5 -153t-365.5 153t-150.5 370zM375 711q0 -158 114.5 -275t272.5 -117 t272.5 115t114.5 277q0 158 -114.5 274.5t-272.5 116.5t-272.5 -115t-114.5 -276z" />
<glyph unicode="R" horiz-adv-x="1085" d="M66 63v891q0 178 147 321.5t338 143.5q197 0 337 -140t140 -341q0 -131 -59 -236q-18 -35 -62 -79q41 -39 60 -66q59 -82 59 -156v-329q0 -31 -17.5 -52.5t-41.5 -21.5q-23 0 -41.5 20.5t-18.5 53.5v315q0 86 -78 168q-25 27 -79 66q57 45 84 79q84 106 84 242 q0 127 -95 238q-109 127 -268 127q-135 0 -250 -99q-123 -106 -123 -250v-892q0 -29 -17.5 -48.5t-41.5 -19.5q-23 0 -40 19.5t-17 45.5zM266 63v502h348q88 0 155 -74.5t67 -158.5v-260q0 -33 -18.5 -53.5t-43.5 -20.5q-23 0 -42 20.5t-19 53.5v254q0 45 -30 80.5t-81 35.5 h-217v-379q0 -25 -18.5 -45t-44.5 -20q-55 0 -56 65zM266 647v305q0 111 85 188t204 77q115 0 199 -80t84 -197q0 -121 -84 -207t-205 -86h-283zM381 762h184q55 0 106.5 55t51.5 123q0 70 -49 119t-119 49q-68 0 -121 -49t-53 -117v-180z" />
<glyph unicode="S" horiz-adv-x="1277" d="M49 59q0 27 17.5 46.5t48.5 19.5q102 0 221 63q133 72 180 172l315 666q41 86 134.5 140.5t195.5 54.5q31 0 48.5 -17.5t17.5 -48.5q0 -27 -17.5 -46t-48.5 -19q-156 0 -213 -121l-315 -668q-63 -133 -225 -223q-152 -84 -293 -84q-31 0 -48.5 19.5t-17.5 45.5zM49 266 q0 66 66 66q86 0 161.5 61.5t120.5 161.5l250 553q68 150 230 240q141 79 281 79h3q31 0 48.5 -17t17.5 -48q0 -25 -17.5 -44.5t-48.5 -19.5q-104 0 -217 -61q-131 -72 -180 -180l-252 -557q-55 -123 -150 -203q-113 -96 -247 -96q-31 0 -48.5 19.5t-17.5 45.5z" />
<glyph unicode="T" horiz-adv-x="1060" d="M45 1346q0 25 21.5 44t52.5 19h817q31 0 53.5 -18t22.5 -45q0 -25 -22.5 -46.5t-53.5 -21.5h-817q-31 0 -52.5 19.5t-21.5 48.5zM51 1145q0 25 17.5 42t52.5 17h358v-1147q0 -29 -16.5 -48t-38.5 -19q-23 0 -39 18.5t-16 48.5v1026h-250q-68 0 -68 62zM573 59v1145h361 q70 0 70 -55q0 -61 -68 -62h-250v-1028q0 -31 -16.5 -48t-40.5 -17q-20 0 -38 18.5t-18 46.5z" />
<glyph unicode="U" horiz-adv-x="1306" d="M76 522v836q0 29 20.5 47t44.5 18q29 0 47.5 -16t18.5 -49v-836q0 -172 132 -296t308 -124q178 0 316.5 121t138.5 299v836q0 29 19.5 44t43.5 15q29 0 47.5 -14t18.5 -45v-836q0 -231 -180 -387q-171 -149 -401 -149h-3q-229 0 -400 155.5t-171 380.5zM266 522v836 q0 29 20.5 47t43.5 18q66 0 65 -65v-860q0 -100 92 -164q78 -53 160 -53q80 0 164 57q98 68 98 160v860q0 29 18.5 44t45.5 15q29 0 47 -14t18 -45v-836q0 -158 -123 -262q-115 -96 -268 -96q-129 0 -246 94q-135 109 -135 264z" />
<glyph unicode="V" horiz-adv-x="1204" d="M45 1337q-1 6 -1 12q0 23 16 41q22 24 51 23q20 0 37.5 -11t23.5 -38l248 -1096q14 -63 70.5 -101t119.5 -38q70 0 130.5 36t68.5 87l221 1106q12 51 62 51q27 1 48 -21q16 -17 16 -41q0 -7 -1 -14l-221 -1106q-25 -117 -129 -178q-86 -51 -195 -51q-102 0 -188 57 q-98 66 -127 185zM254 1337q-1 6 -1 12q1 23 17 41q22 24 49 23q23 0 38.5 -11t21.5 -38l239 -1016l209 1014q10 51 62 51q25 1 48 -23q18 -19 18 -40q0 -5 -1 -11l-209 -1020q-10 -47 -50 -86.5t-74 -39.5q-49 0 -86 36.5t-48 83.5z" />
<glyph unicode="W" horiz-adv-x="1738" d="M72 436v907q0 31 16 45.5t41 14.5q23 0 38 -15.5t15 -44.5v-872q0 -139 106.5 -243.5t248.5 -104.5q139 0 245 92q35 31 78 92q47 -61 84 -92q113 -94 240 -94q139 0 246.5 93t107.5 216v916q0 31 17.5 46t41.5 15q61 0 62 -64v-907q0 -166 -149.5 -303t-327.5 -137 q-123 0 -234 63q-37 20 -88 66q-25 -25 -45 -39q-125 -90 -280 -90q-178 0 -320.5 132t-142.5 308zM250 477v869q0 29 18.5 43t42.5 14q29 0 48.5 -14.5t19.5 -42.5v-869q0 -66 47 -110.5t115 -44.5q59 0 111.5 52t52.5 103v869q0 31 18 47t45 16q66 0 66 -63v-869 q0 -113 -85 -200t-208 -87q-121 0 -206 83t-85 204zM891 477v869q0 63 65 63q25 0 44.5 -17.5t19.5 -45.5v-869q0 -66 47 -110.5t115 -44.5q61 0 113.5 52t52.5 103v869q0 29 19 46t44 17q27 0 46.5 -17.5t19.5 -45.5v-869q0 -113 -87 -200t-208 -87t-206 83t-85 204z" />
<glyph unicode="X" horiz-adv-x="1564" d="M76 47q0 25 17.5 46.5t47.5 21.5q182 0 361 172q188 182 188 395q0 231 -175 416.5t-368 185.5q-23 0 -38 12q-27 20 -27 56q0 25 17.5 44t47.5 19q203 0 384.5 -147.5t252.5 -368.5q80 221 268.5 373.5t366.5 152.5h2q62 0 62 -65q0 -27 -15.5 -45.5t-48.5 -18.5 q-164 0 -348 -188q-199 -203 -199 -426q0 -211 189 -391q178 -170 356 -170q31 0 47.5 -20.5t16.5 -47.5t-15.5 -46t-48.5 -19q-193 0 -376 138t-261 349q-74 -209 -261 -351t-378 -142q-31 0 -48 19t-17 46zM76 238q0 25 17.5 46t47.5 21q106 0 215 107q123 121 123 270 q0 158 -109.5 273.5t-228.5 115.5q-23 0 -39 12q-26 19 -26 53q0 30 17.5 49t47.5 19q180 0 324.5 -152.5t144.5 -369.5q0 -211 -164 -369q-147 -141 -305 -141q-31 0 -48 19.5t-17 46.5zM952 688q0 215 142.5 367.5t324.5 152.5q31 0 47.5 -18.5t16.5 -44.5 q0 -27 -16.5 -47.5t-47.5 -20.5q-123 0 -227 -110q-113 -119 -113 -279q0 -147 125 -268q113 -109 215 -109q31 0 47.5 -20t16.5 -47t-15.5 -46.5t-48.5 -19.5q-160 0 -307 146q-160 158 -160 364z" />
<glyph unicode="Y" horiz-adv-x="1263" d="M61 1100v246q0 33 17.5 48t44.5 15t43 -14.5t16 -48.5v-267q0 -156 105 -272q72 -80 194 -139q86 -41 105 -41v-559q0 -33 -16.5 -51.5t-41.5 -18.5t-42 17.5t-17 52.5v473q-20 0 -104 51q-121 74 -197 178q-106 145 -107 330zM260 1038v308q0 31 18.5 47t45.5 16 t45 -16.5t18 -46.5v-308q0 -63 96 -143q88 -74 138 -74q53 0 141 72q98 80 98 145v318q0 31 18.5 42t47.5 11q31 0 48 -10t17 -43v-318q0 -123 -143 -241q-129 -106 -227 -107q-90 0 -213 94q-147 113 -148 254zM662 68v557q20 0 102 39q123 59 192 137q102 117 103 274v281 q0 29 18.5 41t42.5 12q29 0 47.5 -11.5t18.5 -41.5v-260q0 -186 -105 -330q-74 -100 -198 -176q-88 -53 -107 -53v-469q0 -35 -17.5 -52.5t-41.5 -17.5q-55 0 -55 70z" />
<glyph unicode="Z" horiz-adv-x="1093" d="M51 311q0 74 43 142q20 33 78 92l510 547h-471q-27 0 -46.5 19t-19.5 44q0 27 18.5 47.5t47.5 20.5h500q53 0 92 -32t39 -83q0 -43 -72 -117q-39 -41 -78 -80l-422 -456q-51 -57 -61 -70q-29 -39 -29 -74q0 -80 47 -133t119 -53h541q63 0 63 -66q0 -29 -15 -47t-48 -18 h-541q-125 0 -210 95t-85 222zM145 1352q0 27 17.5 45t48.5 18h539q123 0 210 -95t87 -216q0 -66 -32 -121t-91 -119l-516 -542h479q27 0 45 -20.5t18 -47.5q0 -29 -15 -47.5t-48 -18.5h-500q-51 0 -91 32t-40 83q0 57 67.5 121.5t79.5 77.5l422 454q47 51 62 72 q29 41 28 76q0 76 -48 128t-117 52h-539q-29 0 -47.5 20.5t-18.5 47.5z" />
<glyph unicode="[" horiz-adv-x="530" d="M47 -199v1719h361q27 0 47 -18.5t20 -43.5q0 -23 -20.5 -41t-46.5 -18h-248v-1475h248q27 0 47 -18t20 -43t-20.5 -43.5t-46.5 -18.5h-361zM227 -8v1331h181q27 0 47 -18.5t20 -42.5q0 -23 -20.5 -41.5t-46.5 -18.5h-68v-1087h68q27 0 47 -18.5t20 -43.5q0 -23 -21.5 -42 t-45.5 -19h-181z" />
<glyph unicode="\" horiz-adv-x="993" d="M25 1376q0 27 22.5 47.5t46.5 20.5q33 0 53 -35l787 -1370q10 -21 10 -33q0 -29 -21.5 -48t-48.5 -19q-33 0 -53 34l-786 1370q-10 16 -10 33z" />
<glyph unicode="]" horiz-adv-x="530" d="M55 53q0 23 19.5 42.5t48.5 19.5h67v1087h-67q-27 0 -47.5 18.5t-20.5 41.5q0 25 20.5 43t47.5 18h180v-1331h-180q-27 0 -47.5 18.5t-20.5 42.5zM55 -137q0 23 19.5 42t48.5 19h248v1475h-248q-27 0 -47.5 18.5t-20.5 40.5q0 25 20.5 43.5t47.5 18.5h360v-1719h-360 q-27 0 -47.5 18.5t-20.5 43.5z" />
<glyph unicode="^" d="M190 373q0 35 33 53l254 147l271 -147q28 -14 28 -51q0 -25 -15.5 -44.5t-41.5 -19.5q-14 0 -29 8l-213 113l-211 -113q-14 -8 -26 -6q-20 0 -35 18.5t-15 41.5zM190 631q0 33 33 51l254 147l271 -147q28 -16 28 -47q0 -27 -15.5 -48.5t-39.5 -21.5q-16 0 -31 8l-213 115 l-211 -115q-10 -6 -26 -6q-23 0 -36.5 17.5t-13.5 46.5z" />
<glyph unicode="_" horiz-adv-x="786" d="M-68 -246q0 49 66 49h790q64 0 64 -49t-64 -49h-790q-66 0 -66 49z" />
<glyph unicode="`" horiz-adv-x="550" d="M70 1491q0 23 20.5 45.5t44.5 22.5q16 0 33 -11l201 -106q30 -16 30 -49q0 -25 -15 -46.5t-40 -21.5q-16 0 -31 8l-213 115q-31 16 -30 43z" />
<glyph unicode="a" horiz-adv-x="1013" d="M25 471q0 193 138 327t333 134t327.5 -133t132.5 -330v-434q0 -39 -53 -39t-53 39v432q0 147 -104.5 249.5t-251.5 102.5t-255 -103.5t-108 -248.5q0 -154 105.5 -263.5t255.5 -109.5q82 0 182 60q33 18 86 61v-176q0 -16 -15.5 -29.5t-33.5 -13.5q-49 0 -49 39 q-35 -12 -56 -17q-72 -18 -114 -18q-190 0 -328.5 140.5t-138.5 330.5zM217 457q0 115 80 196.5t195 81.5t193.5 -80.5t78.5 -197.5q0 -115 -80 -195t-192 -80q-115 0 -195 80t-80 195zM328 457q0 -68 48 -116t116 -48q66 0 114.5 49t48.5 115q0 68 -48 116t-115 48 q-66 0 -115 -47.5t-49 -116.5z" />
<glyph unicode="b" horiz-adv-x="1040" d="M51 467v903q0 25 15.5 38t37.5 13q53 0 54 -51v-901q0 -145 107.5 -246.5t254.5 -101.5t252 100.5t105 247.5q0 154 -102.5 264.5t-252.5 110.5q-94 0 -196 -60q-35 -18 -86 -61v647q0 27 14 40t37 13t37 -12t14 -41v-471q31 14 51 21q63 20 129 20q190 0 325.5 -139 t135.5 -334q0 -190 -136 -324.5t-329 -134.5q-195 0 -331 132t-136 327zM242 471q0 117 80.5 200t193.5 83q117 0 198 -83t81 -200q0 -113 -82 -194.5t-197 -81.5t-194.5 79.5t-79.5 196.5zM354 471q0 -68 47.5 -115t114.5 -47q68 0 117 47t49 115q0 72 -48 120t-118 48 t-116 -48t-46 -120z" />
<glyph unicode="c" horiz-adv-x="743" d="M29 467q0 190 129 329.5t307 139.5h180q55 0 55 -57q0 -23 -15 -40.5t-40 -17.5h-180q-123 0 -223.5 -106.5t-100.5 -247.5q0 -139 100.5 -250t223.5 -111h180q25 0 40 -17t15 -40t-15 -40t-40 -17h-180q-176 0 -306 142t-130 333zM225 463q0 115 73 196.5t185 81.5h162 q27 0 41 -16t14 -41q0 -23 -15 -40t-40 -17h-162q-59 0 -102 -47.5t-43 -116.5q0 -68 43 -118t102 -50h162q55 0 55 -55q0 -57 -55 -58h-162q-109 0 -183.5 85t-74.5 196z" />
<glyph unicode="d" horiz-adv-x="1021" d="M43 463q0 195 135 334t328 139q66 0 127 -18q20 -6 51 -21v463q0 59 53 59q51 0 51 -59v-639q-51 41 -86 59q-104 59 -196 60q-147 0 -251.5 -111t-104.5 -262q0 -145 106 -247.5t252 -102.5q147 0 254.5 101t107.5 249v893q0 25 16.5 42t37.5 17q20 0 36.5 -16.5 t16.5 -42.5v-895q0 -195 -135 -328t-332 -133q-190 0 -328.5 136t-138.5 323zM233 467q0 119 80 201t199 82q115 0 194.5 -82t79.5 -201q0 -113 -79.5 -195t-194.5 -82q-117 0 -198 81t-81 196zM346 467q0 -68 47 -115t119 -47q68 0 115 47t47 115q0 72 -46 120t-116 48 q-72 0 -119 -47t-47 -121z" />
<glyph unicode="e" horiz-adv-x="1046" d="M29 467q0 217 134 345t341 128q221 0 356 -152q123 -137 123 -319q0 -53 -55 -53q-23 0 -39.5 14t-16.5 39q0 143 -92 246q-101 114 -273 114h-3q-154 0 -258.5 -95t-104.5 -267q0 -145 109.5 -247.5t259.5 -102.5h408q27 0 44 -17.5t17 -40.5q0 -25 -16.5 -41t-44.5 -16 h-408q-193 0 -337 136t-144 329zM231 485q0 113 83 183.5t196 70.5q141 0 215 -114q53 -84 53 -168q0 -57 -55 -58h-354q23 -41 61.5 -64.5t87.5 -23.5h400q25 0 40 -17t15 -40q0 -25 -13.5 -40t-41.5 -15h-400q-119 0 -203 81.5t-84 204.5zM346 514h311q-14 47 -43 74 q-39 37 -104 37q-141 0 -164 -111z" />
<glyph unicode="f" horiz-adv-x="557" d="M49 47v875q0 188 124 338.5t284 150.5q55 0 55 -55t-55 -56q-106 0 -200.5 -118.5t-94.5 -259.5v-875q0 -55 -56 -55q-25 0 -41 14t-16 41zM227 47v889q0 106 61.5 189t153.5 83q20 0 38 -21.5t18 -43.5q0 -45 -56 -45q-31 0 -61.5 -43t-38.5 -97h107q55 0 55 -55 q0 -59 -55 -59h-109v-797q0 -23 -16.5 -39t-38.5 -16q-23 0 -40.5 15.5t-17.5 39.5z" />
<glyph unicode="g" horiz-adv-x="1005" d="M29 477q0 195 137 328t330 133q197 0 332 -133t135 -330v-549q0 -188 -138 -311q-129 -115 -305 -115q-96 0 -175 30t-79 73q0 51 49 51q37 -20 81 -34.5t118 -14.5q139 0 240.5 93t101.5 228v545q0 152 -107.5 253t-254.5 101t-253 -103.5t-106 -250.5 q0 -152 102.5 -260.5t254.5 -108.5q92 0 196 60q35 18 86 59v-258q0 -109 -72.5 -189.5t-164.5 -80.5q-61 0 -105.5 17.5t-44.5 51.5q0 53 49 54q20 0 45 -13q8 -4 17 -8q86 0 129 49.5t43 161.5v39q-29 -12 -49 -18q-68 -20 -129 -21q-188 0 -325.5 139.5t-137.5 331.5z M223 457q0 117 80 198.5t197 81.5q115 0 195.5 -80.5t80.5 -199.5q0 -115 -80 -197t-196 -82q-115 0 -196 81t-81 198zM336 457q0 -68 47 -117t117 -49q66 0 115 49t49 117q0 70 -48.5 118t-115.5 48q-68 0 -116 -48.5t-48 -117.5z" />
<glyph unicode="h" horiz-adv-x="980" d="M49 47v1311q0 57 57 57q23 0 39.5 -14.5t16.5 -42.5v-1311q0 -55 -56 -55q-57 0 -57 55zM236 723v635q0 31 17 44t44 13q29 0 47 -12t18 -45v-449q27 12 44 17q53 18 81 18q182 0 311.5 -127t129.5 -299v-473q0 -25 -16.5 -41t-41.5 -16q-23 0 -41 16t-18 43v471 q0 121 -96.5 223.5t-227.5 102.5q-68 0 -165 -60q-33 -18 -86 -61zM238 47v438q0 109 77.5 184.5t190.5 75.5q96 0 158.5 -78.5t62.5 -185.5v-436q0 -55 -55 -55q-23 0 -40.5 15t-17.5 40v436q0 59 -31.5 104.5t-82.5 45.5q-59 0 -104.5 -43t-45.5 -103v-438 q0 -25 -17.5 -42t-37.5 -17q-23 0 -40 17.5t-17 41.5z" />
<glyph unicode="i" horiz-adv-x="425" d="M66 55v828q0 29 15 41t42 12q53 0 53 -53v-828q0 -61 -53 -61q-25 0 -41 16.5t-16 44.5zM66 1049q0 86 45 131t110 45q61 0 105.5 -45t44.5 -131q0 -55 -49 -56q-25 0 -43.5 14.5t-18.5 41.5q0 31 -13.5 50t-27.5 19t-28.5 -22.5t-14.5 -46.5q0 -55 -53 -56q-57 0 -57 56 zM264 55v828q0 27 15.5 40t39.5 13q55 0 56 -53v-828q0 -25 -16.5 -43t-39.5 -18t-39 17.5t-16 43.5z" />
<glyph unicode="j" horiz-adv-x="548" d="M14 -242q0 25 15.5 43.5t50.5 18.5q43 0 73.5 64.5t30.5 170.5v828q0 27 16.5 43t41.5 16t40 -15.5t15 -43.5v-828q0 -143 -59 -233q-76 -115 -158 -115q-66 0 -66 51zM25 -424q0 55 55 55q90 0 186 103q119 127 119 315v834q0 29 17.5 44t41.5 15q20 0 36 -16.5 t16 -42.5v-834q0 -233 -144 -389q-127 -139 -272 -139q-55 0 -55 55zM184 1049q0 86 45 131t111 45t110 -44t44 -132q0 -55 -50 -56q-27 0 -45 14.5t-18 41.5q0 33 -12.5 51t-28.5 18q-14 0 -28.5 -23.5t-14.5 -45.5q0 -23 -16.5 -39.5t-38.5 -16.5q-57 0 -58 56z" />
<glyph unicode="k" horiz-adv-x="935" d="M59 55v1297q0 55 58 55q23 0 39 -14.5t16 -40.5v-1297q0 -29 -16.5 -45t-38.5 -16q-25 0 -41.5 16.5t-16.5 44.5zM250 55v342h203q98 0 164.5 -72.5t66.5 -191.5v-78q0 -33 -16.5 -47t-38.5 -14q-25 0 -41.5 13t-16.5 48v86q0 57 -36.5 101.5t-81.5 44.5h-86v-232 q0 -31 -17.5 -46t-42.5 -15t-41 14.5t-16 46.5zM250 494v858q0 33 15.5 44t41.5 11q20 0 31 -4q29 -12 29 -51v-740h82q47 0 84.5 48.5t37.5 101.5v94q0 31 18.5 50.5t41.5 19.5q53 0 53 -70v-117q0 -70 -68 -151q-78 -94 -167 -94h-199zM604 449q51 51 76 83q78 100 78 173 v151q0 37 19.5 54.5t43.5 17.5q25 0 41.5 -17.5t16.5 -54.5v-100q0 -94 -58 -203q-18 -35 -59 -90q41 -51 61 -84q61 -102 62 -191v-133q0 -25 -16.5 -43t-41.5 -18q-23 0 -42 17.5t-19 43.5v146q0 74 -80 168q-27 31 -82 80z" />
<glyph unicode="l" horiz-adv-x="440" d="M72 53v1297q0 27 15 40t38 13q55 0 55 -53v-1297q0 -57 -55 -57q-20 0 -36.5 14.5t-16.5 42.5zM264 53v1297q0 27 15.5 40t39.5 13q55 0 56 -53v-1297q0 -57 -56 -57q-55 0 -55 57z" />
<glyph unicode="m" horiz-adv-x="1533" d="M55 49v473q0 174 133.5 301t315.5 127q100 0 196 -55q31 -18 76 -55q47 37 80 53q98 53 193 53q176 0 301 -120.5t125 -293.5v-477q0 -25 -16.5 -41t-41.5 -16q-23 0 -40 15.5t-17 41.5v486q0 119 -91 199.5t-216 80.5t-215 -76q-29 -25 -66 -75q-33 51 -59 75 q-86 76 -209 76q-139 0 -234.5 -97t-95.5 -224v-451q0 -23 -16.5 -39t-40.5 -16q-23 0 -42.5 17.5t-19.5 37.5zM258 49v445q0 121 72 192q63 63 162 64q94 0 159 -64q74 -72 74 -192v-445q0 -55 -55 -55t-56 55v445q0 68 -35.5 105.5t-86.5 37.5q-49 0 -86 -37t-37 -106 v-445q0 -23 -16.5 -39t-37.5 -16q-25 0 -41 14.5t-16 40.5zM813 49v445q0 123 68.5 189.5t167.5 66.5q94 0 159 -64q74 -72 74 -192v-439q0 -25 -16.5 -41t-38.5 -16q-20 0 -38 15.5t-18 41.5v439q0 68 -35.5 105.5t-86.5 37.5q-49 0 -86 -37t-37 -106v-445q0 -23 -16.5 -39 t-39.5 -16t-40 15.5t-17 39.5z" />
<glyph unicode="n" horiz-adv-x="974" d="M45 53v477q0 188 139 308q126 108 298 108h3q172 0 295 -106q135 -117 135 -310v-477q0 -57 -53 -57q-23 0 -40 15.5t-17 41.5v477q0 150 -98 230q-85 69 -218 69h-4q-135 0 -225 -71q-102 -82 -102 -228v-477q0 -29 -16.5 -43t-39.5 -14t-40 15.5t-17 41.5zM240 53v471 q0 102 72.5 167t164.5 65q90 0 163 -63.5t73 -162.5v-477q0 -25 -16.5 -41t-37.5 -16q-25 0 -41 14.5t-16 42.5v477q0 51 -37 80t-88 29q-53 0 -89 -28.5t-36 -86.5v-471q0 -25 -16.5 -41t-38.5 -16q-23 0 -40 15.5t-17 41.5z" />
<glyph unicode="o" horiz-adv-x="1034" d="M41 463q0 193 136 331t329 138t329 -138t136 -331t-136.5 -331t-328.5 -138q-193 0 -329 138t-136 331zM154 463q0 -147 103 -253t249 -106q145 0 249.5 107t104.5 252t-104.5 251.5t-249.5 106.5t-248.5 -105.5t-103.5 -252.5zM227 463q0 117 82 201t197 84 q117 0 198.5 -84t81.5 -201t-81.5 -201t-198.5 -84q-115 0 -197 84t-82 201zM338 463q0 -70 49 -121t119 -51t119 51t49 121t-49.5 121t-118.5 51q-70 0 -119 -51.5t-49 -120.5z" />
<glyph unicode="p" horiz-adv-x="1048" d="M68 -416v901q0 197 135 330t332 133q193 0 328.5 -134t135.5 -327t-135 -332t-325 -139q-68 0 -129 19q-20 6 -52 20v-471q0 -25 -15 -38t-36 -13q-23 0 -37 11.5t-14 39.5v645q51 -39 84 -57q106 -59 199 -59q150 0 252 108.5t102 261.5q0 147 -104.5 250t-251.5 103 t-256 -102.5t-109 -250.5v-899q0 -51 -51 -51q-53 0 -53 51zM258 481q0 117 80 199t194 82q115 0 197 -82t82 -199q0 -115 -82 -196.5t-197 -81.5q-117 0 -195.5 81t-78.5 197zM369 481q0 -70 47 -117t116 -47q68 0 117 47t49 117q0 68 -49 117t-117 49t-115.5 -48 t-47.5 -118z" />
<glyph unicode="q" horiz-adv-x="1032" d="M33 469q0 193 136 327t329 134q197 0 333 -132t136 -331v-899q0 -23 -16.5 -37t-39.5 -14q-18 0 -34.5 14t-16.5 37v899q0 145 -108.5 247.5t-255.5 102.5q-143 0 -250 -102.5t-107 -247.5q0 -154 102.5 -264.5t254.5 -110.5q92 0 196 62q35 20 86 61v-647q0 -27 -13 -40 t-38 -13q-18 0 -27 4q-27 12 -26 49v471q-29 -14 -49 -21q-63 -20 -129 -20q-190 0 -326.5 140.5t-136.5 330.5zM223 465q0 115 80 196.5t197 81.5q115 0 195.5 -80.5t80.5 -197.5t-80 -199t-196 -82q-117 0 -197 82t-80 199zM336 465q0 -70 48 -118t116 -48t116 48t48 118 t-47.5 117t-116.5 47q-68 0 -116 -48.5t-48 -115.5z" />
<glyph unicode="r" horiz-adv-x="526" d="M51 53v488q0 147 139 276q129 119 236 119q25 0 40 -21.5t15 -48.5q0 -18 -13 -31.5t-42 -13.5q-57 0 -154 -88q-109 -100 -108 -192v-488q0 -27 -15.5 -42t-37.5 -15q-18 0 -33 8q-27 16 -27 49zM250 53v465q0 70 74.5 142.5t115.5 72.5q64 0 64 -57q0 -25 -18.5 -43.5 t-49.5 -18.5q-18 0 -46 -33.5t-28 -62.5v-465q0 -25 -16 -41t-39 -16q-25 0 -41 16.5t-16 40.5z" />
<glyph unicode="s" horiz-adv-x="858" d="M55 254q0 25 13.5 41t42.5 16q98 0 143 95q12 27 82 208q59 164 168.5 253t257.5 89q27 0 40 -15t13 -40q0 -59 -53 -59q-113 0 -189.5 -62.5t-132.5 -201.5q-76 -201 -86 -222q-78 -159 -241 -159h-2q-55 0 -56 57zM61 55q0 23 13.5 40.5t42.5 17.5q113 0 188.5 61.5 t128.5 200.5q74 195 86 221q80 162 244 162q57 -1 57 -56q0 -27 -14 -43t-43 -16q-98 0 -141 -94q-14 -29 -82 -211q-57 -162 -167 -251t-257 -89q-55 0 -56 57z" />
<glyph unicode="t" horiz-adv-x="555" d="M39 397v701q0 27 16.5 41t40.5 14q29 0 45 -23q10 -14 11 -32v-701q0 -119 94 -208t203 -89q27 0 41 -16t14 -41q0 -57 -55 -57q-158 0 -284 120.5t-126 290.5zM227 403v695q0 27 16.5 41t41.5 14q55 0 55 -55v-162h102q55 0 56 -57q0 -57 -56 -58h-102v-418 q0 -39 37 -79.5t65 -40.5q56 -1 56 -56q0 -23 -16.5 -39t-39.5 -16q-82 0 -148.5 68.5t-66.5 162.5z" />
<glyph unicode="u" horiz-adv-x="960" d="M47 416v475q0 29 16.5 43t40.5 14q23 0 39.5 -14t16.5 -43v-475q0 -143 98 -226q87 -73 217 -73h4q135 0 226 71q104 82 104 228v475q0 57 55 57t56 -57v-475q0 -190 -140 -310q-126 -108 -298 -108h-3q-188 0 -310 120t-122 298zM252 416v475q0 57 57 57q23 0 39.5 -14 t16.5 -43v-475q0 -51 35.5 -80t88.5 -29t89 27.5t36 85.5v471q0 57 56 57q55 0 55 -57v-471q0 -106 -70.5 -168t-167.5 -62q-92 0 -159 60q-76 66 -76 166z" />
<glyph unicode="v" horiz-adv-x="989" d="M35 856q-1 6 -1 11q0 19 16 37q20 22 42 22q41 0 51 -43l179 -680q12 -49 57 -66.5t115 -17.5q72 0 110 18q51 25 68 86l166 660q10 43 51 43q23 0 43 -22q15 -17 15 -37q0 -6 -1 -11l-174 -684q-18 -72 -102 -122t-176 -50q-94 0 -177.5 47t-103.5 125zM240 858 q-1 5 -1 11q0 19 15 35q20 22 41 22q43 0 53 -45l105 -459q4 -23 24 -76q2 -8 10 -27q8 20 13 33q16 45 20 58l113 467q6 23 20.5 34t30.5 11q25 0 44 -22q14 -16 14 -35q0 -6 -1 -13l-116 -479q-18 -76 -43 -111q-35 -51 -95 -51q-55 0 -92 53q-29 43 -45 115z" />
<glyph unicode="w" horiz-adv-x="1533" d="M53 422v477q0 23 18.5 39t41.5 16t41 -16t18 -39v-450q0 -131 93 -228.5t235 -97.5q121 0 207 76q27 25 61 75q35 -51 63 -75q90 -76 218 -76q123 0 215 82t92 201v493q0 27 18.5 41t38.5 14q57 0 57 -55v-485q0 -168 -124.5 -291t-298.5 -123q-94 0 -195 53 q-33 16 -80 53q-45 -37 -76 -55q-96 -55 -196 -55q-180 0 -313.5 127t-133.5 299zM254 453v446q0 55 57 55q23 0 39.5 -14t16.5 -41v-446q0 -68 34.5 -105t85.5 -37t87 36t36 106v438q0 63 56 63q25 0 40 -17t15 -46v-438q0 -121 -68.5 -187.5t-165.5 -66.5q-98 0 -161 61 q-72 70 -72 193zM811 453v446q0 55 55 55t56 -55v-446q0 -68 36.5 -105t88.5 -37q47 0 83.5 38t36.5 104v438q0 29 16.5 46t41.5 17q23 0 39 -17t16 -46v-438q0 -121 -70.5 -187.5t-165.5 -66.5q-96 0 -159 61q-74 70 -74 193z" />
<glyph unicode="x" horiz-adv-x="1038" d="M70 51q0 23 13 40.5t40 17.5q150 0 233 112q76 100 76 250t-74 248q-83 112 -232 112h-3q-25 0 -39 16.5t-14 41.5q0 57 53 57q154 0 262 -92q98 -82 139 -221q39 135 140 221q109 92 258 92q27 0 42 -15.5t15 -41.5q0 -23 -15.5 -40.5t-41.5 -17.5q-147 0 -232 -110 q-76 -100 -76 -250q0 -152 74 -250q83 -112 231 -112h3q27 0 42 -17.5t15 -40.5t-15.5 -40t-41.5 -17q-145 0 -256 94q-102 86 -142 223q-41 -139 -139 -223q-109 -94 -262 -94q-25 0 -39 16.5t-14 40.5zM70 252q0 53 53 53q61 0 94 48t33 114q0 68 -29 108q-35 49 -98 50 q-25 0 -39 16t-14 41q0 57 53 57q109 0 176.5 -83t67.5 -189q0 -104 -66 -186q-72 -90 -178 -91q-25 0 -39 18.5t-14 43.5zM676 473q0 106 61 184q70 86 181 86q20 0 37.5 -19t17.5 -44q0 -20 -13.5 -35.5t-41.5 -15.5q-61 0 -92 -44t-31 -110q0 -68 30.5 -116t92.5 -48 q27 0 41 -18.5t14 -38.5q0 -57 -55 -57q-109 0 -175.5 84t-66.5 192z" />
<glyph unicode="y" horiz-adv-x="999" d="M61 418v461q0 33 15.5 45t42.5 12t42 -12.5t15 -44.5v-461q0 -121 96.5 -223.5t229.5 -102.5q68 0 164 58q31 18 82 57v-178q0 -106 -84 -208t-152 -102q-49 0 -49 43q0 29 81 84.5t93 184.5q-31 -12 -49 -19q-55 -18 -86 -18q-182 0 -311.5 127t-129.5 297zM260 408v471 q0 57 55 57q53 0 54 -57v-471q0 -53 38.5 -80t94.5 -27q47 0 77.5 21.5t30.5 68.5v488q0 57 56 57q55 0 55 -57v-488q0 -92 -67.5 -149.5t-155.5 -57.5q-92 0 -165 61.5t-73 162.5zM465 -424q0 55 53 55q84 0 184 101q109 109 109 221l-2 926q0 25 16.5 41t38.5 16 q27 0 41.5 -12.5t14.5 -44.5v-926q0 -147 -128 -289.5t-274 -142.5q-53 0 -53 55z" />
<glyph unicode="z" horiz-adv-x="997" d="M43 0l360 625h-227q-37 0 -54.5 15t-17.5 36q0 25 15.5 40t56.5 15h428l-360 -612h571q27 0 40 -17.5t13 -42.5q0 -59 -53 -59h-772zM104 874q0 29 16.5 45.5t55.5 16.5h774l-360 -625h225q23 0 38 -17.5t15 -37.5q0 -23 -12 -37t-41 -14h-426l361 612h-574 q-39 0 -55.5 16.5t-16.5 40.5z" />
<glyph unicode="{" horiz-adv-x="610" d="M23 655q35 90 63 193q39 141 39 225q0 164 119 311q129 160 293 160q14 0 32.5 -22.5t18.5 -40.5t-18.5 -40t-30.5 -22q-115 0 -206 -111.5t-91 -234.5q0 -88 -37 -223q-25 -90 -66 -195q31 -100 64 -198q39 -137 39 -232q0 -100 95 -197.5t187 -97.5q16 0 38 -23.5 t22 -41.5q0 -23 -17.5 -36t-40.5 -13q-123 0 -256 125q-145 137 -145 290q0 94 -35 222q-18 68 -67 202zM203 655q39 100 65 201q37 135 37 213q0 117 82 197q72 70 150 69q55 0 55 -49q0 -33 -85 -82t-85 -149q0 -76 -34 -203t-64 -197q35 -74 61 -155q37 -113 37 -181 q0 -127 83 -178t83 -71q0 -57 -51 -58q-72 0 -146 84q-86 96 -86 219q0 61 -37 170q-25 74 -65 170z" />
<glyph unicode="|" horiz-adv-x="530" d="M186 -137v1579q0 31 19.5 46t46.5 15t46 -15t19 -46v-1579q0 -63 -65 -64q-25 0 -45.5 16.5t-20.5 47.5z" />
<glyph unicode="}" horiz-adv-x="610" d="M16 1286q0 49 56 49q76 0 147 -69q84 -82 84 -197q0 -76 37 -211q29 -109 66 -203q-41 -96 -66 -170q-37 -109 -37 -170q0 -125 -84 -219q-74 -84 -147 -84q-51 0 -52 58q0 20 83 71.5t83 177.5q0 66 37 179q29 88 62 157q-33 78 -62 179q-37 133 -37 221q0 100 -85 149 t-85 82zM20 1481q0 18 17.5 40.5t34.5 22.5q164 0 290 -158q121 -150 121 -313q0 -88 37 -223q25 -91 66 -195q-41 -111 -66 -202q-37 -135 -37 -222q0 -156 -143 -290q-133 -125 -258 -125q-23 0 -40 13t-17 36q0 18 21.5 41.5t37.5 23.5q90 0 186.5 96.5t96.5 198.5 q0 92 39 230q47 150 63 200q-35 88 -63 195q-39 141 -39 223q0 127 -90.5 236.5t-206.5 109.5q-10 0 -30 22.5t-20 39.5z" />
<glyph unicode="~" d="M90 371q0 35 35 55l254 139l242 -125l184 107q14 8 29 8q25 0 43 -16t18 -39q0 -33 -31 -49l-246 -136l-239 117l-211 -113q-10 -6 -27 -6q-23 0 -37 16.5t-14 41.5zM90 629q0 35 35 53l254 139l242 -125l184 107q14 8 31 8q18 0 32 -10q27 -18 27 -47q0 -31 -31 -47 l-246 -138l-239 119l-211 -115l-25 -6q-25 0 -39 18.5t-14 43.5z" />
<glyph unicode="&#xa1;" horiz-adv-x="432" d="M55 59v1008q0 70 66 70q25 0 44 -19.5t19 -50.5v-1008q0 -29 -19.5 -46t-43.5 -17q-66 0 -66 63zM55 1245q0 59 54.5 107.5t115.5 48.5t108.5 -41t55.5 -119q-35 -55 -98 -55q-41 0 -41 28q0 12 10 25q4 4 4 12q0 14 -39 15q-16 0 -30.5 -4.5t-14.5 -10.5l4 -6 q-4 -29 -25.5 -46t-45.5 -17q-18 0 -31 8q-27 18 -27 55zM260 59v1008q0 33 18.5 51.5t45.5 18.5q29 0 47 -17.5t18 -52.5v-1008q0 -63 -65 -63q-27 0 -45.5 16.5t-18.5 46.5z" />
<glyph unicode="&#xa2;" horiz-adv-x="1034" d="M72 674q0 176 112.5 309t282.5 154v67q0 25 16.5 41.5t40.5 16.5q55 0 56 -58v-69q154 -23 263 -137.5t109 -264.5q0 -55 -55 -55t-55 55q0 111 -99.5 202t-224.5 91q-141 0 -239.5 -102.5t-98.5 -249.5q0 -141 100.5 -241.5t243.5 -100.5h367q23 0 40 -17.5t17 -42.5 q0 -20 -17.5 -35.5t-39.5 -15.5h-313v-59q0 -57 -56 -58q-20 0 -37.5 15.5t-17.5 42.5v59q-168 23 -281.5 151t-113.5 302zM270 668q0 104 71 179t173 75q88 0 156.5 -54.5t77.5 -138.5q-20 -18 -47 -29.5t-50 -11.5q-31 0 -30 17q4 6 4 8q6 10 12 16q0 18 -40 49t-83 31 q-55 0 -94 -41t-39 -100q0 -55 39 -96.5t94 -41.5h377q25 0 41 -16t16 -41q0 -23 -16.5 -39t-40.5 -16h-377q-100 0 -172 73.5t-72 176.5z" />
<glyph unicode="&#xa3;" d="M76 66q0 66 65 65h715q62 1 62 -65q0 -27 -15.5 -46.5t-46.5 -19.5h-715q-31 0 -48 19.5t-17 46.5zM76 682q0 31 16.5 49.5t57.5 18.5q-8 45 -13 75q-14 106 -14 201q0 168 124 283.5t296 115.5q139 0 264 -129q117 -120 117 -233q0 -25 -26 -44.5t-52 -19.5 q-25 0 -38 14.5t-13 49.5q0 59 -80 141q-90 92 -176 92q-117 0 -201 -79.5t-84 -190.5q0 -96 45 -373q23 -137 23 -245q0 -92 -29 -146q-43 -80 -146 -80q-31 0 -48 19.5t-17 46.5q0 25 17.5 46t47.5 21q31 0 38.5 18.5t7.5 74.5q0 51 -5.5 97t-15.5 111h-31q-31 0 -48 19.5 t-17 46.5zM336 1008q0 80 59.5 143t141.5 63q76 0 137 -63q53 -55 53 -98q0 -25 -18.5 -45.5t-44.5 -20.5q-29 0 -52 33q-53 78 -80 78q-31 0 -54 -25.5t-23 -54.5q0 -63 12 -178q4 -37 12 -103h117q23 0 39 -18.5t16 -40.5q0 -23 -14 -39t-41 -16h-100l10 -318h350 q27 0 38 -16t11 -41q0 -27 -10 -42.5t-39 -15.5h-516q18 41 27 66q29 82 28 135q0 113 -39 379q-20 141 -20 238z" />
<glyph unicode="&#xa4;" d="M125 295q0 20 18 39l70 69q-66 90 -66 205q0 106 66 197l-70 65q-18 18 -18 41t18.5 41.5t44.5 18.5q16 0 35 -19l72 -69q88 63 192 63q109 0 203 -65l72 71q18 18 43 19q18 0 35.5 -19.5t17.5 -42.5t-16 -39l-74 -71q63 -88 63 -199q0 -109 -63 -192l74 -74 q16 -17 16 -35q0 -25 -17.5 -44t-39.5 -19q-20 0 -39 18l-72 70q-86 -61 -194 -62q-55 0 -105.5 14.5t-95.5 47.5l-72 -70q-16 -16 -33 -16q-25 0 -45 16t-20 41zM244 604q0 -102 71.5 -174t173.5 -72t174 72t72 174q0 98 -71.5 172t-174.5 74q-102 0 -173.5 -71.5 t-71.5 -174.5zM332 604q0 66 46 112t111 46q63 0 110.5 -47.5t47.5 -110.5q0 -68 -45 -113t-113 -45q-66 0 -111.5 46.5t-45.5 111.5zM424 604q0 -29 18.5 -47t46.5 -18q25 0 45.5 18t20.5 47q0 27 -18.5 45.5t-47.5 18.5q-25 0 -45 -18.5t-20 -45.5z" />
<glyph unicode="&#xa5;" horiz-adv-x="1263" d="M12 1358q0 55 47 55q41 0 66 -41l430 -743q10 -20 16.5 -34.5t6.5 -29.5v-504q0 -27 -18.5 -41t-41.5 -14q-57 0 -57 53v134h-105q-27 0 -41 16t-14 41q0 27 13.5 43t41.5 16h105v74h-107q-27 0 -40 15.5t-13 41.5q0 27 13.5 43.5t41.5 16.5h105v59l-438 756 q-10 18 -11 43zM242 1358q0 20 13 37.5t34 17.5q39 0 63 -41l262 -450l265 450q25 41 69 41q43 0 43 -57q0 -25 -10 -41l-307 -524q-25 -39 -58 -39q-20 0 -32 10q-8 8 -27 31l-303 518q-12 23 -12 47zM653 61v504q0 12 7.5 29.5t15.5 34.5l430 743q25 41 70 41q43 0 43 -55 q0 -25 -11 -43l-438 -756v-59h94q27 0 41.5 -18.5t14.5 -41.5q0 -57 -56 -57h-94v-74h94q27 0 41.5 -18.5t14.5 -40.5q0 -57 -54 -57h-96v-132q0 -27 -16.5 -41t-40.5 -14q-27 0 -43.5 13.5t-16.5 41.5z" />
<glyph unicode="&#xa6;" horiz-adv-x="530" d="M186 -137v614q0 31 20.5 47.5t45.5 16.5q29 0 47 -15.5t18 -48.5v-614q0 -63 -65 -64q-25 0 -45.5 16.5t-20.5 47.5zM186 825v617q0 31 19.5 46t46.5 15t46 -15t19 -46v-617q0 -63 -65 -63q-25 0 -45.5 16.5t-20.5 46.5z" />
<glyph unicode="&#xa7;" horiz-adv-x="1112" d="M59 764q0 63 18.5 113.5t57.5 103.5q12 18 29 23q8 2 35 2q53 0 53 -54q0 -10 -31 -69.5t-31 -145.5q0 -102 68 -180l356 -399q47 -51 76 -116.5t29 -133.5q0 -66 -27.5 -119t-68.5 -53q-72 0 -72 49q0 12 19.5 47t19.5 82q0 96 -82 188l-354 396q-49 55 -72 122.5 t-23 143.5zM203 1241q0 92 40 174t91 82q68 0 67 -49q-27 -51 -48 -101.5t-21 -117.5q0 -100 69 -180l357 -400q45 -49 75.5 -114.5t30.5 -128.5q0 -53 -19.5 -102.5t-56.5 -72.5l58 -65q41 -45 61.5 -106.5t20.5 -127.5q0 -106 -39 -191t-88 -85q-27 0 -49.5 11t-22.5 38 q25 37 45.5 91t20.5 136q0 53 -13.5 94.5t-46.5 79.5l-418 486q-57 66 -57 164q6 59 29.5 107t64.5 61l-57 65q-47 55 -70.5 121t-23.5 131zM387 731q0 -37 39 -82l287 -330q20 38 20 93q0 90 -82 182l-223 250q-41 -57 -41 -113zM403 1251q0 47 32 105.5t77 58.5 q29 0 49.5 -16.5t20.5 -42.5q0 -6 -27 -43t-27 -90q0 -18 11.5 -40t29.5 -42l420 -484q39 -45 59.5 -108.5t20.5 -124.5q0 -106 -39 -191.5t-84 -85.5q-27 0 -50.5 14.5t-23.5 39.5q27 41 47.5 92t20.5 106q0 63 -13.5 110.5t-47.5 88.5l-418 485q-29 33 -43.5 77t-14.5 91z " />
<glyph unicode="&#xa8;" horiz-adv-x="786" d="M154 1473q0 29 18 49t49 20q29 0 49.5 -20t20.5 -49t-20.5 -49.5t-49.5 -20.5q-27 0 -47 20.5t-20 49.5zM475 1473q0 29 20.5 49t49.5 20t49 -20t20 -49t-20.5 -49.5t-48.5 -20.5q-29 0 -49.5 20.5t-20.5 49.5z" />
<glyph unicode="&#xa9;" horiz-adv-x="1171" d="M31 707q0 229 161.5 391t391.5 162q229 0 391 -162t162 -391t-162 -391t-391 -162t-391 161.5t-162 391.5zM113 707q0 -197 137 -334t334 -137t334 137t137 334t-137.5 334t-333.5 137q-197 0 -334 -137.5t-137 -333.5zM203 698q0 182 116 293q102 98 236 99h184 q14 0 26.5 -10.5t12.5 -26.5q0 -12 -11 -23.5t-28 -11.5h-184q-106 0 -186 -76q-94 -90 -95 -244q0 -121 94.5 -219t186.5 -98h184q37 0 37 -37q0 -12 -11 -23.5t-26 -11.5h-184q-125 0 -236 115q-117 121 -116 274zM319 696q0 115 80 199t187 84h153q14 0 24.5 -10.5 t10.5 -24.5q0 -12 -10 -24.5t-25 -12.5h-153q-76 0 -136.5 -62.5t-60.5 -148.5q0 -80 57.5 -139t139.5 -59h153q14 0 26.5 -10.5t12.5 -26.5q0 -12 -11 -23.5t-28 -11.5h-153q-113 0 -190 79t-77 191z" />
<glyph unicode="&#xaa;" horiz-adv-x="608" d="M14 803q0 31 37 31h484q38 0 38 -31q0 -33 -38 -33h-484q-37 0 -37 33zM25 1184q0 117 81.5 196.5t198.5 79.5t197 -80t80 -198v-250q0 -33 -33 -33t-33 31v252q0 88 -63.5 149.5t-149.5 61.5q-88 0 -151.5 -61.5t-63.5 -149.5q0 -92 61.5 -158t151.5 -66q51 0 111 35 q20 10 51 37v-98q0 -16 -8 -25q-8 -8 -21 -8q-31 0 -31 23q-20 -8 -32 -11q-39 -10 -70 -10q-113 0 -194.5 84t-81.5 199zM137 1176q0 70 48 117.5t116 47.5q70 0 117 -46.5t47 -118.5q0 -70 -48 -118t-116 -48t-116 48t-48 118zM203 1176q0 -41 28.5 -70t69.5 -29t69.5 29 t28.5 70t-28.5 69.5t-69.5 28.5q-37 0 -67.5 -28.5t-30.5 -69.5z" />
<glyph unicode="&#xab;" horiz-adv-x="1273" d="M72 426l622 358q14 8 29 9q25 0 41 -18.5t16 -41.5q0 -31 -28 -47l-451 -260l451 -260q30 -18 30 -45t-16 -45.5t-41 -18.5q-12 0 -29 11zM504 426l622 358q14 8 29 9q25 0 41 -18.5t16 -41.5q0 -31 -28 -47l-451 -260l451 -260q30 -18 30 -45t-16 -45.5t-41 -18.5 q-12 0 -29 11z" />
<glyph unicode="&#xac;" horiz-adv-x="2457" d="M80 -170v1567h2300v-1567h-2300zM127 -88v-35h317v35h-34q-39 0 -52 4q-33 12 -32 80l2 328q35 0 71.5 -1t73.5 -1l10 51l-4 4h-151v74v51q0 66 17 102.5t73 36.5q35 0 59 -18l23 -111h59q55 164 117 319q45 117 133 318q18 -53 119 -315q76 -201 110 -322h62 q31 125 110 406q94 328 123 370q15 8 60 8v37h-244v-37q29 0 65.5 -5t36.5 -21q0 -51 -77 -316l-82 -266l-238 651h-29l-250 -645q-33 137 -65.5 282.5t-56.5 268.5q-8 12 -7 21q0 20 31 25t45 5h25v37h-293v-37q53 0 66.5 -13t25.5 -73q20 -88 45 -180q57 -215 66 -305 q-47 0 -120 -66.5t-95 -117.5q-8 -20 -11.5 -43t-3.5 -62v-61l-82 -41v-21l82 9l2 -314q0 -66 -17 -81t-85 -15zM440 150q0 -121 70 -203t188 -82q131 0 215 84t84 215q0 115 -73.5 186.5t-190.5 71.5q-125 0 -209 -74t-84 -198zM553 188q0 80 39 139.5t115 59.5 q98 0 145 -92q37 -71 37 -180q0 -84 -33 -142q-41 -70 -121 -69q-94 0 -143 100q-39 78 -39 184zM973 -88v-35h295l-2 35q-61 0 -81 17.5t-20 64.5q0 12 2 48t2 60v58q0 94 21 131q33 57 129 57q78 0 108 -47q25 -39 25 -127v-111v-24q0 -90 -8 -162h198v35q-59 0 -75.5 10 t-16.5 47q2 41 2 68v188q0 197 -190 197q-51 0 -102.5 -31t-88.5 -78q2 37 3 56q0 33 -11 53q-47 -20 -94 -32.5t-96 -12.5v-35q23 2 35 2q27 0 44 -7t17 -28v-352q0 -23 -10 -35t-43 -12q-29 2 -43 2zM1311 1090q0 -178 236.5 -201t236.5 -154q0 -86 -65.5 -131t-155.5 -45 q-53 0 -107 16q-72 23 -86 60l-2 98h-39v-67v-29q0 -41 -6 -82q104 -43 217 -43q55 0 105 12q10 -82 10 -147q-39 -23 -92 -39v-25h92v-321q0 -127 131 -127q16 0 36.5 4t37.5 8l55 70l-17 22q-27 -31 -65 -30q-39 0 -60.5 28.5t-21.5 108.5v26v222q16 0 52 2t52 2 q31 0 60 -6l12 55h-176q0 49 2 99t8 95q57 47 86 91q37 55 37 118q0 180 -235.5 200.5t-235.5 152.5q0 78 55.5 120.5t137.5 42.5q39 0 90 -15t78 -38q10 -23 10 -69v-41h37q0 61 3 87.5t15 75.5q-109 43 -227 43q-127 0 -209 -59q-92 -68 -92 -190zM1858 522h327v37h-33 q-43 0 -59 10.5t-16 55.5v512q0 20 -1 40.5t-1 39.5q0 49 19.5 64t90.5 15v37h-327v-37q76 0 92 -14t16 -76v-49v-528q0 -45 -19.5 -57.5t-60.5 -12.5h-28v-37zM1927 254q0 -109 159 -139.5t159 -104.5q0 -51 -37 -78.5t-90 -27.5q-86 0 -117 30.5t-31 114.5h-33 q0 -23 -4 -77t-4 -60q0 -20 46 -33.5t122 -13.5q96 0 162 45q78 53 78 145q0 102 -160 135t-160 103q0 43 32 68.5t77 25.5q33 0 63.5 -15.5t55.5 -43.5q6 -29 8 -35q2 -12 2 -37l33 -2q0 35 6 77t8 64q-86 27 -164 27q-90 0 -145 -37q-66 -45 -66 -131z" />
<glyph unicode="&#xad;" d="M80 426q0 55 55 55h717q57 0 57 -55q0 -23 -15 -40t-42 -17h-717q-27 0 -41 16t-14 41z" />
<glyph unicode="&#xae;" horiz-adv-x="1208" d="M51 707q0 229 162 391t391 162t391 -162t162 -391t-161.5 -391t-391.5 -162q-229 0 -391 161.5t-162 391.5zM133 707q0 -197 137.5 -334t333.5 -137q197 0 334 137t137 334t-137 334t-334 137t-334 -137.5t-137 -333.5zM315 414v454q0 92 87 165t200 73q117 0 200 -72.5 t83 -175.5q0 -80 -47 -137q-8 -8 -25 -23q25 -20 35 -32q37 -43 37 -82v-170q0 -37 -37 -37q-35 0 -35 37v164q0 45 -45 86q-14 12 -47 32q33 23 49 41q49 55 49 125q0 63 -55 121q-63 66 -160 66q-82 0 -150.5 -51.5t-68.5 -127.5v-458q0 -35 -35 -35q-12 0 -23.5 11 t-11.5 26zM434 414v254h207q51 0 90 -37t39 -82v-135q0 -37 -35 -37q-37 0 -37 37v131q0 23 -17 42t-48 19h-129v-192q0 -16 -11.5 -27.5t-25.5 -11.5q-33 0 -33 39zM434 711v155q0 55 50.5 95t119.5 40q70 0 119 -41t49 -100q0 -61 -50 -105t-120 -44h-168zM502 768h108 q33 0 64 28.5t31 63.5q0 37 -29 61.5t-72 24.5q-41 0 -71.5 -24.5t-30.5 -59.5v-94z" />
<glyph unicode="&#xaf;" horiz-adv-x="794" d="M72 1540q0 55 55 55h532q58 0 58 -55q0 -23 -15.5 -40t-42.5 -17h-532q-27 0 -41 16.5t-14 40.5z" />
<glyph unicode="&#xb0;" horiz-adv-x="593" d="M70 1133q0 106 64.5 176.5t158.5 70.5q90 0 155.5 -71.5t65.5 -175.5t-65.5 -174t-155.5 -70q-92 0 -157.5 69.5t-65.5 174.5zM186 1133q0 -43 31 -85t76 -42q39 0 70.5 42t31.5 85t-33.5 85t-68.5 42q-43 0 -75 -40t-32 -87z" />
<glyph unicode="&#xb1;" d="M80 61q0 29 18.5 42.5t36.5 13.5h301v252h-301q-27 0 -41 16t-14 41q0 55 55 55h301v301q0 29 16.5 43.5t39.5 14.5q25 0 42 -15.5t17 -42.5v-301h301q57 0 57 -55q0 -23 -15 -40t-42 -17h-301v-252h301q27 0 42 -15.5t15 -40.5t-15 -42t-42 -17h-717q-25 0 -40 17.5 t-15 41.5z" />
<glyph unicode="&#xb2;" horiz-adv-x="636" d="M27 756q147 174 295 350q80 100 79 127q0 25 -19.5 44t-47.5 19q-27 0 -53.5 -14t-26.5 -31q0 -20 -27 -20q-10 0 -22 6t-12 16q0 45 43 75t98 30q61 0 100 -39t39 -84t-315 -424h366q45 0 45 -29q0 -27 -45 -26h-497zM72 1268q0 66 82 127t182 61q109 0 186.5 -65.5 t77.5 -155.5q0 -78 -94 -186q-86 -100 -117 -144h135q45 0 45 -33q0 -6 -12 -17t-33 -11h-274q98 117 199 235q74 96 73 154q0 66 -53 115t-131 49q-68 0 -133.5 -41t-65.5 -88q0 -35 -33 -35q-35 0 -34 35z" />
<glyph unicode="&#xb3;" horiz-adv-x="661" d="M47 901q0 35 39 35q18 0 31.5 -22.5t21.5 -36.5q20 -45 76.5 -79t120.5 -34q86 0 151.5 53t65.5 127q0 80 -59 133q-18 16 -60 37q25 18 35 31q35 43 35 100t-49 96t-119 39q-66 0 -100 -24l-56 -56q-8 -6 -14 -33.5t-33 -27.5q-20 0 -29 10q-6 8 -6 25q0 51 68 106 q76 61 172 62q98 0 167.5 -57.5t69.5 -141.5q0 -29 -20 -78q-6 -14 -20 -43q31 -33 45 -53q47 -68 47 -123q0 -102 -83 -173t-202 -71q-106 0 -200.5 69t-94.5 130zM172 899q0 33 41 33q18 0 52 -34t77 -34q35 0 63.5 24.5t28.5 57.5q0 35 -18.5 59.5t-46.5 24.5h-119 q-31 0 -31 33t31 33h119q70 0 106.5 -46.5t36.5 -103.5q0 -59 -49 -102t-121 -43q-53 0 -111.5 35.5t-58.5 62.5zM215 1161q0 12 11.5 23.5t23.5 11.5h88q49 0 49 39q0 18 -15.5 31.5t-35.5 13.5q-29 0 -51 -29q-10 -14 -29 -14q-41 0 -41 33t38 54.5t83 21.5q53 0 91 -32 t38 -79q0 -43 -37 -74t-90 -31h-88q-35 0 -35 31z" />
<glyph unicode="&#xb4;" horiz-adv-x="550" d="M170 1395q0 31 31 47l202 106q14 8 33 8q27 0 44.5 -19t17.5 -46q0 -29 -29 -43l-211 -115q-16 -8 -33 -8q-25 0 -40 21.5t-15 48.5z" />
<glyph unicode="&#xb5;" horiz-adv-x="960" d="M25 -238q0 139 6 261q16 324 16 393v475q0 29 16.5 43t40.5 14q23 0 39.5 -14t16.5 -43v-475q-12 -168 -21.5 -331t-9.5 -265q0 -57 16.5 -73.5t55.5 -16.5q49 0 64.5 33.5t15.5 103.5q0 113 -5.5 190.5t-11.5 132.5q29 -25 51 -36q70 -37 164 -37q135 0 226 71 q104 82 104 228v475q0 57 55 57t56 -57v-475q0 -190 -140 -310q-127 -109 -301 -108q-27 0 -52.5 2t-45.5 6q2 -39 4 -107.5t2 -86.5q0 -90 -57 -138q-49 -41 -123 -41q-80 0 -125 25q-57 33 -57 104zM252 416v475q0 57 57 57q23 0 39.5 -14t16.5 -43v-475q0 -51 35.5 -80 t88.5 -29t89 27.5t36 85.5v471q0 57 56 57q55 0 55 -57v-471q0 -106 -70.5 -168t-167.5 -62q-92 0 -159 60q-76 66 -76 166z" />
<glyph unicode="&#xb6;" horiz-adv-x="1323" d="M82 1055q0 190 125 287.5t362 97.5h605v-1798h-179v1663h-268v-1663h-178v1048q-205 0 -336 102.5t-131 262.5z" />
<glyph unicode="&#xb7;" horiz-adv-x="593" d="M229 492q0 66 66 65q65 1 65 -65t-65 -66q-66 0 -66 66z" />
<glyph unicode="&#xb8;" horiz-adv-x="550" d="M125 -207q0 35 31 51l200 107q14 8 31 8q29 0 47.5 -18t18.5 -43q0 -33 -29 -48l-213 -114q-14 -8 -29 -8q-25 0 -41 20.5t-16 44.5z" />
<glyph unicode="&#xb9;" horiz-adv-x="456" d="M43 1337q0 12 20 27q37 18 52.5 30.5t34.5 39.5q12 16 34 16q47 0 47 -33q0 -27 -56 -70.5t-87 -43.5q-16 0 -30.5 10t-14.5 24zM47 1231q0 20 29 31l96 28l21 2q39 0 38 -32v-486q0 -14 -11 -23.5t-30 -9.5q-43 0 -43 33v438q-16 -6 -30.5 -11t-24.5 -5 q-20 0 -32.5 10.5t-12.5 24.5zM276 774v639q0 31 43 31t43 -31v-639q0 -16 -12 -24q-10 -8 -31 -9q-43 0 -43 33z" />
<glyph unicode="&#xba;" horiz-adv-x="620" d="M14 803q0 31 37 31h484q38 0 38 -31q0 -33 -38 -33h-484q-37 0 -37 33zM25 1198q0 115 81.5 199t198.5 84q115 0 196 -83t81 -200t-81 -200t-196 -83q-117 0 -198.5 82t-81.5 201zM92 1198q0 -90 61.5 -151.5t151.5 -61.5q86 0 148.5 62.5t62.5 150.5q0 86 -61.5 149.5 t-149.5 63.5t-150.5 -62.5t-62.5 -150.5zM137 1192q0 72 49.5 121t118.5 49q70 0 118 -50t48 -120t-47 -119t-119 -49q-70 0 -119 49t-49 119zM203 1192q0 -39 30.5 -69.5t71.5 -30.5t69.5 28.5t28.5 71.5q0 41 -28.5 71.5t-69.5 30.5t-71.5 -30.5t-30.5 -71.5z" />
<glyph unicode="&#xbb;" horiz-adv-x="1273" d="M66 121q0 29 28 45l453 260l-451 260q-29 16 -28 45q0 20 16 41t41 21q14 0 29 -9l622 -358l-624 -358q-16 -10 -31 -11q-23 0 -39 18.5t-16 45.5zM498 121q0 29 28 45l453 260l-451 260q-29 16 -28 45q0 20 16 41t41 21q14 0 29 -9l622 -358l-624 -358q-16 -10 -31 -11 q-23 0 -39 18.5t-16 45.5z" />
<glyph unicode="&#xbc;" horiz-adv-x="1282" d="M43 1337q0 12 20 27q37 18 52.5 30.5t34.5 39.5q12 16 34 16q47 0 47 -33q0 -27 -56 -70.5t-87 -43.5q-16 0 -30.5 10t-14.5 24zM47 1231q0 20 29 31l96 28l21 2q39 0 38 -32v-486q0 -14 -11 -23.5t-30 -9.5q-43 0 -43 33v438q-16 -6 -30.5 -11t-24.5 -5 q-20 0 -32.5 10.5t-12.5 24.5zM61 193q0 18 11 26l864 932q12 12 25 12q18 0 32.5 -14.5t14.5 -32.5q0 -14 -15 -26l-862 -928q-8 -14 -25 -15q-45 0 -45 46zM276 774v639q0 31 43 31t43 -31v-639q0 -16 -12 -24q-10 -8 -31 -9q-43 0 -43 33zM608 166l58 348q4 31 49 31 q43 0 35 -31l-48 -287h340v-190q0 -35 -41 -35t-40 35v129h-353zM762 268l43 240q8 37 47 37q41 0 37 -35l-27 -178h96v350q0 12 10.5 23.5t37.5 11.5q41 0 41 -35v-414h-285zM1090 270v412q0 35 43 35t43 -35v-346q33 0 49 -5.5t16 -25.5q0 -35 -51 -35h-100zM1100 39v188 h90q31 0 43 -8q10 -6 10 -22q0 -18 -29 -27q-8 -2 -30 -4v-127q0 -33 -39 -37q-45 0 -45 37z" />
<glyph unicode="&#xbd;" horiz-adv-x="1200" d="M2 170q0 16 12 27l863 929q12 14 24 15q18 0 32.5 -14.5t14.5 -32.5t-14 -27l-860 -930q-10 -12 -27 -12q-45 0 -45 45zM43 1337q0 12 20 27q37 18 52.5 30.5t34.5 39.5q12 16 34 16q47 0 47 -33q0 -27 -56 -70.5t-87 -43.5q-16 0 -30.5 10t-14.5 24zM47 1231q0 20 29 31 l96 28l21 2q39 0 38 -32v-486q0 -14 -11 -23.5t-30 -9.5q-43 0 -43 33v438q-16 -6 -30.5 -11t-24.5 -5q-20 0 -32.5 10.5t-12.5 24.5zM276 774v639q0 31 43 31t43 -31v-639q0 -16 -12 -24q-10 -8 -31 -9q-43 0 -43 33zM557 0q162 174 324 350q86 98 86 127q0 25 -21.5 44.5 t-50.5 19.5q-31 0 -59.5 -14.5t-28.5 -30.5q0 -20 -31 -21q-39 0 -39 23q0 45 48.5 74.5t107.5 29.5q68 0 111 -39t43 -84t-347 -424h410q43 1 43 -26q0 -29 -43 -29h-553zM604 512q0 63 92 125.5t199 62.5q119 0 205 -65.5t86 -155.5q0 -76 -105 -186q-90 -94 -127 -143 h156q43 0 43 -33q0 -29 -43 -29h-309q86 92 174 186q127 139 127 203q0 63 -58.5 113.5t-144.5 50.5q-76 0 -147.5 -41t-71.5 -88q0 -18 -10 -27q-10 -8 -27 -8q-39 0 -39 35z" />
<glyph unicode="&#xbe;" horiz-adv-x="1282" d="M16 926q0 35 41 35q20 0 35 -19q4 -6 25 -41q23 -45 85 -79t130 -34q96 0 167.5 53.5t71.5 127.5q0 80 -65 133q-20 16 -66 37q27 18 39 30q39 43 39 101q0 57 -54 96t-130 39q-74 0 -113 -25q-39 -37 -59 -55q-4 -4 -14.5 -32.5t-38.5 -28.5q-20 0 -29 10q-8 10 -8 24 q0 53 73 107q84 61 191 61q111 0 185.5 -57t74.5 -141q0 -29 -23 -78q-6 -14 -22 -43q35 -33 51 -53q51 -66 51 -123q0 -102 -91 -173t-222 -71q-117 0 -220.5 67.5t-103.5 131.5zM154 924q0 33 43 32q20 0 58 -33.5t85 -33.5q41 0 70.5 23.5t29.5 58.5t-20.5 59.5 t-48.5 24.5h-127q-39 0 -39 32q0 33 39 33h127q76 0 118 -49q37 -43 37 -100q0 -59 -53 -102.5t-133 -43.5q-57 0 -121.5 36t-64.5 63zM160 184q0 20 10 27l864 932q10 12 25 12q16 0 30.5 -14.5t14.5 -32.5q0 -14 -12 -27l-863 -927q-10 -14 -26 -15q-43 0 -43 45z M197 1188q0 33 43 33h96q23 0 38 11t15 28q0 18 -17.5 31.5t-39.5 13.5q-33 0 -50.5 -21.5t-37.5 -21.5q-43 0 -43 32q0 33 43 54.5t88 21.5q61 0 102 -30.5t41 -79.5q0 -43 -41 -74t-98 -31h-96q-43 0 -43 33zM623 164l57 348q4 31 47 31q45 0 37 -31l-47 -287h340v-190 q0 -35 -43 -35q-39 0 -39 35v129h-352zM774 266l45 240q8 37 47 37q41 0 37 -35l-29 -178h99v350q0 35 45 35q20 0 35 -15q8 -8 8 -20v-414h-287zM1104 268v412q0 35 41 35q45 0 45 -35v-346h33q32 -6 32 -31q0 -35 -51 -35h-100zM1114 37v188h90q31 0 43 -8q10 -6 10 -22 q0 -18 -28 -27q-8 -2 -31 -4v-127q0 -33 -41 -37q-43 0 -43 37z" />
<glyph unicode="&#xbf;" horiz-adv-x="1021" d="M66 446q0 178 122 308q135 98 271 196v152q0 27 18.5 47t44.5 20q27 0 46.5 -19.5t19.5 -47.5v-160q0 -78 -195.5 -202t-195.5 -294q0 -133 88 -228t219 -95q117 0 220 82t103 157q0 33 18.5 49.5t47.5 16.5q25 0 44 -17.5t19 -48.5q0 -145 -141 -257.5t-315 -112.5 q-182 0 -308 134t-126 320zM264 430q0 176 195.5 283.5t195.5 160.5v228q0 27 20.5 47t45.5 20q27 0 46 -19.5t19 -47.5v-228q0 -135 -197.5 -246.5t-197.5 -160.5q0 -57 35 -98t86 -41q39 0 75 16t36 27q0 29 21.5 46t49.5 17q23 0 40.5 -19.5t17.5 -43.5q0 -88 -84 -135 q-70 -39 -156 -39q-98 0 -173 76.5t-75 156.5zM465 1290q0 70 49 115t113 45q63 0 109 -41t46 -119q-10 -29 -34.5 -45t-49.5 -16q-47 0 -47 41l4 20q0 27 -28 27q-33 0 -33 -27q0 -31 -19.5 -48t-46.5 -17q-25 0 -44 17.5t-19 47.5z" />
<glyph unicode="&#xc0;" horiz-adv-x="1218" d="M53 63l4 23l222 1044q29 135 116.5 213t214.5 78q123 0 204 -75.5t110 -202.5l229 -1057l2 -23q0 -27 -20.5 -47t-44.5 -20q-31 0 -45.5 19.5t-24.5 70.5l-221 1028q-16 74 -69.5 126t-119.5 52q-166 0 -204 -186l-218 -1020q-12 -55 -23 -72.5t-46 -17.5 q-27 0 -46.5 19.5t-19.5 47.5zM258 57l4 29l76 346h534l72 -346l2 -23q0 -23 -19.5 -46t-41.5 -23q-29 0 -44.5 23.5t-23.5 68.5l-45 225h-334l-49 -225q-12 -49 -18 -61q-16 -31 -52 -31q-29 0 -45 18.5t-16 44.5zM357 1679q0 23 20.5 45.5t44.5 22.5q16 0 33 -11l201 -106 q30 -16 30 -49q0 -25 -15 -46.5t-40 -21.5q-16 0 -31 8l-213 115q-31 16 -30 43zM358 522l123 557q18 78 44 104.5t83 26.5q53 0 81 -31.5t42 -103.5l123 -553h-496zM514 633h178l-84 432z" />
<glyph unicode="&#xc1;" horiz-adv-x="1218" d="M53 63l4 23l222 1044q29 135 116.5 213t214.5 78q123 0 204 -75.5t110 -202.5l229 -1057l2 -23q0 -27 -20.5 -47t-44.5 -20q-31 0 -45.5 19.5t-24.5 70.5l-221 1028q-16 74 -69.5 126t-119.5 52q-166 0 -204 -186l-218 -1020q-12 -55 -23 -72.5t-46 -17.5 q-27 0 -46.5 19.5t-19.5 47.5zM258 57l4 29l76 346h534l72 -346l2 -23q0 -23 -19.5 -46t-41.5 -23q-29 0 -44.5 23.5t-23.5 68.5l-45 225h-334l-49 -225q-12 -49 -18 -61q-16 -31 -52 -31q-29 0 -45 18.5t-16 44.5zM358 522l123 557q18 78 44 104.5t83 26.5q53 0 81 -31.5 t42 -103.5l123 -553h-496zM489 1592q0 31 31 47l202 106q14 8 33 8q27 0 44.5 -19t17.5 -46q0 -29 -29 -43l-211 -115q-16 -8 -33 -8q-25 0 -40 21.5t-15 48.5zM514 633h178l-84 432z" />
<glyph unicode="&#xc2;" horiz-adv-x="1218" d="M53 63l4 23l222 1044q29 135 116.5 213t214.5 78q123 0 204 -75.5t110 -202.5l229 -1057l2 -23q0 -27 -20.5 -47t-44.5 -20q-31 0 -45.5 19.5t-24.5 70.5l-221 1028q-16 74 -69.5 126t-119.5 52q-166 0 -204 -186l-218 -1020q-12 -55 -23 -72.5t-46 -17.5 q-27 0 -46.5 19.5t-19.5 47.5zM258 57l4 29l76 346h534l72 -346l2 -23q0 -23 -19.5 -46t-41.5 -23q-29 0 -44.5 23.5t-23.5 68.5l-45 225h-334l-49 -225q-12 -49 -18 -61q-16 -31 -52 -31q-29 0 -45 18.5t-16 44.5zM321 1581q0 35 33 54l254 147l271 -147q28 -17 28 -46 t-15.5 -50t-39.5 -21q-16 0 -31 8l-213 115l-211 -115q-10 -6 -26 -6q-23 0 -36.5 17.5t-13.5 43.5zM358 522l123 557q18 78 44 104.5t83 26.5q53 0 81 -31.5t42 -103.5l123 -553h-496zM514 633h178l-84 432z" />
<glyph unicode="&#xc3;" horiz-adv-x="1218" d="M53 63l4 23l222 1044q29 135 116.5 213t214.5 78q123 0 204 -75.5t110 -202.5l229 -1057l2 -23q0 -27 -20.5 -47t-44.5 -20q-31 0 -45.5 19.5t-24.5 70.5l-221 1028q-16 74 -69.5 126t-119.5 52q-166 0 -204 -186l-218 -1020q-12 -55 -23 -72.5t-46 -17.5 q-27 0 -46.5 19.5t-19.5 47.5zM233 1564q0 35 35 56l254 139l242 -125l184 104q16 10 31 11q25 0 42 -19.5t17 -42.5q0 -27 -31 -45l-246 -135l-239 119l-211 -115q-10 -6 -27 -6q-20 0 -35.5 17.5t-15.5 41.5zM258 57l4 29l76 346h534l72 -346l2 -23q0 -23 -19.5 -46 t-41.5 -23q-29 0 -44.5 23.5t-23.5 68.5l-45 225h-334l-49 -225q-12 -49 -18 -61q-16 -31 -52 -31q-29 0 -45 18.5t-16 44.5zM358 522l123 557q18 78 44 104.5t83 26.5q53 0 81 -31.5t42 -103.5l123 -553h-496zM514 633h178l-84 432z" />
<glyph unicode="&#xc4;" horiz-adv-x="1218" d="M53 63l4 23l222 1044q29 135 116.5 213t214.5 78q123 0 204 -75.5t110 -202.5l229 -1057l2 -23q0 -27 -20.5 -47t-44.5 -20q-31 0 -45.5 19.5t-24.5 70.5l-221 1028q-16 74 -69.5 126t-119.5 52q-166 0 -204 -186l-218 -1020q-12 -55 -23 -72.5t-46 -17.5 q-27 0 -46.5 19.5t-19.5 47.5zM258 57l4 29l76 346h534l72 -346l2 -23q0 -23 -19.5 -46t-41.5 -23q-29 0 -44.5 23.5t-23.5 68.5l-45 225h-334l-49 -225q-12 -49 -18 -61q-16 -31 -52 -31q-29 0 -45 18.5t-16 44.5zM358 522l123 557q18 78 44 104.5t83 26.5q53 0 81 -31.5 t42 -103.5l123 -553h-496zM387 1639q0 29 18 49t49 20q29 0 49.5 -20t20.5 -49t-20.5 -49.5t-49.5 -20.5q-27 0 -47 20.5t-20 49.5zM514 633h178l-84 432zM708 1639q0 29 20.5 49t49.5 20t49 -20t20 -49t-20.5 -49.5t-48.5 -20.5q-29 0 -49.5 20.5t-20.5 49.5z" />
<glyph unicode="&#xc5;" horiz-adv-x="1218" d="M53 63l4 23l222 1044q29 135 116.5 213t214.5 78q123 0 204 -75.5t110 -202.5l229 -1057l2 -23q0 -27 -20.5 -47t-44.5 -20q-31 0 -45.5 19.5t-24.5 70.5l-221 1028q-16 74 -69.5 126t-119.5 52q-166 0 -204 -186l-218 -1020q-12 -55 -23 -72.5t-46 -17.5 q-27 0 -46.5 19.5t-19.5 47.5zM258 57l4 29l76 346h534l72 -346l2 -23q0 -23 -19.5 -46t-41.5 -23q-29 0 -44.5 23.5t-23.5 68.5l-45 225h-334l-49 -225q-12 -49 -18 -61q-16 -31 -52 -31q-29 0 -45 18.5t-16 44.5zM358 522l123 557q18 78 44 104.5t83 26.5q53 0 81 -31.5 t42 -103.5l123 -553h-496zM455 1638q0 49 44 83t105 34t104.5 -33t43.5 -84q0 -49 -43 -82t-105 -33q-61 0 -105 34t-44 81zM514 633h178l-84 432zM545 1638q0 -14 18.5 -31.5t40.5 -17.5q20 0 37.5 15.5t17.5 33.5t-17 33.5t-38 15.5q-23 0 -41 -16.5t-18 -32.5z" />
<glyph unicode="&#xc6;" horiz-adv-x="2021" d="M55 74l224 1056q29 135 116.5 213t214.5 78q121 0 209 -86q80 -78 105 -192l41 -189q76 201 251 335t359 134h328q27 0 45 -20.5t18 -44.5q0 -27 -15.5 -44.5t-47.5 -17.5h-328q-176 0 -344 -176q-178 -186 -178 -409q0 -236 172 -410t387 -174h309q64 0 64 -66 q0 -29 -15.5 -47t-48.5 -18h-309q-131 0 -260 57.5t-226 159.5l29 -139q6 -29 -16.5 -53.5t-48.5 -24.5q-49 0 -60 49l-231 1069q-16 74 -69.5 126t-119.5 52q-166 0 -204 -186l-226 -1061q-4 -20 -20.5 -34.5t-36.5 -14.5q-29 0 -51.5 23.5t-16.5 54.5zM262 59q0 18 2 27 l74 346h534l72 -346q6 -35 -10 -63.5t-49 -28.5q-29 0 -43.5 21.5t-24.5 70.5l-45 225h-334l-49 -225q-10 -39 -16 -55q-16 -37 -54 -37q-31 0 -44 18.5t-13 46.5zM358 522l123 557q18 78 44 104.5t83 26.5q53 0 81 -31.5t42 -103.5l123 -553h-496zM514 633h178l-84 432z M1135 674h647q41 0 41 -66q0 -29 -9.5 -46t-31.5 -17h-477q35 -70 63 -105q88 -104 213 -104h340q33 0 48.5 -17.5t15.5 -44.5q0 -25 -16.5 -43t-47.5 -18h-313q-190 0 -314 119q-90 88 -133 221q-14 59 -26 121zM1135 750q12 59 26 118q45 137 131 222q125 121 316 120h295 q33 0 51 -18t18 -43q0 -61 -69 -62h-322q-121 0 -211 -104q-29 -35 -65 -104h477q41 0 41 -66q0 -29 -7.5 -46t-27.5 -17h-653z" />
<glyph unicode="&#xc7;" horiz-adv-x="1171" d="M49 705q0 332 215 534q188 178 430 178h336q29 0 47.5 -18.5t18.5 -46.5q0 -25 -18.5 -45.5t-47.5 -20.5h-336q-195 0 -342 -139q-174 -164 -174 -442q0 -219 178 -406q168 -176 338 -176h342q25 0 43.5 -20.5t18.5 -45.5q0 -27 -17.5 -46t-44.5 -19h-342 q-227 0 -430 211q-215 223 -215 502zM262 700q0 207 145.5 360.5t342.5 153.5h280q25 0 45.5 -18t20.5 -43q0 -27 -18.5 -47.5t-47.5 -20.5h-280q-139 0 -249 -113.5t-110 -271.5q0 -147 105.5 -254.5t253.5 -107.5h286q29 0 47.5 -18.5t18.5 -49.5q0 -25 -19.5 -44 t-46.5 -19h-286q-203 0 -345.5 144.5t-142.5 348.5zM617 -207q0 35 31 51l200 107q14 8 31 8q29 0 47.5 -18t18.5 -43q0 -33 -29 -48l-213 -114q-14 -8 -29 -8q-25 0 -41 20.5t-16 44.5z" />
<glyph unicode="&#xc8;" horiz-adv-x="1181" d="M45 711q0 289 204 500.5t449 211.5h328q27 0 45.5 -20.5t18.5 -44.5q0 -33 -27 -51q-14 -10 -37 -11h-328q-174 0 -344 -176q-180 -186 -180 -409q0 -233 174 -407.5t387 -174.5h309q25 0 43.5 -20.5t18.5 -47.5q0 -25 -17.5 -44t-44.5 -19h-309q-274 0 -479 207 q-211 213 -211 506zM258 676h651q18 0 27.5 -19.5t9.5 -48.5t-9 -45t-32 -16h-477q35 -70 64 -105q88 -104 213 -104h346q27 0 41 -18.5t14 -45.5t-14.5 -43t-47.5 -16h-313q-193 0 -315 119q-88 86 -131 221q-14 59 -27 121zM258 752q12 59 25 118q43 135 131 222 q125 121 317 120h295q39 0 54.5 -15t15.5 -48q0 -59 -70 -59h-321q-125 0 -213 -105q-29 -35 -64 -104h477q20 0 30.5 -19.5t10.5 -46.5q0 -18 -6 -40.5t-31 -22.5h-651zM514 1690q0 23 20.5 45.5t44.5 22.5q16 0 33 -11l201 -106q30 -16 30 -49q0 -25 -15 -46.5t-40 -21.5 q-16 0 -31 8l-213 115q-31 16 -30 43z" />
<glyph unicode="&#xc9;" horiz-adv-x="1181" d="M45 711q0 289 204 500.5t449 211.5h328q27 0 45.5 -20.5t18.5 -44.5q0 -33 -27 -51q-14 -10 -37 -11h-328q-174 0 -344 -176q-180 -186 -180 -409q0 -233 174 -407.5t387 -174.5h309q25 0 43.5 -20.5t18.5 -47.5q0 -25 -17.5 -44t-44.5 -19h-309q-274 0 -479 207 q-211 213 -211 506zM258 676h651q18 0 27.5 -19.5t9.5 -48.5t-9 -45t-32 -16h-477q35 -70 64 -105q88 -104 213 -104h346q27 0 41 -18.5t14 -45.5t-14.5 -43t-47.5 -16h-313q-193 0 -315 119q-88 86 -131 221q-14 59 -27 121zM258 752q12 59 25 118q43 135 131 222 q125 121 317 120h295q39 0 54.5 -15t15.5 -48q0 -59 -70 -59h-321q-125 0 -213 -105q-29 -35 -64 -104h477q20 0 30.5 -19.5t10.5 -46.5q0 -18 -6 -40.5t-31 -22.5h-651zM651 1594q0 31 31 47l202 106q14 8 33 8q27 0 44.5 -19t17.5 -46q0 -29 -29 -43l-211 -115 q-16 -8 -33 -8q-25 0 -40 21.5t-15 48.5z" />
<glyph unicode="&#xca;" horiz-adv-x="1181" d="M45 711q0 289 204 500.5t449 211.5h328q27 0 45.5 -20.5t18.5 -44.5q0 -33 -27 -51q-14 -10 -37 -11h-328q-174 0 -344 -176q-180 -186 -180 -409q0 -233 174 -407.5t387 -174.5h309q25 0 43.5 -20.5t18.5 -47.5q0 -25 -17.5 -44t-44.5 -19h-309q-274 0 -479 207 q-211 213 -211 506zM258 676h651q18 0 27.5 -19.5t9.5 -48.5t-9 -45t-32 -16h-477q35 -70 64 -105q88 -104 213 -104h346q27 0 41 -18.5t14 -45.5t-14.5 -43t-47.5 -16h-313q-193 0 -315 119q-88 86 -131 221q-14 59 -27 121zM258 752q12 59 25 118q43 135 131 222 q125 121 317 120h295q39 0 54.5 -15t15.5 -48q0 -59 -70 -59h-321q-125 0 -213 -105q-29 -35 -64 -104h477q20 0 30.5 -19.5t10.5 -46.5q0 -18 -6 -40.5t-31 -22.5h-651zM440 1575q0 35 33 54l254 147l271 -147q28 -17 28 -46t-15.5 -50t-39.5 -21q-16 0 -31 8l-213 115 l-211 -115q-10 -6 -26 -6q-23 0 -36.5 17.5t-13.5 43.5z" />
<glyph unicode="&#xcb;" horiz-adv-x="1181" d="M45 711q0 289 204 500.5t449 211.5h328q27 0 45.5 -20.5t18.5 -44.5q0 -33 -27 -51q-14 -10 -37 -11h-328q-174 0 -344 -176q-180 -186 -180 -409q0 -233 174 -407.5t387 -174.5h309q25 0 43.5 -20.5t18.5 -47.5q0 -25 -17.5 -44t-44.5 -19h-309q-274 0 -479 207 q-211 213 -211 506zM258 676h651q18 0 27.5 -19.5t9.5 -48.5t-9 -45t-32 -16h-477q35 -70 64 -105q88 -104 213 -104h346q27 0 41 -18.5t14 -45.5t-14.5 -43t-47.5 -16h-313q-193 0 -315 119q-88 86 -131 221q-14 59 -27 121zM258 752q12 59 25 118q43 135 131 222 q125 121 317 120h295q39 0 54.5 -15t15.5 -48q0 -59 -70 -59h-321q-125 0 -213 -105q-29 -35 -64 -104h477q20 0 30.5 -19.5t10.5 -46.5q0 -18 -6 -40.5t-31 -22.5h-651zM525 1641q0 29 18 49t49 20q29 0 49.5 -20t20.5 -49t-20.5 -49.5t-49.5 -20.5q-27 0 -47 20.5 t-20 49.5zM846 1641q0 29 20.5 49t49.5 20t49 -20t20 -49t-20.5 -49.5t-48.5 -20.5q-29 0 -49.5 20.5t-20.5 49.5z" />
<glyph unicode="&#xcc;" horiz-adv-x="501" d="M45 1696q0 23 20.5 45.5t44.5 22.5q16 0 33 -11l201 -106q30 -16 30 -49q0 -25 -15 -46.5t-40 -21.5q-16 0 -31 8l-213 115q-31 16 -30 43zM80 59v1284q0 31 19.5 46.5t45.5 15.5q27 0 46.5 -15.5t19.5 -46.5v-1284q0 -63 -66 -63q-25 0 -45 16.5t-20 46.5zM285 59v1284 q0 31 19.5 46.5t45.5 15.5q27 0 46.5 -15.5t19.5 -46.5v-1284q0 -63 -66 -63q-25 0 -45 16.5t-20 46.5z" />
<glyph unicode="&#xcd;" horiz-adv-x="501" d="M80 59v1284q0 31 19.5 46.5t45.5 15.5q27 0 46.5 -15.5t19.5 -46.5v-1284q0 -63 -66 -63q-25 0 -45 16.5t-20 46.5zM102 1600q0 31 31 47l202 106q14 8 33 8q27 0 44.5 -19t17.5 -46q0 -29 -29 -43l-211 -115q-16 -8 -33 -8q-25 0 -40 21.5t-15 48.5zM285 59v1284 q0 31 19.5 46.5t45.5 15.5q27 0 46.5 -15.5t19.5 -46.5v-1284q0 -63 -66 -63q-25 0 -45 16.5t-20 46.5z" />
<glyph unicode="&#xce;" horiz-adv-x="501" d="M-39 1579q0 35 33 53l254 148l270 -148q29 -16 29 -45t-15.5 -50t-39.5 -21q-16 0 -31 8l-213 114l-211 -114q-10 -6 -27 -6q-23 0 -36 17t-13 44zM84 59v1284q0 31 19.5 46.5t46.5 15.5t46 -15.5t19 -46.5v-1284q0 -63 -65 -63q-25 0 -45.5 16.5t-20.5 46.5zM289 59 v1284q0 31 19.5 46.5t45.5 15.5q27 0 46.5 -15.5t19.5 -46.5v-1284q0 -63 -66 -63q-25 0 -45 16.5t-20 46.5z" />
<glyph unicode="&#xcf;" horiz-adv-x="501" d="M23 1640q0 29 18 49.5t49 20.5q29 0 49.5 -20.5t20.5 -49.5t-20.5 -49t-49.5 -20q-27 0 -47 20.5t-20 48.5zM92 59v1284q0 31 19.5 46.5t46.5 15.5t46 -15.5t19 -46.5v-1284q0 -63 -65 -63q-25 0 -45.5 16.5t-20.5 46.5zM297 59v1284q0 31 19.5 46.5t45.5 15.5 q27 0 46.5 -15.5t19.5 -46.5v-1284q0 -63 -66 -63q-25 0 -45 16.5t-20 46.5zM344 1640q0 29 20.5 49.5t49.5 20.5t49 -20.5t20 -49.5t-20.5 -49t-48.5 -20q-29 0 -49.5 20.5t-20.5 48.5z" />
<glyph unicode="&#xd0;" horiz-adv-x="1355" d="M-94 590q0 55 51 55h94v92h-94q-23 0 -37 16.5t-14 41.5q0 55 51 55h94v135q0 164 121 293t274 129h220q240 0 434 -209q203 -217 203 -508q0 -262 -211 -481t-476 -219q-66 0 -163 26q-33 8 -88 29q-2 -18 -7 -27q-14 -27 -49 -26q-33 0 -46 21.5t-13 54.5v172 q76 -41 123 -62q145 -63 233 -63q233 0 399 172t166 403q0 225 -159.5 407.5t-343.5 182.5h-215q-98 0 -185 -78q-96 -88 -96 -209v-143h70v98q0 111 68.5 188.5t178.5 77.5h201q147 0 276.5 -159.5t129.5 -343.5q0 -209 -139.5 -362.5t-344.5 -153.5q-131 0 -245 69 q-125 76 -125 180v88h-70v-464q0 -29 -19.5 -50.5t-46.5 -21.5q-25 0 -40 21.5t-15 50.5v464h-94q-23 0 -37 16.5t-14 41.5zM172 645h70v92h-70v-92zM369 444q0 -31 81.5 -74.5t161.5 -43.5q150 0 252.5 112.5t102.5 272.5q0 125 -97.5 249.5t-179.5 124.5h-201 q-49 0 -84.5 -37.5t-35.5 -99.5v-98h235q23 0 37 -16.5t14 -38.5q0 -57 -51 -58h-235v-92h235q23 0 37 -16.5t14 -38.5q0 -57 -51 -58h-235v-88z" />
<glyph unicode="&#xd1;" horiz-adv-x="1280" d="M84 59v813q0 231 169 390t411 159q227 0 392 -162.5t165 -392.5v-807q0 -27 -18.5 -45t-45.5 -18q-25 0 -45 18.5t-20 44.5v807q0 176 -127 301t-303 125q-186 0 -317.5 -120.5t-131.5 -299.5v-813q0 -25 -19.5 -44t-43.5 -19q-25 0 -45.5 18.5t-20.5 44.5zM252 1573 q0 35 35 56l254 139l242 -125l184 104q16 10 31 11q25 0 42 -19.5t17 -42.5q0 -27 -31 -45l-246 -135l-239 119l-211 -115q-10 -6 -27 -6q-20 0 -35.5 17.5t-15.5 41.5zM287 59v813q0 152 112.5 247t264.5 95q143 0 249.5 -100t106.5 -242v-813q0 -27 -18.5 -45t-45.5 -18 q-25 0 -45 18.5t-20 44.5v813q0 84 -67.5 147.5t-159.5 63.5q-100 0 -173 -62.5t-73 -148.5v-813q0 -27 -20.5 -45t-45.5 -18t-45 18.5t-20 44.5z" />
<glyph unicode="&#xd2;" horiz-adv-x="1536" d="M39 711q0 307 212 521t517 214t521 -212t216 -517t-212 -521t-517 -216t-521 214t-216 517zM168 717q0 -252 176 -428t428 -176t428 176t176 428t-176 428t-428 176t-428 -176t-176 -428zM246 711q0 219 153.5 372.5t372.5 153.5t372.5 -153.5t153.5 -372.5t-153.5 -373 t-372.5 -154t-372.5 154t-153.5 373zM375 711q0 -164 116.5 -281t280.5 -117t280.5 117t116.5 281t-116.5 280.5t-280.5 116.5t-280.5 -117t-116.5 -280zM566 1696q0 23 20.5 45.5t44.5 22.5q16 0 33 -11l201 -106q30 -16 30 -49q0 -25 -15 -46.5t-40 -21.5q-16 0 -31 8 l-213 115q-31 16 -30 43z" />
<glyph unicode="&#xd3;" horiz-adv-x="1536" d="M39 711q0 307 212 521t517 214t521 -212t216 -517t-212 -521t-517 -216t-521 214t-216 517zM168 717q0 -252 176 -428t428 -176t428 176t176 428t-176 428t-428 176t-428 -176t-176 -428zM246 711q0 219 153.5 372.5t372.5 153.5t372.5 -153.5t153.5 -372.5t-153.5 -373 t-372.5 -154t-372.5 154t-153.5 373zM375 711q0 -164 116.5 -281t280.5 -117t280.5 117t116.5 281t-116.5 280.5t-280.5 116.5t-280.5 -117t-116.5 -280zM645 1606q0 31 31 47l202 106q14 8 33 8q27 0 44.5 -19t17.5 -46q0 -29 -29 -43l-211 -115q-16 -8 -33 -8 q-25 0 -40 21.5t-15 48.5z" />
<glyph unicode="&#xd4;" horiz-adv-x="1536" d="M39 711q0 307 212 521t517 214t521 -212t216 -517t-212 -521t-517 -216t-521 214t-216 517zM168 717q0 -252 176 -428t428 -176t428 176t176 428t-176 428t-428 176t-428 -176t-176 -428zM246 711q0 219 153.5 372.5t372.5 153.5t372.5 -153.5t153.5 -372.5t-153.5 -373 t-372.5 -154t-372.5 154t-153.5 373zM375 711q0 -164 116.5 -281t280.5 -117t280.5 117t116.5 281t-116.5 280.5t-280.5 116.5t-280.5 -117t-116.5 -280zM460 1587q0 35 33 54l254 147l271 -147q28 -17 28 -46t-15.5 -50t-39.5 -21q-16 0 -31 8l-213 115l-211 -115 q-10 -6 -26 -6q-23 0 -36.5 17.5t-13.5 43.5z" />
<glyph unicode="&#xd5;" horiz-adv-x="1536" d="M39 711q0 307 212 521t517 214t521 -212t216 -517t-212 -521t-517 -216t-521 214t-216 517zM168 717q0 -252 176 -428t428 -176t428 176t176 428t-176 428t-428 176t-428 -176t-176 -428zM246 711q0 219 153.5 372.5t372.5 153.5t372.5 -153.5t153.5 -372.5t-153.5 -373 t-372.5 -154t-372.5 154t-153.5 373zM375 711q0 -164 116.5 -281t280.5 -117t280.5 117t116.5 281t-116.5 280.5t-280.5 116.5t-280.5 -117t-116.5 -280zM391 1579q0 35 35 56l254 139l242 -125l184 104q16 10 31 11q25 0 42 -19.5t17 -42.5q0 -27 -31 -45l-246 -135 l-239 119l-211 -115q-10 -6 -27 -6q-20 0 -35.5 17.5t-15.5 41.5z" />
<glyph unicode="&#xd6;" horiz-adv-x="1536" d="M39 711q0 307 212 521t517 214t521 -212t216 -517t-212 -521t-517 -216t-521 214t-216 517zM168 717q0 -252 176 -428t428 -176t428 176t176 428t-176 428t-428 176t-428 -176t-176 -428zM246 711q0 219 153.5 372.5t372.5 153.5t372.5 -153.5t153.5 -372.5t-153.5 -373 t-372.5 -154t-372.5 154t-153.5 373zM375 711q0 -164 116.5 -281t280.5 -117t280.5 117t116.5 281t-116.5 280.5t-280.5 116.5t-280.5 -117t-116.5 -280zM529 1639q0 29 18 49t49 20q29 0 49.5 -20t20.5 -49t-20.5 -49.5t-49.5 -20.5q-27 0 -47 20.5t-20 49.5zM850 1639 q0 29 20.5 49t49.5 20t49 -20t20 -49t-20.5 -49.5t-48.5 -20.5q-29 0 -49.5 20.5t-20.5 49.5z" />
<glyph unicode="&#xd7;" d="M180 680q0 20 18.5 38.5t41.5 18.5t41 -18l213 -211l213 211q18 18 38 18t39 -16t19 -39q0 -27 -17 -43l-213 -213l213 -211q17 -17 17 -35q0 -27 -16.5 -45t-43.5 -18q-20 0 -36 16l-213 213l-213 -213q-16 -16 -37 -16q-23 0 -42.5 17.5t-19.5 41.5q0 20 19 39l213 211 l-213 213q-20 20 -21 41z" />
<glyph unicode="&#xd8;" horiz-adv-x="1536" d="M39 717q0 305 215 522t518 217q123 0 231.5 -36t202.5 -107l164 172q14 20 35 20q29 0 49.5 -20.5t20.5 -48.5q0 -27 -19 -39l-158 -166q98 -100 152.5 -232t54.5 -282q0 -307 -215 -524.5t-518 -217.5q-139 0 -261 48.5t-224 138.5l-131 -137q-12 -18 -39 -19 q-25 0 -46.5 19.5t-21.5 46.5t19 39l133 141q-78 100 -120 218t-42 247zM168 717q0 -104 31.5 -196.5t93.5 -172.5l51 53q-47 66 -72.5 146t-25.5 164q0 219 153.5 374.5t372.5 155.5q156 0 287 -86l57 62q-78 55 -162 82.5t-182 27.5q-250 0 -427 -179t-177 -431zM375 711 q0 -61 14 -111.5t45 -101.5l533 561q-90 51 -195 51q-164 0 -280.5 -116.5t-116.5 -282.5zM377 258q78 -70 182.5 -109.5t212.5 -39.5q250 0 427 177t177 431q0 123 -42 227.5t-124 192.5l-57 -62q70 -72 107.5 -165t37.5 -199q0 -221 -153.5 -377t-372.5 -156 q-199 0 -346 131zM514 403q53 -45 117.5 -68.5t140.5 -23.5q166 0 281.5 116t115.5 284q0 160 -106 272z" />
<glyph unicode="&#xd9;" horiz-adv-x="1306" d="M63 522v836q0 29 20.5 47t45.5 18q29 0 47.5 -16t18.5 -49v-836q0 -172 132 -296t308 -124q178 0 316.5 121t138.5 299v836q0 29 19 44t44 15q29 0 47.5 -14t18.5 -45v-836q0 -231 -181 -387q-172 -150 -403 -149q-229 0 -400.5 155.5t-171.5 380.5zM254 522v836 q0 29 20.5 47t42.5 18q66 0 66 -65v-860q0 -100 92 -164q78 -53 160 -53q80 0 164 57q98 68 98 160v860q0 29 18.5 44t45.5 15q29 0 47 -14t18 -45v-836q0 -158 -123 -262q-115 -96 -268 -96q-129 0 -246 94q-135 109 -135 264zM481 1696q0 23 20.5 45t45.5 22q16 0 33 -10 l200 -106q31 -17 31 -50q0 -25 -15.5 -46t-39.5 -21q-16 0 -31 8l-213 115q-31 16 -31 43z" />
<glyph unicode="&#xda;" horiz-adv-x="1306" d="M76 522v836q0 29 20.5 47t44.5 18q29 0 47.5 -16t18.5 -49v-836q0 -172 132 -296t308 -124q178 0 316.5 121t138.5 299v836q0 29 19.5 44t43.5 15q29 0 47.5 -14t18.5 -45v-836q0 -231 -180 -387q-172 -150 -404 -149q-229 0 -400 155.5t-171 380.5zM266 522v836 q0 29 20.5 47t43.5 18q66 0 65 -65v-860q0 -100 92 -164q78 -53 160 -53q80 0 164 57q98 68 98 160v860q0 29 18.5 44t45.5 15q29 0 47 -14t18 -45v-836q0 -158 -123 -262q-115 -96 -268 -96q-129 0 -246 94q-135 109 -135 264zM506 1590q0 31 31 47l202 106q14 8 33 8 q27 0 44.5 -19t17.5 -46q0 -29 -29 -43l-211 -115q-16 -8 -33 -8q-25 0 -40 21.5t-15 48.5z" />
<glyph unicode="&#xdb;" horiz-adv-x="1306" d="M76 522v836q0 29 20.5 47t44.5 18q29 0 47.5 -16t18.5 -49v-836q0 -172 132 -296t308 -124q178 0 316.5 121t138.5 299v836q0 29 19.5 44t43.5 15q29 0 47.5 -14t18.5 -45v-836q0 -231 -180 -387q-172 -150 -404 -149q-229 0 -400 155.5t-171 380.5zM266 522v836 q0 29 20.5 47t43.5 18q66 0 65 -65v-860q0 -100 92 -164q78 -53 160 -53q80 0 164 57q98 68 98 160v860q0 29 18.5 44t45.5 15q29 0 47 -14t18 -45v-836q0 -158 -123 -262q-115 -96 -268 -96q-129 0 -246 94q-135 109 -135 264zM368 1573q0 35 33 54l254 147l271 -147 q28 -17 28 -46t-15.5 -50t-39.5 -21q-16 0 -31 8l-213 115l-211 -115q-10 -6 -26 -6q-23 0 -36.5 17.5t-13.5 43.5z" />
<glyph unicode="&#xdc;" horiz-adv-x="1306" d="M76 522v836q0 29 20.5 47t44.5 18q29 0 47.5 -16t18.5 -49v-836q0 -172 132 -296t308 -124q178 0 316.5 121t138.5 299v836q0 29 19.5 44t43.5 15q29 0 47.5 -14t18.5 -45v-836q0 -231 -180 -387q-172 -150 -404 -149q-229 0 -400 155.5t-171 380.5zM266 522v836 q0 29 20.5 47t43.5 18q66 0 65 -65v-860q0 -100 92 -164q78 -53 160 -53q80 0 164 57q98 68 98 160v860q0 29 18.5 44t45.5 15q29 0 47 -14t18 -45v-836q0 -158 -123 -262q-115 -96 -268 -96q-129 0 -246 94q-135 109 -135 264zM430 1641q0 29 18 49t49 20q29 0 49.5 -20 t20.5 -49t-20.5 -49.5t-49.5 -20.5q-27 0 -47 20.5t-20 49.5zM751 1641q0 29 20.5 49t49.5 20t49 -20t20 -49t-20.5 -49.5t-48.5 -20.5q-29 0 -49.5 20.5t-20.5 49.5z" />
<glyph unicode="&#xdd;" horiz-adv-x="1263" d="M61 1100v246q0 33 17.5 48t44.5 15t43 -14.5t16 -48.5v-267q0 -156 105 -272q72 -80 194 -139q86 -41 105 -41v-559q0 -33 -16.5 -51.5t-41.5 -18.5t-42 17.5t-17 52.5v473q-20 0 -104 51q-121 74 -197 178q-106 145 -107 330zM260 1038v308q0 31 18.5 47t45.5 16 t45 -16.5t18 -46.5v-308q0 -63 96 -143q88 -74 138 -74q53 0 141 72q98 80 98 145v318q0 31 18.5 42t47.5 11q31 0 48 -10t17 -43v-318q0 -123 -143 -241q-129 -106 -227 -107q-90 0 -213 94q-147 113 -148 254zM496 1598q0 31 31 47l202 106q14 8 33 8q27 0 44.5 -19 t17.5 -46q0 -29 -29 -43l-211 -115q-16 -8 -33 -8q-25 0 -40 21.5t-15 48.5zM662 68v557q20 0 102 39q123 59 192 137q102 117 103 274v281q0 29 18.5 41t42.5 12q29 0 47.5 -11.5t18.5 -41.5v-260q0 -186 -105 -330q-74 -100 -198 -176q-88 -53 -107 -53v-469 q0 -35 -17.5 -52.5t-41.5 -17.5q-55 0 -55 70z" />
<glyph unicode="&#xde;" horiz-adv-x="1353" d="M72 -393v1665q0 55 53 55q25 0 40 -15.5t15 -41.5v-1663q0 -63 -53 -64q-20 0 -37.5 17.5t-17.5 46.5zM276 -393v1665q0 55 54 55q55 0 55 -55v-453q68 98 172.5 154.5t228.5 56.5q215 0 367 -151.5t152 -368.5q0 -215 -150.5 -367.5t-368.5 -152.5q-123 0 -228 56 t-173 155v-594q0 -63 -53 -64q-20 0 -38 17.5t-18 46.5zM393 510q0 -160 117 -274.5t276 -114.5q160 0 275 114.5t115 274.5t-115 276.5t-275 116.5q-158 0 -275.5 -115.5t-117.5 -277.5zM498 510q0 121 85 208t203 87q121 0 207 -86t86 -209q0 -117 -86 -205t-207 -88 q-117 0 -202.5 88t-85.5 205zM612 510q0 -72 51.5 -123t122.5 -51q74 0 125.5 51t51.5 123q0 76 -51.5 127t-125.5 51q-72 0 -123 -51t-51 -127z" />
<glyph unicode="&#xdf;" horiz-adv-x="1091" d="M66 -250v1290q0 166 120.5 289t290.5 123q164 0 283 -116.5t119 -282.5q0 -41 -19 -111q-6 -23 -18 -61q68 -55 100 -97q102 -128 102 -284q0 -207 -140 -357.5t-337 -150.5q-27 0 -43 13t-16 44q0 53 57 53q145 0 252 108.5t107 256.5q0 162 -125 281q-41 39 -127 88 q31 31 45 55q45 74 45 166q0 117 -83 199.5t-200 82.5q-109 0 -195.5 -74.5t-86.5 -174.5v-1342q0 -25 -17.5 -44t-44.5 -19q-29 0 -49 18t-20 47zM264 846v194q0 86 65.5 149.5t155.5 63.5q84 0 141.5 -59t57.5 -145q0 -84 -57.5 -143.5t-141.5 -59.5h-221zM268 -250v1014 h295q125 0 207 -107q70 -92 70 -190q0 -96 -74 -184q-84 -100 -203 -101q-53 0 -53 56q0 61 49 61q72 0 116 54.5t44 109.5q0 53 -41 108q-53 72 -139 72h-154v-893q0 -29 -12.5 -47t-40.5 -18q-37 0 -50.5 16t-13.5 49zM383 961h84q45 0 68.5 26.5t23.5 65.5 q0 37 -22.5 61.5t-57.5 24.5q-37 0 -66.5 -26t-29.5 -62v-90z" />
<glyph unicode="&#xe0;" horiz-adv-x="1013" d="M25 471q0 193 138 327t333 134t327.5 -133t132.5 -330v-434q0 -39 -53 -39t-53 39v432q0 147 -104.5 249.5t-251.5 102.5t-255 -103.5t-108 -248.5q0 -154 105.5 -263.5t255.5 -109.5q82 0 182 60q33 18 86 61v-176q0 -16 -15.5 -29.5t-33.5 -13.5q-49 0 -49 39 q-35 -12 -56 -17q-72 -18 -114 -18q-190 0 -328.5 140.5t-138.5 330.5zM217 457q0 115 80 196.5t195 81.5t193.5 -80.5t78.5 -197.5q0 -115 -80 -195t-192 -80q-115 0 -195 80t-80 195zM328 457q0 -68 48 -116t116 -48q66 0 114.5 49t48.5 115q0 68 -48 116t-115 48 q-66 0 -115 -47.5t-49 -116.5zM342 1249q0 23 20.5 45.5t44.5 22.5q16 0 33 -11l201 -106q30 -16 30 -49q0 -25 -15 -46.5t-40 -21.5q-16 0 -31 8l-213 115q-31 16 -30 43z" />
<glyph unicode="&#xe1;" horiz-adv-x="1013" d="M25 471q0 193 138 327t333 134t327.5 -133t132.5 -330v-434q0 -39 -53 -39t-53 39v432q0 147 -104.5 249.5t-251.5 102.5t-255 -103.5t-108 -248.5q0 -154 105.5 -263.5t255.5 -109.5q82 0 182 60q33 18 86 61v-176q0 -16 -15.5 -29.5t-33.5 -13.5q-49 0 -49 39 q-35 -12 -56 -17q-72 -18 -114 -18q-190 0 -328.5 140.5t-138.5 330.5zM217 457q0 115 80 196.5t195 81.5t193.5 -80.5t78.5 -197.5q0 -115 -80 -195t-192 -80q-115 0 -195 80t-80 195zM328 457q0 -68 48 -116t116 -48q66 0 114.5 49t48.5 115q0 68 -48 116t-115 48 q-66 0 -115 -47.5t-49 -116.5zM373 1147q0 31 31 47l202 106q14 8 33 8q27 0 44.5 -19t17.5 -46q0 -29 -29 -43l-211 -115q-16 -8 -33 -8q-25 0 -40 21.5t-15 48.5z" />
<glyph unicode="&#xe2;" horiz-adv-x="1013" d="M25 471q0 193 138 327t333 134t327.5 -133t132.5 -330v-434q0 -39 -53 -39t-53 39v432q0 147 -104.5 249.5t-251.5 102.5t-255 -103.5t-108 -248.5q0 -154 105.5 -263.5t255.5 -109.5q82 0 182 60q33 18 86 61v-176q0 -16 -15.5 -29.5t-33.5 -13.5q-49 0 -49 39 q-35 -12 -56 -17q-72 -18 -114 -18q-190 0 -328.5 140.5t-138.5 330.5zM217 457q0 115 80 196.5t195 81.5t193.5 -80.5t78.5 -197.5q0 -115 -80 -195t-192 -80q-115 0 -195 80t-80 195zM217 1138q0 35 33 54l254 147l271 -147q28 -17 28 -46t-15.5 -50t-39.5 -21 q-16 0 -31 8l-213 115l-211 -115q-10 -6 -26 -6q-23 0 -36.5 17.5t-13.5 43.5zM328 457q0 -68 48 -116t116 -48q66 0 114.5 49t48.5 115q0 68 -48 116t-115 48q-66 0 -115 -47.5t-49 -116.5z" />
<glyph unicode="&#xe3;" horiz-adv-x="1013" d="M25 471q0 193 138 327t333 134t327.5 -133t132.5 -330v-434q0 -39 -53 -39t-53 39v432q0 147 -104.5 249.5t-251.5 102.5t-255 -103.5t-108 -248.5q0 -154 105.5 -263.5t255.5 -109.5q82 0 182 60q33 18 86 61v-176q0 -16 -15.5 -29.5t-33.5 -13.5q-49 0 -49 39 q-35 -12 -56 -17q-72 -18 -114 -18q-190 0 -328.5 140.5t-138.5 330.5zM98 1134q0 35 35 56l254 139l242 -125l184 104q16 10 31 11q25 0 42 -19.5t17 -42.5q0 -27 -31 -45l-246 -135l-239 119l-211 -115q-10 -6 -27 -6q-20 0 -35.5 17.5t-15.5 41.5zM217 457 q0 115 80 196.5t195 81.5t193.5 -80.5t78.5 -197.5q0 -115 -80 -195t-192 -80q-115 0 -195 80t-80 195zM328 457q0 -68 48 -116t116 -48q66 0 114.5 49t48.5 115q0 68 -48 116t-115 48q-66 0 -115 -47.5t-49 -116.5z" />
<glyph unicode="&#xe4;" horiz-adv-x="1013" d="M25 471q0 193 138 327t333 134t327.5 -133t132.5 -330v-434q0 -39 -53 -39t-53 39v432q0 147 -104.5 249.5t-251.5 102.5t-255 -103.5t-108 -248.5q0 -154 105.5 -263.5t255.5 -109.5q82 0 182 60q33 18 86 61v-176q0 -16 -15.5 -29.5t-33.5 -13.5q-49 0 -49 39 q-35 -12 -56 -17q-72 -18 -114 -18q-190 0 -328.5 140.5t-138.5 330.5zM217 457q0 115 80 196.5t195 81.5t193.5 -80.5t78.5 -197.5q0 -115 -80 -195t-192 -80q-115 0 -195 80t-80 195zM258 1205q0 29 18 49t49 20q29 0 49.5 -20t20.5 -49t-20.5 -49.5t-49.5 -20.5 q-27 0 -47 20.5t-20 49.5zM328 457q0 -68 48 -116t116 -48q66 0 114.5 49t48.5 115q0 68 -48 116t-115 48q-66 0 -115 -47.5t-49 -116.5zM579 1205q0 29 20.5 49t49.5 20t49 -20t20 -49t-20.5 -49.5t-48.5 -20.5q-29 0 -49.5 20.5t-20.5 49.5z" />
<glyph unicode="&#xe5;" horiz-adv-x="1013" d="M25 471q0 193 138 327t333 134t327.5 -133t132.5 -330v-434q0 -39 -53 -39t-53 39v432q0 147 -104.5 249.5t-251.5 102.5t-255 -103.5t-108 -248.5q0 -154 105.5 -263.5t255.5 -109.5q82 0 182 60q33 18 86 61v-176q0 -16 -15.5 -29.5t-33.5 -13.5q-49 0 -49 39 q-35 -12 -56 -17q-72 -18 -114 -18q-190 0 -328.5 140.5t-138.5 330.5zM217 457q0 115 80 196.5t195 81.5t193.5 -80.5t78.5 -197.5q0 -115 -80 -195t-192 -80q-115 0 -195 80t-80 195zM328 457q0 -68 48 -116t116 -48q66 0 114.5 49t48.5 115q0 68 -48 116t-115 48 q-66 0 -115 -47.5t-49 -116.5zM347 1206q0 49 44 83t105 34t104.5 -33t43.5 -84q0 -49 -43 -82t-105 -33q-61 0 -105 34t-44 81zM437 1206q0 -14 18.5 -31.5t40.5 -17.5q20 0 37.5 15.5t17.5 33.5t-17 33.5t-38 15.5q-23 0 -41 -16.5t-18 -32.5z" />
<glyph unicode="&#xe6;" horiz-adv-x="1841" d="M27 471q0 195 137 328t330 133q131 0 239.5 -64.5t167.5 -175.5q57 121 165 195t243 74q221 0 358 -162q123 -146 123 -330q0 -53 -55 -53t-56 53q0 145 -94 256q-106 125 -276 125q-145 0 -246.5 -113.5t-101.5 -269.5q0 -145 104 -247.5t250 -102.5h414q16 0 30 -11 q27 -18 27 -47q0 -25 -16.5 -41t-40.5 -16h-414q-113 0 -203 45t-158 127v-123q0 -20 -16 -36.5t-37 -16.5q-20 0 -36.5 14.5t-16.5 36.5v418q0 147 -104.5 249.5t-251.5 102.5q-145 0 -252 -102.5t-107 -249.5q0 -154 103.5 -263.5t252.5 -109.5q82 0 183 60q33 18 86 61 v-176q0 -16 -15.5 -29.5t-33.5 -13.5q-49 0 -50 39q-35 -12 -55 -17q-72 -18 -115 -18q-188 0 -325 139.5t-137 331.5zM215 457q0 115 80 196.5t194 81.5q115 0 194 -80.5t79 -197.5q0 -115 -80 -195t-193 -80q-115 0 -194.5 80t-79.5 195zM326 457q0 -68 48 -116t115 -48 q66 0 115 49t49 115q0 68 -48 116t-116 48q-66 0 -114.5 -47.5t-48.5 -116.5zM1038 485q0 113 83 183.5t194 70.5q119 0 194.5 -84t75.5 -198q0 -23 -16.5 -40.5t-38.5 -17.5h-356q23 -41 62.5 -64.5t88.5 -23.5h404q29 0 45 -18t16 -41t-17.5 -38t-43.5 -15h-404 q-119 0 -203 81.5t-84 204.5zM1153 514h309q-12 45 -43 74q-39 37 -104 37q-141 0 -162 -111z" />
<glyph unicode="&#xe7;" horiz-adv-x="743" d="M29 467q0 190 129 329.5t307 139.5h180q55 0 55 -57q0 -23 -15 -40.5t-40 -17.5h-180q-123 0 -223.5 -106.5t-100.5 -247.5q0 -139 100.5 -250t223.5 -111h180q25 0 40 -17t15 -40t-15 -40t-40 -17h-180q-176 0 -306 142t-130 333zM225 463q0 115 73 196.5t185 81.5h162 q27 0 41 -16t14 -41q0 -23 -15 -40t-40 -17h-162q-59 0 -102 -47.5t-43 -116.5q0 -68 43 -118t102 -50h162q55 0 55 -55q0 -57 -55 -58h-162q-109 0 -183.5 85t-74.5 196zM289 -207q0 35 31 51l200 107q14 8 31 8q29 0 47.5 -18t18.5 -43q0 -33 -29 -48l-213 -114 q-14 -8 -29 -8q-25 0 -41 20.5t-16 44.5z" />
<glyph unicode="&#xe8;" horiz-adv-x="1046" d="M29 467q0 217 134 345t341 128q221 0 356 -152q123 -137 123 -319q0 -53 -55 -53q-23 0 -39.5 14t-16.5 39q0 143 -92 246q-102 115 -276 114q-154 0 -258.5 -95t-104.5 -267q0 -145 109.5 -247.5t259.5 -102.5h408q27 0 44 -17.5t17 -40.5q0 -25 -16.5 -41t-44.5 -16 h-408q-193 0 -337 136t-144 329zM231 485q0 113 83 183.5t196 70.5q141 0 215 -114q53 -84 53 -168q0 -57 -55 -58h-354q23 -41 61.5 -64.5t87.5 -23.5h400q25 0 40 -17t15 -40q0 -25 -13.5 -40t-41.5 -15h-400q-119 0 -203 81.5t-84 204.5zM289 1251q0 23 20.5 45.5 t44.5 22.5q16 0 33 -11l201 -106q30 -16 30 -49q0 -25 -15 -46.5t-40 -21.5q-16 0 -31 8l-213 115q-31 16 -30 43zM346 514h311q-14 47 -43 74q-39 37 -104 37q-141 0 -164 -111z" />
<glyph unicode="&#xe9;" horiz-adv-x="1046" d="M29 467q0 217 134 345t341 128q221 0 356 -152q123 -137 123 -319q0 -53 -55 -53q-23 0 -39.5 14t-16.5 39q0 143 -92 246q-102 115 -276 114q-154 0 -258.5 -95t-104.5 -267q0 -145 109.5 -247.5t259.5 -102.5h408q27 0 44 -17.5t17 -40.5q0 -25 -16.5 -41t-44.5 -16 h-408q-193 0 -337 136t-144 329zM231 485q0 113 83 183.5t196 70.5q141 0 215 -114q53 -84 53 -168q0 -57 -55 -58h-354q23 -41 61.5 -64.5t87.5 -23.5h400q25 0 40 -17t15 -40q0 -25 -13.5 -40t-41.5 -15h-400q-119 0 -203 81.5t-84 204.5zM346 514h311q-14 47 -43 74 q-39 37 -104 37q-141 0 -164 -111zM406 1155q0 31 31 47l202 106q14 8 33 8q27 0 44.5 -19t17.5 -46q0 -29 -29 -43l-211 -115q-16 -8 -33 -8q-25 0 -40 21.5t-15 48.5z" />
<glyph unicode="&#xea;" horiz-adv-x="1046" d="M29 467q0 217 134 345t341 128q221 0 356 -152q123 -137 123 -319q0 -53 -55 -53q-23 0 -39.5 14t-16.5 39q0 143 -92 246q-102 115 -276 114q-154 0 -258.5 -95t-104.5 -267q0 -145 109.5 -247.5t259.5 -102.5h408q27 0 44 -17.5t17 -40.5q0 -25 -16.5 -41t-44.5 -16 h-408q-193 0 -337 136t-144 329zM231 485q0 113 83 183.5t196 70.5q141 0 215 -114q53 -84 53 -168q0 -57 -55 -58h-354q23 -41 61.5 -64.5t87.5 -23.5h400q25 0 40 -17t15 -40q0 -25 -13.5 -40t-41.5 -15h-400q-119 0 -203 81.5t-84 204.5zM249 1132q0 35 33 54l254 147 l271 -147q28 -17 28 -46t-15.5 -50t-39.5 -21q-16 0 -31 8l-213 115l-211 -115q-10 -6 -26 -6q-23 0 -36.5 17.5t-13.5 43.5zM346 514h311q-14 47 -43 74q-39 37 -104 37q-141 0 -164 -111z" />
<glyph unicode="&#xeb;" horiz-adv-x="1046" d="M29 467q0 217 134 345t341 128q221 0 356 -152q123 -137 123 -319q0 -53 -55 -53q-23 0 -39.5 14t-16.5 39q0 143 -92 246q-102 115 -276 114q-154 0 -258.5 -95t-104.5 -267q0 -145 109.5 -247.5t259.5 -102.5h408q27 0 44 -17.5t17 -40.5q0 -25 -16.5 -41t-44.5 -16 h-408q-193 0 -337 136t-144 329zM231 485q0 113 83 183.5t196 70.5q141 0 215 -114q53 -84 53 -168q0 -57 -55 -58h-354q23 -41 61.5 -64.5t87.5 -23.5h400q25 0 40 -17t15 -40q0 -25 -13.5 -40t-41.5 -15h-400q-119 0 -203 81.5t-84 204.5zM295 1190q0 29 18 49t49 20 q29 0 49.5 -20t20.5 -49t-20.5 -49.5t-49.5 -20.5q-27 0 -47 20.5t-20 49.5zM346 514h311q-14 47 -43 74q-39 37 -104 37q-141 0 -164 -111zM616 1190q0 29 20.5 49t49.5 20t49 -20t20 -49t-20.5 -49.5t-48.5 -20.5q-29 0 -49.5 20.5t-20.5 49.5z" />
<glyph unicode="&#xec;" horiz-adv-x="425" d="M41 1257q0 23 20.5 45.5t44.5 22.5q16 0 33 -10l201 -107q31 -16 31 -49q0 -25 -15.5 -46t-40.5 -21q-16 0 -30 8l-213 114q-31 16 -31 43zM74 55v828q0 59 57 59q23 0 38 -15.5t15 -43.5v-828q0 -27 -15 -42t-38 -15q-25 0 -41 14.5t-16 42.5zM272 55v824q0 57 56 57 q55 0 55 -57v-824q0 -31 -15.5 -46t-39.5 -15q-55 0 -56 61z" />
<glyph unicode="&#xed;" horiz-adv-x="425" d="M68 55v828q0 59 57 59q23 0 38 -15.5t15 -43.5v-828q0 -27 -15.5 -42t-37.5 -15q-25 0 -41 14.5t-16 42.5zM78 1153q0 31 31 47l202 107q14 8 33 8q27 0 44.5 -19.5t17.5 -46.5q0 -29 -29 -43l-211 -114q-16 -8 -33 -9q-25 0 -40 21.5t-15 48.5zM266 55v824q0 57 56 57 q55 0 55 -57v-824q0 -31 -15.5 -46t-39.5 -15q-55 0 -56 61z" />
<glyph unicode="&#xee;" horiz-adv-x="425" d="M-31 1137q0 31 27 45l211 123l223 -123q25 -12 25 -37q0 -61 -45 -62q-16 0 -27 9l-176 94l-174 -94q-4 -2 -15 -5q-2 0 -8 -2q-16 0 -28.5 16.5t-12.5 35.5zM70 55v828q0 59 57 59q23 0 38 -15.5t15 -43.5v-828q0 -27 -15 -42t-38 -15q-25 0 -41 14.5t-16 42.5zM268 55 v824q0 57 56 57q55 0 55 -57v-824q0 -31 -15.5 -46t-39.5 -15q-55 0 -56 61z" />
<glyph unicode="&#xef;" horiz-adv-x="425" d="M-12 1206q0 29 18.5 49.5t48.5 20.5q29 0 49.5 -20.5t20.5 -49.5t-20.5 -49t-49.5 -20q-27 0 -47 20.5t-20 48.5zM68 55v828q0 59 57 59q23 0 38 -15.5t15 -43.5v-828q0 -27 -15.5 -42t-37.5 -15q-25 0 -41 14.5t-16 42.5zM266 55v824q0 57 56 57q55 0 55 -57v-824 q0 -31 -15.5 -46t-39.5 -15q-55 0 -56 61zM309 1206q0 29 20.5 49.5t49.5 20.5t49.5 -20.5t20.5 -49.5t-20.5 -49t-49.5 -20t-49.5 20.5t-20.5 48.5z" />
<glyph unicode="&#xf0;" horiz-adv-x="1044" d="M33 471q0 188 131 340t291 152l55 -2l-70 186h-202q-27 0 -41.5 16.5t-14.5 40.5q0 55 56 56h161l-32 90q-8 23 12 44t47 21t46.5 -17.5t27.5 -41.5q61 -184 129 -363q27 -72 73 -188q-45 12 -71 18q-88 20 -131 21q-129 0 -235.5 -110.5t-106.5 -258.5 q0 -152 104.5 -260.5t251.5 -108.5q150 0 258.5 109t108.5 260q0 31 -29 131.5t-66 198.5l-204 536q-10 25 6 51.5t43 26.5q51 0 67 -43l45 -116h211q58 -1 58 -56q0 -23 -15.5 -40t-42.5 -17h-168l123 -318q37 -96 63.5 -198.5t26.5 -147.5q0 -190 -141 -341.5t-340 -151.5 t-342 141t-143 340zM215 477q0 127 86 215t213 88q123 0 210 -89t87 -214q0 -123 -86 -211t-211 -88t-212 87t-87 212zM344 477q0 -68 49 -117t121 -49t120 48t48 118t-49 121t-119 51q-72 0 -121 -49t-49 -123z" />
<glyph unicode="&#xf1;" horiz-adv-x="974" d="M45 53v477q0 188 139 308q127 109 301 108q172 0 295 -106q135 -117 135 -310v-477q0 -57 -53 -57q-23 0 -40 15.5t-17 41.5v477q0 150 -98 230q-86 70 -222 69q-135 0 -225 -71q-102 -82 -102 -228v-477q0 -29 -16.5 -43t-39.5 -14t-40 15.5t-17 41.5zM88 1132 q0 35 35 56l254 139l242 -125l184 104q16 10 31 11q25 0 42 -19.5t17 -42.5q0 -27 -31 -45l-246 -135l-239 119l-211 -115q-10 -6 -27 -6q-20 0 -35.5 17.5t-15.5 41.5zM240 53v471q0 102 72.5 167t164.5 65q90 0 163 -63.5t73 -162.5v-477q0 -25 -16.5 -41t-37.5 -16 q-25 0 -41 14.5t-16 42.5v477q0 51 -37 80t-88 29q-53 0 -89 -28.5t-36 -86.5v-471q0 -25 -16.5 -41t-38.5 -16q-23 0 -40 15.5t-17 41.5z" />
<glyph unicode="&#xf2;" horiz-adv-x="1034" d="M41 463q0 193 136 331t329 138t329 -138t136 -331t-136.5 -331t-328.5 -138q-193 0 -329 138t-136 331zM154 463q0 -147 103 -253t249 -106q145 0 249.5 107t104.5 252t-104.5 251.5t-249.5 106.5t-248.5 -105.5t-103.5 -252.5zM227 463q0 117 82 201t197 84 q117 0 198.5 -84t81.5 -201t-81.5 -201t-198.5 -84q-115 0 -197 84t-82 201zM310 1243q0 23 20.5 45.5t44.5 22.5q16 0 33 -11l201 -106q30 -16 30 -49q0 -25 -15 -46.5t-40 -21.5q-16 0 -31 8l-213 115q-31 16 -30 43zM338 463q0 -70 49 -121t119 -51t119 51t49 121 t-49.5 121t-118.5 51q-70 0 -119 -51.5t-49 -120.5z" />
<glyph unicode="&#xf3;" horiz-adv-x="1034" d="M41 463q0 193 136 331t329 138t329 -138t136 -331t-136.5 -331t-328.5 -138q-193 0 -329 138t-136 331zM154 463q0 -147 103 -253t249 -106q145 0 249.5 107t104.5 252t-104.5 251.5t-249.5 106.5t-248.5 -105.5t-103.5 -252.5zM227 463q0 117 82 201t197 84 q117 0 198.5 -84t81.5 -201t-81.5 -201t-198.5 -84q-115 0 -197 84t-82 201zM338 463q0 -70 49 -121t119 -51t119 51t49 121t-49.5 121t-118.5 51q-70 0 -119 -51.5t-49 -120.5zM367 1143q0 31 31 47l202 106q14 8 33 8q27 0 44.5 -19t17.5 -46q0 -29 -29 -43l-211 -115 q-16 -8 -33 -8q-25 0 -40 21.5t-15 48.5z" />
<glyph unicode="&#xf4;" horiz-adv-x="1034" d="M41 463q0 193 136 331t329 138t329 -138t136 -331t-136.5 -331t-328.5 -138q-193 0 -329 138t-136 331zM154 463q0 -147 103 -253t249 -106q145 0 249.5 107t104.5 252t-104.5 251.5t-249.5 106.5t-248.5 -105.5t-103.5 -252.5zM213 1128q0 35 33 54l254 147l271 -147 q28 -17 28 -46t-15.5 -50t-39.5 -21q-16 0 -31 8l-213 115l-211 -115q-10 -6 -26 -6q-23 0 -36.5 17.5t-13.5 43.5zM227 463q0 117 82 201t197 84q117 0 198.5 -84t81.5 -201t-81.5 -201t-198.5 -84q-115 0 -197 84t-82 201zM338 463q0 -70 49 -121t119 -51t119 51t49 121 t-49.5 121t-118.5 51q-70 0 -119 -51.5t-49 -120.5z" />
<glyph unicode="&#xf5;" horiz-adv-x="1034" d="M41 463q0 193 136 331t329 138t329 -138t136 -331t-136.5 -331t-328.5 -138q-193 0 -329 138t-136 331zM110 1122q0 35 35 56l254 139l242 -125l184 104q16 10 31 11q25 0 42 -19.5t17 -42.5q0 -27 -31 -45l-246 -135l-239 119l-211 -115q-10 -6 -27 -6q-20 0 -35.5 17.5 t-15.5 41.5zM154 463q0 -147 103 -253t249 -106q145 0 249.5 107t104.5 252t-104.5 251.5t-249.5 106.5t-248.5 -105.5t-103.5 -252.5zM227 463q0 117 82 201t197 84q117 0 198.5 -84t81.5 -201t-81.5 -201t-198.5 -84q-115 0 -197 84t-82 201zM338 463q0 -70 49 -121 t119 -51t119 51t49 121t-49.5 121t-118.5 51q-70 0 -119 -51.5t-49 -120.5z" />
<glyph unicode="&#xf6;" horiz-adv-x="1034" d="M41 463q0 193 136 331t329 138t329 -138t136 -331t-136.5 -331t-328.5 -138q-193 0 -329 138t-136 331zM154 463q0 -147 103 -253t249 -106q145 0 249.5 107t104.5 252t-104.5 251.5t-249.5 106.5t-248.5 -105.5t-103.5 -252.5zM227 463q0 117 82 201t197 84 q117 0 198.5 -84t81.5 -201t-81.5 -201t-198.5 -84q-115 0 -197 84t-82 201zM281 1192q0 29 18 49t49 20q29 0 49.5 -20t20.5 -49t-20.5 -49.5t-49.5 -20.5q-27 0 -47 20.5t-20 49.5zM338 463q0 -70 49 -121t119 -51t119 51t49 121t-49.5 121t-118.5 51q-70 0 -119 -51.5 t-49 -120.5zM602 1192q0 29 20.5 49t49.5 20t49 -20t20 -49t-20.5 -49.5t-48.5 -20.5q-29 0 -49.5 20.5t-20.5 49.5z" />
<glyph unicode="&#xf7;" d="M80 426q0 55 55 55h717q57 0 57 -55q0 -23 -15 -40t-42 -17h-717q-27 0 -41 16t-14 41zM420 172q0 25 16.5 41t40.5 16q58 0 58 -57q0 -23 -16.5 -39t-41.5 -16q-23 0 -40 15t-17 40zM420 664q0 25 16.5 41t40.5 16q58 0 58 -57q0 -23 -16.5 -39.5t-41.5 -16.5 q-23 0 -40 15.5t-17 40.5z" />
<glyph unicode="&#xf8;" horiz-adv-x="1034" d="M-43 -25q0 18 12 29l168 176q-45 59 -70.5 135t-25.5 152q0 197 135 334t332 137q150 0 264 -86l154 162q12 14 26 14q20 0 36 -15.5t16 -35.5q0 -16 -15 -29l-147 -155q61 -63 95 -146.5t34 -179.5q0 -195 -135.5 -332t-327.5 -137q-88 0 -166 29.5t-141 87.5l-166 -174 q-10 -14 -29 -15q-18 0 -33.5 15.5t-15.5 33.5zM154 467q0 -115 63 -203l49 51q-39 68 -39 144q0 117 83 199.5t198 82.5q68 0 129 -32l57 59q-88 55 -186 55q-145 0 -249.5 -104.5t-104.5 -251.5zM279 197q96 -84 229 -84q145 0 248.5 103.5t103.5 250.5q0 141 -96 244 l-53 -58q76 -82 75 -194q0 -115 -80.5 -198t-197.5 -83q-49 0 -96 17.5t-86 50.5zM338 459q0 -25 10 -56l205 218l-45 6q-68 0 -119 -49.5t-51 -118.5zM403 328q47 -37 105 -37q68 0 117 49t49 119q0 63 -43 110z" />
<glyph unicode="&#xf9;" horiz-adv-x="960" d="M47 416v475q0 29 16.5 43t40.5 14q23 0 39.5 -14t16.5 -43v-475q0 -143 98 -226q88 -74 221 -73q135 0 226 71q104 82 104 228v475q0 57 55 57t56 -57v-475q0 -190 -140 -310q-127 -109 -301 -108q-188 0 -310 120t-122 298zM252 416v475q0 57 57 57q23 0 39.5 -14 t16.5 -43v-475q0 -51 35.5 -80t88.5 -29t89 27.5t36 85.5v471q0 57 56 57q55 0 55 -57v-471q0 -106 -70.5 -168t-167.5 -62q-92 0 -159 60q-76 66 -76 166zM299 1272q0 23 20.5 45.5t44.5 22.5q16 0 33 -11l201 -106q30 -16 30 -49q0 -25 -15 -46.5t-40 -21.5q-16 0 -31 8 l-213 115q-31 16 -30 43z" />
<glyph unicode="&#xfa;" horiz-adv-x="960" d="M47 416v475q0 29 16.5 43t40.5 14q23 0 39.5 -14t16.5 -43v-475q0 -143 98 -226q88 -74 221 -73q135 0 226 71q104 82 104 228v475q0 57 55 57t56 -57v-475q0 -190 -140 -310q-127 -109 -301 -108q-188 0 -310 120t-122 298zM252 416v475q0 57 57 57q23 0 39.5 -14 t16.5 -43v-475q0 -51 35.5 -80t88.5 -29t89 27.5t36 85.5v471q0 57 56 57q55 0 55 -57v-471q0 -106 -70.5 -168t-167.5 -62q-92 0 -159 60q-76 66 -76 166zM354 1162q0 31 31 47l202 106q14 8 33 8q27 0 44.5 -19t17.5 -46q0 -29 -29 -43l-211 -115q-16 -8 -33 -8 q-25 0 -40 21.5t-15 48.5z" />
<glyph unicode="&#xfb;" horiz-adv-x="960" d="M47 416v475q0 29 16.5 43t40.5 14q23 0 39.5 -14t16.5 -43v-475q0 -143 98 -226q88 -74 221 -73q135 0 226 71q104 82 104 228v475q0 57 55 57t56 -57v-475q0 -190 -140 -310q-127 -109 -301 -108q-188 0 -310 120t-122 298zM204 1132q0 35 33 54l254 147l271 -147 q28 -17 28 -46t-15.5 -50t-39.5 -21q-16 0 -31 8l-213 115l-211 -115q-10 -6 -26 -6q-23 0 -36.5 17.5t-13.5 43.5zM252 416v475q0 57 57 57q23 0 39.5 -14t16.5 -43v-475q0 -51 35.5 -80t88.5 -29t89 27.5t36 85.5v471q0 57 56 57q55 0 55 -57v-471q0 -106 -70.5 -168 t-167.5 -62q-92 0 -159 60q-76 66 -76 166z" />
<glyph unicode="&#xfc;" horiz-adv-x="960" d="M47 416v475q0 29 16.5 43t40.5 14q23 0 39.5 -14t16.5 -43v-475q0 -143 98 -226q88 -74 221 -73q135 0 226 71q104 82 104 228v475q0 57 55 57t56 -57v-475q0 -190 -140 -310q-127 -109 -301 -108q-188 0 -310 120t-122 298zM252 416v475q0 57 57 57q23 0 39.5 -14 t16.5 -43v-475q0 -51 35.5 -80t88.5 -29t89 27.5t36 85.5v471q0 57 56 57q55 0 55 -57v-471q0 -106 -70.5 -168t-167.5 -62q-92 0 -159 60q-76 66 -76 166zM265 1199q0 29 18 49t49 20q29 0 49.5 -20t20.5 -49t-20.5 -49.5t-49.5 -20.5q-27 0 -47 20.5t-20 49.5zM586 1199 q0 29 20.5 49t49.5 20t49 -20t20 -49t-20.5 -49.5t-48.5 -20.5q-29 0 -49.5 20.5t-20.5 49.5z" />
<glyph unicode="&#xfd;" horiz-adv-x="999" d="M61 418v461q0 33 15.5 45t42.5 12t42 -12.5t15 -44.5v-461q0 -121 96.5 -223.5t229.5 -102.5q68 0 164 58q31 18 82 57v-178q0 -106 -84 -208t-152 -102q-49 0 -49 43q0 29 81 84.5t93 184.5q-31 -12 -49 -19q-55 -18 -86 -18q-182 0 -311.5 127t-129.5 297zM260 408v471 q0 57 55 57q53 0 54 -57v-471q0 -53 38.5 -80t94.5 -27q47 0 77.5 21.5t30.5 68.5v488q0 57 56 57q55 0 55 -57v-488q0 -92 -67.5 -149.5t-155.5 -57.5q-92 0 -165 61.5t-73 162.5zM377 1155q0 31 31 47l202 106q14 8 33 8q27 0 44.5 -19t17.5 -46q0 -29 -29 -43l-211 -115 q-16 -8 -33 -8q-25 0 -40 21.5t-15 48.5zM465 -424q0 55 53 55q84 0 184 101q109 109 109 221l-2 926q0 25 16.5 41t38.5 16q27 0 41.5 -12.5t14.5 -44.5v-926q0 -147 -128 -289.5t-274 -142.5q-53 0 -53 55z" />
<glyph unicode="&#xfe;" horiz-adv-x="1048" d="M68 -416v1688q0 55 53 55q51 0 51 -57v-1688q0 -49 -51 -49q-53 0 -53 51zM256 229q51 -39 84 -57q106 -59 199 -59q150 0 252 108.5t102 261.5q0 147 -104.5 250t-251.5 103q-76 0 -151 -33t-128 -86v555q0 55 51 55q25 0 40.5 -15.5t15.5 -41.5v-352q80 31 170 30 q193 0 328.5 -134t135.5 -327t-135 -332t-325 -139q-68 0 -129 19q-20 6 -52 20v-471q0 -25 -15 -38t-36 -13q-23 0 -37 11.5t-14 39.5v645zM258 481q0 117 80 199t194 82q115 0 197 -82t82 -199q0 -115 -82 -196.5t-197 -81.5q-117 0 -195.5 81t-78.5 197zM369 481 q0 -70 47 -117t116 -47q68 0 117 47t49 117q0 68 -49 117t-117 49t-115.5 -48t-47.5 -118z" />
<glyph unicode="&#xff;" horiz-adv-x="999" d="M61 418v461q0 33 15.5 45t42.5 12t42 -12.5t15 -44.5v-461q0 -121 96.5 -223.5t229.5 -102.5q68 0 164 58q31 18 82 57v-178q0 -106 -84 -208t-152 -102q-49 0 -49 43q0 29 81 84.5t93 184.5q-31 -12 -49 -19q-55 -18 -86 -18q-182 0 -311.5 127t-129.5 297zM260 408v471 q0 57 55 57q53 0 54 -57v-471q0 -53 38.5 -80t94.5 -27q47 0 77.5 21.5t30.5 68.5v488q0 57 56 57q55 0 55 -57v-488q0 -92 -67.5 -149.5t-155.5 -57.5q-92 0 -165 61.5t-73 162.5zM285 1203q0 29 18 49t49 20q29 0 49.5 -20t20.5 -49t-20.5 -49.5t-49.5 -20.5 q-27 0 -47 20.5t-20 49.5zM465 -424q0 55 53 55q84 0 184 101q109 109 109 221l-2 926q0 25 16.5 41t38.5 16q27 0 41.5 -12.5t14.5 -44.5v-926q0 -147 -128 -289.5t-274 -142.5q-53 0 -53 55zM606 1203q0 29 20.5 49t49.5 20t49 -20t20 -49t-20.5 -49.5t-48.5 -20.5 q-29 0 -49.5 20.5t-20.5 49.5z" />
<glyph unicode="&#x152;" horiz-adv-x="2281" d="M39 717q0 305 215 522t518 217q176 0 322.5 -74.5t251.5 -210.5q98 119 223 185.5t258 66.5h327q27 0 45.5 -20.5t18.5 -44.5q0 -27 -15.5 -44.5t-48.5 -17.5h-327q-180 0 -348 -176q-176 -184 -176 -409q0 -236 172 -410t389 -174h309q63 0 63 -66q0 -29 -15 -47 t-48 -18h-309q-147 0 -285.5 69.5t-239.5 192.5q-104 -131 -251.5 -207t-315.5 -76q-303 0 -518 217.5t-215 524.5zM168 717q0 -252 176 -430t428 -178q150 0 279 70.5t211 189.5l-37 80q-70 -125 -188.5 -198t-264.5 -73q-219 0 -372.5 155.5t-153.5 377.5 q0 219 153.5 374.5t372.5 155.5q143 0 264 -74.5t189 -197.5l45 92q-84 121 -215 193.5t-283 72.5q-250 0 -427 -179t-177 -431zM375 711q0 -168 115.5 -284t281.5 -116t281.5 116t115.5 284q0 166 -114.5 282.5t-282.5 116.5q-164 0 -280.5 -116.5t-116.5 -282.5zM1386 674 h648q20 0 30.5 -16.5t10.5 -43.5q0 -29 -9.5 -49t-31.5 -20h-478q33 -70 62 -105q88 -104 215 -104h340q33 0 48 -17.5t15 -44.5q0 -25 -16 -43t-47 -18h-313q-193 0 -316 119q-88 86 -131 221q-14 59 -27 121zM1386 750q12 59 25 118q43 135 131 222q125 121 318 120h294 q39 0 54.5 -16t15.5 -45q0 -61 -70 -62h-321q-125 0 -213 -104q-29 -35 -64 -104h478q20 0 30.5 -21.5t10.5 -48.5t-9.5 -43t-31.5 -16h-648z" />
<glyph unicode="&#x153;" horiz-adv-x="1667" d="M41 467q0 197 135 334t332 137q86 0 161.5 -29.5t141.5 -87.5q63 68 144 104t178 36q221 0 358 -162q121 -144 121 -330q0 -53 -56 -53q-23 0 -39 14t-16 39q0 145 -92 256q-104 125 -276 125q-145 0 -247 -113.5t-102 -269.5q0 -145 104.5 -247.5t250.5 -102.5h409 q29 0 44.5 -17.5t15.5 -40.5q0 -57 -60 -57h-409q-96 0 -172 30.5t-146 92.5q-63 -59 -143 -93t-170 -34q-193 0 -330 137t-137 332zM154 467q0 -145 104 -249.5t250 -104.5q140 0 242 98q-18 25 -37 63q-39 -45 -90.5 -70.5t-114.5 -25.5q-117 0 -199 82t-82 199t83 199.5 t198 82.5q57 0 107.5 -23.5t91.5 -68.5q14 45 36 80q-47 43 -108.5 68.5t-126.5 25.5q-145 0 -249.5 -104.5t-104.5 -251.5zM338 459q0 -66 51 -117t119 -51q72 0 118 50t46 126q0 61 -49.5 110.5t-114.5 49.5q-68 0 -119 -49.5t-51 -118.5zM860 485q0 115 83 184.5 t196 69.5q117 0 192.5 -83t75.5 -199q0 -27 -10.5 -42.5t-44.5 -15.5h-355q20 -39 61.5 -63.5t90.5 -24.5h399q29 0 44.5 -16t15.5 -41q0 -55 -60 -55h-399q-121 0 -205 81.5t-84 204.5zM975 514h311q-14 47 -43 74q-39 37 -104 37q-141 0 -164 -111z" />
<glyph unicode="&#x178;" horiz-adv-x="1263" d="M49 1100v246q0 33 17.5 48t44.5 15t43 -14.5t16 -48.5v-267q0 -156 104 -272q72 -80 195 -139q86 -41 104 -41v-559q0 -33 -16 -51.5t-41 -18.5t-42 17.5t-17 52.5v473q-20 0 -105 51q-121 74 -196 178q-106 145 -107 330zM248 1038v308q0 31 18.5 47t44.5 16 q27 0 45.5 -16.5t18.5 -46.5v-308q0 -63 96 -143q88 -74 137 -74q53 0 142 72q98 80 98 145v318q0 31 18.5 42t46.5 11q31 0 48.5 -10t17.5 -43v-318q0 -123 -143 -241q-129 -106 -228 -107q-90 0 -213 94q-147 113 -147 254zM383 1628q0 25 19.5 44.5t43.5 19.5 q27 0 45.5 -18.5t18.5 -45.5t-18.5 -45t-45.5 -18t-45 18.5t-18 44.5zM649 68v557q20 0 103 39q123 59 192 137q102 117 103 274v281q0 29 18 41t43 12q29 0 47.5 -11.5t18.5 -41.5v-260q0 -186 -105 -330q-74 -100 -199 -176q-88 -53 -106 -53v-469q0 -35 -17.5 -52.5 t-41.5 -17.5q-55 0 -56 70zM682 1628q0 25 19.5 44.5t43.5 19.5q25 0 45.5 -18.5t20.5 -45.5t-18.5 -45t-47.5 -18q-25 0 -44 19.5t-19 43.5z" />
<glyph unicode="&#x2c6;" d="M190 1376q0 35 33 54l254 147l271 -147q28 -17 28 -46t-15.5 -50t-39.5 -21q-16 0 -31 8l-213 115l-211 -115q-10 -6 -26 -6q-23 0 -36.5 17.5t-13.5 43.5z" />
<glyph unicode="&#x2dc;" d="M90 1374q0 35 35 56l254 139l242 -125l184 104q16 10 31 11q25 0 42 -19.5t17 -42.5q0 -27 -31 -45l-246 -135l-239 119l-211 -115q-10 -6 -27 -6q-20 0 -35.5 17.5t-15.5 41.5z" />
<glyph unicode="&#x2000;" horiz-adv-x="894" />
<glyph unicode="&#x2001;" horiz-adv-x="1788" />
<glyph unicode="&#x2002;" horiz-adv-x="894" />
<glyph unicode="&#x2003;" horiz-adv-x="1788" />
<glyph unicode="&#x2004;" horiz-adv-x="596" />
<glyph unicode="&#x2005;" horiz-adv-x="447" />
<glyph unicode="&#x2006;" horiz-adv-x="298" />
<glyph unicode="&#x2007;" horiz-adv-x="298" />
<glyph unicode="&#x2008;" horiz-adv-x="223" />
<glyph unicode="&#x2009;" horiz-adv-x="357" />
<glyph unicode="&#x200a;" horiz-adv-x="99" />
<glyph unicode="&#x2010;" horiz-adv-x="706" d="M80 336q0 55 55 55h440q58 0 58 -55q0 -27 -13.5 -43.5t-44.5 -16.5h-440q-25 0 -40 17.5t-15 42.5zM80 537q0 55 55 55h440q58 0 58 -55q0 -27 -13.5 -43.5t-44.5 -16.5h-440q-25 0 -40 17.5t-15 42.5z" />
<glyph unicode="&#x2011;" horiz-adv-x="706" d="M80 336q0 55 55 55h440q58 0 58 -55q0 -27 -13.5 -43.5t-44.5 -16.5h-440q-25 0 -40 17.5t-15 42.5zM80 537q0 55 55 55h440q58 0 58 -55q0 -27 -13.5 -43.5t-44.5 -16.5h-440q-25 0 -40 17.5t-15 42.5z" />
<glyph unicode="&#x2012;" horiz-adv-x="706" d="M80 336q0 55 55 55h440q58 0 58 -55q0 -27 -13.5 -43.5t-44.5 -16.5h-440q-25 0 -40 17.5t-15 42.5zM80 537q0 55 55 55h440q58 0 58 -55q0 -27 -13.5 -43.5t-44.5 -16.5h-440q-25 0 -40 17.5t-15 42.5z" />
<glyph unicode="&#x2013;" d="M37 590q0 27 17.5 46t47.5 19h781q63 1 63 -65q0 -27 -15.5 -47.5t-47.5 -20.5h-781q-29 0 -47 20.5t-18 47.5z" />
<glyph unicode="&#x2014;" horiz-adv-x="1720" d="M37 590q0 27 17.5 46t47.5 19h1508q63 1 63 -65q0 -27 -15.5 -47.5t-47.5 -20.5h-1508q-29 0 -47 20.5t-18 47.5z" />
<glyph unicode="&#x2018;" horiz-adv-x="393" d="M23 1133q0 27 3 42t13 33l94 168q16 31 51 31q29 0 49.5 -17.5t20.5 -46.5q0 -16 -8 -32q-2 -4 -10 -15q55 -16 87.5 -60t32.5 -103q0 -72 -49 -121t-119 -49t-117.5 50t-47.5 120zM150 1133q0 -37 38 -37q39 0 39 37q0 39 -39 38q-39 0 -38 -38z" />
<glyph unicode="&#x2019;" horiz-adv-x="393" d="M29 1227q0 72 49 121t119 49q72 0 121 -49t49 -121q0 -39 -19 -74l-94 -170q-16 -31 -51 -31q-27 0 -49.5 18.5t-22.5 47.5q0 14 8 31q2 4 11 14q-53 16 -87 62t-34 102zM160 1227q0 -39 37 -39q39 0 39 39q0 37 -39 37q-37 0 -37 -37z" />
<glyph unicode="&#x201a;" horiz-adv-x="393" d="M27 37q0 68 48 116t113 48q68 0 116 -48t48 -116q0 -39 -18 -70l-90 -164q-16 -29 -49 -28q-27 0 -48.5 17.5t-21.5 43.5q0 14 8 29q2 4 10 14q-53 18 -84.5 60.5t-31.5 97.5zM154 37q0 -37 34 -37q37 0 37 37t-37 37q-35 0 -34 -37z" />
<glyph unicode="&#x201c;" horiz-adv-x="765" d="M23 1133q0 27 3 42t13 33l94 168q16 31 51 31q29 0 49.5 -17.5t20.5 -46.5q0 -16 -8 -32q-2 -4 -10 -15q55 -16 87.5 -60t32.5 -103q0 -72 -49 -121t-119 -49t-117.5 50t-47.5 120zM150 1133q0 -37 38 -37q39 0 39 37q0 39 -39 38q-39 0 -38 -38zM397 1133q0 45 19 75 l94 168q14 31 51 31q27 0 48.5 -19.5t21.5 -44.5q0 -16 -8 -32q-2 -6 -11 -15q53 -16 86 -61t33 -102q0 -72 -47 -121t-119 -49q-70 0 -119 49t-49 121zM526 1133q0 -37 39 -37t39 37q0 39 -39 38q-39 0 -39 -38z" />
<glyph unicode="&#x201d;" horiz-adv-x="765" d="M29 1227q0 72 49 121t119 49q72 0 121 -49t49 -121q0 -39 -19 -74l-94 -170q-16 -31 -51 -31q-27 0 -49.5 18.5t-22.5 47.5q0 14 8 31q2 4 11 14q-53 16 -87 62t-34 102zM160 1227q0 -39 37 -39q39 0 39 39q0 37 -39 37q-37 0 -37 -37zM406 1227q0 72 47 121t120 49 q70 0 119 -49t49 -121q0 -39 -18 -74l-94 -170q-16 -31 -51 -31q-27 0 -48.5 19.5t-21.5 46.5q0 16 8 31q2 4 10 14q-53 16 -86.5 62t-33.5 102zM535 1227q0 -39 38 -39q39 0 39 39q0 37 -39 37t-38 -37z" />
<glyph unicode="&#x201e;" horiz-adv-x="765" d="M27 37q0 68 48 116t113 48q68 0 116 -48t48 -116q0 -39 -18 -70l-90 -164q-16 -29 -49 -28q-27 0 -48.5 17.5t-21.5 43.5q0 14 8 29q2 4 10 14q-53 18 -84.5 60.5t-31.5 97.5zM154 37q0 -37 34 -37q37 0 37 37t-37 37q-35 0 -34 -37zM389 37q0 66 47 115t115 49t115 -47 t47 -117q0 -39 -19 -70l-90 -164q-16 -29 -49 -28q-29 0 -48.5 17.5t-19.5 43.5q0 16 9 31q2 4 10 12q-53 18 -85 60.5t-32 97.5zM514 37q0 -37 37 -37t37 37t-37 37t-37 -37z" />
<glyph unicode="&#x2022;" horiz-adv-x="495" d="M57 416q0 78 53.5 133t133.5 55q78 0 133 -55t55 -133t-54 -134.5t-134 -56.5q-78 0 -132.5 56.5t-54.5 134.5zM186 416q0 -25 16.5 -41.5t41.5 -16.5t42 15.5t17 42.5q0 23 -17.5 39t-41.5 16q-25 0 -41.5 -14.5t-16.5 -40.5z" />
<glyph unicode="&#x2026;" horiz-adv-x="1966" d="M125 166q0 70 49 119t121 49q68 0 117 -49t49 -119t-48 -120t-118 -50q-68 0 -119 49t-51 121zM254 166q0 -39 41 -39q12 0 24.5 12.5t12.5 26.5q0 12 -12.5 24.5t-24.5 12.5q-14 0 -27.5 -12.5t-13.5 -24.5zM842 166q0 70 49 119t121 49q68 0 117 -49t49 -119 t-48.5 -120t-117.5 -50q-68 0 -119 49t-51 121zM971 166q0 -39 41 -39q12 0 24.5 12.5t12.5 26.5q0 12 -12.5 24.5t-24.5 12.5q-14 0 -27.5 -12.5t-13.5 -24.5zM1559 166q0 70 49 119t121 49q68 0 116.5 -49t48.5 -119t-48 -120t-117 -50q-68 0 -119 49t-51 121zM1688 166 q0 -39 41 -39q12 0 24 12.5t12 26.5q0 12 -12 24.5t-24 12.5q-14 0 -27.5 -12.5t-13.5 -24.5z" />
<glyph unicode="&#x202f;" horiz-adv-x="357" />
<glyph unicode="&#x2039;" d="M131 426l623 358q14 8 28 9q25 0 41.5 -18.5t16.5 -41.5q0 -31 -29 -47l-451 -260l451 -260q31 -18 31 -45t-16.5 -45.5t-41.5 -18.5q-12 0 -28 11z" />
<glyph unicode="&#x203a;" d="M145 121q0 29 29 45l453 260l-451 260q-29 16 -29 45q0 20 16.5 41t41.5 21q14 0 28 -9l623 -358l-625 -358q-16 -10 -30 -11q-23 0 -39.5 18.5t-16.5 45.5z" />
<glyph unicode="&#x205f;" horiz-adv-x="447" />
<glyph unicode="&#x2122;" horiz-adv-x="1495" d="M78 1460q0 12 10 21q10 8 27 8h409q37 0 37 -29q0 -12 -10 -24.5t-27 -12.5h-409q-37 0 -37 37zM82 1360q0 27 35 26h178v-573q0 -33 -27 -33q-29 0 -28 33v516h-125q-33 0 -33 31zM342 817v569h180q35 1 35 -24q0 -31 -33 -31h-125v-514q0 -18 -8 -26t-20 -9 q-29 0 -29 35zM647 817v455q0 80 75 149.5t163 69.5q63 0 116 -33q18 -10 43 -35q25 23 43 33q57 35 121 35q88 0 161 -66.5t73 -156.5v-453q0 -33 -27 -33q-31 0 -31 33v438q0 68 -54 120t-122 52q-70 0 -123 -45q-16 -14 -41 -45q-25 33 -40 47q-55 49 -119 50 q-70 0 -124 -48.5t-54 -109.5v-457q0 -14 -9 -24q-8 -10 -20 -11q-31 0 -31 35zM737 815v432q0 57 43 100.5t105 43.5q59 0 102 -41t43 -103v-430q0 -35 -33 -35q-31 0 -30 35v430q0 37 -22.5 59.5t-59.5 22.5q-31 0 -57.5 -28.5t-26.5 -51.5v-432q0 -35 -31 -35 q-33 0 -33 33zM1059 817v430q0 55 44 99.5t103 44.5t102.5 -41t43.5 -103v-430q0 -35 -33 -35t-33 35v430q0 33 -22.5 57.5t-57.5 24.5q-31 0 -56.5 -27.5t-25.5 -54.5v-430q0 -35 -32 -35q-33 0 -33 35z" />
<glyph unicode="&#x25fc;" horiz-adv-x="942" d="M0 0v942h942v-942h-942z" />
</font>
</defs>
</svg>
